<svg width="40" height="40" viewBox="0 0 40 40" fill="none" xmlns="http://www.w3.org/2000/svg">
<path d="M31.3285 38.3952C29.1316 40.506 26.733 40.1727 24.4241 39.1728C21.9806 38.1507 19.7389 38.1063 17.161 39.1728C13.9329 40.5504 12.2292 40.1505 10.3014 38.3952C-0.6381 27.2188 0.975923 10.1987 13.3949 9.57657C16.4212 9.7321 18.5284 11.2208 20.2994 11.3541C22.9446 10.8209 25.4777 9.28772 28.3022 9.48769C31.6872 9.75432 34.2427 11.0875 35.924 13.4872C28.9299 17.6422 30.5887 26.7744 37 29.3296C35.7222 32.6625 34.0634 35.9732 31.3061 38.4174L31.3285 38.3952ZM20.0752 9.44325C19.7389 4.48832 23.7964 0.39995 28.4591 0C29.1092 5.73261 23.2136 9.99874 20.0752 9.44325Z" fill="#C7A568"/>
</svg>
