<svg width="353" height="353" viewBox="0 0 353 353" fill="none" xmlns="http://www.w3.org/2000/svg">
<g opacity="0.3" clip-path="url(#clip0_135_9852)">
<path fill-rule="evenodd" clip-rule="evenodd" d="M177.679 316.101C182.865 325.162 184.081 337.349 171.877 344.351C165.961 347.739 159.728 347.646 154.805 344.65C155.086 344.426 155.385 344.201 155.647 343.92C159.204 340.251 158.418 335.252 154.618 331.564C149.77 326.847 143.649 325.911 139.811 327.277C139.156 327.502 139.156 328.401 139.774 328.7C145.558 331.377 140.672 336.432 143.499 341.468C150.032 352.869 163.229 356.295 174.872 349.611C190.97 340.382 189.266 324.17 182.921 313.068C182.359 312.095 181.76 311.159 181.105 310.279C167.758 290.697 143.087 290.734 119.183 290.809C95.3914 290.884 72.9101 290.978 62.3339 272.519C57.4109 263.907 59.0394 254.36 66.1526 250.297C68.8106 248.781 75.4933 246.141 80.2666 254.509C81.5207 256.7 81.8015 258.89 81.4646 260.762C79.6863 259.864 77.4213 259.957 75.2125 260.987C70.6264 263.121 68.324 267.127 68.2678 270.179C68.2678 270.703 68.8855 270.946 69.2599 270.591C73.116 266.846 75.4558 273.399 80.9217 270.871C81.1276 270.778 81.2961 270.666 81.4833 270.553C81.502 270.553 81.5395 270.553 81.5582 270.534C81.5956 270.516 81.6143 270.478 81.6518 270.46C82.1572 270.16 82.6252 269.842 82.9995 269.467C87.96 265.48 89.1955 257.86 85.5453 251.495C80.4912 242.678 71.6933 240.132 63.1388 245.037C53.0307 250.821 50.4287 263.945 57.0739 275.552C69.3909 297.081 94.7175 296.987 119.22 296.912C129.441 296.875 139.381 297.043 148.366 298.26C160.196 299.851 171.54 305.411 177.661 316.101" fill="#C7A568"/>
<path fill-rule="evenodd" clip-rule="evenodd" d="M62.3712 228.638C63.0825 239.065 58.8333 250.541 44.8129 251.496C37.9993 251.964 32.4585 249.156 29.3137 244.288C29.6694 244.213 30.0437 244.138 30.3994 244.007C35.2101 242.266 36.6702 237.418 34.8732 232.438C32.5708 226.073 27.4793 222.553 23.436 222.104C22.7434 222.029 22.3503 222.834 22.7808 223.377C26.8054 228.319 20.1976 230.734 20.5533 236.5C21.4331 249.605 31.8033 258.46 45.206 257.542C63.719 256.288 69.2785 240.956 68.4361 228.207C68.3612 227.084 68.2115 225.979 68.0243 224.912C64.58 201.474 42.3795 190.709 20.8528 180.319C18.1947 179.046 15.5741 177.773 12.9909 176.5H0C5.80284 179.832 12.0362 182.828 18.2134 185.804C27.4231 190.241 36.2771 194.753 43.8395 199.77C53.7792 206.378 61.5476 216.338 62.3712 228.638Z" fill="#C7A568"/>
<path fill-rule="evenodd" clip-rule="evenodd" d="M62.3712 124.381C63.0825 113.954 58.8333 102.459 44.8129 101.523C37.9993 101.074 32.4585 103.863 29.3137 108.731C29.6694 108.806 30.0437 108.88 30.3994 109.011C35.2101 110.752 36.6702 115.601 34.8732 120.581C32.5708 126.946 27.4793 130.466 23.436 130.915C22.7434 130.99 22.3503 130.185 22.7808 129.642C26.8054 124.7 20.1976 122.285 20.5533 116.519C21.4331 103.414 31.8033 94.559 45.206 95.4763C63.719 96.7306 69.2785 112.063 68.4361 124.812C68.3612 125.935 68.2115 127.04 68.0243 128.107C64.58 151.545 42.3795 162.31 20.8528 172.7C18.1947 173.973 15.5741 175.246 12.9909 176.519H0C5.80284 173.186 12.0362 170.191 18.2134 167.215C27.4231 162.778 36.2771 158.266 43.8395 153.249C53.7792 146.64 61.5476 136.681 62.3712 124.381Z" fill="#C7A568"/>
<path fill-rule="evenodd" clip-rule="evenodd" d="M177.679 36.8987C182.864 27.8378 184.081 15.6506 171.876 8.64896C165.961 5.26049 159.728 5.3541 154.805 8.34943C155.086 8.57408 155.385 8.79873 155.647 9.07954C159.204 12.7488 158.418 17.7473 154.618 21.4353C149.769 26.1529 143.648 27.089 139.811 25.7224C139.156 25.4977 139.156 24.5991 139.774 24.2996C145.558 21.6225 140.672 16.5679 143.499 11.532C150.05 0.130985 163.228 -3.29493 174.89 3.38841C190.988 12.6178 189.285 28.83 182.939 39.9315C182.378 40.905 181.779 41.841 181.124 42.7209C167.777 62.3029 143.106 62.2654 119.202 62.1905C95.41 62.1157 72.9286 62.0221 62.3525 80.4808C57.4294 89.0924 59.058 98.64 66.1711 102.702C68.8292 104.219 75.5118 106.858 80.2851 98.4902C81.5393 96.2999 81.8201 94.1096 81.4831 92.2188C79.7048 93.1173 77.4399 93.0238 75.231 91.9941C70.6449 89.8599 68.3425 85.8537 68.2863 82.8022C68.2863 82.278 68.9041 82.0346 69.2784 82.3903C73.1345 86.1345 75.4744 79.5822 80.9403 82.1095C81.1462 82.2031 81.3147 82.3154 81.5019 82.4278C81.5206 82.4278 81.558 82.4278 81.5767 82.4465C81.6142 82.4652 81.6329 82.5026 81.6703 82.5214C82.1757 82.8209 82.6437 83.1392 83.0181 83.5136C87.9786 87.5011 89.214 95.1205 85.5638 101.486C80.5098 110.322 71.7119 112.849 63.1574 107.944C53.0492 102.16 50.4473 89.0362 57.0925 77.4293C69.4095 55.9003 94.7361 55.9939 119.239 56.0688C129.46 56.1063 139.399 55.9378 148.384 54.7209C160.215 53.1297 171.558 47.5696 177.679 36.88" fill="#C7A568"/>
<path fill-rule="evenodd" clip-rule="evenodd" d="M62.3712 124.381C63.0825 113.954 58.8333 102.459 44.8129 101.523C37.9993 101.074 32.4585 103.863 29.3137 108.731C29.6694 108.806 30.0437 108.88 30.3994 109.011C35.2101 110.752 36.6702 115.601 34.8732 120.581C32.5708 126.946 27.4793 130.466 23.436 130.915C22.7434 130.99 22.3503 130.185 22.7808 129.642C26.8054 124.7 20.1976 122.285 20.5533 116.519C21.4331 103.414 31.8033 94.559 45.206 95.4763C63.719 96.7306 69.2785 112.063 68.4361 124.812C68.3612 125.935 68.2115 127.04 68.0243 128.107C64.58 151.545 42.3795 162.31 20.8528 172.7C18.1947 173.973 15.5741 175.246 12.9909 176.519H0C5.80284 173.186 12.0362 170.191 18.2134 167.215C27.4231 162.778 36.2771 158.266 43.8395 153.249C53.7792 146.64 61.5476 136.681 62.3712 124.381Z" fill="#C7A568"/>
<path fill-rule="evenodd" clip-rule="evenodd" d="M62.3712 228.638C63.0825 239.065 58.8333 250.541 44.8129 251.496C37.9993 251.964 32.4585 249.156 29.3137 244.288C29.6694 244.213 30.0437 244.138 30.3994 244.007C35.2101 242.266 36.6702 237.418 34.8732 232.438C32.5708 226.073 27.4793 222.553 23.436 222.104C22.7434 222.029 22.3503 222.834 22.7808 223.377C26.8054 228.319 20.1976 230.734 20.5533 236.5C21.4331 249.605 31.8033 258.46 45.206 257.542C63.719 256.288 69.2785 240.956 68.4361 228.207C68.3612 227.084 68.2115 225.979 68.0243 224.912C64.58 201.474 42.3795 190.709 20.8528 180.319C18.1947 179.046 15.5741 177.773 12.9909 176.5H0C5.80284 179.832 12.0362 182.828 18.2134 185.804C27.4231 190.241 36.2771 194.753 43.8395 199.77C53.7792 206.378 61.5476 216.338 62.3712 228.638Z" fill="#C7A568"/>
<path d="M94.6234 94.615C73.677 115.564 60.7049 144.525 60.7049 176.5C60.7049 208.475 73.6583 237.436 94.6234 258.385C115.57 279.333 144.528 292.307 176.5 292.307C208.471 292.307 237.43 279.352 258.376 258.385C279.322 237.436 292.294 208.475 292.294 176.5C292.294 144.525 279.341 115.564 258.376 94.615C237.411 73.6664 208.471 60.6929 176.5 60.6929C144.528 60.6929 115.57 73.6477 94.6234 94.615ZM54.4902 176.5C54.4902 142.802 68.155 112.287 90.2245 90.2156C112.313 68.1437 142.806 54.4775 176.5 54.4775C210.194 54.4775 240.705 68.1437 262.775 90.2156C284.863 112.306 298.509 142.802 298.509 176.5C298.509 210.197 284.844 240.712 262.775 262.784C240.687 284.875 210.194 298.522 176.5 298.522C142.806 298.522 112.294 284.856 90.2245 262.784C68.1363 240.694 54.4902 210.197 54.4902 176.5Z" fill="#C7A568"/>
<path fill-rule="evenodd" clip-rule="evenodd" d="M57.7293 178.41L57.0554 178.484C54.7343 178.765 52.2634 178.971 49.7925 179.196C47.3216 179.383 44.8507 179.963 42.5296 180.001C40.2084 180.001 38.0558 179.645 36.2026 179.196C34.3494 178.728 32.7958 178.204 31.7288 177.698C30.6431 177.211 30.0254 176.818 30.0254 176.818V176.144C30.0254 176.144 30.6431 175.751 31.7288 175.283C32.8145 174.778 34.3494 174.253 36.2026 173.785C38.0558 173.355 40.2272 172.98 42.5296 172.98C44.8507 173.037 47.3216 173.598 49.7925 173.785C52.2634 174.01 54.7343 174.216 57.0554 174.497L57.7293 174.572" fill="#C7A568"/>
<path fill-rule="evenodd" clip-rule="evenodd" d="M175.34 316.101C170.154 325.162 168.938 337.349 181.142 344.351C187.058 347.739 193.291 347.646 198.214 344.65C197.914 344.426 197.634 344.201 197.372 343.92C193.815 340.251 194.601 335.252 198.401 331.564C203.249 326.847 209.37 325.911 213.208 327.277C213.863 327.502 213.882 328.401 213.245 328.7C207.461 331.377 212.347 336.432 209.52 341.468C202.987 352.869 189.79 356.295 178.147 349.611C162.049 340.382 163.753 324.17 170.098 313.068C170.66 312.095 171.259 311.159 171.914 310.279C185.261 290.697 209.932 290.734 233.836 290.809C257.628 290.884 280.109 290.978 290.685 272.519C295.608 263.907 293.98 254.36 286.866 250.297C284.208 248.781 277.526 246.141 272.752 254.509C271.498 256.7 271.217 258.89 271.554 260.762C273.333 259.864 275.598 259.957 277.807 260.987C282.393 263.121 284.695 267.127 284.751 270.179C284.751 270.703 284.133 270.946 283.759 270.591C279.903 266.846 277.582 273.399 272.097 270.871C271.891 270.778 271.723 270.666 271.536 270.553C271.517 270.553 271.48 270.553 271.461 270.534C271.423 270.516 271.405 270.478 271.367 270.46C270.862 270.16 270.394 269.842 270.019 269.467C265.059 265.48 263.842 257.86 267.474 251.495C272.528 242.678 281.326 240.132 289.88 245.037C299.988 250.821 302.59 263.945 295.945 275.552C283.628 297.081 258.301 296.987 233.799 296.912C223.578 296.875 213.638 297.043 204.653 298.26C192.823 299.851 181.479 305.411 175.358 316.101" fill="#C7A568"/>
<path fill-rule="evenodd" clip-rule="evenodd" d="M290.629 228.638C289.918 239.065 294.167 250.541 308.187 251.496C315.001 251.964 320.561 249.156 323.668 244.288C323.312 244.213 322.957 244.138 322.582 244.007C317.771 242.266 316.311 237.418 318.108 232.438C320.411 226.073 325.502 222.553 329.546 222.104C330.238 222.029 330.631 222.834 330.201 223.377C326.176 228.319 332.784 230.734 332.428 236.5C331.548 249.605 321.178 258.46 307.776 257.542C289.263 256.288 283.684 240.956 284.545 228.207C284.62 227.084 284.751 225.979 284.957 224.912C288.402 201.474 310.602 190.709 332.129 180.319C334.787 179.046 337.407 177.773 339.991 176.5H352.982C347.179 179.832 340.945 182.828 334.768 185.804C325.558 190.241 316.704 194.753 309.142 199.77C299.202 206.378 291.434 216.338 290.61 228.638" fill="#C7A568"/>
<path fill-rule="evenodd" clip-rule="evenodd" d="M290.629 124.381C289.918 113.954 294.167 102.459 308.187 101.523C315.001 101.074 320.561 103.863 323.668 108.731C323.312 108.806 322.957 108.88 322.582 109.011C317.771 110.752 316.311 115.601 318.108 120.581C320.411 126.946 325.502 130.466 329.546 130.915C330.238 130.99 330.631 130.185 330.201 129.642C326.176 124.7 332.784 122.285 332.428 116.519C331.548 103.414 321.178 94.559 307.776 95.4763C289.263 96.7306 283.684 112.063 284.545 124.812C284.62 125.935 284.751 127.04 284.957 128.107C288.402 151.545 310.602 162.31 332.129 172.7C334.787 173.973 337.407 175.246 339.991 176.519H352.982C347.179 173.186 340.945 170.191 334.768 167.215C325.558 162.778 316.704 158.266 309.142 153.249C299.202 146.64 291.434 136.681 290.61 124.381" fill="#C7A568"/>
<path fill-rule="evenodd" clip-rule="evenodd" d="M175.34 36.8987C170.155 27.8378 168.938 15.6506 181.143 8.64896C187.058 5.26049 193.291 5.3541 198.214 8.34943C197.915 8.57408 197.634 8.79873 197.372 9.07954C193.815 12.7488 194.602 17.7473 198.402 21.4353C203.25 26.1529 209.371 27.089 213.208 25.7224C213.863 25.4977 213.882 24.5991 213.246 24.2996C207.461 21.6225 212.347 16.5679 209.521 11.532C202.969 0.130985 189.772 -3.29493 178.11 3.38841C162.012 12.6178 163.715 28.83 170.061 39.9315C170.623 40.905 171.222 41.841 171.877 42.7209C185.223 62.3029 209.895 62.2654 233.799 62.1905C257.59 62.1157 280.072 62.0221 290.648 80.4808C295.571 89.0924 293.942 98.64 286.829 102.702C284.171 104.219 277.489 106.858 272.715 98.4902C271.461 96.2999 271.18 94.1096 271.517 92.2188C273.296 93.1173 275.561 93.0238 277.769 91.9941C282.356 89.8599 284.658 85.8537 284.714 82.8022C284.714 82.278 284.096 82.0346 283.722 82.3903C279.866 86.1345 277.545 79.5822 272.06 82.1095C271.854 82.2031 271.686 82.3154 271.499 82.4278C271.48 82.4278 271.442 82.4278 271.424 82.4465C271.386 82.4652 271.368 82.5026 271.33 82.5214C270.825 82.8209 270.357 83.1392 269.982 83.5136C265.022 87.5011 263.805 95.1205 267.437 101.486C272.491 110.322 281.289 112.849 289.843 107.944C299.951 102.16 302.553 89.0362 295.908 77.4293C283.591 55.9003 258.264 55.9939 233.761 56.0688C223.541 56.1063 213.601 55.9378 204.616 54.7209C192.786 53.1297 181.442 47.5696 175.321 36.88" fill="#C7A568"/>
<path fill-rule="evenodd" clip-rule="evenodd" d="M290.629 124.381C289.918 113.954 294.167 102.459 308.187 101.523C315.001 101.074 320.561 103.863 323.668 108.731C323.312 108.806 322.957 108.88 322.582 109.011C317.771 110.752 316.311 115.601 318.108 120.581C320.411 126.946 325.502 130.466 329.546 130.915C330.238 130.99 330.631 130.185 330.201 129.642C326.176 124.7 332.784 122.285 332.428 116.519C331.548 103.414 321.178 94.559 307.776 95.4763C289.263 96.7306 283.684 112.063 284.545 124.812C284.62 125.935 284.751 127.04 284.957 128.107C288.402 151.545 310.602 162.31 332.129 172.7C334.787 173.973 337.407 175.246 339.991 176.519H352.982C347.179 173.186 340.945 170.191 334.768 167.215C325.558 162.778 316.704 158.266 309.142 153.249C299.202 146.64 291.434 136.681 290.61 124.381" fill="#C7A568"/>
<path fill-rule="evenodd" clip-rule="evenodd" d="M290.629 228.638C289.918 239.065 294.167 250.541 308.187 251.496C315.001 251.964 320.561 249.156 323.668 244.288C323.312 244.213 322.957 244.138 322.582 244.007C317.771 242.266 316.311 237.418 318.108 232.438C320.411 226.073 325.502 222.553 329.546 222.104C330.238 222.029 330.631 222.834 330.201 223.377C326.176 228.319 332.784 230.734 332.428 236.5C331.548 249.605 321.178 258.46 307.776 257.542C289.263 256.288 283.684 240.956 284.545 228.207C284.62 227.084 284.751 225.979 284.957 224.912C288.402 201.474 310.602 190.709 332.129 180.319C334.787 179.046 337.407 177.773 339.991 176.5H352.982C347.179 179.832 340.945 182.828 334.768 185.804C325.558 190.241 316.704 194.753 309.142 199.77C299.202 206.378 291.434 216.338 290.61 228.638" fill="#C7A568"/>
<path fill-rule="evenodd" clip-rule="evenodd" d="M295.271 178.41L295.945 178.484C298.267 178.765 300.737 178.971 303.208 179.196C305.679 179.383 308.15 179.963 310.471 180.001C312.792 180.001 314.945 179.645 316.798 179.196C318.651 178.728 320.186 178.204 321.272 177.698C322.358 177.211 322.975 176.818 322.975 176.818V176.144C322.975 176.144 322.358 175.751 321.272 175.283C320.186 174.778 318.651 174.253 316.798 173.785C314.945 173.355 312.774 172.98 310.471 172.98C308.15 173.037 305.679 173.598 303.208 173.785C300.737 174.01 298.267 174.216 295.945 174.497L295.271 174.572" fill="#C7A568"/>
<path fill-rule="evenodd" clip-rule="evenodd" d="M176.407 250.335C129.684 250.335 93.0703 230.491 93.0703 205.143C93.0703 203.439 94.4555 202.035 96.1776 202.035C97.8998 202.035 99.2662 203.421 99.2662 205.143C99.2662 215.365 107.559 224.819 120.83 231.858C126.933 230.416 140.204 225.081 143.387 206.229C139.549 204.881 135.824 203.29 132.118 201.38C130.602 200.594 130.003 198.722 130.789 197.205C131.332 196.138 132.417 195.521 133.54 195.521C134.027 195.521 134.514 195.633 134.963 195.876C147.336 202.279 160.14 205.124 176.407 205.124C194.657 205.124 206.17 201.418 217.869 195.857C219.423 195.127 221.257 195.783 221.987 197.318C222.717 198.853 222.062 200.706 220.527 201.455C216.783 203.233 213.021 204.806 209.127 206.191C212.328 225.38 226.03 230.603 231.983 231.933C245.386 224.893 253.753 215.402 253.753 205.143C253.753 203.439 255.138 202.035 256.86 202.035C258.582 202.035 259.949 203.421 259.949 205.143C259.949 230.472 223.26 250.335 176.407 250.335ZM160.552 243.259C165.194 243.783 169.986 244.064 174.853 244.12V211.302C172.588 211.283 170.398 211.19 168.264 211.059C167.983 221.28 166.261 233.805 160.57 243.259H160.552ZM165.175 210.834C162.424 210.591 159.747 210.235 157.145 209.786C156.228 226.56 148.684 235.883 143.574 240.282C147.917 241.349 152.484 242.21 157.201 242.847C163.416 233.449 164.932 219.858 165.175 210.834ZM177.96 244.12C182.734 244.064 187.432 243.802 191.981 243.315C186.253 233.861 184.531 221.318 184.25 211.096C182.247 211.227 180.132 211.283 177.942 211.302V244.12H177.96ZM195.35 242.903C200.086 242.266 204.653 241.424 209.015 240.357C203.905 235.995 196.305 226.653 195.369 209.804C192.842 210.254 190.146 210.572 187.338 210.815C187.582 219.858 189.098 233.486 195.331 242.884L195.35 242.903ZM124.799 233.842C129.366 235.939 134.402 237.792 139.83 239.309C144.154 236.107 153.214 227.234 154.094 209.205C151.454 208.663 148.89 208.007 146.363 207.221C143.293 224.369 132.174 231.202 124.799 233.842ZM206.17 207.221C203.717 207.989 201.115 208.625 198.439 209.205C199.318 227.552 208.472 236.313 212.796 239.402C218.281 237.886 223.372 236.051 227.996 233.936C220.621 231.352 209.296 224.538 206.188 207.221H206.17Z" fill="#C7A568"/>
<path fill-rule="evenodd" clip-rule="evenodd" d="M176.107 179.608H125.996C133.596 185.018 136.703 193.105 136.703 200.519C136.703 212.35 129.01 224.332 114.278 224.332C100.501 224.332 93.0698 214.054 93.0698 204.375C93.0698 195.876 99.977 188.968 108.475 188.968C115.607 188.968 121.41 194.772 121.41 201.904C121.41 203.608 120.025 204.993 118.303 204.993C116.581 204.993 115.214 203.608 115.214 201.904C115.214 198.179 112.182 195.165 108.475 195.165C103.403 195.165 99.2657 199.302 99.2657 204.375C99.2657 211.059 104.526 218.135 114.278 218.135C125.416 218.135 130.507 208.999 130.507 200.519C130.507 187.602 120.081 179.608 103.29 179.608H54.8271V173.411H176.107C177.81 173.411 179.195 174.796 179.195 176.519C179.195 178.222 177.81 179.608 176.107 179.608Z" fill="#C7A568"/>
<path fill-rule="evenodd" clip-rule="evenodd" d="M298.173 179.608H249.71C232.919 179.608 222.493 187.62 222.493 200.537C222.493 209.018 227.565 218.154 238.722 218.154C248.474 218.154 253.734 211.059 253.734 204.394C253.734 199.321 249.597 195.183 244.525 195.183C240.8 195.183 237.786 198.216 237.786 201.923C237.786 203.645 236.401 205.03 234.697 205.03C232.994 205.03 231.59 203.645 231.59 201.923C231.59 194.79 237.393 188.987 244.525 188.987C253.023 188.987 259.912 195.895 259.912 204.394C259.912 214.073 252.48 224.35 238.703 224.35C223.99 224.35 216.278 212.369 216.278 200.537C216.278 193.124 219.367 185.018 226.985 179.608H176.875C175.153 179.608 173.786 178.222 173.786 176.519C173.786 174.815 175.171 173.43 176.875 173.43H298.135" fill="#C7A568"/>
<path fill-rule="evenodd" clip-rule="evenodd" d="M176.407 102.684C129.684 102.684 93.0703 122.528 93.0703 147.876C93.0703 149.579 94.4555 150.965 96.1776 150.965C97.8998 150.965 99.2662 149.579 99.2662 147.876C99.2662 137.654 107.559 128.2 120.83 121.161C126.933 122.603 140.204 127.938 143.387 146.79C139.549 148.138 135.824 149.71 132.118 151.639C130.602 152.425 130.003 154.297 130.789 155.813C131.332 156.88 132.417 157.498 133.54 157.498C134.027 157.498 134.514 157.386 134.963 157.143C147.336 150.74 160.14 147.894 176.407 147.894C194.657 147.894 206.17 151.601 217.869 157.161C219.423 157.891 221.257 157.236 221.987 155.701C222.717 154.166 222.062 152.313 220.527 151.582C216.783 149.804 213.021 148.231 209.127 146.846C212.328 127.657 226.03 122.434 231.983 121.086C245.386 128.125 253.753 137.617 253.753 147.894C253.753 149.598 255.138 150.983 256.86 150.983C258.582 150.983 259.949 149.598 259.949 147.894C259.949 122.565 223.26 102.702 176.407 102.702M160.552 109.779C165.194 109.273 169.986 108.974 174.853 108.918V141.735C172.588 141.754 170.398 141.848 168.264 141.979C167.983 131.757 166.261 119.233 160.57 109.779H160.552ZM165.175 142.203C162.424 142.447 159.747 142.802 157.145 143.252C156.228 126.478 148.684 117.155 143.574 112.755C147.917 111.688 152.484 110.827 157.201 110.191C163.416 119.589 164.932 133.18 165.175 142.203ZM177.96 108.918C182.734 108.974 187.432 109.236 191.981 109.723C186.253 119.177 184.531 131.72 184.25 141.941C182.247 141.81 180.132 141.754 177.942 141.717V108.899L177.96 108.918ZM195.35 110.134C200.086 110.752 204.653 111.613 209.015 112.681C203.905 117.042 196.305 126.384 195.369 143.233C192.842 142.784 190.146 142.465 187.338 142.222C187.582 133.18 189.098 119.551 195.331 110.153L195.35 110.134ZM124.799 119.195C129.366 117.099 134.402 115.245 139.83 113.729C144.154 116.93 153.214 125.804 154.094 143.832C151.454 144.375 148.89 145.049 146.363 145.816C143.293 128.687 132.174 121.835 124.799 119.195ZM206.17 145.816C203.717 145.049 201.115 144.412 198.439 143.851C199.318 125.504 208.472 116.762 212.796 113.654C218.281 115.17 223.372 117.005 227.996 119.12C220.621 121.704 209.296 128.518 206.188 145.835L206.17 145.816Z" fill="#C7A568"/>
<path fill-rule="evenodd" clip-rule="evenodd" d="M184.081 173.411H125.996C133.596 168.001 136.703 159.857 136.703 152.462C136.703 140.631 129.01 128.649 114.278 128.649C100.501 128.649 93.0697 138.927 93.0697 148.606C93.0697 157.105 99.977 164.013 108.475 164.013C115.607 164.013 121.41 158.21 121.41 151.077C121.41 149.373 120.025 147.988 118.303 147.988C116.581 147.988 115.214 149.373 115.214 151.077C115.214 154.802 112.182 157.816 108.475 157.816C103.403 157.816 99.2657 153.679 99.2657 148.606C99.2657 141.922 104.526 134.827 114.278 134.827C125.416 134.827 130.507 143.963 130.507 152.444C130.507 165.361 120.081 173.392 103.29 173.392H54.8271V179.589H184.081C185.784 179.589 187.169 178.203 187.169 176.5C187.169 174.796 185.784 173.411 184.081 173.411Z" fill="#C7A568"/>
<path fill-rule="evenodd" clip-rule="evenodd" d="M298.173 173.411H249.71C232.919 173.411 222.493 165.398 222.493 152.481C222.493 144 227.565 134.865 238.722 134.865C248.474 134.865 253.734 141.96 253.734 148.624C253.734 153.698 249.597 157.835 244.525 157.835C240.8 157.835 237.786 154.802 237.786 151.096C237.786 149.373 236.401 147.988 234.697 147.988C232.994 147.988 231.59 149.373 231.59 151.096C231.59 158.228 237.393 164.032 244.525 164.032C253.023 164.032 259.912 157.124 259.912 148.624C259.912 138.946 252.48 128.668 238.703 128.668C223.99 128.668 216.278 140.649 216.278 152.481C216.278 159.894 219.367 168 226.985 173.411H176.875C175.153 173.411 173.786 174.796 173.786 176.5C173.786 178.203 175.171 179.589 176.875 179.589H298.135" fill="#C7A568"/>
<path fill-rule="evenodd" clip-rule="evenodd" d="M176.949 147.876C178.521 138.197 180.955 97.9096 181.142 88.4369C181.142 85.3667 180.674 82.5024 180.075 80.0312C179.439 77.5788 178.765 75.5195 178.091 74.0967C177.604 73.0109 177.099 72.1123 176.5 71.1201C175.882 72.1123 175.395 73.0109 174.909 74.0967C174.235 75.5195 173.561 77.5788 172.924 80.0312C172.344 82.5024 171.857 85.3667 171.857 88.4369C172.045 97.9658 174.478 138.178 176.05 147.876" fill="#C7A568"/>
<path fill-rule="evenodd" clip-rule="evenodd" d="M176.949 205.143C178.521 214.821 180.955 255.09 181.142 264.581C181.142 267.651 180.674 270.516 180.075 272.987C179.439 275.439 178.765 277.499 178.091 278.921C177.604 280.007 177.099 280.906 176.5 281.898C175.882 280.906 175.395 280.007 174.909 278.921C174.235 277.499 173.561 275.439 172.924 272.987C172.344 270.516 171.857 267.651 171.857 264.581C172.045 255.071 174.478 214.84 176.05 205.143" fill="#C7A568"/>
</g>
<defs>
<clipPath id="clip0_135_9852">
<rect width="353" height="353" fill="white"/>
</clipPath>
</defs>
</svg>
