<svg width="32" height="32" viewBox="0 0 32 32" fill="none" xmlns="http://www.w3.org/2000/svg">
<path d="M27 22.963C27 23.359 26.9119 23.766 26.7246 24.162C26.5373 24.558 26.2949 24.932 25.9755 25.284C25.4357 25.878 24.8408 26.307 24.1688 26.582C23.5078 26.857 22.7917 27 22.0205 27C20.8968 27 19.696 26.736 18.4291 26.197C17.1622 25.658 15.8953 24.932 14.6395 24.019C13.3726 23.095 12.1718 22.072 11.026 20.939C9.89134 19.795 8.8668 18.596 7.95243 17.342C7.04907 16.088 6.32198 14.834 5.79319 13.591C5.2644 12.337 5 11.138 5 9.994C5 9.246 5.1322 8.531 5.39659 7.871C5.66099 7.2 6.07962 6.584 6.6635 6.034C7.36855 5.341 8.13971 5 8.95493 5C9.2634 5 9.57186 5.066 9.84727 5.198C10.1337 5.33 10.3871 5.528 10.5854 5.814L13.1412 9.411C13.3395 9.686 13.4827 9.939 13.5819 10.181C13.681 10.412 13.7361 10.643 13.7361 10.852C13.7361 11.116 13.659 11.38 13.5048 11.633C13.3615 11.886 13.1522 12.15 12.8878 12.414L12.0506 13.283C11.9294 13.404 11.8743 13.547 11.8743 13.723C11.8743 13.811 11.8853 13.888 11.9074 13.976C11.9404 14.064 11.9735 14.13 11.9955 14.196C12.1938 14.559 12.5353 15.032 13.02 15.604C13.5158 16.176 14.0446 16.759 14.6174 17.342C15.2123 17.925 15.7852 18.464 16.3691 18.959C16.9419 19.443 17.4156 19.773 17.7902 19.971C17.8453 19.993 17.9114 20.026 17.9885 20.059C18.0766 20.092 18.1647 20.103 18.2639 20.103C18.4512 20.103 18.5944 20.037 18.7156 19.916L19.5528 19.091C19.8282 18.816 20.0926 18.607 20.346 18.475C20.5994 18.321 20.8528 18.244 21.1282 18.244C21.3375 18.244 21.5578 18.288 21.8002 18.387C22.0426 18.486 22.2959 18.629 22.5714 18.816L26.2178 21.401C26.5043 21.599 26.7026 21.83 26.8237 22.105C26.9339 22.38 27 22.655 27 22.963Z" stroke="#CAA769" stroke-width="2" stroke-miterlimit="10"/>
<path d="M23 13C23 12.3143 22.4629 11.2629 21.6629 10.4057C20.9314 9.61714 19.96 9 19 9" stroke="#CAA769" stroke-width="2" stroke-linecap="round" stroke-linejoin="round"/>
<path d="M27 13C27 8.57714 23.4229 5 19 5" stroke="#CAA769" stroke-width="2" stroke-linecap="round" stroke-linejoin="round"/>
</svg>
