<svg width="71" height="12" viewBox="0 0 71 12" fill="none" xmlns="http://www.w3.org/2000/svg">
<path fill-rule="evenodd" clip-rule="evenodd" d="M59.3033 2.75915C59.3033 2.80103 59.3033 2.84291 59.3033 2.88479C59.3033 4.90112 61.5629 5.5832 63.2243 5.5832C64.7286 5.5832 65.5926 5.09856 66.8794 4.4823C67.9246 3.97971 68.6617 3.85407 69.7854 4.32674C70.3835 4.57803 71.2353 4.14724 70.9393 3.48311C70.5466 2.5976 69.0544 1.68218 68.2206 1.25139C66.813 0.52743 65.1274 0.00689746 63.5264 0.000914307C63.5022 0.000914307 63.4841 0.000914307 63.4599 0.000914307H7.66648C3.86033 -0.0529341 0.241447 2.27451 0.0118713 6.25929C-0.181458 9.57994 2.00557 11.7997 5.31028 11.9912C7.56981 12.1228 9.88372 10.7766 10.3912 8.50896C10.4516 8.3175 10.4818 8.12006 10.4879 7.94654C10.4879 7.94056 10.4939 7.91065 10.4999 7.87475C10.4999 7.85082 10.4999 7.82688 10.4999 7.80295C10.4999 7.73713 10.512 7.6773 10.506 7.61149C10.4456 5.58918 8.43979 5.73278 8.80228 4.61393C8.97749 4.08143 8.40958 3.59081 7.9021 3.85407C6.63942 4.51221 6.03527 6.07382 6.07756 7.42003C6.09568 8.00039 6.2588 8.58076 6.59713 9.04745C6.24672 9.19104 5.85403 9.24489 5.47341 9.22096C3.70324 9.11924 2.70035 8.17989 2.80305 6.41486C2.94805 3.95578 5.38882 2.72325 7.66043 2.76513H59.3033V2.75915Z" fill="#C7A568"/>
</svg>
