<svg width="16" height="14" viewBox="0 0 16 14" fill="none" xmlns="http://www.w3.org/2000/svg">
<path d="M6.55383 0.277349C6.73634 -0.0924504 7.26366 -0.0924493 7.44617 0.27735L9.22384 3.87931C9.29631 4.02615 9.43641 4.12794 9.59846 4.15148L13.5735 4.72909C13.9816 4.78839 14.1445 5.2899 13.8492 5.57775L10.9729 8.38148C10.8556 8.49578 10.8021 8.66047 10.8298 8.82187L11.5088 12.7808C11.5785 13.1873 11.1519 13.4972 10.7869 13.3053L7.23153 11.4362C7.08658 11.36 6.91342 11.36 6.76847 11.4362L3.21313 13.3053C2.84811 13.4972 2.4215 13.1873 2.49121 12.7808L3.17022 8.82187C3.19791 8.66047 3.1444 8.49578 3.02713 8.38148L0.150797 5.57775C-0.144506 5.2899 0.0184467 4.78839 0.426545 4.72909L4.40154 4.15148C4.5636 4.12794 4.70369 4.02615 4.77616 3.87931L6.55383 0.277349Z" fill="#CAA769"/>
</svg>
