<svg width="40" height="40" viewBox="0 0 40 40" fill="none" xmlns="http://www.w3.org/2000/svg">
<path d="M36.696 22.1635L30.1643 25.8601L24.306 20.0384L30.211 14.1701L36.696 17.8401C37.0788 18.0565 37.3972 18.3707 37.6187 18.7505C37.8403 19.1303 37.957 19.5621 37.957 20.0018C37.957 20.4415 37.8403 20.8733 37.6187 21.2531C37.3972 21.6329 37.0788 21.947 36.696 22.1635ZM2.22768 1.54012C2.10458 1.84056 2.04117 2.1621 2.04102 2.48678V37.5151C2.04102 37.8768 2.11602 38.2135 2.24768 38.5151L20.8393 20.0368L2.22768 1.54012ZM22.5727 18.3151L28.0027 12.9184L5.74935 0.325115C5.27218 0.0515024 4.71683 -0.053581 4.17268 0.0267817L22.5727 18.3151ZM22.5727 21.7601L4.23935 39.9818C4.73602 40.0418 5.25935 39.9551 5.74935 39.6768L27.956 27.1101L22.5727 21.7601Z" fill="#C7A568"/>
</svg>
