<svg width="99" height="56" viewBox="0 0 99 56" fill="none" xmlns="http://www.w3.org/2000/svg">
<g clip-path="url(#clip0_133_441)">
<path fill-rule="evenodd" clip-rule="evenodd" d="M50.0728 53.0629C50.0728 53.0629 50.2736 50.1358 50.5166 45.7503C50.7914 41.3649 51.0133 35.5106 51.2828 29.6615C51.362 28.198 51.4413 26.7344 51.5152 25.2972C51.6103 23.8601 51.679 22.4388 51.6949 21.0703C51.6896 19.7018 51.6632 18.3756 51.5681 17.1181C51.4994 15.8659 51.399 14.677 51.2775 13.5727C50.8442 9.1873 50.0728 6.26014 50.0728 6.26014L49.7294 6.26543C49.7294 6.26543 48.9527 9.1873 48.5247 13.578C48.4084 14.677 48.308 15.8659 48.2394 17.1181C48.1443 18.3756 48.1178 19.7018 48.1126 21.0703C48.1284 22.4388 48.1971 23.8601 48.2922 25.2972C48.3662 26.7344 48.4454 28.198 48.5247 29.6615C48.7941 35.5106 49.0108 41.3596 49.2908 45.7503C49.518 50.1411 49.7241 53.0629 49.7241 53.0629" fill="#C7A568"/>
<path fill-rule="evenodd" clip-rule="evenodd" d="M43.3146 36.3402C43.3146 36.3402 43.0187 35.0932 42.4956 33.2492C42.2473 32.3246 41.9514 31.2467 41.608 30.1002C41.2804 28.9483 40.8894 27.7436 40.509 26.5284C40.1127 25.3184 39.8908 24.0398 39.4522 22.9355C38.9926 21.8418 38.3902 20.8907 37.8143 20.1034C37.2225 19.3215 36.6677 18.6927 36.2186 18.2859C35.7801 17.8685 35.4683 17.6518 35.4683 17.6518L35.1513 17.7892C35.1513 17.7892 35.0879 18.1591 35.0826 18.7667C35.0562 19.3743 35.1196 20.2091 35.2623 21.176C35.4261 22.1429 35.685 23.2367 36.1447 24.3304C36.6307 25.4188 37.3863 26.4703 37.9675 27.601C38.5699 28.7211 39.1511 29.8518 39.7428 30.8874C40.3188 31.9389 40.8894 32.9005 41.3702 33.73C42.3213 35.3891 43.0029 36.4828 43.0029 36.4828" fill="#C7A568"/>
<path fill-rule="evenodd" clip-rule="evenodd" d="M56.4024 36.0805C56.4024 36.0805 57.1104 35.0132 58.109 33.3805C58.6163 32.5669 59.208 31.6158 59.8157 30.5855C60.4391 29.5604 61.052 28.4509 61.6861 27.3413C62.299 26.2317 63.0863 25.1908 63.6041 24.1235C64.0954 23.0404 64.3808 21.952 64.5657 20.9956C64.74 20.0287 64.8193 19.1992 64.8193 18.5863C64.8246 17.9786 64.7718 17.6088 64.7718 17.6088L64.46 17.4661C64.46 17.4661 64.1483 17.6722 63.6992 18.079C63.2342 18.4806 62.6688 19.0882 62.0507 19.8543C61.4536 20.631 60.8301 21.561 60.3387 22.6441C59.8685 23.7378 59.6149 25.0165 59.1816 26.2106C58.7695 27.4153 58.3362 28.6094 57.9822 29.7559C57.6071 30.8919 57.2848 31.9645 57.0047 32.8786C56.4341 34.7067 56.1012 35.9484 56.1012 35.9484" fill="#C7A568"/>
<path fill-rule="evenodd" clip-rule="evenodd" d="M97.705 5.7055C94.445 8.66964 91.2589 11.7078 88.0464 14.7194C84.8234 17.7206 81.6638 20.7851 78.483 23.8179L69.0041 33.0115L60.3336 41.5235C57.2479 39.4523 54.6959 37.8514 50.8599 37.7985C50.3157 37.8038 49.7715 37.7563 49.2326 37.8091C47.0557 37.9253 44.9264 38.4907 42.9608 39.3995C42.4853 39.6531 41.9781 39.8539 41.5184 40.1445C41.064 40.4404 40.5885 40.694 40.1499 41.0163C39.7167 41.3439 39.2781 41.6556 38.866 42.0043L38.4856 42.3531L29.6196 33.635L19.9346 24.2353C16.6798 21.1285 13.4515 17.9953 10.1598 14.9255C6.87334 11.8504 3.61331 8.74889 0.284598 5.71606C3.31743 9.04478 6.41895 12.3048 9.49404 15.5913C12.5639 18.883 15.6971 22.1113 18.8039 25.3661L28.2194 35.0457L37.6825 44.6673L38.4275 45.4123L39.257 44.6673L40.3137 43.7163C40.6783 43.4151 41.0693 43.1403 41.4497 42.855C41.8354 42.575 42.2528 42.3584 42.6544 42.1047C43.056 41.8511 43.4945 41.6768 43.9172 41.4548C44.3346 41.2382 44.7943 41.1061 45.2275 40.9265C45.6661 40.7415 46.1363 40.6623 46.5854 40.5196C47.0346 40.377 47.5101 40.3453 47.9698 40.2449C48.4347 40.1498 48.905 40.1551 49.3699 40.0917C49.8349 40.0388 50.3052 40.0864 50.7807 40.0758C51.2509 40.0811 51.7106 40.1603 52.1809 40.1973C52.6458 40.2502 53.1002 40.377 53.5599 40.4562C54.0196 40.5672 54.4581 40.731 54.902 40.8578C55.3405 41.0216 55.7632 41.2224 56.1912 41.3967L57.4117 42.0783L58.5477 42.8867L59.5939 43.8166L60.434 44.5616L61.1578 43.8166L70.4095 34.4064L79.6031 24.9275C82.6413 21.7414 85.7058 18.5818 88.7016 15.3641C91.7133 12.1516 94.7462 8.96024 97.7156 5.70549" fill="#C7A568"/>
</g>
<defs>
<clipPath id="clip0_133_441">
<rect width="70" height="70" fill="white" transform="translate(49 55.9951) rotate(-135)"/>
</clipPath>
</defs>
</svg>
