<svg width="50" height="50" viewBox="0 0 50 50" fill="none" xmlns="http://www.w3.org/2000/svg">
<g clip-path="url(#clip0_13_7888)">
<path fill-rule="evenodd" clip-rule="evenodd" d="M49.0625 47.9772C49.0625 47.9772 47.6855 46.3973 45.5932 44.0596C43.517 41.7058 40.6722 38.6369 37.8541 35.5466C37.1549 34.7673 36.4558 33.9881 35.7672 33.2248C35.0894 32.4509 34.4062 31.6984 33.723 30.9992C33.0292 30.3107 32.346 29.6542 31.6628 29.0671C30.9957 28.4693 30.3445 27.9195 29.7254 27.4232C27.2916 25.427 25.4235 24.3382 25.4235 24.3382L25.2527 24.5143C25.2527 24.5143 26.3362 26.3824 28.3377 28.8162C28.8341 29.43 29.3838 30.0812 29.9816 30.7483C30.5687 31.4315 31.2252 32.1147 31.9137 32.8085C32.6129 33.4917 33.3654 34.1749 34.1394 34.8527C34.9026 35.5412 35.6818 36.2404 36.4611 36.9396C39.5514 39.7577 42.615 42.6025 44.9741 44.6787C47.3065 46.7816 48.8864 48.1533 48.8864 48.1533" fill="#C7A568"/>
<path fill-rule="evenodd" clip-rule="evenodd" d="M37.1992 42.9441C37.1992 42.9441 36.42 42.4637 35.2244 41.7966C34.632 41.455 33.9381 41.06 33.1856 40.6544C32.4383 40.2381 31.6324 39.8271 30.8265 39.4054C30.0152 38.9945 29.2573 38.4607 28.478 38.1245C27.6935 37.8042 26.9089 37.6281 26.2204 37.5214C25.5265 37.4253 24.9287 37.3879 24.4964 37.4093C24.0641 37.42 23.7972 37.468 23.7972 37.468L23.7065 37.6975C23.7065 37.6975 23.8613 37.9163 24.1655 38.2259C24.459 38.5461 24.9127 38.9358 25.4731 39.3521C26.0442 39.7577 26.7274 40.1793 27.512 40.4996C28.3072 40.8038 29.2199 40.9533 30.0846 41.2308C30.9546 41.4923 31.8192 41.7699 32.6411 41.994C33.4631 42.2342 34.237 42.4317 34.8988 42.6078C36.2172 42.9654 37.1138 43.1736 37.1138 43.1736" fill="#C7A568"/>
<path fill-rule="evenodd" clip-rule="evenodd" d="M43.6797 36.2029C43.6797 36.2029 43.4982 35.3063 43.178 33.9773C43.0232 33.3101 42.8417 32.5309 42.6282 31.7036C42.4254 30.871 42.1746 30.001 41.9344 29.1203C41.6835 28.2503 41.5554 27.327 41.2779 26.5264C40.979 25.7311 40.5734 25.0373 40.1837 24.4608C39.7834 23.8844 39.4045 23.4254 39.0949 23.1158C38.7907 22.8063 38.5772 22.6461 38.5772 22.6461L38.3477 22.7315C38.3477 22.7315 38.2943 22.9931 38.273 23.4254C38.241 23.8631 38.2623 24.4555 38.337 25.1547C38.4278 25.8485 38.5825 26.6331 38.8814 27.4284C39.1963 28.2183 39.7141 28.9922 40.0983 29.8142C40.4986 30.6308 40.8829 31.4527 41.2832 32.2106C41.6675 32.9739 42.0465 33.6784 42.3667 34.2815C43.0018 35.4931 43.4609 36.2883 43.4609 36.2883" fill="#C7A568"/>
<path fill-rule="evenodd" clip-rule="evenodd" d="M49.1994 0.000213553C49.05 3.14389 48.9752 6.28757 48.8738 9.43126C48.7617 12.5749 48.7137 15.7186 48.639 18.857L48.4949 28.288L48.4148 36.9665C45.8102 37.4789 43.7126 37.9592 41.7485 39.87C41.4763 40.1475 41.1774 40.3984 40.9319 40.6973C39.8911 41.8555 39.1012 43.2165 38.5675 44.6682C38.4554 45.0365 38.3006 45.3941 38.2152 45.7731C38.1351 46.152 38.0231 46.5203 37.9643 46.9046C37.911 47.2889 37.8469 47.6678 37.8149 48.0521L37.7989 48.4204L28.9176 48.4951L19.2784 48.6392C16.0653 48.7139 12.8523 48.7619 9.63919 48.874C6.42613 48.9808 3.21306 49.0608 -3.74611e-06 49.2103C3.21306 49.3597 6.42613 49.4398 9.63919 49.5465C12.8523 49.6586 16.0653 49.7067 19.2784 49.7814L28.9229 49.9148L38.5621 49.9949L39.3147 49.9949L39.3574 49.1996L39.4108 48.1855C39.4428 47.8493 39.5015 47.513 39.5495 47.1768C39.6029 46.8405 39.7043 46.5203 39.779 46.1894C39.8538 45.8585 39.9872 45.5489 40.0886 45.2233C40.19 44.9031 40.3555 44.6042 40.4836 44.2946C40.6117 43.9797 40.8091 43.7022 40.9639 43.4033C41.1187 43.1044 41.3429 42.8482 41.5243 42.5653C41.7111 42.2824 41.9513 42.0476 42.1541 41.7807C42.3623 41.5192 42.6238 41.3057 42.8587 41.0602C43.0988 40.8254 43.3711 40.6332 43.6272 40.4144C43.8888 40.2062 44.1823 40.0408 44.4545 39.8486C44.7427 39.6725 45.047 39.5337 45.3352 39.3736C45.6394 39.2348 45.9543 39.1228 46.2585 38.9947L47.2193 38.7225L48.2013 38.557L49.1994 38.4983L50 38.4503L49.9893 37.7084L49.9093 28.2827L49.7652 18.8516C49.6904 15.7079 49.6424 12.5643 49.5303 9.42592C49.4289 6.28224 49.3489 3.13856 49.2047 -0.00512321" fill="#C7A568"/>
</g>
<defs>
<clipPath id="clip0_13_7888">
<rect width="50" height="50" fill="white" transform="translate(50 50) rotate(-180)"/>
</clipPath>
</defs>
</svg>
