<svg width="119" height="31" viewBox="0 0 119 31" fill="none" xmlns="http://www.w3.org/2000/svg">
<g clip-path="url(#clip0_2005_2606)">
<path fill-rule="evenodd" clip-rule="evenodd" d="M71.7233 2.02778C71.8153 1.80105 71.8843 1.55395 71.8843 1.30939C71.8843 0.889062 71.6109 0.46109 71.1535 0.46109C70.6961 0.46109 70.4226 0.894157 70.4226 1.30939C70.4226 1.80869 70.7804 2.13477 71.2736 2.13477C71.4397 2.13477 71.5776 2.1042 71.7233 2.03032M64.5734 2.03032C64.6654 1.8036 64.737 1.5565 64.737 1.31194C64.737 0.89161 64.4636 0.463637 64.0036 0.463637C63.5436 0.463637 63.2702 0.896705 63.2702 1.31194C63.2702 1.81124 63.6305 2.13732 64.1211 2.13732C64.2872 2.13732 64.4252 2.10675 64.5709 2.03287L64.5734 2.03032ZM46.9211 2.2494C46.9211 3.11809 47.3811 4.12433 48.3802 4.12433C49.3793 4.12433 49.7805 3.08497 49.7805 2.24431C49.7805 1.40365 49.3538 0.463637 48.3802 0.463637C47.4066 0.463637 46.9211 1.37053 46.9211 2.2494ZM57.6178 4.12943C57.6178 3.89761 57.8069 3.70145 58.0394 3.70145C58.272 3.70145 58.4687 3.89506 58.4687 4.12943C58.4687 4.36379 58.272 4.54976 58.0394 4.54976C57.8069 4.54976 57.6178 4.36125 57.6178 4.12943ZM55.0216 2.79456H56.0565V2.17808C56.0565 2.16279 56.0565 2.09146 56.0514 2.07872C56.0386 2.07108 55.9721 2.07363 55.9568 2.07363H55.6297V1.64566H55.76C56.0795 1.64566 56.3989 1.63547 56.7183 1.6049L56.8486 1.59216L56.8793 1.89531V3.98677C56.8793 4.00205 56.8793 4.07338 56.8844 4.08612C56.8972 4.09376 56.9636 4.09376 56.9789 4.09376H57.3188V4.509H55.783V4.09376H56.0565V3.21489H55.0216V3.98677C55.0216 4.00205 55.0216 4.07338 55.0267 4.08612C55.0394 4.09376 55.1059 4.09376 55.1212 4.09376H55.4611V4.509H53.9253V4.09376H54.1987V2.17553C54.1987 2.16024 54.1987 2.08891 54.1936 2.07618C54.1808 2.06853 54.1144 2.07108 54.0991 2.07108H53.772V1.64311H53.9023C54.2217 1.64311 54.5411 1.63292 54.8606 1.60235L54.9909 1.58961L55.0216 1.89276V2.79456ZM53.0744 1.67877L53.1536 1.64311H53.4781V2.64681H53.0999L52.9236 2.17553C52.7882 2.0507 52.6297 2.0023 52.4458 2.0023C51.9066 2.0023 51.7737 2.63407 51.7737 3.0595C51.7737 3.48492 51.9909 4.06319 52.5071 4.06319C52.8035 4.06319 53.036 3.99696 53.2584 3.79571L53.3529 3.7091L53.6417 4.01224L53.5548 4.10141C53.2584 4.40965 52.8725 4.5574 52.4483 4.5574C51.5974 4.5574 50.9432 3.91289 50.9432 3.06204C50.9432 2.21119 51.5718 1.57178 52.4483 1.57178C52.6604 1.57178 52.8751 1.6049 53.0718 1.68387L53.0744 1.67877ZM71.4754 2.55255C71.3681 2.57293 71.2608 2.58057 71.1535 2.58057C70.4226 2.58057 69.5768 2.12713 69.5768 1.30939C69.5768 0.491659 70.4252 0.0382119 71.1535 0.0382119C71.8817 0.0382119 72.725 0.494207 72.725 1.30939C72.725 2.12458 72.0913 3.07478 71.6569 3.73712L71.3068 4.26954L70.5427 4.59052L70.392 4.24152L70.972 3.35755C71.1458 3.09261 71.3221 2.83022 71.4754 2.55255ZM67.1186 0.491659V2.01504H67.53C68.2864 2.01504 69.03 2.4532 69.03 3.27858C69.03 4.10395 68.1407 4.55485 67.4048 4.55485C66.9934 4.55485 66.702 4.5039 66.3162 4.35615L66.2038 4.31284L66.3239 3.91035L66.4491 3.94856C66.7608 4.04281 67.0164 4.09631 67.346 4.09631C67.8034 4.09631 68.1841 3.73967 68.1841 3.27858C68.1841 2.65445 67.6629 2.43027 67.1135 2.43027H66.2804V0.0815186H67.8162C68.0973 0.0815186 68.3758 0.0687813 68.6543 0.0407593L68.7847 0.028022L68.8179 0.328622V0.489112H67.1211L67.1186 0.491659ZM64.3256 2.55255C64.2208 2.57293 64.1109 2.58057 64.0036 2.58057C63.2728 2.58057 62.427 2.12713 62.427 1.30939C62.427 0.491659 63.2753 0.0382119 64.0036 0.0382119C64.7319 0.0382119 65.5751 0.494207 65.5751 1.30939C65.5751 2.12458 64.9414 3.07478 64.507 3.73712L64.1569 4.26954L63.3929 4.59052L63.2421 4.24152L63.8222 3.35755C63.9959 3.09261 64.1723 2.83022 64.3256 2.55255ZM60.6995 0.764237L60.398 0.886515L60.2242 0.478922L61.3895 0L61.5224 0.308242V4.49881L60.7328 4.55995L60.6995 4.26699V0.76169V0.764237ZM46.0625 2.27743C46.0625 0.957844 47.0719 0.028022 48.3776 0.028022C49.6834 0.028022 50.634 0.940012 50.634 2.24176C50.634 3.54351 49.6988 4.5574 48.3776 4.5574C47.0565 4.5574 46.0625 3.59956 46.0625 2.27743Z" fill="#C7A568"/>
<path fill-rule="evenodd" clip-rule="evenodd" d="M103.111 14.77V17.6869C103.111 17.7021 103.111 17.7454 103.103 17.748C103.223 17.8015 103.614 17.7989 103.768 17.7989C104.8 17.7989 105.707 17.4652 105.707 16.2883C105.707 15.6642 105.498 15.2438 104.897 15.0095C104.371 14.8031 103.691 14.7726 103.111 14.7675M94.6245 13.6339H95.4193C96.2574 13.5218 96.7608 13.1244 96.7608 12.2404C96.7608 11.8863 96.6842 11.5373 96.4107 11.2876C96.0249 10.9361 95.3554 10.8699 94.8571 10.8699C94.7804 10.8699 94.7012 10.8699 94.6245 10.8775V13.6339ZM94.6245 14.7675V17.6843C94.6245 17.6996 94.6245 17.7429 94.6169 17.7454C94.737 17.7989 95.1279 17.7964 95.2813 17.7964C96.3136 17.7964 97.2208 17.4627 97.2208 16.2858C97.2208 15.6616 97.0112 15.2413 96.4107 15.0069C95.8843 14.8006 95.2046 14.77 94.6245 14.7649V14.7675ZM83.3018 14.2478C83.3018 15.1114 83.5267 16.0386 84.0352 16.7468C84.5181 17.4168 85.1953 17.8015 86.0283 17.8015C86.8614 17.8015 87.4926 17.4117 87.9474 16.7417C88.4329 16.0259 88.6374 15.091 88.6374 14.2351C88.6374 12.6454 87.858 10.8699 86.0258 10.8699C84.1936 10.8699 83.2967 12.597 83.2967 14.2478H83.3018ZM53.9204 14.2478C53.9204 15.1114 54.1453 16.0386 54.6538 16.7468C55.1367 17.4168 55.8139 17.8015 56.647 17.8015C57.48 17.8015 58.1112 17.4117 58.566 16.7417C59.0515 16.0259 59.256 15.091 59.256 14.2376C59.256 12.648 58.4791 10.8724 56.647 10.8724C54.8148 10.8724 53.9178 12.5996 53.9178 14.2503L53.9204 14.2478ZM31.4487 14.2478C31.4487 15.1114 31.6735 16.0386 32.1821 16.7468C32.665 17.4168 33.3422 17.8015 34.1752 17.8015C35.0083 17.8015 35.6394 17.4117 36.0943 16.7417C36.5798 16.0259 36.7842 15.091 36.7842 14.2351C36.7842 12.6454 36.0074 10.8699 34.1752 10.8699C32.343 10.8699 31.4461 12.597 31.4461 14.2478H31.4487ZM23.5143 13.6339H24.309C25.1472 13.5218 25.6506 13.1244 25.6506 12.2404C25.6506 11.8863 25.5714 11.5373 25.3005 11.2876C24.9146 10.9361 24.2451 10.8699 23.7468 10.8699C23.6702 10.8699 23.591 10.8699 23.5143 10.8775V13.6339ZM23.5143 14.7675V17.6843C23.5143 17.6996 23.5143 17.7429 23.5066 17.7454C23.6267 17.7989 24.0177 17.7964 24.171 17.7964C25.2034 17.7964 26.1105 17.4627 26.1105 16.2858C26.1105 15.6616 25.901 15.2413 25.3005 15.0069C24.7741 14.8006 24.0944 14.77 23.5143 14.7649V14.7675ZM12.1916 14.2478C12.1916 15.1114 12.4164 16.0386 12.925 16.7468C13.4079 17.4168 14.0851 17.8015 14.9181 17.8015C15.7512 17.8015 16.3823 17.4117 16.8372 16.7417C17.3227 16.0259 17.5271 15.091 17.5271 14.2376C17.5271 12.648 16.7503 10.8724 14.9156 10.8724C13.0808 10.8724 12.1865 12.5996 12.1865 14.2503L12.1916 14.2478ZM52.2671 27.52H54.4979L53.371 24.4911L52.2671 27.52ZM44.0976 26.6131V29.5274C44.0976 29.5427 44.0976 29.586 44.09 29.5886C44.2101 29.6421 44.5985 29.6395 44.7518 29.6395C45.7816 29.6395 46.6888 29.3058 46.6888 28.1314C46.6888 27.5073 46.4792 27.0895 45.8813 26.8552C45.3574 26.6488 44.6777 26.6182 44.0976 26.6131ZM116.907 10.931H114.61V13.6364H115.078C115.397 13.6364 115.714 13.6313 116.033 13.6135C116.263 13.6007 116.491 13.5804 116.721 13.5574L117.129 13.5167L117.211 14.2758V14.77H114.61V17.6894C114.61 17.7072 114.61 17.7251 114.61 17.7454C114.625 17.7454 114.641 17.7454 114.653 17.7454H117.329L117.975 15.9724H119V18.8765H112.049V17.7429H112.591V10.987C112.591 10.9692 112.591 10.9514 112.591 10.931H111.625V9.81012H118.576V12.7142H117.564L116.905 10.931H116.907ZM108.071 10.931H107.105V9.81012H110.631V10.931H110.09V17.6869C110.09 17.7047 110.09 17.7225 110.09 17.7429C110.105 17.7429 110.12 17.7429 110.133 17.7429H111.055V18.8765H107.529V17.7429H108.071V10.987C108.071 10.9692 108.071 10.9514 108.071 10.931ZM103.108 10.931V13.6364H104.164C104.866 13.6364 105.623 13.7256 106.269 14.0109C107.21 14.4236 107.733 15.1776 107.733 16.2093C107.733 17.0423 107.406 17.7684 106.732 18.2702C106.009 18.8077 105.048 18.9708 104.164 18.9708C103.854 18.9708 103.543 18.9657 103.233 18.9453C102.983 18.93 102.733 18.9045 102.482 18.8765H100.548V17.7429H101.09V10.987C101.09 10.9692 101.09 10.9514 101.09 10.931H100.124V9.81012H103.65V10.931H103.108ZM97.9133 14.0593C98.7642 14.4872 99.2472 15.2133 99.2472 16.2093C99.2472 17.0423 98.9201 17.7684 98.2455 18.2702C97.5223 18.8077 96.5615 18.9708 95.6773 18.9708C95.3656 18.9708 95.0564 18.9657 94.7446 18.9453C94.4942 18.93 94.2438 18.9045 93.9934 18.8765H92.059V17.7429H92.6007V10.987C92.6007 10.9692 92.6007 10.9514 92.6007 10.931H91.6348V9.81012H93.9831C94.2055 9.77445 94.4278 9.74388 94.6501 9.7286C94.8877 9.71077 95.1279 9.70567 95.3681 9.70567C96.1169 9.70567 96.9397 9.83559 97.5964 10.2075C98.3502 10.6355 98.7616 11.3182 98.7616 12.1843C98.7616 12.9435 98.4882 13.5956 97.9107 14.0593H97.9133ZM81.2882 14.3089C81.2882 13.0938 81.7302 11.9245 82.594 11.0558C83.5088 10.1387 84.7405 9.70567 86.0232 9.70567C87.306 9.70567 88.5045 10.126 89.3988 11.0456C90.2319 11.9041 90.6407 13.053 90.6407 14.2376C90.6407 15.4222 90.2217 16.6424 89.3963 17.5391C88.5173 18.4944 87.3162 18.9708 86.0232 18.9708C84.7302 18.9708 83.4883 18.525 82.5761 17.5824C81.7251 16.7035 81.2882 15.5241 81.2882 14.3089ZM78.2013 10.931H77.1741V17.6869C77.1741 17.7047 77.1741 17.7225 77.1741 17.7429C77.1894 17.7429 77.2047 17.7429 77.2175 17.7429H78.14V18.8765H74.6264V17.7429H75.1681V10.931H74.1332L73.4867 12.7142H72.4748V9.81012H79.8725V12.7142H78.8632L78.2039 10.931H78.2013ZM69.1988 10.0114L69.6869 9.81012H70.5148V12.7142H69.4927L68.9867 11.359C68.5293 11.0227 67.9825 10.8724 67.4152 10.8724C65.5421 10.8724 64.6861 12.5868 64.6861 14.2503C64.6861 15.9138 65.6597 17.6614 67.5327 17.6614C68.3658 17.6614 69.1937 17.4678 69.8147 16.8819L70.1162 16.5991L70.9032 17.4245L70.617 17.7098C69.7636 18.5606 68.6136 18.9682 67.4152 18.9682C66.112 18.9682 64.8752 18.525 63.9629 17.5799C63.112 16.701 62.6801 15.5215 62.6801 14.3064C62.6801 13.0912 63.1171 11.922 63.9808 11.0533C64.8956 10.1336 66.1299 9.70312 67.4152 9.70312C68.0259 9.70312 68.6264 9.79993 69.1988 10.0114ZM51.9093 14.3064C51.9093 13.0912 52.3514 11.922 53.2151 11.0533C54.1299 10.1362 55.3616 9.70312 56.6444 9.70312C57.9272 9.70312 59.1256 10.1235 60.02 11.0431C60.8505 11.9016 61.2619 13.0505 61.2619 14.2351C61.2619 15.4196 60.8428 16.6398 60.0175 17.5366C59.1384 18.4918 57.9374 18.9682 56.6444 18.9682C55.3514 18.9682 54.1095 18.5224 53.1972 17.5799C52.3463 16.701 51.9093 15.5215 51.9093 14.3064ZM41.9818 17.7429C41.9971 17.7429 42.0125 17.7429 42.0253 17.7429H42.9477V18.8765H40.211V17.8754L40.7527 17.6639V10.987C40.7527 10.9692 40.7527 10.9514 40.7527 10.931H39.7868V9.81012H42.9145L45.4009 16.4513L47.8566 9.81012H50.4911V10.931H49.9494V17.6869C49.9494 17.7047 49.9494 17.7225 49.9494 17.7429C49.9647 17.7429 49.98 17.7429 49.9928 17.7429H50.9128V18.8765H47.3992V17.7429H47.9179V13.1193L45.9273 18.5071L44.2791 19.1695L41.9793 13.0046V17.6869C41.9793 17.7047 41.9793 17.7225 41.9793 17.7429H41.9818ZM29.4376 14.3064C29.4376 13.0912 29.8797 11.922 30.7434 11.0533C31.6582 10.1362 32.8899 9.70312 34.1727 9.70312C35.4555 9.70312 36.6539 10.1235 37.5483 11.0431C38.3813 11.9016 38.7902 13.0505 38.7902 14.2351C38.7902 15.4196 38.3711 16.6398 37.5457 17.5366C36.6667 18.4918 35.4657 18.9682 34.1727 18.9682C32.8797 18.9682 31.6378 18.5224 30.7255 17.5799C29.8746 16.701 29.4376 15.5215 29.4376 14.3064ZM26.803 14.0567C27.654 14.4872 28.1369 15.2107 28.1369 16.2068C28.1369 17.0398 27.8099 17.7658 27.1352 18.2677C26.4121 18.8052 25.4513 18.9682 24.5671 18.9682C24.2554 18.9682 23.9462 18.9631 23.6344 18.9427C23.384 18.9275 23.1336 18.902 22.8831 18.874H20.9487V17.7404H21.4905V10.9845C21.4905 10.9667 21.4905 10.9488 21.4905 10.9285H20.5246V9.80757H22.8729C23.0952 9.77191 23.3176 9.74134 23.5399 9.72605C23.7801 9.70822 24.0177 9.70312 24.2579 9.70312C25.0066 9.70312 25.8295 9.83305 26.4862 10.205C27.24 10.6329 27.6514 11.3157 27.6514 12.1818C27.6514 12.9409 27.378 13.5931 26.8005 14.0567H26.803ZM10.178 14.3064C10.178 13.0887 10.6175 11.922 11.4837 11.0533C12.3985 10.1362 13.6302 9.70312 14.913 9.70312C16.1958 9.70312 17.3943 10.1235 18.2886 11.0431C19.1217 11.9016 19.5305 13.0505 19.5305 14.2351C19.5305 15.4196 19.1114 16.6398 18.2861 17.5366C17.407 18.4918 16.206 18.9682 14.913 18.9682C13.62 18.9682 12.3781 18.5224 11.4658 17.5799C10.6149 16.701 10.178 15.5215 10.178 14.3064ZM76.9185 29.5835C76.9339 29.5835 76.9492 29.5835 76.962 29.5835H77.8819V30.7145H74.3479V29.5835H74.8896V25.2834L71.56 30.3783L70.0038 30.9973L69.669 30.2203V22.8353C69.669 22.8174 69.669 22.7996 69.669 22.7792C69.6537 22.7792 69.6383 22.7792 69.6256 22.7792H68.7056V21.6583H72.2269V22.7792H71.6852V28.0423L74.887 23.1562V21.6583H77.4551V22.7792H76.9134V29.5249C76.9134 29.5402 76.9134 29.5606 76.9134 29.5784L76.9185 29.5835ZM61.9442 29.5835C61.9595 29.5835 61.9749 29.5835 61.9876 29.5835H62.9076V30.7145H59.3863V29.5835H59.928V22.8378C59.928 22.82 59.928 22.8021 59.928 22.7818C59.9127 22.7818 59.8974 22.7818 59.8846 22.7818H58.9647V21.6609H62.4859V22.7818H61.9467V25.4821H65.1614V22.8378C65.1614 22.82 65.1614 22.8021 65.1614 22.7818C65.146 22.7818 65.1307 22.7818 65.1179 22.7818H64.198V21.6609H67.7193V22.7818H67.1775V29.5274C67.1775 29.5427 67.1775 29.5631 67.1775 29.5809C67.1929 29.5809 67.2082 29.5809 67.221 29.5809H68.1409V30.712H64.6196V29.5809H65.1614V26.6106H61.9467V29.5249C61.9467 29.5402 61.9467 29.5606 61.9467 29.5784L61.9442 29.5835ZM50.3097 29.4332L52.7424 22.82L52.4613 22.1016L54.3088 21.373L57.3037 29.3899C57.319 29.4332 57.3497 29.5274 57.3752 29.5809C57.4084 29.5835 57.4544 29.5835 57.4774 29.5835H58.3974V30.7145H54.8761V29.5835H55.2594L54.9093 28.6409H51.8531L51.5005 29.5835C51.5133 29.5835 51.5286 29.5835 51.5414 29.5835H52.308V30.7145H49.5865V29.7134L50.3122 29.4332H50.3097ZM46.3847 22.7818H44.09V25.4821H45.1453C45.8481 25.4821 46.6019 25.5738 47.2484 25.8565C48.1888 26.2692 48.71 27.0207 48.71 28.0525C48.71 28.8829 48.383 29.609 47.7083 30.1083C46.9877 30.6432 46.0269 30.8088 45.1453 30.8088C44.8361 30.8088 44.5244 30.8037 44.2152 30.7833C43.9648 30.768 43.7143 30.7426 43.4665 30.7145H41.5346V29.5835H42.0764V22.8378C42.0764 22.82 42.0764 22.8021 42.0764 22.7818C42.061 22.7818 42.0457 22.7818 42.0329 22.7818H41.113V21.6609H48.0533V24.5624H47.044L46.3872 22.7818H46.3847ZM2.98465 10.931V13.6364H6.20439V10.987C6.20439 10.9692 6.20439 10.9514 6.20439 10.931H5.23846V9.81012H8.76484V10.931H8.22311V17.6869C8.22311 17.7047 8.22311 17.7225 8.22311 17.7429C8.23844 17.7429 8.25377 17.7429 8.26655 17.7429H9.18648V18.8765H5.6601V17.7429H6.20183V14.7675H2.98465V17.6869C2.98465 17.7047 2.98465 17.7225 2.98465 17.7429C2.99998 17.7429 3.01531 17.7429 3.02809 17.7429H3.94801V18.8765H0.424188V17.7429H0.965922V10.987C0.965922 10.9692 0.965922 10.9514 0.965922 10.931H0V9.81012H3.52638V10.931H2.98465Z" fill="#5281A1"/>
<path fill-rule="evenodd" clip-rule="evenodd" d="M84.1063 27.9225C83.9632 27.7238 83.8942 27.4767 83.8865 27.2295C83.8712 26.6564 84.1267 25.9889 84.6582 25.7113C84.8729 25.5992 85.1105 25.8055 85.039 26.0348C84.8857 26.5112 85.734 26.45 85.7596 27.3111C85.7596 27.3391 85.7596 27.3671 85.757 27.3926C85.757 27.4028 85.757 27.413 85.757 27.4232C85.757 27.4359 85.7545 27.4486 85.7519 27.4512C85.7468 27.5251 85.7341 27.6091 85.7111 27.6932C85.4939 28.6587 84.5177 29.2318 83.562 29.1758C82.1642 29.0943 81.2392 28.1492 81.321 26.7353C81.4206 25.0387 82.9487 24.0478 84.5586 24.0707H108.157C108.157 24.0707 108.175 24.0707 108.185 24.0707C108.863 24.0707 109.573 24.2949 110.168 24.6031C110.521 24.7865 111.152 25.1763 111.318 25.5533C111.443 25.8361 111.083 26.0195 110.83 25.9125C110.355 25.7113 110.043 25.7673 109.601 25.9787C109.057 26.2411 108.691 26.4475 108.055 26.4475C107.35 26.4475 106.394 26.1545 106.394 25.2986C106.394 25.2807 106.394 25.2629 106.394 25.2451H84.5509C83.5901 25.2272 82.5578 25.752 82.4964 26.799C82.453 27.5505 82.8772 27.9505 83.6259 27.9938C83.7894 28.004 83.953 27.981 84.1012 27.9199M12.6025 25.2476C12.6025 25.2655 12.6025 25.2833 12.6025 25.3011C12.6025 26.1596 11.6468 26.45 10.9441 26.45C10.3078 26.45 9.94243 26.2437 9.39814 25.9813C8.95606 25.7673 8.64431 25.7138 8.16901 25.9151C7.91603 26.0221 7.55573 25.8386 7.68094 25.5559C7.84704 25.1788 8.47821 24.7891 8.83085 24.6057C9.42625 24.2974 10.1392 24.0758 10.8164 24.0732C10.8266 24.0732 10.8342 24.0732 10.8445 24.0732H34.4431C36.053 24.0503 37.5836 25.0413 37.6807 26.7379C37.7625 28.1517 36.8375 29.0968 35.4397 29.1784C34.484 29.2344 33.5053 28.6612 33.2906 27.6957C33.2651 27.6142 33.2523 27.5301 33.2498 27.4563C33.2498 27.4537 33.2472 27.441 33.2446 27.4257C33.2446 27.4155 33.2446 27.4053 33.2446 27.3951C33.2446 27.3671 33.2395 27.3416 33.2421 27.3136C33.2676 26.4526 34.116 26.5137 33.9627 26.0373C33.8886 25.8106 34.1288 25.6017 34.3434 25.7138C34.8775 25.994 35.133 26.6589 35.1152 27.2321C35.1075 27.4792 35.0385 27.7263 34.8954 27.925C35.0436 27.9861 35.2097 28.0091 35.3707 27.9989C36.1194 27.9556 36.5436 27.5556 36.5002 26.8041C36.4388 25.7571 35.4065 25.2323 34.4457 25.2502H12.6025V25.2476Z" fill="#C7A568"/>
<path d="M43.5383 2.78418H14.3281V3.1128H43.5383V2.78418Z" fill="#C7A568"/>
<path d="M104.672 2.78418H75.4619V3.1128H104.672V2.78418Z" fill="#C7A568"/>
</g>
<defs>
<clipPath id="clip0_2005_2606">
<rect width="119" height="31" fill="white"/>
</clipPath>
</defs>
</svg>
