<svg width="81" height="82" viewBox="0 0 81 82" fill="none" xmlns="http://www.w3.org/2000/svg">
<path fill-rule="evenodd" clip-rule="evenodd" d="M40.7196 73.3114C41.9188 75.4461 42.1978 78.312 39.3794 79.9571C38.0102 80.7535 36.5705 80.7339 35.4322 80.0289C35.4996 79.9766 35.5669 79.9244 35.6278 79.8591C36.4519 78.9974 36.2659 77.8191 35.3906 76.9509C34.2683 75.8411 32.8543 75.6191 31.9693 75.9423C31.8154 75.9978 31.8154 76.2099 31.9629 76.2785C33.3 76.9084 32.1713 78.0998 32.8254 79.2847C34.3356 81.9677 37.385 82.7739 40.0816 81.2007C43.8042 79.0301 43.413 75.2111 41.9445 72.6031C41.8162 72.3747 41.6752 72.156 41.5277 71.9471C38.4399 67.3415 32.7388 67.348 27.2078 67.3676C21.7055 67.3872 16.5079 67.4035 14.0646 63.0623C12.9263 61.0386 13.3047 58.7864 14.9464 57.8301C15.5588 57.4743 17.1043 56.8541 18.2105 58.8191C18.4991 59.3348 18.5664 59.8505 18.4863 60.2912C18.0726 60.0823 17.5532 60.1018 17.0402 60.3434C15.9788 60.846 15.4498 61.7893 15.4338 62.5042C15.4338 62.6282 15.5748 62.6837 15.6614 62.5988C16.5528 61.7175 17.0915 63.2614 18.358 62.6641C18.4061 62.6413 18.4446 62.6152 18.4895 62.589C18.4959 62.589 18.5023 62.589 18.5055 62.5825C18.5151 62.5792 18.5215 62.5695 18.528 62.5662C18.6466 62.4944 18.7524 62.4193 18.8422 62.3312C19.9869 61.3944 20.2723 59.5992 19.4322 58.101C18.265 56.0218 16.2289 55.4277 14.2506 56.5799C11.9131 57.941 11.3103 61.0321 12.8494 63.7641C15.6999 68.8299 21.5548 68.8103 27.2174 68.7875C29.5805 68.7809 31.8763 68.8201 33.9541 69.1041C36.6892 69.4795 39.312 70.7883 40.7293 73.3049" fill="white"/>
<path fill-rule="evenodd" clip-rule="evenodd" d="M14.5684 52.569C14.7336 54.8835 13.7427 57.4318 10.4657 57.6411C8.87577 57.7426 7.57727 57.1209 6.84869 56.0437C6.93288 56.0283 7.01707 56.013 7.10127 55.9822C8.2249 55.5975 8.56815 54.5203 8.14719 53.4154C7.60965 52.0027 6.42125 51.221 5.47571 51.1225C5.31381 51.104 5.2199 51.2826 5.32352 51.4026C6.26258 52.4982 4.72122 53.0338 4.80218 54.3141C5.00942 57.2225 7.42832 59.1861 10.5596 58.986C14.8825 58.709 16.181 55.3051 15.9803 52.4767C15.9641 52.2274 15.9317 51.9843 15.8864 51.7442C15.0833 46.5429 9.89903 44.1546 4.87018 41.8494C4.25169 41.5663 3.63644 41.2862 3.03415 41H0C1.35679 41.7386 2.81071 42.4034 4.25169 43.0651C6.40182 44.05 8.471 45.0502 10.2326 46.1644C12.5543 47.6293 14.3677 49.8422 14.562 52.569" fill="white"/>
<path fill-rule="evenodd" clip-rule="evenodd" d="M14.5684 28.7882C14.7336 26.3452 13.7427 23.6553 10.4657 23.4344C8.87577 23.3272 7.57727 23.9835 6.84869 25.1205C6.93288 25.1367 7.01707 25.1562 7.10127 25.1855C8.2249 25.5916 8.56815 26.7286 8.14719 27.8949C7.60965 29.386 6.42125 30.2112 5.47571 30.3151C5.31381 30.3346 5.2199 30.1462 5.32352 30.0195C6.26258 28.863 4.72122 28.2977 4.80218 26.9463C5.00942 23.8763 7.42832 21.8036 10.5596 22.0148C14.8825 22.3072 16.181 25.9002 15.9803 28.8857C15.9641 29.1489 15.9317 29.4055 15.8864 29.6589C15.0833 35.1491 9.89903 37.6701 4.87018 40.1034C4.25169 40.4022 3.63644 40.7011 3.03415 41H0C1.35679 40.2203 2.81071 39.5186 4.25169 38.8201C6.40182 37.7806 8.471 36.7248 10.2326 35.5487C12.5543 34.0024 14.3677 31.6666 14.562 28.7882" fill="white"/>
<path fill-rule="evenodd" clip-rule="evenodd" d="M40.7196 8.68965C41.9188 6.55469 42.1978 3.68849 39.3794 2.04321C38.0102 1.24668 36.5705 1.26626 35.4322 1.97139C35.4996 2.02362 35.5669 2.07585 35.6278 2.14114C36.4519 3.00296 36.2659 4.18143 35.3906 5.04977C34.2683 6.15969 32.8543 6.38167 31.9693 6.05849C31.8154 6.003 31.8154 5.79407 31.9629 5.72225C33.3 5.09221 32.1713 3.90068 32.8254 2.71569C34.3356 0.0322988 37.385 -0.774023 40.0816 0.799447C43.8042 2.97031 43.413 6.78973 41.9445 9.39804C41.8162 9.62655 41.6752 9.84527 41.5277 10.0542C38.4399 14.6603 32.7388 14.6538 27.2078 14.6342C21.7055 14.6146 16.5079 14.5951 14.0646 18.9401C12.9263 20.9673 13.3047 23.2165 14.9464 24.173C15.5588 24.5321 17.1043 25.1491 18.2105 23.1838C18.4991 22.6681 18.5664 22.1523 18.4863 21.7116C18.0726 21.9205 17.5532 21.9009 17.0402 21.6593C15.9788 21.1599 15.4498 20.2132 15.4338 19.4983C15.4338 19.3742 15.5748 19.3187 15.6614 19.4036C16.5528 20.285 17.0915 18.7409 18.358 19.3383C18.4061 19.3612 18.4446 19.3873 18.4895 19.4134C18.4959 19.4167 18.5023 19.4134 18.5055 19.4199C18.5151 19.4232 18.5215 19.433 18.528 19.4362C18.6466 19.5081 18.7524 19.5831 18.8422 19.6713C19.9869 20.6082 20.2723 22.4036 19.4322 23.8988C18.265 25.9782 16.2289 26.5724 14.2506 25.42C11.9131 24.0587 11.3103 20.9705 12.8494 18.2349C15.6999 13.1685 21.5548 13.1913 27.2174 13.2109C29.5805 13.2207 31.8763 13.1783 33.9541 12.8943C36.6892 12.5189 39.312 11.2098 40.7293 8.69291" fill="white"/>
<path fill-rule="evenodd" clip-rule="evenodd" d="M14.5684 28.7882C14.7336 26.3452 13.7427 23.6553 10.4657 23.4344C8.87577 23.3272 7.57727 23.9835 6.84869 25.1205C6.93288 25.1367 7.01707 25.1562 7.10127 25.1855C8.2249 25.5916 8.56815 26.7286 8.14719 27.8949C7.60965 29.386 6.42125 30.2112 5.47571 30.3151C5.31381 30.3346 5.2199 30.1462 5.32352 30.0195C6.26258 28.863 4.72122 28.2977 4.80218 26.9463C5.00942 23.8763 7.42832 21.8036 10.5596 22.0148C14.8825 22.3072 16.181 25.9002 15.9803 28.8857C15.9641 29.1489 15.9317 29.4055 15.8864 29.6589C15.0833 35.1491 9.89903 37.6701 4.87018 40.1034C4.25169 40.4022 3.63644 40.7011 3.03415 41H0C1.35679 40.2203 2.81071 39.5186 4.25169 38.8201C6.40182 37.7806 8.471 36.7248 10.2326 35.5487C12.5543 34.0024 14.3677 31.6666 14.562 28.7882" fill="white"/>
<path fill-rule="evenodd" clip-rule="evenodd" d="M14.5684 52.569C14.7336 54.8835 13.7427 57.4318 10.4657 57.6411C8.87577 57.7426 7.57727 57.1209 6.84869 56.0437C6.93288 56.0283 7.01707 56.013 7.10127 55.9822C8.2249 55.5975 8.56815 54.5203 8.14719 53.4154C7.60965 52.0027 6.42125 51.221 5.47571 51.1225C5.31381 51.104 5.2199 51.2826 5.32352 51.4026C6.26258 52.4982 4.72122 53.0338 4.80218 54.3141C5.00942 57.2225 7.42832 59.1861 10.5596 58.986C14.8825 58.709 16.181 55.3051 15.9803 52.4767C15.9641 52.2274 15.9317 51.9843 15.8864 51.7442C15.0833 46.5429 9.89903 44.1546 4.87018 41.8494C4.25169 41.5663 3.63644 41.2862 3.03415 41H0C1.35679 41.7386 2.81071 42.4034 4.25169 43.0651C6.40182 44.05 8.471 45.0502 10.2326 46.1644C12.5543 47.6293 14.3677 49.8422 14.562 52.569" fill="white"/>
<path d="M22.2103 22.2103C17.4015 27.0191 14.4258 33.6611 14.4258 41C14.4258 48.3389 17.4015 54.9809 22.2103 59.7897C27.0191 64.5985 33.6611 67.5742 41 67.5742C48.3389 67.5742 54.9809 64.5985 59.7897 59.7897C64.5985 54.9809 67.5742 48.3358 67.5742 41C67.5742 33.6642 64.5985 27.0191 59.7897 22.2103C54.9809 17.4015 48.3389 14.4258 41 14.4258C33.6611 14.4258 27.0191 17.4015 22.2103 22.2103ZM13 41C13 33.2664 16.1348 26.268 21.2014 21.2014C26.268 16.1348 33.2696 13 41 13C48.7304 13 55.732 16.1348 60.7986 21.2014C65.8652 26.268 69 33.2696 69 41C69 48.7304 65.8652 55.732 60.7986 60.7986C55.732 65.8652 48.7304 69 41 69C33.2696 69 26.268 65.8652 21.2014 60.7986C16.1348 55.732 13 48.7304 13 41Z" fill="white"/>
<path fill-rule="evenodd" clip-rule="evenodd" d="M13 41.5446L12.8557 41.5644C12.3537 41.6436 11.8186 41.703 11.2836 41.7663C10.7485 41.8218 10.2134 41.9842 9.71142 42C9.20942 42 8.74048 41.897 8.34068 41.7703C7.93788 41.6356 7.60421 41.4891 7.36974 41.3426C7.13527 41.2079 7 41.0931 7 41.0931V40.903C7 40.903 7.13527 40.7921 7.36974 40.6574C7.60421 40.5149 7.93788 40.3644 8.34068 40.2297C8.74349 40.103 9.21243 40 9.71142 40C10.2134 40.0158 10.7485 40.1782 11.2836 40.2297C11.8186 40.297 12.3537 40.3525 12.8557 40.4317L13 40.4515" fill="white"/>
<path fill-rule="evenodd" clip-rule="evenodd" d="M40.274 73.3114C39.0715 75.4461 38.7958 78.312 41.6142 79.9571C42.9834 80.7535 44.4231 80.7339 45.5646 80.0289C45.4972 79.9766 45.4299 79.9244 45.369 79.8591C44.5449 78.9974 44.7277 77.8191 45.6062 76.9509C46.7285 75.8411 48.1425 75.6191 49.0275 75.9423C49.1782 75.9978 49.1814 76.2099 49.0339 76.2785C47.6968 76.9084 48.8255 78.0998 48.1714 79.2847C46.6612 81.9677 43.6118 82.7739 40.9184 81.2007C37.1958 79.0301 37.587 75.2111 39.0555 72.6031C39.1838 72.3747 39.3248 72.156 39.4723 71.9471C42.5601 67.3415 48.2612 67.348 53.7922 67.3676C59.2945 67.3872 64.4921 67.4035 66.9354 63.0623C68.0737 61.0386 67.6953 58.7864 66.0536 57.8301C65.4412 57.4743 63.8957 56.8541 62.7895 58.8191C62.4977 59.3348 62.4336 59.8505 62.5137 60.2912C62.9274 60.0823 63.4468 60.1018 63.9598 60.3434C65.0212 60.846 65.5502 61.7893 65.5662 62.5042C65.5662 62.6282 65.4252 62.6837 65.3386 62.5988C64.4472 61.7175 63.9085 63.2614 62.642 62.6641C62.5939 62.6413 62.5554 62.6152 62.5105 62.589C62.5041 62.589 62.4977 62.589 62.4945 62.5825C62.4849 62.5792 62.4785 62.5695 62.472 62.5662C62.3534 62.4944 62.2476 62.4193 62.1578 62.3312C61.0131 61.3944 60.7277 59.5992 61.5678 58.101C62.7382 56.0218 64.7711 55.4277 66.7494 56.5799C69.0869 57.941 69.6897 61.0321 68.1506 63.7641C65.3001 68.8299 59.4452 68.8103 53.7826 68.7875C51.4195 68.7809 49.1237 68.8201 47.0459 69.1041C44.3108 69.4795 41.688 70.7883 40.2707 73.3049" fill="white"/>
<path fill-rule="evenodd" clip-rule="evenodd" d="M67.3451 52.569C67.1903 54.8835 68.1192 57.4318 71.1914 57.6411C72.682 57.7426 73.8963 57.1209 74.5824 56.0437C74.5035 56.0283 74.4245 56.013 74.3456 55.9822C73.2922 55.5975 72.9704 54.5203 73.365 53.4154C73.869 52.0027 74.9831 51.221 75.8695 51.1225C76.0213 51.104 76.1094 51.2826 76.0122 51.4026C75.1319 52.4982 76.5769 53.0338 76.498 54.3141C76.3037 57.2225 74.0359 59.1861 71.1004 58.986C67.0476 58.709 65.8303 55.3051 66.0185 52.4767C66.0367 52.2274 66.0671 51.9843 66.1065 51.7442C66.8594 46.5429 71.7197 44.1546 76.4342 41.8494C77.014 41.5663 77.5908 41.2862 78.1555 41H81C79.728 41.7386 78.365 42.4034 77.014 43.0651C74.9983 44.05 73.0584 45.0502 71.407 46.1644C69.2303 47.6293 67.5303 49.8422 67.3482 52.569" fill="white"/>
<path fill-rule="evenodd" clip-rule="evenodd" d="M67.3451 28.7882C67.1903 26.3452 68.1192 23.6553 71.1914 23.4344C72.682 23.3272 73.8963 23.9835 74.5824 25.1205C74.5035 25.1367 74.4245 25.1562 74.3456 25.1855C73.2922 25.5916 72.9704 26.7286 73.365 27.8949C73.869 29.386 74.9831 30.2112 75.8695 30.3151C76.0213 30.3346 76.1094 30.1462 76.0122 30.0195C75.1319 28.863 76.5769 28.2977 76.498 26.9463C76.3037 23.8763 74.0359 21.8036 71.1004 22.0148C67.0476 22.3072 65.8303 25.9002 66.0185 28.8857C66.0367 29.1489 66.0671 29.4055 66.1065 29.6589C66.8594 35.1491 71.7197 37.6701 76.4342 40.1034C77.014 40.4022 77.5908 40.7011 78.1555 41H81C79.728 40.2203 78.365 39.5186 77.014 38.8201C74.9983 37.7806 73.0584 36.7248 71.407 35.5487C69.2303 34.0024 67.5303 31.6666 67.3482 28.7882" fill="white"/>
<path fill-rule="evenodd" clip-rule="evenodd" d="M40.274 8.68965C39.0715 6.55469 38.7958 3.68849 41.6142 2.04321C42.9834 1.24668 44.4231 1.26626 45.5646 1.97139C45.4972 2.02362 45.4299 2.07585 45.369 2.14114C44.5449 3.00296 44.7277 4.18143 45.6062 5.04977C46.7285 6.15969 48.1425 6.38167 49.0275 6.05849C49.1782 6.003 49.1814 5.79407 49.0339 5.72225C47.6968 5.09221 48.8255 3.90068 48.1714 2.71569C46.6612 0.0322988 43.6118 -0.774023 40.9184 0.799447C37.1958 2.97031 37.587 6.78973 39.0555 9.39804C39.1838 9.62655 39.3248 9.84527 39.4723 10.0542C42.5601 14.6603 48.2612 14.6538 53.7922 14.6342C59.2945 14.6146 64.4921 14.5951 66.9354 18.9401C68.0737 20.9673 67.6953 23.2165 66.0536 24.173C65.4412 24.5321 63.8957 25.1491 62.7895 23.1838C62.4977 22.6681 62.4336 22.1523 62.5137 21.7116C62.9274 21.9205 63.4468 21.9009 63.9598 21.6593C65.0212 21.1599 65.5502 20.2132 65.5662 19.4983C65.5662 19.3742 65.4252 19.3187 65.3386 19.4036C64.4472 20.285 63.9085 18.7409 62.642 19.3383C62.5939 19.3612 62.5554 19.3873 62.5105 19.4134C62.5041 19.4167 62.4977 19.4134 62.4945 19.4199C62.4849 19.4232 62.4785 19.433 62.472 19.4362C62.3534 19.5081 62.2476 19.5831 62.1578 19.6713C61.0131 20.6082 60.7277 22.4036 61.5678 23.8988C62.7382 25.9782 64.7711 26.5724 66.7494 25.42C69.0869 24.0587 69.6897 20.9705 68.1506 18.2349C65.3001 13.1685 59.4452 13.1913 53.7826 13.2109C51.4195 13.2207 49.1237 13.1783 47.0459 12.8943C44.3108 12.5189 41.688 11.2098 40.2707 8.69291" fill="white"/>
<path fill-rule="evenodd" clip-rule="evenodd" d="M67.3451 28.7882C67.1903 26.3452 68.1192 23.6553 71.1914 23.4344C72.682 23.3272 73.8963 23.9835 74.5824 25.1205C74.5035 25.1367 74.4245 25.1562 74.3456 25.1855C73.2922 25.5916 72.9704 26.7286 73.365 27.8949C73.869 29.386 74.9831 30.2112 75.8695 30.3151C76.0213 30.3346 76.1094 30.1462 76.0122 30.0195C75.1319 28.863 76.5769 28.2977 76.498 26.9463C76.3037 23.8763 74.0359 21.8036 71.1004 22.0148C67.0476 22.3072 65.8303 25.9002 66.0185 28.8857C66.0367 29.1489 66.0671 29.4055 66.1065 29.6589C66.8594 35.1491 71.7197 37.6701 76.4342 40.1034C77.014 40.4022 77.5908 40.7011 78.1555 41H81C79.728 40.2203 78.365 39.5186 77.014 38.8201C74.9983 37.7806 73.0584 36.7248 71.407 35.5487C69.2303 34.0024 67.5303 31.6666 67.3482 28.7882" fill="white"/>
<path fill-rule="evenodd" clip-rule="evenodd" d="M67.3451 52.569C67.1903 54.8835 68.1192 57.4318 71.1914 57.6411C72.682 57.7426 73.8963 57.1209 74.5824 56.0437C74.5035 56.0283 74.4245 56.013 74.3456 55.9822C73.2922 55.5975 72.9704 54.5203 73.365 53.4154C73.869 52.0027 74.9831 51.221 75.8695 51.1225C76.0213 51.104 76.1094 51.2826 76.0122 51.4026C75.1319 52.4982 76.5769 53.0338 76.498 54.3141C76.3037 57.2225 74.0359 59.1861 71.1004 58.986C67.0476 58.709 65.8303 55.3051 66.0185 52.4767C66.0367 52.2274 66.0671 51.9843 66.1065 51.7442C66.8594 46.5429 71.7197 44.1546 76.4342 41.8494C77.014 41.5663 77.5908 41.2862 78.1555 41H81C79.728 41.7386 78.365 42.4034 77.014 43.0651C74.9983 44.05 73.0584 45.0502 71.407 46.1644C69.2303 47.6293 67.5303 49.8422 67.3482 52.569" fill="white"/>
<path fill-rule="evenodd" clip-rule="evenodd" d="M68 41.5446L68.1682 41.5644C68.7536 41.6436 69.3776 41.703 70.0015 41.7663C70.6254 41.8218 71.2494 41.9842 71.8348 42C72.4201 42 72.967 41.897 73.4367 41.7703C73.9029 41.6356 74.2954 41.4891 74.5688 41.3426C74.8423 41.2079 75 41.0931 75 41.0931V40.903C75 40.903 74.8423 40.7921 74.5688 40.6574C74.2954 40.5149 73.9064 40.3644 73.4367 40.2297C72.967 40.103 72.4201 40 71.8383 40C71.2529 40.0158 70.6289 40.1782 70.005 40.2297C69.3811 40.297 68.7571 40.3525 68.1718 40.4317L68.0035 40.4515" fill="white"/>
<path fill-rule="evenodd" clip-rule="evenodd" d="M56.6805 42.2826H54.8754V38.6043C55.0735 38.7701 55.2811 38.9294 55.5016 39.0824C55.8658 39.3343 56.2588 39.5637 56.6773 39.7709M58.7508 42.2826H56.9489V39.9016C57.5112 40.1566 58.115 40.3734 58.7508 40.5391V42.2826ZM60.8243 42.2826H59.0224V40.606C59.6006 40.7431 60.2045 40.8419 60.8243 40.8961V42.2826ZM61.9968 42.2826H61.0959V40.9184C61.393 40.9375 61.6933 40.9503 61.9968 40.9503V40.3192C59.5943 40.3192 57.4217 39.6498 55.8562 38.5693C55.377 38.2378 54.9521 37.868 54.6006 37.4664V44.2684H61.9968V42.2858V42.2826ZM24.3195 42.2826H26.1246V38.6043C25.9265 38.7701 25.7189 38.9294 25.4984 39.0824C25.1342 39.3343 24.7412 39.5637 24.3227 39.7709V42.2826H24.3195ZM22.246 42.2826H24.0511V39.9016C23.4888 40.1566 22.885 40.3734 22.246 40.5391V42.2826ZM20.1725 42.2826H21.9744V40.606C21.3962 40.7431 20.7923 40.8419 20.1725 40.8961V42.2826ZM19 42.2826H19.901V40.9184C19.6038 40.9375 19.3035 40.9503 19 40.9503V40.3192C21.4026 40.3192 23.5751 39.6498 25.1406 38.5693C25.6198 38.2378 26.0447 37.868 26.3994 37.4664V44.2684H19.0032V42.2858L19 42.2826ZM26.3962 45.5339H19V44.737H26.3962V45.5339ZM62 45.5339H54.6038V44.737H62V45.5339ZM49.1214 44.2652H31.8818V44.737H49.1214V44.2652ZM47.8978 42.2826H49.1214V36.8289C48.8115 37.3803 48.3994 37.8967 47.8978 38.3653V42.2826ZM45.8243 42.2826H47.6262V38.6043C47.4281 38.7701 47.2204 38.9326 47 39.0824C46.6358 39.3343 46.2428 39.5637 45.8243 39.7709V42.2826ZM43.7508 42.2826H45.5559V39.9016C44.9936 40.1566 44.3898 40.3734 43.7508 40.5391V42.2826ZM41.6773 42.2826H43.4792V40.606C42.901 40.7431 42.2971 40.8419 41.6773 40.8961V42.2826ZM39.6038 42.2826H41.4058V40.9184C41.1086 40.9375 40.8083 40.9503 40.5048 40.9503C40.2013 40.9503 39.901 40.9407 39.6038 40.9184V42.2826ZM37.5303 42.2826H39.3323V40.8961C38.7093 40.8419 38.1054 40.7431 37.5303 40.606V42.2826ZM35.4569 42.2826H37.262V40.5391C36.623 40.3734 36.0192 40.1566 35.4569 39.9016V42.2826ZM33.3834 42.2826H35.1853V39.7709C34.7668 39.5637 34.3738 39.3343 34.0096 39.0824C33.7891 38.9294 33.5783 38.7701 33.3834 38.6043V42.2826ZM31.8882 42.2826H33.1118V38.3653C32.6102 37.8999 32.1981 37.3835 31.8882 36.8289V42.2826ZM32.524 26.6928V26.8235H32.4792V28.3885H27.0383V26.8235H26.9936V26.6928H26.9361V26.4952H26.4888L27.6262 26.1669V25.2361H27.5623V25.0799H27.3355L27.5623 25.0481V25.0385H27.6262L29.2141 24.809V24.3405H29.147V24.1428H28.9776L29.6326 23.9006H29.7157L29.7252 22.6097C29.6933 22.5969 29.6677 22.5619 29.6677 22.5236C29.6677 22.4854 29.6933 22.4535 29.7252 22.4375V22.055C29.7061 22.0423 29.6901 22.02 29.6901 21.9913C29.6901 21.9626 29.7061 21.9371 29.7316 21.9276L29.738 21.1275C29.7125 21.1179 29.6965 21.0956 29.6965 21.0669C29.6965 21.0319 29.7252 21 29.7636 21C29.8019 21 29.8307 21.0287 29.8307 21.0669C29.8307 21.0956 29.8147 21.1179 29.7891 21.1275L29.7955 21.9276C29.8211 21.9403 29.8371 21.9626 29.8371 21.9913C29.8371 22.02 29.8211 22.0423 29.7987 22.055V22.4375C29.8339 22.4503 29.8594 22.4854 29.8594 22.5236C29.8594 22.5619 29.8371 22.5937 29.8019 22.6097L29.8115 23.9006H29.8946L30.5495 24.1428H30.3802V24.3405H30.3099V24.809L31.8978 25.0385H31.9617V25.0481L32.1885 25.0799H31.9617V25.2361H31.8978V26.1669L33.0351 26.4952H32.5879V26.6928H32.5304H32.524ZM54.0256 26.6928V26.8235H53.9808V28.3885H48.5399V26.8235H48.4952V26.6928H48.4377V26.4952H47.9904L49.1278 26.1669V25.2361H49.0639V25.0799H48.8371L49.0639 25.0481V25.0385H49.1278L50.7157 24.809V24.3405H50.6486V24.1428H50.4792L51.1342 23.9006H51.2173L51.2268 22.6097C51.1949 22.5969 51.1693 22.5619 51.1693 22.5236C51.1693 22.4854 51.1949 22.4535 51.2268 22.4375V22.055C51.2045 22.0423 51.1917 22.02 51.1917 21.9913C51.1917 21.9626 51.2077 21.9371 51.2332 21.9276L51.2396 21.1275C51.2141 21.1179 51.1981 21.0956 51.1981 21.0669C51.1981 21.0319 51.2268 21 51.2652 21C51.3035 21 51.3291 21.0287 51.3291 21.0669C51.3291 21.0956 51.3131 21.1179 51.2875 21.1275L51.2939 21.9276C51.3195 21.9403 51.3355 21.9626 51.3355 21.9913C51.3355 22.02 51.3195 22.0423 51.2971 22.055V22.4375C51.3323 22.4503 51.3578 22.4854 51.3578 22.5236C51.3578 22.5619 51.3355 22.5937 51.3003 22.6097L51.3099 23.9006H51.393L52.0479 24.1428H51.8786V24.3405H51.8115V24.809L53.3994 25.0385H53.4633V25.0481L53.6901 25.0799H53.4633V25.2361H53.3994V26.1669L54.5367 26.4952H54.0895V26.6928H54.0319H54.0256ZM31.8882 28.6085H27.6294V54.5002C27.6294 56.1959 26.7476 56.6135 25.3259 56.6135C25.3259 56.9768 25.4569 57.3051 25.722 57.6048C25.9872 57.8693 26.4505 58 27.1118 58C27.6741 58 28.2045 57.9012 28.6677 57.7036C29.099 57.5059 29.4601 57.2733 29.7604 56.9768C30.0575 57.2733 30.4217 57.5059 30.885 57.7036C31.3163 57.9012 31.8435 58 32.4058 58C33.0671 58 33.5304 57.8693 33.7955 57.6048C34.0607 57.3083 34.1917 56.9768 34.1917 56.6135C32.7923 56.6135 31.8882 56.1704 31.8882 54.5002V45.537H49.1278V54.5002C49.1278 56.1959 48.246 56.6135 46.8243 56.6135C46.8243 56.9768 46.9553 57.3051 47.2204 57.6048C47.4856 57.8693 47.9489 58 48.6102 58C49.1725 58 49.7029 57.9012 50.1661 57.7036C50.5974 57.5059 50.9617 57.2733 51.2588 56.9768C51.5559 57.2733 51.9201 57.5059 52.3834 57.7036C52.8147 57.9012 53.3419 58 53.9042 58C54.5655 58 55.0288 57.8693 55.2939 57.6048C55.5591 57.3083 55.6901 56.9768 55.6901 56.6135C54.2875 56.6135 53.3866 56.1704 53.3866 54.5002V28.6053H49.1278V34.4606C49.1278 36.0544 48.1789 37.5078 46.6486 38.5661C45.0831 39.6466 42.9105 40.316 40.508 40.316C38.1054 40.316 35.9329 39.6466 34.3674 38.5661C32.8339 37.5078 31.8882 36.0544 31.8882 34.4606V28.6053V28.6085Z" fill="white"/>
</svg>
