<svg width="265" height="154" viewBox="0 0 265 154" fill="none" xmlns="http://www.w3.org/2000/svg">
<g clip-path="url(#clip0_2053_1518)">
<path fill-rule="evenodd" clip-rule="evenodd" d="M206.488 40.4559C206.671 40.0055 206.813 39.5146 206.813 39.0287C206.813 38.1937 206.27 37.3435 205.362 37.3435C204.453 37.3435 203.91 38.2038 203.91 39.0287C203.91 40.0207 204.626 40.6684 205.6 40.6684C205.93 40.6684 206.204 40.6077 206.493 40.4609M192.293 40.4609C192.476 40.0105 192.618 39.5196 192.618 39.0338C192.618 38.1988 192.075 37.3486 191.166 37.3486C190.258 37.3486 189.715 38.2089 189.715 39.0338C189.715 40.0257 190.425 40.6735 191.405 40.6735C191.735 40.6735 192.009 40.6128 192.298 40.466L192.293 40.4609ZM58.2223 40.8962C58.2223 42.6219 59.1359 44.6209 61.1203 44.6209C63.1047 44.6209 63.8964 42.5561 63.8964 40.886C63.8964 39.216 63.0488 37.3486 61.1203 37.3486C59.1917 37.3486 58.2223 39.1502 58.2223 40.8962ZM79.467 44.631C79.467 44.1705 79.8426 43.7808 80.3044 43.7808C80.7662 43.7808 81.157 44.1705 81.157 44.631C81.157 45.0916 80.7662 45.4711 80.3044 45.4711C79.8426 45.4711 79.467 45.0966 79.467 44.631ZM74.3106 41.9792H76.3661V40.7545C76.3661 40.7241 76.3661 40.5824 76.3559 40.5571C76.3306 40.5419 76.1986 40.5419 76.1681 40.5419H75.5185V39.6917H75.7774C76.4118 39.6917 77.0462 39.6715 77.6805 39.6107L77.9394 39.5854L78.0003 40.1877V44.3527C78.0003 44.3831 78.0003 44.5248 78.0104 44.5501C78.0358 44.5652 78.1678 44.5602 78.1982 44.5602H78.8732V45.3851H75.823V44.5602H76.3661V42.8142H74.3106V44.3476C74.3106 44.378 74.3106 44.5197 74.3208 44.545C74.3462 44.5602 74.4781 44.5551 74.5086 44.5551H75.1836V45.38H72.1334V44.5551H72.6764V40.7494C72.6764 40.719 72.6764 40.5773 72.6663 40.552C72.6409 40.5369 72.5089 40.5369 72.4785 40.5369H71.8289V39.6866H72.0877C72.7221 39.6866 73.3565 39.6664 73.9909 39.6057L74.2497 39.5804L74.3157 40.1826V41.9741L74.3106 41.9792ZM70.4434 39.7626L70.6007 39.6917H71.2452V41.6857H70.4941L70.1439 40.7443C69.8749 40.4964 69.5603 40.4002 69.1949 40.4002C68.1291 40.4002 67.8601 41.6553 67.8601 42.5004C67.8601 43.3456 68.2915 44.4944 69.3116 44.4944C69.9003 44.4944 70.3622 44.3628 70.8037 43.963L70.9915 43.7909L71.565 44.3932L71.3924 44.5703C70.8037 45.1776 70.0373 45.4762 69.1949 45.4762C67.5048 45.4762 66.2005 44.1958 66.2005 42.5055C66.2005 40.8152 67.449 39.5449 69.1949 39.5449C69.6161 39.5449 70.0424 39.6107 70.4332 39.7676L70.4434 39.7626ZM205.996 41.4984C205.788 41.5389 205.57 41.5541 205.357 41.5541C203.905 41.5541 202.225 40.6533 202.225 39.0287C202.225 37.4042 203.91 36.5034 205.357 36.5034C206.803 36.5034 208.478 37.4143 208.478 39.0287C208.478 40.6431 207.219 42.5359 206.356 43.8517L205.661 44.9094L204.144 45.547L203.844 44.8487L204.996 43.0926C205.341 42.5662 205.692 42.045 205.996 41.4933V41.4984ZM197.343 37.4042V40.4356H198.16C199.662 40.4356 201.139 41.3061 201.139 42.9458C201.139 44.5855 199.373 45.4813 197.911 45.4813C197.094 45.4813 196.516 45.38 195.749 45.0865L195.526 45.0005L195.765 44.2009L196.013 44.2768C196.632 44.464 197.14 44.5703 197.795 44.5703C198.703 44.5703 199.459 43.8618 199.459 42.9458C199.459 41.7059 198.424 41.2605 197.333 41.2605H195.678V36.5894H198.728C199.287 36.5894 199.84 36.5641 200.393 36.5085L200.652 36.4832L200.718 37.0854V37.4042H197.348H197.343ZM191.796 41.4984C191.588 41.5389 191.369 41.5541 191.156 41.5541C189.705 41.5541 188.025 40.6533 188.025 39.0287C188.025 37.4042 189.71 36.5034 191.156 36.5034C192.603 36.5034 194.277 37.4143 194.277 39.0287C194.277 40.6431 193.019 42.5359 192.156 43.8517L191.461 44.9094L189.943 45.547L189.644 44.8487L190.796 43.0926C191.141 42.5662 191.491 42.045 191.796 41.4933V41.4984ZM184.594 37.9457L183.995 38.1886L183.65 37.3789L185.964 36.4275L186.228 37.0398V45.3649L184.66 45.4863L184.594 44.9043V37.9457ZM56.5171 40.9518C56.5171 38.3303 58.5218 36.4832 61.1152 36.4832C63.7086 36.4832 65.5966 38.2949 65.5966 40.881C65.5966 43.4671 63.734 45.4813 61.1152 45.4813C58.4964 45.4813 56.5171 43.5835 56.5171 40.9518Z" fill="#5281A1"/>
<path fill-rule="evenodd" clip-rule="evenodd" d="M215.781 94.8291V100.624C215.781 100.654 215.781 100.74 215.766 100.745C216.004 100.851 216.781 100.851 217.085 100.851C219.136 100.851 220.938 100.183 220.938 97.8504C220.938 96.6105 220.521 95.7755 219.329 95.3099C218.283 94.9 216.933 94.8392 215.781 94.8291ZM198.926 92.577H200.505C202.17 92.3594 203.169 91.57 203.169 89.8088C203.169 89.1053 203.017 88.412 202.474 87.9161C201.708 87.2177 200.378 87.0861 199.388 87.0861C199.236 87.0861 199.079 87.0911 198.926 87.1013V92.577ZM198.926 94.8291V100.624C198.926 100.654 198.926 100.74 198.911 100.745C199.15 100.851 199.926 100.851 200.231 100.851C202.281 100.851 204.083 100.183 204.083 97.8504C204.083 96.6105 203.667 95.7755 202.474 95.3099C201.429 94.9 200.079 94.8392 198.926 94.8291ZM176.438 93.7967C176.438 95.5123 176.885 97.3544 177.895 98.7613C178.854 100.092 180.199 100.857 181.854 100.857C183.508 100.857 184.762 100.082 185.665 98.7512C186.629 97.3291 187.035 95.4718 187.035 93.7714C187.035 90.6135 185.487 87.0861 181.849 87.0861C178.21 87.0861 176.428 90.5173 176.428 93.7967H176.438ZM118.084 93.7967C118.084 95.5123 118.531 97.3544 119.541 98.7613C120.5 100.092 121.845 100.857 123.499 100.857C125.154 100.857 126.407 100.082 127.311 98.7512C128.275 97.3291 128.681 95.4718 128.681 93.7714C128.681 90.6135 127.138 87.0861 123.499 87.0861C119.86 87.0861 118.079 90.5173 118.079 93.7967H118.084ZM73.4531 93.7967C73.4531 95.5123 73.8997 97.3544 74.9097 98.7613C75.8689 100.092 77.2138 100.857 78.8683 100.857C80.5228 100.857 81.7764 100.082 82.6797 98.7512C83.644 97.3291 84.05 95.4718 84.05 93.7714C84.05 90.6135 82.5072 87.0861 78.8683 87.0861C75.2294 87.0861 73.448 90.5173 73.448 93.7967H73.4531ZM57.6947 92.577H59.2731C60.9377 92.3594 61.9375 91.57 61.9375 89.8088C61.9375 89.1053 61.7802 88.412 61.2422 87.9161C60.4759 87.2177 59.1462 87.0861 58.1565 87.0861C58.0043 87.0861 57.8469 87.0911 57.6947 87.1013V92.577ZM57.6947 94.8291V100.624C57.6947 100.654 57.6947 100.74 57.6795 100.745C57.918 100.851 58.6945 100.851 58.999 100.851C61.0494 100.851 62.8511 100.183 62.8511 97.8504C62.8511 96.6105 62.4349 95.7755 61.2422 95.3099C60.1967 94.9 58.8467 94.8392 57.6947 94.8291ZM35.2066 93.7967C35.2066 95.5123 35.6532 97.3544 36.6632 98.7613C37.6224 100.092 38.9673 100.857 40.6218 100.857C42.2763 100.857 43.5299 100.082 44.4333 98.7512C45.3975 97.3291 45.8036 95.4718 45.8036 93.7714C45.8036 90.6135 44.2607 87.0861 40.6167 87.0861C36.9728 87.0861 35.1965 90.5173 35.1965 93.7967H35.2066ZM114.8 120.163H119.231L116.993 114.146L114.8 120.163ZM98.5752 118.362V124.146C98.5752 124.177 98.5752 124.263 98.56 124.268C98.7985 124.374 99.5699 124.369 99.8744 124.369C101.92 124.369 103.721 123.706 103.721 121.373C103.721 120.133 103.305 119.303 102.118 118.838C101.077 118.428 99.7272 118.367 98.5752 118.357V118.362ZM243.187 87.2025H238.624V92.577H239.553C240.188 92.577 240.817 92.5669 241.451 92.5315C241.908 92.5062 242.36 92.4657 242.817 92.4202L243.629 92.3392L243.791 93.8473V94.8291H238.624V100.629C238.624 100.664 238.624 100.7 238.624 100.74C238.655 100.74 238.685 100.74 238.711 100.74H244.024L245.308 97.2178H247.344V102.987H233.539V100.735H234.615V87.3138C234.615 87.2784 234.615 87.243 234.615 87.2025C234.585 87.2025 234.554 87.2025 234.529 87.2025H232.702V84.9757H246.506V90.745H244.496L243.187 87.2025ZM225.637 87.2025C225.607 87.2025 225.576 87.2025 225.551 87.2025H223.724V84.9757H230.728V87.2025H229.652V100.624C229.652 100.659 229.652 100.695 229.652 100.735C229.682 100.735 229.712 100.735 229.738 100.735H231.57V102.987H224.566V100.735H225.642V87.3138C225.642 87.2784 225.642 87.243 225.642 87.2025H225.637ZM215.781 87.2025V92.577H217.877C219.273 92.577 220.775 92.7592 222.059 93.321C223.927 94.1408 224.967 95.6388 224.967 97.6885C224.967 99.3433 224.318 100.786 222.978 101.783C221.541 102.85 219.633 103.174 217.877 103.174C217.263 103.174 216.644 103.164 216.03 103.124C215.532 103.093 215.035 103.043 214.538 102.987H210.696V100.74H211.772V87.3189C211.772 87.2835 211.772 87.248 211.772 87.2075C211.741 87.2075 211.711 87.2075 211.685 87.2075H209.853V84.9808H216.857V87.2075H215.781V87.2025ZM205.463 93.4171C207.153 94.2674 208.113 95.7097 208.113 97.6885C208.113 99.3433 207.463 100.786 206.123 101.783C204.687 102.85 202.779 103.174 201.023 103.174C200.403 103.174 199.789 103.164 199.17 103.124C198.673 103.093 198.175 103.043 197.678 102.987H193.836V100.74H194.912V87.3189C194.912 87.2835 194.912 87.248 194.912 87.2075C194.882 87.2075 194.851 87.2075 194.826 87.2075H192.994V84.9808H197.658C198.099 84.9099 198.541 84.8492 198.982 84.8189C199.454 84.7834 199.931 84.7733 200.408 84.7733C201.895 84.7733 203.53 85.0314 204.834 85.7703C206.331 86.6205 207.148 87.9768 207.148 89.6975C207.148 91.2056 206.605 92.5011 205.458 93.4222L205.463 93.4171ZM172.444 93.9131C172.444 91.494 173.322 89.1762 175.038 87.4505C176.855 85.6286 179.301 84.7682 181.849 84.7682C184.396 84.7682 186.777 85.6033 188.553 87.4302C190.207 89.1357 191.019 91.4181 191.019 93.7714C191.019 96.1247 190.187 98.5488 188.548 100.33C186.802 102.228 184.417 103.174 181.849 103.174C179.281 103.174 176.814 102.289 175.002 100.416C173.312 98.6702 172.444 96.3271 172.444 93.9131ZM166.313 87.2025H164.273V100.624C164.273 100.659 164.273 100.695 164.273 100.735C164.304 100.735 164.334 100.735 164.36 100.735H166.192V102.987H159.213V100.735H160.289V87.2025H158.234L156.95 90.745H154.94V84.9757H169.633V90.745H167.628L166.319 87.2025H166.313ZM148.434 85.3755L149.403 84.9757H151.047V90.745H149.017L148.012 88.0527C147.104 87.3847 146.018 87.0861 144.891 87.0861C141.171 87.0861 139.471 90.492 139.471 93.7967C139.471 97.1014 141.405 100.573 145.125 100.573C146.779 100.573 148.423 100.188 149.657 99.0245L150.256 98.4628L151.819 100.102L151.25 100.669C149.555 102.36 147.271 103.174 144.891 103.174C142.303 103.174 139.846 102.294 138.035 100.416C136.345 98.6702 135.487 96.3271 135.487 93.9131C135.487 91.4991 136.355 89.1762 138.07 87.4505C139.887 85.6235 142.338 84.7682 144.891 84.7682C146.104 84.7682 147.297 84.9606 148.434 85.3806V85.3755ZM114.095 93.908C114.095 91.489 114.973 89.1711 116.688 87.4454C118.505 85.6235 120.952 84.7632 123.499 84.7632C126.047 84.7632 128.427 85.5982 130.204 87.4252C131.853 89.1306 132.67 91.4131 132.67 93.7663C132.67 96.1196 131.838 98.5437 130.199 100.325C128.453 102.223 126.067 103.169 123.499 103.169C120.931 103.169 118.465 102.284 116.653 100.411C114.963 98.6652 114.095 96.322 114.095 93.908ZM94.378 100.735C94.4085 100.735 94.4389 100.735 94.4643 100.735H96.2964V102.987H90.8609V100.998L91.9369 100.578V87.3138C91.9369 87.2784 91.9369 87.243 91.9369 87.2025C91.9064 87.2025 91.876 87.2025 91.8506 87.2025H90.0235V84.9757H96.2355L101.174 98.1692L106.051 84.9757H111.283V87.2025H110.207V100.624C110.207 100.659 110.207 100.695 110.207 100.735C110.238 100.735 110.268 100.735 110.294 100.735H112.121V102.987H105.142V100.735H106.173V91.5497L102.219 102.253L98.9457 103.569L94.378 91.322V100.624C94.378 100.659 94.378 100.695 94.378 100.735ZM69.464 93.908C69.464 91.489 70.342 89.1711 72.0574 87.4454C73.8743 85.6235 76.3206 84.7632 78.8683 84.7632C81.416 84.7632 83.7963 85.5982 85.5726 87.4252C87.2271 89.1306 88.0391 91.4131 88.0391 93.7663C88.0391 96.1196 87.2068 98.5437 85.5675 100.325C83.8217 102.223 81.4363 103.169 78.8683 103.169C76.3003 103.169 73.8337 102.284 72.0219 100.411C70.3319 98.6652 69.464 96.322 69.464 93.908ZM64.2315 93.4121C65.9215 94.2623 66.8807 95.7046 66.8807 97.6834C66.8807 99.3383 66.2311 100.781 64.8913 101.778C63.455 102.845 61.5467 103.169 59.7907 103.169C59.1716 103.169 58.5575 103.159 57.9383 103.119C57.4409 103.088 56.9436 103.038 56.4462 102.982H52.6043V100.735H53.6802V87.3138C53.6802 87.2784 53.6802 87.243 53.6802 87.2025C53.6498 87.2025 53.6193 87.2025 53.5939 87.2025H51.7618V84.9757H56.4259C56.8674 84.9049 57.309 84.8442 57.7505 84.8138C58.2276 84.7784 58.6996 84.7682 59.1766 84.7682C60.6637 84.7682 62.2979 85.0263 63.6022 85.7652C65.0994 86.6154 65.9165 87.9717 65.9165 89.6924C65.9165 91.2005 65.3734 92.4961 64.2264 93.4171L64.2315 93.4121ZM31.2125 93.908C31.2125 91.489 32.0854 89.1711 33.8059 87.4454C35.6228 85.6235 38.069 84.7632 40.6167 84.7632C43.1645 84.7632 45.5447 85.5982 47.321 87.4252C48.9755 89.1306 49.7876 91.4131 49.7876 93.7663C49.7876 96.1196 48.9552 98.5437 47.316 100.325C45.5701 102.223 43.1848 103.169 40.6167 103.169C38.0487 103.169 35.5822 102.284 33.7703 100.411C32.0803 98.6652 31.2125 96.322 31.2125 93.908ZM163.766 124.258C163.796 124.258 163.827 124.258 163.852 124.258H165.679V126.505H158.66V124.258H159.736V115.715L153.123 125.837L150.032 127.066L149.367 125.523V110.852C149.367 110.816 149.367 110.781 149.367 110.74C149.337 110.74 149.307 110.74 149.281 110.74H147.454V108.513H154.448V110.74H153.372V121.196L159.731 111.489V108.513H164.832V110.74H163.756V124.141C163.756 124.177 163.756 124.212 163.756 124.253L163.766 124.258ZM134.025 124.258C134.056 124.258 134.086 124.258 134.112 124.258H135.939V126.505H128.945V124.258H130.021V110.857C130.021 110.821 130.021 110.786 130.021 110.745C129.99 110.745 129.96 110.745 129.935 110.745H128.108V108.519H135.101V110.745H134.03V116.11H140.415V110.857C140.415 110.821 140.415 110.786 140.415 110.745C140.384 110.745 140.354 110.745 140.329 110.745H138.502V108.519H145.495V110.745H144.419V124.146C144.419 124.182 144.419 124.217 144.419 124.258C144.45 124.258 144.48 124.258 144.505 124.258H146.333V126.505H139.339V124.258H140.415V118.357H134.03V124.146C134.03 124.182 134.03 124.217 134.03 124.258H134.025ZM110.918 123.959L115.75 110.821L115.191 109.394L118.861 107.947L124.809 123.873C124.839 123.959 124.9 124.146 124.951 124.253C125.017 124.258 125.108 124.258 125.154 124.258H126.981V126.505H119.987V124.258H120.749L120.053 122.385H113.983L113.283 124.258C113.308 124.258 113.339 124.258 113.364 124.258H114.887V126.505H109.482V124.516L110.923 123.959H110.918ZM103.123 110.745H98.565V116.11H100.661C102.057 116.11 103.554 116.287 104.838 116.854C106.706 117.674 107.741 119.166 107.741 121.211C107.741 122.861 107.091 124.303 105.751 125.295C104.32 126.358 102.412 126.687 100.661 126.687C100.047 126.687 99.4278 126.677 98.8137 126.636C98.3163 126.606 97.819 126.555 97.3267 126.5H93.4899V124.253H94.5658V110.852C94.5658 110.816 94.5658 110.781 94.5658 110.74C94.5353 110.74 94.5049 110.74 94.4795 110.74H92.6525V108.513H106.437V114.278H104.432L103.128 110.74L103.123 110.745ZM16.9258 87.2025V92.577H23.3206V87.3138C23.3206 87.2784 23.3206 87.243 23.3206 87.2025C23.2901 87.2025 23.2597 87.2025 23.2343 87.2025H21.4072V84.9757H28.411V87.2025H27.335V100.624C27.335 100.659 27.335 100.695 27.335 100.735C27.3655 100.735 27.3959 100.735 27.4213 100.735H29.2484V102.987H22.2446V100.735H23.3206V94.824H16.9258V100.624C16.9258 100.659 16.9258 100.695 16.9258 100.735C16.9563 100.735 16.9867 100.735 17.0121 100.735H18.8392V102.987H11.8354V100.735H12.9114V87.3138C12.9114 87.2784 12.9114 87.243 12.9114 87.2025C12.8809 87.2025 12.8505 87.2025 12.8251 87.2025H10.998V84.9757H18.0018V87.2025H16.9258Z" fill="#5281A1"/>
<path fill-rule="evenodd" clip-rule="evenodd" d="M153.443 27.379C147.87 21.8223 140.379 18.7301 132.497 18.7301C124.616 18.7301 117.125 21.8223 111.552 27.379C105.98 32.9358 102.874 40.4055 102.874 48.2649C102.874 56.1243 105.975 63.5941 111.552 69.1508C117.125 74.7076 124.616 77.7997 132.497 77.7997C140.379 77.7997 147.87 74.7076 153.443 69.1508C159.015 63.5941 162.116 56.1243 162.116 48.2649C162.116 40.4055 159.015 32.9358 153.443 27.379ZM134.35 142.117C134.147 142.365 134.015 142.664 133.944 142.983C133.604 144.43 134.137 145.463 135.593 145.802C137.725 146.293 139.324 144.466 139.77 142.553C139.963 141.733 140.024 140.903 139.943 140.063C138.918 137.036 140.8 134.121 143.536 132.79C149.636 129.825 155.452 133.939 160.35 137.284C162.4 138.686 164.522 140.098 166.745 141.206C169.404 142.532 172.53 142.988 175.281 141.652C177.849 140.402 179.341 138.089 177.976 135.29C177.408 134.131 176.443 133.261 175.2 133.023C175.332 134.476 174.241 135.478 172.83 135.726C171.373 135.979 169.567 135.584 168.653 134.339C168.343 133.914 168.714 133.337 169.232 133.423C169.795 133.514 170.003 133.317 170.272 132.861C170.663 132.198 170.917 131.636 171.658 131.272C174.956 129.663 178.494 131.009 180.087 134.268C182.062 138.307 180.062 141.94 176.311 143.762C176.042 143.894 175.763 144.01 175.484 144.111C169.45 146.48 163.801 142.492 159.025 139.228C156.736 137.664 154.224 135.893 151.631 134.885C149.246 133.959 146.921 133.757 144.566 134.906C143.237 135.554 142.054 136.809 142.024 138.352C142.125 138.742 142.201 139.137 142.252 139.536C142.272 139.587 142.298 139.643 142.323 139.693C142.978 141.034 144.104 141.318 145.444 140.67C145.739 140.528 145.997 140.331 146.195 140.078C145.754 139.875 145.394 139.511 145.14 139.091C144.551 138.114 144.348 136.712 144.998 135.71C145.262 135.306 145.876 135.432 145.972 135.903C146.175 136.874 147.581 135.948 148.464 137.416C148.494 137.461 148.515 137.512 148.54 137.563C148.55 137.578 148.56 137.593 148.571 137.613C148.581 137.639 148.591 137.664 148.591 137.669C148.657 137.801 148.718 137.962 148.753 138.124C149.322 140.012 148.195 141.94 146.475 142.775C145.059 143.464 143.47 143.59 142.12 142.831C142.1 142.922 142.085 143.008 142.064 143.094C141.318 146.303 138.522 148.899 135.066 148.099C134.507 147.973 133.974 147.765 133.492 147.467C133.528 147.806 133.553 148.15 133.584 148.489C133.639 149.122 133.782 149.749 133.797 150.392C133.797 150.979 133.71 151.556 133.579 152.123C133.472 152.532 133.345 152.968 133.167 153.347C133.101 153.499 133.01 153.696 132.914 153.843L132.797 154.015H132.208L132.091 153.843C131.995 153.696 131.904 153.504 131.833 153.347C131.655 152.968 131.523 152.532 131.422 152.123C131.285 151.561 131.203 150.979 131.203 150.392C131.219 149.749 131.361 149.122 131.416 148.489C131.447 148.145 131.477 147.806 131.508 147.467C131.026 147.76 130.493 147.968 129.935 148.099C126.478 148.899 123.682 146.303 122.936 143.094C122.916 143.008 122.895 142.917 122.875 142.831C121.525 143.595 119.936 143.469 118.52 142.775C116.8 141.94 115.673 140.012 116.242 138.124C116.277 137.957 116.338 137.801 116.404 137.669C116.404 137.664 116.414 137.639 116.424 137.613C116.435 137.598 116.44 137.578 116.455 137.563C116.48 137.512 116.501 137.466 116.531 137.416C117.414 135.943 118.825 136.874 119.023 135.903C119.119 135.437 119.733 135.311 119.997 135.71C120.647 136.712 120.444 138.114 119.855 139.091C119.601 139.511 119.241 139.875 118.8 140.078C118.998 140.331 119.261 140.528 119.551 140.67C120.891 141.323 122.017 141.039 122.672 139.693C122.697 139.643 122.718 139.592 122.743 139.536C122.794 139.137 122.87 138.742 122.971 138.352C122.941 136.804 121.758 135.548 120.429 134.906C118.074 133.762 115.749 133.964 113.364 134.885C110.771 135.893 108.258 137.664 105.97 139.228C101.189 142.492 95.5452 146.48 89.5108 144.111C89.2317 144.01 88.9525 143.894 88.6836 143.762C84.9381 141.94 82.9334 138.307 84.9076 134.268C86.5012 131.009 90.0335 129.658 93.3375 131.272C94.0835 131.636 94.3322 132.198 94.723 132.861C94.992 133.317 95.2001 133.514 95.7634 133.423C96.276 133.337 96.6516 133.914 96.342 134.339C95.4285 135.589 93.6217 135.984 92.1651 135.726C90.7593 135.478 89.6681 134.476 89.8001 133.023C88.5567 133.266 87.5873 134.131 87.024 135.29C85.6537 138.089 87.1458 140.402 89.7189 141.652C92.4696 142.988 95.5959 142.532 98.2553 141.206C100.478 140.098 102.6 138.686 104.65 137.284C109.548 133.939 115.364 129.825 121.464 132.79C124.2 134.121 126.082 137.031 125.057 140.063C124.976 140.898 125.042 141.733 125.23 142.553C125.676 144.466 127.28 146.298 129.407 145.802C130.868 145.463 131.396 144.435 131.056 142.983C130.985 142.669 130.848 142.37 130.65 142.117C130.356 142.502 129.919 142.77 129.452 142.922C128.366 143.276 126.95 143.16 126.113 142.305C125.778 141.96 126.037 141.389 126.514 141.399C127.509 141.419 126.915 139.845 128.554 139.314C128.61 139.299 128.661 139.288 128.711 139.273C128.727 139.268 128.747 139.263 128.762 139.258C128.782 139.258 128.803 139.248 128.823 139.248C128.98 139.212 129.143 139.192 129.305 139.192C130.559 139.106 131.731 139.724 132.497 140.685C133.264 139.724 134.436 139.111 135.69 139.192C135.852 139.192 136.02 139.212 136.172 139.248C136.192 139.248 136.213 139.253 136.238 139.258C136.258 139.258 136.273 139.268 136.289 139.273C136.339 139.283 136.395 139.293 136.446 139.314C138.08 139.845 137.486 141.419 138.481 141.399C138.958 141.389 139.222 141.955 138.882 142.305C138.05 143.16 136.634 143.276 135.543 142.922C135.076 142.77 134.639 142.502 134.345 142.117H134.35ZM178.042 120.963C177.758 120.574 177.621 120.078 177.606 119.587C177.575 118.448 178.083 117.122 179.138 116.57C179.565 116.348 180.037 116.758 179.895 117.208C179.59 118.155 181.275 118.033 181.326 119.749C181.326 119.804 181.326 119.86 181.321 119.911C181.321 119.931 181.321 119.951 181.321 119.971C181.321 119.997 181.316 120.022 181.31 120.027C181.3 120.174 181.275 120.341 181.229 120.503C180.798 122.421 178.859 123.559 176.961 123.448C174.185 123.286 172.348 121.409 172.51 118.6C172.708 115.229 175.743 113.261 178.94 113.306H225.81C225.81 113.306 225.845 113.306 225.865 113.306C227.21 113.306 228.621 113.752 229.804 114.364C230.504 114.728 231.758 115.498 232.088 116.252C232.336 116.813 231.621 117.178 231.118 116.965C230.174 116.565 229.555 116.677 228.677 117.102C227.596 117.623 226.87 118.033 225.607 118.033C224.206 118.033 222.308 117.451 222.308 115.751C222.308 115.715 222.308 115.68 222.308 115.644H178.925C177.017 115.609 174.967 116.651 174.845 118.731C174.758 120.224 175.601 121.019 177.088 121.105C177.413 121.125 177.738 121.08 178.032 120.958L178.042 120.963ZM36.0337 115.649C36.0337 115.685 36.0337 115.72 36.0337 115.756C36.0337 117.461 34.1356 118.038 32.74 118.038C31.4762 118.038 30.7505 117.628 29.6695 117.107C28.7915 116.682 28.1723 116.576 27.2283 116.97C26.7259 117.183 26.0103 116.818 26.259 116.257C26.5889 115.508 27.8424 114.733 28.5428 114.369C29.7253 113.757 31.1413 113.316 32.4862 113.311C32.5065 113.311 32.5217 113.311 32.542 113.311H79.4112C82.6086 113.266 85.6486 115.234 85.8415 118.605C86.0039 121.414 84.1666 123.291 81.3905 123.453C79.4924 123.564 77.5486 122.431 77.1223 120.508C77.0716 120.346 77.0462 120.179 77.0411 120.032C77.0411 120.027 77.036 120.002 77.031 119.971C77.031 119.951 77.031 119.931 77.031 119.911C77.031 119.855 77.0208 119.804 77.0259 119.749C77.0766 118.033 78.7616 118.155 78.4571 117.208C78.3099 116.758 78.787 116.343 79.2133 116.57C80.274 117.127 80.7815 118.448 80.746 119.587C80.7308 120.078 80.5937 120.569 80.3095 120.963C80.6039 121.085 80.9338 121.13 81.2535 121.11C82.7405 121.024 83.583 120.229 83.4967 118.736C83.3749 116.657 81.3246 115.614 79.4163 115.649H36.0287H36.0337ZM162.872 58.3561C161.319 63.0121 158.69 67.2834 155.133 70.8361C154.59 71.3776 154.026 71.8988 153.448 72.3999H170.972C174.789 72.3999 178.717 71.4636 181.351 68.5334C183.001 66.7014 183.985 64.1811 183.985 61.7165C183.985 56.0585 179.214 51.6506 173.606 51.6506C171.267 51.6506 168.917 52.2731 167.227 53.9684C165.928 55.2691 165.212 57.0454 165.212 58.8774C165.212 62.0809 167.582 64.7581 170.779 65.1022C170.977 65.1174 171.18 65.1376 171.383 65.1376C174.251 65.1376 176.601 63.7206 176.601 60.5981C176.601 59.3076 176.114 58.1031 175.098 57.344C174.576 58.7104 173.155 59.1304 171.784 58.7408C170.363 58.3308 168.912 57.1922 168.643 55.6689C168.551 55.1527 169.14 54.7984 169.561 55.097C170.028 55.4259 170.302 55.3399 170.744 55.0464C171.389 54.6213 171.861 54.2265 172.688 54.2215C176.362 54.2114 178.945 56.9745 178.945 60.5981C178.945 65.0971 175.55 67.4808 171.378 67.4808C166.618 67.4808 162.857 63.6447 162.857 58.8825C162.857 58.7104 162.857 58.5333 162.872 58.3612V58.3561ZM102.128 58.3561C102.138 58.5282 102.143 58.7053 102.143 58.8774C102.143 63.6396 98.3822 67.4757 93.6268 67.4757C89.455 67.4757 86.0597 65.0921 86.0597 60.593C86.0597 56.9695 88.648 54.2113 92.3174 54.2164C93.1446 54.2164 93.6217 54.6162 94.2612 55.0413C94.7027 55.3349 94.9768 55.4209 95.4437 55.0919C95.87 54.7933 96.4587 55.1476 96.3623 55.6638C96.0882 57.1871 94.6418 58.3308 93.2207 58.7357C91.8454 59.1304 90.4243 58.7053 89.9067 57.3389C88.8916 58.098 88.4044 59.3025 88.4044 60.593C88.4044 63.7206 90.7542 65.1326 93.6217 65.1326C93.8247 65.1326 94.0277 65.1123 94.2256 65.0971C97.423 64.7581 99.7931 62.0809 99.7931 58.8723C99.7931 57.0403 99.0775 55.264 97.7783 53.9634C96.0882 52.268 93.7384 51.6455 91.3988 51.6455C85.7907 51.6455 81.02 56.0484 81.02 61.7115C81.02 64.1761 82.0046 66.6963 83.6541 68.5284C86.2881 71.4585 90.2163 72.3948 94.0328 72.3948H111.557C110.979 71.8938 110.415 71.3725 109.872 70.831C106.31 67.2783 103.686 63.007 102.133 58.3511L102.128 58.3561ZM131.584 16.3667C131.518 15.805 131.467 15.2382 131.422 14.6714C131.366 14.0388 131.224 13.4112 131.208 12.7685C131.208 12.1814 131.29 11.5995 131.427 11.0377C131.528 10.6278 131.66 10.1926 131.838 9.81299C131.909 9.65611 132 9.4638 132.097 9.31704L132.213 9.14497L132.508 8.72492L132.802 9.14497L132.919 9.31704C133.015 9.45874 133.107 9.65611 133.172 9.81299C133.35 10.1875 133.477 10.6278 133.584 11.0377C133.721 11.6045 133.802 12.1814 133.802 12.7685C133.787 13.4112 133.644 14.0388 133.589 14.6714C133.538 15.2382 133.492 15.805 133.426 16.3667C136.294 16.4477 139.1 16.9082 141.795 17.718C137.527 15.5266 135.213 10.5772 133.162 6.33117C132.949 5.89088 132.736 5.44553 132.518 5.00524C132.3 5.44553 132.086 5.88582 131.873 6.33117C129.823 10.5671 127.514 15.5114 123.261 17.7028C125.94 16.8981 128.737 16.4426 131.594 16.3617L131.584 16.3667ZM112.801 23.1128C115.181 21.2555 117.795 19.7575 120.571 18.6441C120.393 18.6795 120.211 18.7099 120.023 18.7402C119.733 18.7908 119.434 18.8313 119.129 18.8465C117.165 18.9781 115.343 18.5732 113.927 17.6319C114.968 19.6765 114.47 21.7362 112.796 23.1128H112.801ZM101.564 40.0614C102.996 34.6767 105.833 29.7272 109.867 25.7039C110.74 24.8334 111.659 24.0186 112.613 23.2595C112.415 23.4114 112.197 23.5531 111.968 23.6846C110.309 24.631 108.076 24.4792 106.832 22.9458C106.716 22.8243 106.619 22.6826 106.543 22.5561C106.543 22.5561 106.523 22.5358 106.508 22.5055C106.497 22.4903 106.492 22.4751 106.487 22.4549C106.457 22.4093 106.431 22.3638 106.406 22.3132C105.685 20.7595 107.243 20.1168 106.553 19.4032C106.218 19.0641 106.462 18.4821 106.944 18.4923C108.142 18.5176 109.187 19.4791 109.669 20.5115C109.877 20.9569 109.974 21.4579 109.893 21.9336C110.212 21.9134 110.527 21.8071 110.806 21.6451C112.095 20.9063 112.496 19.8182 111.75 18.5226C110.664 16.6299 108.228 16.7058 106.518 17.6825C104.244 18.9832 103.102 21.0075 102.534 23.4974C101.909 26.2049 101.965 29.2667 101.975 32.0349C101.986 34.616 102.016 37.4146 101.569 40.0563L101.564 40.0614ZM94.3221 49.6212C96.2151 50.0362 97.9762 50.8965 99.4023 52.3085C100.118 53.017 100.707 53.8318 101.153 54.7124C100.722 52.6121 100.499 50.4562 100.499 48.27C100.499 46.2204 100.696 44.196 101.077 42.2173C100.356 44.6313 99.0674 46.7973 96.7683 48.3611C96.5298 48.5331 96.276 48.7001 96.0121 48.8469C95.4589 49.1607 94.8905 49.4238 94.3221 49.6212ZM163.933 42.2223C164.314 44.2011 164.507 46.2254 164.507 48.275C164.507 50.4613 164.283 52.6172 163.852 54.7174C164.299 53.8369 164.887 53.0221 165.598 52.3136C167.019 50.9016 168.785 50.0413 170.678 49.6263C170.11 49.4289 169.541 49.1708 168.988 48.852C168.729 48.7052 168.475 48.5382 168.237 48.3661C165.938 46.8023 164.649 44.6414 163.928 42.2223H163.933ZM152.382 23.2595C153.341 24.0186 154.26 24.8334 155.133 25.709C159.168 29.7323 162.005 34.6817 163.436 40.0664C162.989 37.4298 163.02 34.6261 163.03 32.0451C163.04 29.2768 163.091 26.21 162.471 23.5075C161.898 21.0176 160.756 18.9933 158.487 17.6927C156.777 16.7159 154.341 16.64 153.255 18.5327C152.514 19.8283 152.91 20.9164 154.204 21.6553C154.483 21.8172 154.798 21.9184 155.118 21.9437C155.036 21.4629 155.133 20.9619 155.341 20.5216C155.823 19.4842 156.868 18.5277 158.066 18.5024C158.548 18.4923 158.787 19.0692 158.457 19.4133C157.762 20.1269 159.325 20.7646 158.604 22.3233C158.579 22.3739 158.553 22.4194 158.528 22.465C158.523 22.4802 158.513 22.5004 158.503 22.5156C158.487 22.5409 158.472 22.5611 158.467 22.5662C158.391 22.6927 158.295 22.8344 158.178 22.9559C156.929 24.4893 154.701 24.6411 153.042 23.6948C152.808 23.5632 152.59 23.4164 152.387 23.2646L152.382 23.2595ZM151.062 17.6522C149.652 18.5783 147.835 18.9832 145.886 18.8516C145.586 18.8313 145.287 18.7959 144.993 18.7453C144.795 18.7149 144.602 18.6846 144.414 18.6441C147.195 19.7575 149.819 21.2605 152.204 23.1229C150.53 21.7514 150.032 19.6967 151.062 17.6522ZM153.093 15.4406C155.021 14.2918 157.579 14.474 159.655 15.6582C165.557 19.0287 165.405 26.1189 165.385 32.0501C165.374 34.5249 165.4 37.0704 165.73 39.53C166.126 42.4703 167.506 45.2993 170.16 46.8175C172.647 48.2346 175.393 48.1738 176.951 45.4612C177.595 44.3428 177.773 43.0574 177.271 41.8934C176.144 42.8144 174.692 42.4804 173.698 41.4632C172.667 40.4055 171.977 38.695 172.5 37.2374C172.678 36.7415 173.363 36.7263 173.586 37.197C173.83 37.7132 174.109 37.7739 174.637 37.7385C175.408 37.6879 176.017 37.5765 176.733 37.9864C179.92 39.7982 180.788 43.4825 178.986 46.6202C178.215 47.9663 177.215 48.8975 176.088 49.4491C183.797 50.3247 189.304 55.1982 195.059 60.3046C198.531 63.3815 202.032 66.4635 206.087 68.7358C204.255 66.3471 203.327 63.4524 203.327 60.3501C203.327 53.9077 208.579 48.6698 215.04 48.6698C220.339 48.6698 224.647 52.9664 224.647 58.2499C224.647 62.6072 221.095 66.1498 216.725 66.1498C213.101 66.1498 210.153 63.2094 210.153 59.596C210.153 56.7114 212.411 54.3176 215.289 54.1354C215.355 54.1304 215.421 54.1152 215.497 54.1152C215.532 54.1152 215.563 54.1152 215.598 54.1203C215.614 54.1203 215.629 54.1203 215.644 54.1203C215.68 54.1203 215.71 54.1203 215.746 54.1304C216.806 54.2164 217.314 54.7731 217.872 55.6031C218.187 56.0737 218.374 56.4179 218.989 56.2002C219.481 56.0282 219.948 56.5292 219.714 57.0049C219.034 58.3865 217.329 59.09 215.852 59.09C214.715 59.09 213.67 58.5788 213.254 57.5869C212.777 58.1436 212.502 58.847 212.502 59.596C212.502 61.9189 214.396 63.8066 216.725 63.8066C219.795 63.8066 222.298 61.3116 222.298 58.2499C222.298 54.2569 219.039 51.0129 215.04 51.0129C209.874 51.0129 205.671 55.2033 205.671 60.3552C205.671 63.7155 206.971 66.7571 209.523 68.9686C212.284 71.3573 215.969 72.3239 219.562 72.3239H227.292C225.774 70.8968 224.972 68.9585 224.972 66.8127C224.972 63.2196 227.906 60.2944 231.509 60.2944C234.524 60.2944 236.975 62.7388 236.975 65.7398C236.975 68.2702 234.909 70.3351 232.372 70.33C230.21 70.33 228.454 68.579 228.454 66.4231C228.454 65.7753 228.982 65.254 229.626 65.254C230.271 65.254 230.798 65.7803 230.798 66.4231C230.798 67.2885 231.504 67.9919 232.372 67.9919C233.615 67.9919 234.63 66.9797 234.63 65.7398C234.63 64.0293 233.235 62.6325 231.514 62.6325C229.205 62.6325 227.327 64.505 227.327 66.8077C227.327 70.497 230.392 72.3189 233.818 72.3189H255.174C255.174 72.2835 255.174 72.248 255.174 72.2126C255.174 70.5071 257.073 69.9302 258.473 69.9302C259.737 69.9302 260.463 70.3401 261.544 70.8614C262.422 71.2865 263.041 71.3928 263.985 70.993C264.487 70.7804 265.203 71.1448 264.954 71.7065C264.624 72.4555 263.371 73.2298 262.671 73.5942C261.488 74.2066 260.077 74.6468 258.732 74.6519C258.712 74.6519 258.697 74.6519 258.676 74.6519H219.577C212.98 74.6519 207.412 72.6833 202.027 68.9686C200.794 68.1184 199.003 67.7287 197.521 67.7186C195.79 67.7085 194.009 68.1943 192.755 69.4444C191.004 71.1903 190.842 74.8594 192.638 76.6509C193.349 77.3594 194.628 77.6125 195.602 77.5568C196.612 77.5011 197.683 77.1216 198.333 76.3068C198.784 75.7349 198.926 74.9049 198.881 74.161C198.125 74.3179 197.353 73.994 196.79 73.4323C195.932 72.577 195.353 71.1853 195.765 69.9909C195.922 69.5253 196.561 69.5 196.775 69.9403C196.983 70.3705 197.252 70.2743 197.663 70.1933C198.48 70.0314 199.109 70.0061 199.764 70.5729C199.789 70.583 199.825 70.6083 199.865 70.6438C199.881 70.6589 199.891 70.6741 199.901 70.6842C199.906 70.6893 199.916 70.6944 199.921 70.7045C200.033 70.8158 200.129 70.9424 200.21 71.0841C201.565 72.8908 201.586 75.988 200.175 77.7694C199.109 79.1105 197.429 79.8038 195.744 79.9C195.607 79.905 195.465 79.9101 195.328 79.9101C193.795 79.9101 192.095 79.4091 190.989 78.3109C188.248 75.578 188.406 70.4818 191.106 67.7895C192.775 66.1245 195.019 65.3755 197.318 65.3451C196.034 64.2672 194.775 63.1538 193.516 62.0404C190.583 59.4392 187.517 56.6861 184.097 54.6769C185.548 56.7215 186.35 59.1507 186.35 61.7013C186.35 64.6872 185.132 67.7844 183.153 70.0162C180.077 73.4879 175.504 74.7278 170.988 74.7278H150.398C145.104 78.2906 138.907 80.1682 132.518 80.1682C126.128 80.1682 119.931 78.2906 114.638 74.7278H94.048C89.5362 74.7278 84.9584 73.4879 81.8828 70.0162C79.9035 67.7844 78.6855 64.6872 78.6855 61.7013C78.6855 59.1507 79.4873 56.7164 80.9388 54.6769C77.5182 56.6911 74.4477 59.4392 71.5193 62.0404C70.2607 63.1538 69.0071 64.2672 67.718 65.3451C70.0171 65.3755 72.2654 66.1245 73.93 67.7895C76.63 70.4818 76.7874 75.573 74.0468 78.3109C72.9404 79.4141 71.2402 79.9101 69.7075 79.9101C69.5705 79.9101 69.4284 79.9101 69.2913 79.9C67.6064 79.8038 65.9265 79.1105 64.8607 77.7694C63.4447 75.993 63.4701 72.8958 64.8252 71.0841C64.9064 70.9474 65.0028 70.8209 65.1145 70.7045C65.1246 70.6944 65.1348 70.6893 65.1348 70.6842C65.1398 70.6741 65.1551 70.6589 65.1703 70.6387C65.2109 70.6033 65.2464 70.578 65.2718 70.5678C65.9265 70.001 66.5558 70.0263 67.3729 70.1883C67.784 70.2693 68.053 70.3654 68.2611 69.9352C68.4742 69.5 69.1137 69.5253 69.271 69.9859C69.6821 71.1853 69.1035 72.5719 68.2458 73.4272C67.6825 73.9889 66.9111 74.3179 66.1549 74.156C66.1041 74.9049 66.2462 75.7349 66.703 76.3017C67.3475 77.1115 68.4235 77.491 69.4334 77.5518C70.4028 77.6074 71.6817 77.3544 72.3973 76.6459C74.1939 74.8543 74.0315 71.1853 72.2806 69.4393C71.027 68.1893 69.2457 67.7085 67.515 67.7136C66.0381 67.7186 64.2415 68.1134 63.0083 68.9636C57.6184 72.6731 52.0561 74.6469 45.4583 74.6469H6.33385C6.33385 74.6469 6.29832 74.6469 6.27802 74.6469C4.9331 74.6469 3.5222 74.2015 2.33969 73.5891C1.63932 73.2248 0.38575 72.4555 0.0558638 71.7015C-0.19282 71.1397 0.522779 70.7753 1.02522 70.9879C1.9692 71.3877 2.58837 71.2764 3.46638 70.8563C4.54739 70.335 5.27314 69.9251 6.53686 69.9251C7.9376 69.9251 9.83572 70.5071 9.83572 72.2075C9.83572 72.243 9.83572 72.2784 9.83572 72.3138H31.1819C34.6025 72.3138 37.673 70.4919 37.673 66.8026C37.673 64.5 35.7952 62.6275 33.486 62.6275C31.7706 62.6275 30.3699 64.0192 30.3699 65.7348C30.3699 66.9747 31.3849 67.9868 32.6283 67.9868C33.4962 67.9868 34.2016 67.2834 34.2016 66.418C34.2016 65.7702 34.7294 65.2489 35.374 65.2489C36.0185 65.2489 36.5463 65.7753 36.5463 66.418C36.5463 68.5739 34.7903 70.3249 32.6283 70.3249C30.0907 70.3249 28.0251 68.2652 28.0251 65.7348C28.0251 62.7287 30.4764 60.2894 33.486 60.2894C37.0894 60.2894 40.0228 63.2094 40.0228 66.8077C40.0228 68.9585 39.221 70.8968 37.7035 72.3189H45.433C49.0313 72.3189 52.7108 71.3523 55.4716 68.9636C58.0295 66.752 59.3237 63.7105 59.3237 60.3501C59.3237 55.1982 55.1215 51.0079 49.9549 51.0079C45.9506 51.0079 42.6974 54.2569 42.6974 58.2448C42.6974 61.3066 45.1995 63.8016 48.27 63.8016C50.5995 63.8016 52.4925 61.9139 52.4925 59.591C52.4925 58.842 52.2185 58.1335 51.7414 57.5818C51.3202 58.5738 50.2747 59.0849 49.1429 59.0849C47.666 59.0849 45.9608 58.3865 45.2807 56.9998C45.0472 56.5292 45.5142 56.0231 46.0065 56.1952C46.6205 56.4128 46.8083 56.0687 47.123 55.598C47.6762 54.7731 48.1888 54.2113 49.2495 54.1253C49.285 54.1203 49.3155 54.1152 49.351 54.1152C49.3662 54.1152 49.3814 54.1152 49.3967 54.1152C49.4271 54.1152 49.4626 54.1101 49.4982 54.1101C49.5794 54.1101 49.6403 54.1253 49.7063 54.1304C52.5839 54.3126 54.8423 56.7013 54.8423 59.591C54.8423 63.2044 51.8937 66.1447 48.27 66.1447C43.9003 66.1447 40.3476 62.6021 40.3476 58.2448C40.3476 52.9613 44.6565 48.6647 49.9549 48.6647C56.4156 48.6647 61.6684 53.9026 61.6684 60.345C61.6684 63.4473 60.7447 66.3421 58.9075 68.7308C62.9626 66.4585 66.4645 63.3765 69.9359 60.2995C75.6911 55.1931 81.1977 50.3196 88.9069 49.4441C87.7802 48.8925 86.7804 47.9613 86.0089 46.6151C84.2073 43.4774 85.0751 39.7931 88.2623 37.9814C88.983 37.5715 89.592 37.6828 90.3584 37.7334C90.8862 37.7688 91.1704 37.7081 91.4089 37.1919C91.6272 36.7212 92.3174 36.7364 92.495 37.2324C93.0177 38.6899 92.3275 40.3954 91.2973 41.4581C90.3025 42.4754 88.8561 42.8144 87.7243 41.8883C87.2219 43.0523 87.3995 44.3327 88.0441 45.4562C89.6022 48.1637 92.3478 48.2295 94.8347 46.8125C97.494 45.2942 98.8694 42.4652 99.2704 39.5249C99.6002 37.0654 99.6256 34.5249 99.6155 32.0451C99.5952 26.1088 99.4429 19.0236 105.34 15.6532C107.421 14.4639 109.994 14.2867 111.923 15.4457C111.471 14.6106 111.187 13.6238 111.111 12.4851C110.867 8.89193 113.283 5.94149 116.927 5.70363C117.754 5.64796 118.251 6.01234 118.921 6.3919C119.383 6.65506 119.662 6.72085 120.104 6.36153C120.51 6.03258 121.119 6.34635 121.063 6.87267C120.896 8.41115 119.525 9.64599 118.135 10.147C116.79 10.6328 115.343 10.3039 114.734 8.97796C113.775 9.80287 113.369 11.0377 113.455 12.3231C113.669 15.4406 116.105 16.6957 118.967 16.5034C122.022 16.2959 124.504 14.3576 126.148 11.8829C127.524 9.81806 128.661 7.5407 129.742 5.30889C130.513 3.71474 131.285 2.11552 132.168 0.577043L132.503 -0.0100098L132.838 0.577043C133.721 2.11552 134.492 3.71474 135.258 5.30889C136.339 7.5407 137.476 9.81806 138.852 11.8829C140.501 14.3525 142.978 16.2959 146.033 16.5034C148.895 16.6957 151.331 15.4406 151.545 12.3231C151.631 11.0377 151.225 9.80287 150.266 8.97796C149.657 10.3039 148.21 10.6328 146.865 10.147C145.475 9.64599 144.104 8.40609 143.937 6.87267C143.881 6.35141 144.49 6.03764 144.896 6.36153C145.343 6.72085 145.617 6.65506 146.079 6.3919C146.749 6.01234 147.246 5.64796 148.073 5.70363C151.717 5.94149 154.133 8.89193 153.889 12.4851C153.813 13.6137 153.529 14.6005 153.082 15.4305L153.093 15.4406Z" fill="#C7A568"/>
<path fill-rule="evenodd" clip-rule="evenodd" d="M150.697 50.2891H148.667V46.1545C148.89 46.3417 149.124 46.5239 149.373 46.6909C149.784 46.9743 150.225 47.2324 150.697 47.4652M153.032 50.2891H151.002V47.612C151.636 47.9004 152.311 48.1433 153.032 48.3306V50.2942V50.2891ZM155.366 50.2891H153.336V48.4014C153.986 48.5533 154.666 48.6646 155.366 48.7304V50.2891ZM156.686 50.2891H155.671V48.7557C156.006 48.7759 156.346 48.7911 156.686 48.7911V48.0826C153.981 48.0826 151.54 47.3286 149.779 46.114C149.241 45.7395 148.764 45.3245 148.363 44.8741V52.5209H156.686V50.2942V50.2891ZM114.303 50.2891H116.333V46.1545C116.11 46.3417 115.876 46.5239 115.628 46.696C115.217 46.9794 114.775 47.2375 114.303 47.4703V50.2942V50.2891ZM111.969 50.2891H113.999V47.612C113.369 47.9004 112.689 48.1433 111.969 48.3306V50.2942V50.2891ZM109.634 50.2891H111.664V48.4014C111.014 48.5533 110.334 48.6646 109.634 48.7304V50.2891ZM108.314 50.2891H109.329V48.7557C108.995 48.7759 108.66 48.7911 108.314 48.7911V48.0826C111.02 48.0826 113.461 47.3286 115.222 46.114C115.76 45.7395 116.237 45.3245 116.638 44.8741V52.5209H108.314V50.2942V50.2891ZM116.638 53.943H108.314V53.0473H116.638V53.943ZM156.686 53.943H148.368V53.0473H156.686V53.943ZM142.196 52.5159H122.804V53.0473H142.196V52.5159ZM140.821 50.2891H142.196V44.1554C141.851 44.7779 141.384 45.3549 140.821 45.8812V50.2891ZM138.486 50.2891H140.516V46.1545C140.293 46.3417 140.06 46.5239 139.811 46.6909C139.4 46.9743 138.958 47.2324 138.486 47.4652V50.2891ZM136.152 50.2891H138.182V47.612C137.547 47.9004 136.872 48.1433 136.152 48.3306V50.2942V50.2891ZM133.817 50.2891H135.847V48.4014C135.198 48.5533 134.518 48.6646 133.817 48.7304V50.2891ZM131.483 50.2891H133.513V48.7557C133.178 48.7759 132.843 48.7911 132.498 48.7911C132.153 48.7911 131.818 48.781 131.483 48.7557V50.2891ZM129.148 50.2891H131.178V48.7304C130.478 48.6697 129.798 48.5583 129.148 48.4014V50.2891ZM126.813 50.2891H128.844V48.3255C128.128 48.1383 127.448 47.8954 126.813 47.6069V50.2841V50.2891ZM124.479 50.2891H126.509V47.4652C126.037 47.2324 125.595 46.9743 125.184 46.6909C124.936 46.5188 124.702 46.3417 124.479 46.1494V50.2841V50.2891ZM122.799 50.2891H124.174V45.8812C123.611 45.3549 123.144 44.7779 122.799 44.1554V50.2891ZM123.515 32.7585V32.9053H123.464V34.6664H117.343V32.9053H117.292V32.7585H117.226V32.5359H116.724L118.003 32.1664V31.1188H117.932V30.9417H117.678L117.932 30.9063V30.8962H118.003L119.789 30.6381V30.1117H119.713V29.8891H119.52L120.256 29.6158H120.348L120.358 28.1633C120.322 28.1481 120.297 28.1127 120.297 28.0672C120.297 28.0216 120.322 27.9862 120.363 27.971V27.5408C120.363 27.5408 120.322 27.5004 120.322 27.47C120.322 27.4396 120.343 27.4093 120.368 27.3991V26.4983C120.368 26.4983 120.327 26.4629 120.327 26.4275C120.327 26.387 120.363 26.3516 120.404 26.3516C120.444 26.3516 120.48 26.3819 120.48 26.4275C120.48 26.4578 120.459 26.4831 120.434 26.4983V27.3991C120.469 27.4143 120.485 27.4396 120.485 27.47C120.485 27.5004 120.464 27.5307 120.439 27.5408V27.971C120.48 27.9862 120.505 28.0216 120.505 28.0672C120.505 28.1127 120.48 28.1481 120.444 28.1633L120.454 29.6158H120.546L121.282 29.8891H121.089V30.1117H121.013V30.6381L122.799 30.8962H122.87V30.9063L123.124 30.9417H122.87V31.1188H122.799V32.1664L124.078 32.5359H123.575V32.7585H123.51H123.515ZM147.698 32.7585V32.9053H147.647V34.6664H141.526V32.9053H141.476V32.7585H141.41V32.5359H140.907L142.186 32.1664V31.1188H142.115V30.9417H141.856L142.115 30.9063V30.8962H142.186L143.973 30.6381V30.1117H143.896V29.8891H143.704L144.44 29.6158H144.531L144.541 28.1633C144.505 28.1481 144.48 28.1127 144.48 28.0672C144.48 28.0216 144.505 27.9862 144.546 27.971V27.5408C144.546 27.5408 144.505 27.5004 144.505 27.47C144.505 27.4396 144.526 27.4093 144.551 27.3991V26.4983C144.551 26.4983 144.511 26.4629 144.511 26.4275C144.511 26.387 144.546 26.3516 144.587 26.3516C144.627 26.3516 144.663 26.3819 144.663 26.4275C144.663 26.4578 144.643 26.4831 144.617 26.4983V27.3991C144.653 27.4143 144.668 27.4396 144.668 27.47C144.668 27.5004 144.648 27.5307 144.622 27.5408V27.971C144.663 27.9862 144.688 28.0216 144.688 28.0672C144.688 28.1127 144.663 28.1481 144.627 28.1633L144.637 29.6158H144.729L145.465 29.8891H145.272V30.1117H145.196V30.6381L146.982 30.8962H147.053V30.9063L147.312 30.9417H147.053V31.1188H146.982V32.1664L148.261 32.5359H147.759V32.7585H147.693H147.698ZM122.799 34.9094H118.008V64.0191C118.008 65.9219 117.018 66.3926 115.42 66.3926C115.42 66.8025 115.567 67.1719 115.866 67.506C116.166 67.8045 116.683 67.9513 117.429 67.9513C118.064 67.9513 118.658 67.84 119.18 67.6173C119.663 67.3946 120.074 67.1365 120.409 66.8025C120.744 67.1365 121.155 67.3946 121.672 67.6173C122.154 67.84 122.753 67.9513 123.383 67.9513C124.129 67.9513 124.646 67.8045 124.946 67.506C125.245 67.1719 125.392 66.8025 125.392 66.3926C123.814 66.3926 122.799 65.8916 122.799 64.0191V53.938H142.191V64.0191C142.191 65.9219 141.202 66.3926 139.603 66.3926C139.603 66.8025 139.75 67.1719 140.049 67.506C140.349 67.8045 140.867 67.9513 141.613 67.9513C142.247 67.9513 142.841 67.84 143.364 67.6173C143.846 67.3946 144.257 67.1365 144.592 66.8025C144.927 67.1365 145.338 67.3946 145.855 67.6173C146.338 67.84 146.937 67.9513 147.566 67.9513C148.312 67.9513 148.83 67.8045 149.129 67.506C149.428 67.1719 149.576 66.8025 149.576 66.3926C147.997 66.3926 146.982 65.8916 146.982 64.0191V34.9094H142.191V41.4935C142.191 43.285 141.125 44.9196 139.4 46.1089C137.639 47.3235 135.198 48.0776 132.493 48.0776C129.787 48.0776 127.346 47.3235 125.585 46.1089C123.86 44.9196 122.794 43.285 122.794 41.4935V34.9094H122.799Z" fill="#5281A1"/>
</g>
<defs>
<clipPath id="clip0_2053_1518">
<rect width="265" height="154" fill="white"/>
</clipPath>
</defs>
</svg>
