<svg width="102" height="25" viewBox="0 0 102 25" fill="none" xmlns="http://www.w3.org/2000/svg">
<g clip-path="url(#clip0_105_5030)">
<path fill-rule="evenodd" clip-rule="evenodd" d="M52.9536 12.3166C52.7396 12.5828 52.6003 12.8993 52.5206 13.2358C52.1673 14.7829 52.7247 15.883 54.2625 16.2396C56.5071 16.7671 58.1992 14.8131 58.667 12.7687C58.8661 11.8947 58.9358 11.0056 58.8512 10.1114C57.7662 6.88159 59.752 3.76727 62.6385 2.35075C69.0686 -0.813807 75.205 3.57639 80.3709 7.15284C82.5309 8.64973 84.7705 10.1516 87.1145 11.3371C89.9215 12.7536 93.2161 13.2358 96.1176 11.8093C98.825 10.4781 100.403 8.00677 98.9594 5.01802C98.3622 3.77731 97.3419 2.85306 96.028 2.59688C96.1674 4.14902 95.0177 5.21894 93.5297 5.48015C91.9918 5.75139 90.0907 5.32945 89.1252 3.99833C88.7967 3.54625 89.1899 2.92841 89.7324 3.01882C90.3246 3.11929 90.5486 2.90832 90.8322 2.42107C91.2453 1.71282 91.5091 1.11004 92.2954 0.723264C95.7742 -0.999661 99.5068 0.446993 101.184 3.92298C103.264 8.23281 101.154 12.1106 97.2026 14.0546C96.9189 14.1952 96.6253 14.3208 96.3316 14.4263C89.9663 16.9529 84.009 12.6983 78.9725 9.21231C76.5587 7.53962 73.911 5.65595 71.1738 4.58101C68.6605 3.59146 66.2069 3.37546 63.7235 4.6011C62.32 5.29429 61.0708 6.63044 61.041 8.28304C61.1455 8.69996 61.2251 9.1219 61.2799 9.54886C61.3047 9.60412 61.3296 9.65937 61.3545 9.71462C62.0463 11.1462 63.2308 11.4526 64.6492 10.7544C64.9577 10.6037 65.2315 10.3927 65.4405 10.1265C64.9727 9.91053 64.5944 9.52375 64.3257 9.07669C63.7036 8.03188 63.4896 6.535 64.1764 5.46508C64.4551 5.03309 65.1021 5.16871 65.2016 5.666C65.4156 6.70578 66.8987 5.71623 67.8293 7.28344C67.8592 7.33367 67.8841 7.3839 67.909 7.43916C67.9189 7.45423 67.9289 7.47432 67.9388 7.48939C67.9538 7.5145 67.9587 7.54464 67.9587 7.54967C68.0284 7.69031 68.0931 7.8611 68.128 8.03691C68.7302 10.0562 67.5407 12.1106 65.7242 13.0048C64.2261 13.7432 62.5539 13.8738 61.1306 13.065C61.1106 13.1605 61.0907 13.2559 61.0708 13.3463C60.2845 16.7671 57.3382 19.5398 53.6902 18.6859C53.1029 18.5503 52.5406 18.3293 52.0329 18.0128C52.0678 18.3745 52.0976 18.7411 52.1325 19.1078C52.1922 19.786 52.3415 20.454 52.3564 21.1422C52.3564 21.7701 52.2668 22.3829 52.1275 22.9907C52.018 23.4277 51.8786 23.8949 51.6945 24.2967C51.6248 24.4625 51.5253 24.6684 51.4257 24.8241L51.3063 25.005H50.6892L50.5697 24.8241C50.4652 24.6684 50.3707 24.4625 50.301 24.2967C50.1119 23.8898 49.9775 23.4277 49.868 22.9907C49.7187 22.3879 49.6391 21.7651 49.6391 21.1422C49.654 20.459 49.8033 19.786 49.863 19.1078C49.8929 18.7411 49.9277 18.3795 49.9626 18.0128C49.4549 18.3293 48.8925 18.5503 48.3053 18.6859C44.6622 19.5398 41.716 16.7671 40.9246 13.3463C40.9047 13.2509 40.8848 13.1555 40.8649 13.065C39.4416 13.8788 37.7693 13.7432 36.2713 13.0048C34.4597 12.1106 33.2703 10.0562 33.8675 8.03691C33.9073 7.8611 33.972 7.69031 34.0367 7.54967C34.0367 7.54464 34.0467 7.51953 34.0566 7.48939C34.0666 7.4693 34.0765 7.45423 34.0865 7.43916C34.1114 7.38893 34.1363 7.33367 34.1661 7.28344C35.0968 5.71623 36.5849 6.70578 36.7939 5.666C36.8934 5.16871 37.5454 5.03309 37.8191 5.46508C38.5059 6.535 38.2869 8.03188 37.6698 9.07669C37.4011 9.52375 37.0228 9.91555 36.555 10.1265C36.764 10.3927 37.0427 10.6037 37.3463 10.7544C38.7597 11.4476 39.9442 11.1462 40.641 9.71462C40.6658 9.65937 40.6907 9.60412 40.7156 9.54886C40.7704 9.1219 40.85 8.69996 40.9545 8.28304C40.9246 6.63044 39.6755 5.29429 38.272 4.6011C35.7886 3.38049 33.34 3.59146 30.8217 4.58101C28.0844 5.65595 25.4368 7.54464 23.023 9.21231C17.9815 12.6983 12.0292 16.9529 5.66385 14.4263C5.37021 14.3208 5.07658 14.1952 4.7929 14.0546C0.84628 12.1106 -1.26389 8.23281 0.816418 3.92298C2.49361 0.446993 6.22125 -0.994638 9.70503 0.728287C10.4914 1.11507 10.7551 1.71784 11.1682 2.4261C11.4519 2.91334 11.6709 3.12431 12.2681 3.02385C12.8106 2.93343 13.2037 3.54625 12.8753 4.00335C11.9098 5.33448 10.0086 5.75642 8.47077 5.48517C6.98768 5.22397 5.83306 4.15405 5.97241 2.60191C4.65853 2.85808 3.64325 3.78234 3.04106 5.02304C1.59778 8.01179 3.17046 10.4781 5.88283 11.8143C8.78431 13.2408 12.079 12.7536 14.8859 11.3421C17.23 10.1567 19.4696 8.65475 21.6295 7.15786C26.7954 3.58643 32.9319 -0.80376 39.3619 2.35577C42.2485 3.77731 44.2342 6.88662 43.1493 10.1165C43.0647 11.0106 43.1294 11.8997 43.3334 12.7737C43.8012 14.8181 45.4934 16.7721 47.7379 16.2447C49.2758 15.883 49.8332 14.7829 49.4798 13.2408C49.4002 12.9043 49.2608 12.5828 49.0468 12.3216C48.7333 12.7335 48.2754 13.0198 47.7827 13.1806C46.6331 13.5573 45.14 13.4367 44.2641 12.5225C43.9107 12.1559 44.1845 11.5481 44.6871 11.5581C45.7372 11.5832 45.1102 9.90048 46.8371 9.33287C46.8919 9.31278 46.9516 9.30273 47.0013 9.29268C47.0213 9.28766 47.0362 9.27761 47.0561 9.27761C47.081 9.27259 47.1009 9.26757 47.1208 9.26757C47.285 9.23241 47.4592 9.20729 47.6284 9.20729C48.9523 9.11687 50.1865 9.7749 50.9928 10.7996C51.799 9.7749 53.0382 9.11687 54.3571 9.20729C54.5313 9.20729 54.7005 9.23241 54.8647 9.26757C54.8896 9.26757 54.9095 9.27259 54.9344 9.27761C54.9543 9.27761 54.9692 9.28766 54.9891 9.29268C55.0439 9.30273 55.0986 9.3178 55.1534 9.33287C56.8754 9.90048 56.2533 11.5832 57.3034 11.5581C57.806 11.5481 58.0847 12.1559 57.7264 12.5225C56.8455 13.4367 55.3525 13.5573 54.2078 13.1806C53.7151 13.0198 53.2572 12.7335 52.9437 12.3216L52.9536 12.3166Z" fill="#CAA769"/>
<path fill-rule="evenodd" clip-rule="evenodd" d="M50.4649 17.0891V17.1343C50.3803 17.7722 50.3306 18.4554 50.2659 19.1385C50.2111 19.8217 50.0568 20.4998 50.0419 21.1377C50.0419 21.7757 50.1414 22.3734 50.2609 22.8858C50.3903 23.3981 50.5296 23.8251 50.669 24.1214C50.7984 24.4178 50.9079 24.5886 50.9079 24.5886H51.092C51.092 24.5886 51.2015 24.4178 51.3309 24.1214C51.4702 23.8251 51.6096 23.3981 51.739 22.8858C51.8584 22.3734 51.958 21.7757 51.958 21.1377C51.943 20.4998 51.7888 19.8166 51.734 19.1335C51.6693 18.4504 51.6146 17.7722 51.5399 17.1293V17.0841C52.1023 17.6467 52.8638 18.0535 53.7944 18.2745C56.895 19.0029 59.8562 16.8379 60.6824 13.2414C60.752 12.945 60.8068 12.6487 60.8466 12.3573C62.1107 13.3569 63.8028 13.4825 65.5547 12.6236C67.3513 11.7395 68.2471 9.80559 67.7395 8.13289C67.7096 7.99225 67.6549 7.84155 67.5852 7.69588C67.5852 7.68584 67.5802 7.67579 67.5752 7.66575C67.5752 7.66072 67.5653 7.6557 67.5603 7.65068C67.5354 7.59542 67.5155 7.54519 67.4807 7.48994C66.6346 6.06337 65.0968 7.1986 64.8032 5.7419C64.7733 5.60125 64.5941 5.56106 64.5195 5.68162C64.0666 6.38485 63.9671 7.6557 64.6787 8.85622C65.0221 9.43388 65.5198 9.80559 66.0573 9.87591C65.8483 10.3581 65.4452 10.8152 64.8231 11.1166C62.4591 12.282 61.3492 10.6444 60.9859 9.88596C60.9461 9.80559 60.9113 9.72522 60.8814 9.64485C60.8267 9.19779 60.7421 8.75576 60.6276 8.32377C60.6276 6.7214 61.7076 5.12405 63.539 4.22492C68.7647 1.65309 73.8311 5.15922 79.1961 8.87129C84.586 12.5984 90.1551 16.4311 96.182 14.0401C96.4657 13.9346 96.7444 13.8191 97.0181 13.6834C100.159 12.1413 103.035 8.70051 100.81 4.09934C99.203 0.769021 95.6943 -0.496802 92.4693 1.0905C91.0559 1.79876 91.3844 3.70754 89.6624 3.42122C89.4733 3.39108 89.3389 3.59703 89.4484 3.75275C90.1053 4.66193 91.6282 5.3953 93.4498 5.07382C94.8731 4.82267 95.8237 3.80298 95.5798 2.4166C95.5599 2.31111 95.5301 2.21568 95.5002 2.12024C97.0729 2.20061 98.4963 3.14997 99.3125 4.83774C100.995 8.32377 98.8496 10.9157 96.2816 12.1765C93.2557 13.6633 89.8366 13.1711 86.9202 11.6993C84.7005 10.5791 82.4311 9.07724 80.1268 7.48491C74.6025 3.66735 68.8941 -0.280808 62.8025 2.71799C59.7417 4.22492 58.2935 7.27394 59.2341 10.0216C59.3287 10.9308 59.2739 11.8701 59.045 12.8596C58.4328 15.5219 56.3276 17.1494 54.1478 16.637C53.3366 16.4461 51.5051 15.7228 52.1023 13.1359C52.2566 12.4578 52.6099 11.9605 53.028 11.644C53.2171 12.1614 53.6849 12.5633 54.322 12.7742C55.6358 13.2062 56.8452 12.8245 57.4225 12.2217C57.5221 12.1162 57.4424 11.9505 57.2981 11.9555C55.8299 11.9906 56.5814 10.2275 55.0137 9.71015C54.954 9.69006 54.8993 9.68503 54.8445 9.66996C54.8396 9.66996 54.8346 9.66494 54.8246 9.65992C54.8147 9.65992 54.8047 9.65992 54.7898 9.65992C54.6305 9.62476 54.4812 9.60466 54.3319 9.60466C53.0031 9.50923 51.7091 10.2627 50.9775 11.5084C50.2459 10.2627 48.952 9.50923 47.6232 9.60466C47.4788 9.60466 47.3246 9.62476 47.1653 9.65992C47.1553 9.65992 47.1404 9.65992 47.1305 9.65992C47.1255 9.65992 47.1205 9.66494 47.1106 9.66996C47.0508 9.68503 46.9961 9.69006 46.9413 9.71015C45.3736 10.2275 46.1251 11.9906 44.657 11.9555C44.5126 11.9555 44.433 12.1212 44.5326 12.2217C45.1148 12.8245 46.3192 13.2062 47.6331 12.7742C48.2701 12.5633 48.738 12.1614 48.9271 11.644C49.3451 11.9555 49.6935 12.4528 49.8528 13.1359C50.45 15.7228 48.6185 16.4461 47.8073 16.637C45.6275 17.1494 43.5223 15.5219 42.9101 12.8596C42.6812 11.8701 42.6314 10.9257 42.721 10.0216C43.6666 7.27394 42.2183 4.22492 39.1526 2.71799C33.061 -0.280808 27.3526 3.66735 21.8283 7.48491C19.524 9.07724 17.2546 10.5791 15.0349 11.6993C12.1185 13.1711 8.69445 13.6633 5.67352 12.1765C3.10548 10.9157 0.960465 8.31875 2.64263 4.83774C3.45883 3.14495 4.8822 2.20061 6.45488 2.12024C6.42502 2.21568 6.39018 2.31111 6.37525 2.4166C6.13139 3.808 7.08196 4.82267 8.50533 5.07382C10.3268 5.3953 11.8547 4.66193 12.5067 3.75275C12.6212 3.59703 12.4818 3.39108 12.2927 3.42122C10.5757 3.70754 10.8992 1.79373 9.48576 1.0905C6.29562 -0.491779 2.79194 0.774044 1.17945 4.10436C-1.04022 8.70553 1.83639 12.1413 4.97179 13.6884C5.24551 13.8241 5.52919 13.9396 5.80789 14.0451C11.8348 16.4361 17.4039 12.6035 22.7938 8.87631C28.1588 5.16424 33.2252 1.66313 38.4509 4.22994C40.2823 5.12908 41.3573 6.73145 41.3623 8.3288C41.2528 8.76078 41.1682 9.19779 41.1085 9.64987C41.0786 9.73024 41.0438 9.81061 41.004 9.89098C40.6407 10.6495 39.5308 12.287 37.1669 11.1216C36.5448 10.8152 36.1466 10.3581 35.9376 9.88094C36.4801 9.80559 36.9728 9.4389 37.3162 8.86124C38.0278 7.66575 37.9283 6.38988 37.4754 5.68664C37.3958 5.56609 37.2166 5.60627 37.1917 5.74692C36.8931 7.1986 35.3603 6.06337 34.5142 7.49496C34.4843 7.55021 34.4644 7.60045 34.4346 7.6557C34.4346 7.66072 34.4246 7.66575 34.4197 7.67077C34.4197 7.68082 34.4147 7.69086 34.4097 7.70091C34.34 7.84658 34.2853 7.99225 34.2554 8.13792C33.7478 9.81564 34.6436 11.7445 36.4402 12.6286C38.1921 13.4925 39.8842 13.3619 41.1483 12.3624C41.1931 12.6537 41.2479 12.945 41.3126 13.2464C42.1387 16.843 45.0999 19.0029 48.2005 18.2796C49.1311 18.0636 49.8926 17.6517 50.46 17.0891H50.4649Z" fill="#CAA769"/>
</g>
<defs>
<clipPath id="clip0_105_5030">
<rect width="102" height="25" fill="white"/>
</clipPath>
</defs>
</svg>
