<svg width="433" height="433" viewBox="0 0 433 433" fill="none" xmlns="http://www.w3.org/2000/svg">
<g opacity="0.3" clip-path="url(#clip0_1_2448)">
<path fill-rule="evenodd" clip-rule="evenodd" d="M45.2609 217.947C34.1466 224.307 19.1974 225.799 10.609 210.829C6.4526 203.573 6.56741 195.927 10.2416 189.888C10.5171 190.233 10.7927 190.6 11.1371 190.921C15.638 195.284 21.7693 194.32 26.2931 189.659C32.0799 183.712 33.228 176.203 31.5517 171.496C31.2761 170.693 30.1739 170.693 29.8065 171.45C26.5227 178.545 20.3226 172.553 14.1454 176.02C0.160624 184.033 -4.04172 200.221 4.15626 214.502C15.4773 234.249 35.3637 232.16 48.981 224.376C50.1751 223.687 51.3233 222.952 52.4026 222.149C76.4224 205.777 76.3765 175.515 76.2847 146.193C76.1928 117.01 76.078 89.4335 98.72 76.4605C109.283 70.4217 120.995 72.4193 125.978 81.1445C127.838 84.405 131.076 92.6021 120.811 98.4572C118.124 99.9956 115.437 100.34 113.141 99.9267C114.243 97.7454 114.129 94.9671 112.866 92.2577C110.248 86.6322 105.333 83.808 101.59 83.7391C100.947 83.7391 100.649 84.4969 101.085 84.9561C105.678 89.6861 97.6407 92.5562 100.741 99.2608C100.856 99.5134 100.993 99.7201 101.131 99.9497C101.131 99.9726 101.131 100.019 101.154 100.042C101.177 100.087 101.223 100.11 101.246 100.156C101.613 100.776 102.004 101.35 102.463 101.81C107.354 107.894 116.7 109.41 124.508 104.932C135.324 98.7327 138.447 87.941 132.43 77.4478C125.335 65.0488 109.237 61.8572 94.9999 70.0084C68.5919 85.1168 68.7067 116.183 68.7985 146.239C68.8445 158.776 68.6378 170.968 67.1452 181.99C65.1933 196.501 58.3731 210.415 45.2609 217.924" fill="#C7A568"/>
<path fill-rule="evenodd" clip-rule="evenodd" d="M152.547 76.5063C139.756 77.3788 125.679 72.1667 124.508 54.9688C123.934 46.611 127.379 39.8145 133.349 35.957C133.441 36.3933 133.533 36.8525 133.694 37.2888C135.829 43.1898 141.777 44.9807 147.885 42.7765C155.693 39.9523 160.01 33.7069 160.561 28.7473C160.653 27.8977 159.665 27.4155 158.999 27.9436C152.937 32.8803 149.975 24.775 142.902 25.2113C126.827 26.2904 115.966 39.0109 117.091 55.451C118.629 78.1595 137.437 84.9789 153.075 83.9457C154.453 83.8539 155.807 83.6702 157.116 83.4406C185.867 79.2157 199.071 51.9839 211.815 25.5786C213.377 22.3182 214.938 19.1036 216.5 15.935L216.5 0C212.412 7.11793 208.738 14.764 205.087 22.3411C199.645 33.638 194.111 44.4986 187.956 53.7748C179.85 65.9672 167.634 75.496 152.547 76.5063Z" fill="#C7A568"/>
<path fill-rule="evenodd" clip-rule="evenodd" d="M280.43 76.5063C293.221 77.3788 307.32 72.1667 308.469 54.9688C309.02 46.611 305.598 39.8145 299.628 35.957C299.536 36.3933 299.444 36.8525 299.283 37.2888C297.148 43.1898 291.2 44.9807 285.092 42.7765C277.284 39.9523 272.967 33.7069 272.416 28.7473C272.324 27.8977 273.312 27.4155 273.977 27.9436C280.04 32.8803 283.002 24.775 290.075 25.2113C306.149 26.2904 317.011 39.0109 315.886 55.451C314.347 78.1595 295.54 84.9789 279.902 83.9457C278.524 83.8539 277.169 83.6702 275.86 83.4406C247.11 79.2157 233.906 51.9839 221.161 25.5786C219.6 22.3182 218.038 19.1036 216.477 15.935L216.477 -4.3488e-06C220.564 7.11793 224.239 14.764 227.89 22.3411C233.332 33.638 238.866 44.4986 245.02 53.7748C253.127 65.9672 265.343 75.496 280.43 76.5063Z" fill="#C7A568"/>
<path fill-rule="evenodd" clip-rule="evenodd" d="M387.739 217.947C398.853 224.307 413.802 225.799 422.391 210.829C426.547 203.573 426.432 195.927 422.758 189.888C422.483 190.233 422.207 190.6 421.863 190.921C417.362 195.284 411.231 194.32 406.707 189.659C400.92 183.712 399.772 176.203 401.448 171.496C401.724 170.693 402.826 170.693 403.193 171.45C406.477 178.545 412.677 172.553 418.854 176.02C432.839 184.056 437.042 200.221 428.844 214.525C417.523 234.272 397.636 232.183 384.019 224.399C382.825 223.71 381.677 222.975 380.597 222.171C356.577 205.8 356.623 175.538 356.715 146.216C356.807 117.033 356.922 89.4564 334.28 76.4834C323.717 70.4447 312.005 72.4423 307.022 81.1675C305.162 84.428 301.924 92.6251 312.189 98.4801C314.876 100.019 317.562 100.363 319.882 99.9496C318.779 97.7683 318.894 94.9901 320.157 92.2806C322.775 86.6552 327.689 83.831 331.432 83.7621C332.075 83.7621 332.374 84.5198 331.938 84.979C327.345 89.709 335.382 92.5791 332.282 99.2838C332.167 99.5364 332.029 99.743 331.892 99.9726C331.892 99.9956 331.892 100.041 331.869 100.064C331.846 100.11 331.8 100.133 331.777 100.179C331.409 100.799 331.019 101.373 330.56 101.832C325.669 107.917 316.322 109.433 308.515 104.955C297.676 98.7557 294.576 87.964 300.592 77.4708C307.688 65.0718 323.786 61.8802 338.023 70.0314C364.431 85.1398 364.316 116.206 364.224 146.262C364.178 158.799 364.385 170.991 365.878 182.013C367.83 196.524 374.65 210.438 387.762 217.947" fill="#C7A568"/>
<path fill-rule="evenodd" clip-rule="evenodd" d="M280.43 76.5063C293.221 77.3788 307.32 72.1667 308.469 54.9688C309.02 46.611 305.598 39.8145 299.628 35.957C299.536 36.3933 299.444 36.8525 299.283 37.2888C297.148 43.1898 291.2 44.9807 285.092 42.7765C277.284 39.9523 272.967 33.7069 272.416 28.7473C272.324 27.8977 273.312 27.4155 273.977 27.9436C280.04 32.8803 283.002 24.775 290.075 25.2113C306.149 26.2904 317.011 39.0109 315.886 55.451C314.347 78.1595 295.54 84.9789 279.902 83.9457C278.524 83.8539 277.169 83.6702 275.86 83.4406C247.11 79.2157 233.906 51.9839 221.161 25.5786C219.6 22.3182 218.038 19.1036 216.477 15.935L216.477 -4.3488e-06C220.564 7.11793 224.239 14.764 227.89 22.3411C233.332 33.638 238.866 44.4986 245.02 53.7748C253.127 65.9672 265.343 75.496 280.43 76.5063Z" fill="#C7A568"/>
<path fill-rule="evenodd" clip-rule="evenodd" d="M152.547 76.5063C139.756 77.3788 125.679 72.1667 124.508 54.9688C123.934 46.611 127.379 39.8145 133.349 35.957C133.441 36.3933 133.533 36.8525 133.694 37.2888C135.829 43.1898 141.777 44.9807 147.885 42.7765C155.693 39.9523 160.01 33.7069 160.561 28.7473C160.653 27.8977 159.665 27.4155 158.999 27.9436C152.937 32.8803 149.975 24.775 142.902 25.2113C126.827 26.2904 115.966 39.0109 117.091 55.451C118.629 78.1595 137.437 84.9789 153.075 83.9457C154.453 83.8539 155.807 83.6702 157.116 83.4406C185.867 79.2157 199.071 51.9839 211.815 25.5786C213.377 22.3182 214.938 19.1036 216.5 15.935L216.5 0C212.412 7.11793 208.738 14.764 205.087 22.3411C199.645 33.638 194.111 44.4986 187.956 53.7748C179.85 65.9672 167.634 75.496 152.547 76.5063Z" fill="#C7A568"/>
<path d="M316.943 116.068C291.246 90.3747 255.722 74.4627 216.5 74.4627C177.278 74.4627 141.754 90.3517 116.058 116.068C90.3615 141.762 74.4478 177.282 74.4478 216.5C74.4478 255.717 90.3386 291.238 116.058 316.932C141.754 342.625 177.278 358.537 216.5 358.537C255.722 358.537 291.246 342.648 316.942 316.932C342.639 291.215 358.552 255.717 358.552 216.5C358.552 177.282 342.662 141.762 316.943 116.068ZM216.5 66.8396C257.834 66.8396 295.265 83.6012 322.339 110.672C349.413 137.766 366.176 175.17 366.176 216.5C366.176 257.83 349.413 295.256 322.339 322.328C295.242 349.422 257.834 366.16 216.5 366.16C175.166 366.16 137.735 349.399 110.661 322.328C83.5644 295.233 66.8239 257.83 66.8239 216.5C66.8239 175.17 83.5873 137.743 110.661 110.672C137.758 83.5782 175.166 66.8396 216.5 66.8396Z" fill="#C7A568"/>
<path fill-rule="evenodd" clip-rule="evenodd" d="M214.158 70.812L214.066 69.9854C213.722 67.1382 213.469 64.1074 213.193 61.0765C212.964 58.0456 212.252 55.0148 212.206 52.1676C212.206 49.3204 212.642 46.6799 213.193 44.4067C213.768 42.1336 214.411 40.2278 215.031 38.919C215.628 37.5873 216.11 36.8296 216.11 36.8296L216.937 36.8296C216.937 36.8296 217.419 37.5873 217.993 38.919C218.613 40.2508 219.256 42.1336 219.83 44.4067C220.358 46.6799 220.817 49.3434 220.817 52.1676C220.748 55.0148 220.06 58.0456 219.83 61.0765C219.554 64.1074 219.302 67.1382 218.957 69.9854L218.865 70.812" fill="#C7A568"/>
<path fill-rule="evenodd" clip-rule="evenodd" d="M45.2609 215.076C34.1466 208.716 19.1974 207.224 10.609 222.194C6.45261 229.45 6.56741 237.096 10.2416 243.135C10.5171 242.767 10.7927 242.423 11.1372 242.102C15.638 237.739 21.7693 238.703 26.2931 243.364C32.0799 249.311 33.228 256.82 31.5517 261.527C31.2762 262.33 30.1739 262.353 29.8065 261.573C26.5227 254.478 20.3226 260.47 14.1454 257.003C0.160627 248.99 -4.04172 232.802 4.15626 218.521C15.4773 198.774 35.3637 200.863 48.981 208.647C50.1751 209.336 51.3233 210.071 52.4026 210.874C76.4224 227.246 76.3765 257.508 76.2847 286.83C76.1928 316.013 76.078 343.59 98.72 356.563C109.283 362.601 120.995 360.604 125.978 351.878C127.838 348.618 131.076 340.421 120.811 334.566C118.124 333.027 115.437 332.683 113.141 333.096C114.243 335.278 114.129 338.056 112.866 340.765C110.248 346.391 105.333 349.215 101.59 349.284C100.947 349.284 100.649 348.526 101.085 348.067C105.678 343.337 97.6407 340.49 100.741 333.762C100.856 333.51 100.993 333.303 101.131 333.073C101.131 333.05 101.131 333.004 101.154 332.982C101.177 332.936 101.223 332.913 101.246 332.867C101.613 332.247 102.004 331.673 102.463 331.213C107.354 325.129 116.7 323.636 124.508 328.091C135.324 334.29 138.447 345.082 132.43 355.575C125.335 367.974 109.237 371.166 94.9999 363.015C68.5919 347.906 68.7067 316.84 68.7985 286.784C68.8445 274.247 68.6378 262.055 67.1452 251.033C65.1933 236.522 58.3731 222.608 45.2609 215.099" fill="#C7A568"/>
<path fill-rule="evenodd" clip-rule="evenodd" d="M152.547 356.494C139.756 355.621 125.679 360.833 124.508 378.031C123.934 386.389 127.379 393.209 133.349 397.02C133.441 396.584 133.533 396.148 133.694 395.688C135.829 389.787 141.777 387.996 147.885 390.201C155.693 393.025 160.01 399.27 160.561 404.23C160.653 405.079 159.665 405.562 158.999 405.033C152.937 400.097 149.975 408.202 142.902 407.766C126.827 406.687 115.966 393.966 117.091 377.526C118.629 354.818 137.437 347.975 153.075 349.031C154.453 349.123 155.807 349.284 157.116 349.537C185.867 353.761 199.071 380.993 211.815 407.398C213.377 410.659 214.938 413.874 216.5 417.042L216.5 432.977C212.412 425.859 208.738 418.213 205.087 410.636C199.645 399.339 194.111 388.479 187.956 379.202C179.85 367.01 167.634 357.481 152.547 356.471" fill="#C7A568"/>
<path fill-rule="evenodd" clip-rule="evenodd" d="M280.43 356.494C293.221 355.621 307.32 360.833 308.469 378.031C309.02 386.389 305.598 393.209 299.628 397.02C299.536 396.584 299.444 396.148 299.283 395.688C297.148 389.787 291.2 387.996 285.092 390.201C277.284 393.025 272.967 399.27 272.416 404.23C272.324 405.079 273.312 405.562 273.977 405.033C280.04 400.097 283.002 408.202 290.075 407.766C306.149 406.687 317.011 393.966 315.886 377.526C314.347 354.818 295.54 347.975 279.902 349.031C278.524 349.123 277.169 349.284 275.86 349.537C247.11 353.761 233.906 380.993 221.161 407.398C219.6 410.659 218.038 413.874 216.477 417.042L216.477 432.977C220.564 425.859 224.239 418.213 227.89 410.636C233.332 399.339 238.866 388.479 245.02 379.202C253.127 367.01 265.343 357.481 280.43 356.471" fill="#C7A568"/>
<path fill-rule="evenodd" clip-rule="evenodd" d="M387.739 215.076C398.853 208.716 413.802 207.224 422.391 222.194C426.547 229.45 426.432 237.096 422.758 243.135C422.483 242.767 422.207 242.423 421.863 242.102C417.362 237.739 411.231 238.703 406.707 243.364C400.92 249.311 399.772 256.82 401.448 261.527C401.724 262.33 402.826 262.353 403.193 261.573C406.477 254.478 412.677 260.47 418.854 257.003C432.839 248.967 437.042 232.779 428.844 218.475C417.523 198.728 397.636 200.818 384.019 208.601C382.825 209.29 381.677 210.025 380.597 210.829C356.577 227.2 356.623 257.463 356.715 286.784C356.807 315.967 356.922 343.544 334.28 356.517C323.717 362.555 312.005 360.558 307.022 351.833C305.162 348.572 301.924 340.375 312.189 334.52C314.876 332.982 317.562 332.637 319.882 333.05C318.779 335.232 318.894 338.01 320.157 340.719C322.775 346.345 327.689 349.169 331.432 349.238C332.075 349.238 332.374 348.48 331.938 348.021C327.345 343.291 335.382 340.444 332.282 333.716C332.167 333.464 332.029 333.257 331.892 333.027C331.892 333.004 331.892 332.959 331.869 332.936C331.846 332.89 331.8 332.867 331.777 332.821C331.409 332.201 331.019 331.627 330.56 331.168C325.669 325.083 316.322 323.59 308.515 328.045C297.676 334.244 294.576 345.036 300.592 355.529C307.688 367.928 323.786 371.12 338.023 362.969C364.431 347.86 364.316 316.794 364.224 286.738C364.178 274.201 364.385 262.009 365.878 250.988C367.83 236.476 374.65 222.562 387.762 215.053" fill="#C7A568"/>
<path fill-rule="evenodd" clip-rule="evenodd" d="M280.43 356.494C293.221 355.621 307.32 360.833 308.469 378.031C309.02 386.389 305.598 393.209 299.628 397.02C299.536 396.584 299.444 396.148 299.283 395.688C297.148 389.787 291.2 387.996 285.092 390.201C277.284 393.025 272.967 399.27 272.416 404.23C272.324 405.079 273.312 405.562 273.977 405.033C280.04 400.097 283.002 408.202 290.075 407.766C306.149 406.687 317.011 393.966 315.886 377.526C314.347 354.818 295.54 347.975 279.902 349.031C278.524 349.123 277.169 349.284 275.86 349.537C247.11 353.761 233.906 380.993 221.161 407.398C219.6 410.659 218.038 413.874 216.477 417.042L216.477 432.977C220.564 425.859 224.239 418.213 227.89 410.636C233.332 399.339 238.866 388.479 245.02 379.202C253.127 367.01 265.343 357.481 280.43 356.471" fill="#C7A568"/>
<path fill-rule="evenodd" clip-rule="evenodd" d="M152.547 356.494C139.756 355.621 125.679 360.833 124.508 378.031C123.934 386.389 127.379 393.209 133.349 397.02C133.441 396.584 133.533 396.148 133.694 395.688C135.829 389.787 141.777 387.996 147.885 390.201C155.693 393.025 160.01 399.27 160.561 404.23C160.653 405.079 159.665 405.562 158.999 405.033C152.937 400.097 149.975 408.202 142.902 407.766C126.827 406.687 115.966 393.966 117.091 377.526C118.629 354.818 137.437 347.975 153.075 349.031C154.453 349.123 155.807 349.284 157.116 349.537C185.867 353.761 199.071 380.993 211.815 407.398C213.377 410.659 214.938 413.874 216.5 417.042L216.5 432.977C212.412 425.859 208.738 418.213 205.087 410.636C199.645 399.339 194.111 388.479 187.956 379.202C179.85 367.01 167.634 357.481 152.547 356.471" fill="#C7A568"/>
<path fill-rule="evenodd" clip-rule="evenodd" d="M214.158 362.188L214.066 363.015C213.722 365.862 213.469 368.893 213.193 371.923C212.964 374.954 212.252 377.985 212.206 380.832C212.206 383.68 212.642 386.32 213.193 388.593C213.768 390.866 214.411 392.749 215.031 394.081C215.628 395.413 216.11 396.17 216.11 396.17L216.937 396.17C216.937 396.17 217.419 395.413 217.993 394.081C218.613 392.749 219.256 390.866 219.83 388.593C220.358 386.32 220.817 383.657 220.817 380.832C220.748 377.985 220.06 374.954 219.83 371.923C219.554 368.893 219.302 365.862 218.957 363.015L218.865 362.188" fill="#C7A568"/>
<path fill-rule="evenodd" clip-rule="evenodd" d="M125.932 216.385C125.932 159.074 150.273 114.163 181.366 114.163C183.455 114.163 185.178 115.862 185.178 117.974C185.178 120.087 183.478 121.763 181.366 121.763C168.828 121.763 157.231 131.934 148.597 148.214C150.365 155.699 156.91 171.979 180.034 175.882C181.687 171.175 183.639 166.606 185.981 162.059C186.946 160.2 189.242 159.465 191.102 160.429C192.411 161.095 193.169 162.427 193.169 163.804C193.169 164.401 193.031 164.998 192.733 165.549C184.879 180.727 181.389 196.432 181.389 216.385C181.389 238.772 185.935 252.893 192.756 267.244C193.651 269.15 192.847 271.4 190.964 272.296C189.081 273.191 186.808 272.387 185.89 270.505C183.708 265.912 181.779 261.297 180.08 256.521C156.542 260.448 150.135 277.255 148.505 284.557C157.139 300.997 168.782 311.26 181.366 311.26C183.455 311.26 185.178 312.96 185.178 315.072C185.178 317.184 183.478 318.861 181.366 318.861C150.296 318.861 125.932 273.857 125.932 216.385ZM134.612 196.937C133.969 202.632 133.625 208.51 133.556 214.48L173.811 214.48C173.834 211.701 173.948 209.015 174.109 206.397C161.571 206.053 146.209 203.94 134.612 196.96L134.612 196.937ZM174.385 202.609C174.683 199.233 175.12 195.95 175.671 192.758C155.095 191.633 143.66 182.38 138.263 176.112C136.954 181.439 135.898 187.041 135.117 192.827C146.645 200.45 163.316 202.31 174.385 202.609ZM133.556 218.291C133.625 224.146 133.946 229.909 134.543 235.489C146.14 228.463 161.525 226.35 174.063 226.006C173.903 223.549 173.834 220.955 173.811 218.268L133.556 218.268L133.556 218.291ZM135.048 239.622C135.829 245.431 136.862 251.034 138.171 256.384C143.522 250.115 154.981 240.793 175.648 239.645C175.097 236.545 174.706 233.239 174.408 229.795C163.316 230.093 146.599 231.953 135.071 239.599L135.048 239.622ZM146.163 153.082C143.591 158.684 141.317 164.861 139.457 171.519C143.384 176.823 154.269 187.937 176.383 189.016C177.049 185.778 177.852 182.633 178.817 179.533C157.782 175.767 149.4 162.128 146.163 153.082ZM178.817 252.893C177.875 249.886 177.094 246.694 176.383 243.411C153.878 244.49 143.131 255.718 139.342 261.022C141.203 267.749 143.453 273.995 146.048 279.666C149.217 270.619 157.575 256.728 178.817 252.916L178.817 252.893Z" fill="#C7A568"/>
<path fill-rule="evenodd" clip-rule="evenodd" d="M212.688 216.018L212.688 154.551C206.052 163.873 196.131 167.685 187.038 167.685C172.525 167.685 157.828 158.248 157.828 140.177C157.828 123.278 170.435 114.162 182.307 114.162C192.733 114.162 201.206 122.635 201.206 133.059C201.206 141.808 194.088 148.925 185.339 148.925C183.249 148.925 181.55 147.226 181.55 145.114C181.55 143.002 183.249 141.325 185.339 141.325C189.908 141.325 193.605 137.606 193.605 133.059C193.605 126.837 188.531 121.763 182.307 121.763C174.109 121.763 165.429 128.215 165.429 140.177C165.429 153.839 176.635 160.085 187.038 160.085C202.883 160.085 212.688 147.295 212.688 126.699L212.688 67.2529L220.289 67.2529L220.289 216.018C220.289 218.107 218.59 219.806 216.477 219.806C214.387 219.806 212.688 218.107 212.688 216.018Z" fill="#C7A568"/>
<path fill-rule="evenodd" clip-rule="evenodd" d="M212.688 365.747L212.688 306.301C212.688 285.705 202.86 272.915 187.015 272.915C176.612 272.915 165.406 279.138 165.406 292.823C165.406 304.785 174.109 311.237 182.284 311.237C188.508 311.237 193.583 306.163 193.583 299.941C193.583 295.371 189.862 291.675 185.316 291.675C183.203 291.675 181.504 289.975 181.504 287.886C181.504 285.797 183.203 284.074 185.316 284.074C194.065 284.074 201.183 291.192 201.183 299.941C201.183 310.365 192.71 318.815 182.284 318.815C170.412 318.815 157.805 309.699 157.805 292.8C157.805 274.752 172.502 265.292 187.015 265.292C196.108 265.292 206.052 269.081 212.688 278.426L212.688 216.959C212.688 214.847 214.387 213.171 216.477 213.171C218.567 213.171 220.266 214.87 220.266 216.959L220.266 365.701" fill="#C7A568"/>
<path fill-rule="evenodd" clip-rule="evenodd" d="M307.045 216.385C307.045 159.074 282.704 114.163 251.611 114.163C249.521 114.163 247.822 115.862 247.822 117.974C247.822 120.087 249.521 121.763 251.611 121.763C264.149 121.763 275.746 131.934 284.38 148.214C282.612 155.699 276.067 171.979 252.943 175.882C251.289 171.175 249.361 166.606 246.995 162.059C246.031 160.2 243.735 159.465 241.874 160.429C240.566 161.095 239.808 162.427 239.808 163.804C239.808 164.401 239.946 164.998 240.244 165.549C248.098 180.727 251.588 196.432 251.588 216.385C251.588 238.772 247.041 252.893 240.221 267.244C239.326 269.15 240.129 271.4 242.012 272.296C243.895 273.191 246.169 272.387 247.064 270.505C249.246 265.912 251.175 261.297 252.874 256.521C276.412 260.448 282.818 277.255 284.472 284.557C275.837 300.997 264.195 311.26 251.588 311.26C249.498 311.26 247.799 312.96 247.799 315.072C247.799 317.184 249.498 318.861 251.588 318.861C282.658 318.861 307.022 273.857 307.022 216.385M298.342 196.937C298.962 202.632 299.329 208.51 299.398 214.48L259.143 214.48C259.12 211.701 259.005 209.015 258.845 206.397C271.383 206.053 286.745 203.94 298.342 196.96L298.342 196.937ZM258.569 202.609C258.27 199.233 257.834 195.95 257.283 192.758C277.858 191.633 289.294 182.38 294.691 176.112C295.999 181.439 297.056 187.041 297.837 192.827C286.309 200.45 269.637 202.31 258.569 202.609ZM299.398 218.291C299.329 224.146 299.008 229.909 298.411 235.489C286.814 228.463 271.429 226.35 258.89 226.006C259.051 223.549 259.12 220.955 259.166 218.268L299.421 218.268L299.398 218.291ZM297.905 239.622C297.148 245.431 296.091 251.034 294.782 256.384C289.432 250.115 277.973 240.793 257.306 239.645C257.857 236.545 258.247 233.239 258.546 229.795C269.637 230.093 286.355 231.953 297.882 239.599L297.905 239.622ZM286.791 153.082C289.363 158.684 291.636 164.861 293.496 171.519C289.57 176.823 278.685 187.937 256.571 189.016C255.905 185.778 255.078 182.633 254.137 179.533C275.149 175.767 283.553 162.128 286.791 153.082ZM254.137 252.893C255.078 249.886 255.859 246.694 256.548 243.411C279.052 244.49 289.776 255.718 293.588 261.022C291.728 267.749 289.478 273.995 286.883 279.666C283.714 270.619 275.355 256.728 254.114 252.916L254.137 252.893Z" fill="#C7A568"/>
<path fill-rule="evenodd" clip-rule="evenodd" d="M220.289 225.799L220.289 154.551C226.926 163.873 236.915 167.685 245.985 167.685C260.498 167.685 275.195 158.248 275.195 140.177C275.195 123.278 262.588 114.162 250.716 114.162C240.29 114.162 231.817 122.635 231.817 133.059C231.817 141.808 238.935 148.925 247.685 148.925C249.774 148.925 251.474 147.226 251.474 145.114C251.474 143.002 249.774 141.325 247.685 141.325C243.115 141.325 239.418 137.606 239.418 133.059C239.418 126.837 244.493 121.763 250.716 121.763C258.914 121.763 267.617 128.215 267.617 140.177C267.617 153.839 256.411 160.085 246.008 160.085C230.163 160.085 220.312 147.295 220.312 126.699L220.312 67.2529L212.711 67.2529L212.711 225.799C212.711 227.889 214.41 229.588 216.5 229.588C218.59 229.588 220.289 227.889 220.289 225.799Z" fill="#C7A568"/>
<path fill-rule="evenodd" clip-rule="evenodd" d="M220.289 365.747L220.289 306.301C220.289 285.705 230.117 272.915 245.962 272.915C256.365 272.915 267.571 279.138 267.571 292.823C267.571 304.785 258.868 311.237 250.693 311.237C244.47 311.237 239.395 306.163 239.395 299.941C239.395 295.371 243.115 291.675 247.662 291.675C249.774 291.675 251.474 289.975 251.474 287.886C251.474 285.797 249.774 284.074 247.662 284.074C238.912 284.074 231.794 291.192 231.794 299.941C231.794 310.365 240.267 318.815 250.693 318.815C262.565 318.815 275.172 309.699 275.172 292.8C275.172 274.752 260.475 265.292 245.962 265.292C236.869 265.292 226.926 269.081 220.289 278.426L220.289 216.959C220.289 214.847 218.59 213.171 216.5 213.171C214.41 213.171 212.711 214.87 212.711 216.959L212.711 365.701" fill="#C7A568"/>
<path fill-rule="evenodd" clip-rule="evenodd" d="M251.611 217.051C263.483 218.98 312.901 221.965 324.52 222.194C328.286 222.194 331.8 221.62 334.831 220.886C337.839 220.105 340.365 219.278 342.111 218.452C343.442 217.855 344.545 217.235 345.762 216.5C344.545 215.742 343.442 215.145 342.111 214.548C340.365 213.722 337.839 212.895 334.831 212.114C331.8 211.403 328.286 210.806 324.52 210.806C312.832 211.035 263.506 214.02 251.611 215.949" fill="#C7A568"/>
<path fill-rule="evenodd" clip-rule="evenodd" d="M181.366 217.051C169.494 218.98 120.099 221.965 108.457 222.194C104.691 222.194 101.177 221.62 98.1459 220.886C95.1377 220.105 92.6117 219.278 90.8665 218.452C89.5346 217.855 88.4324 217.235 87.2153 216.5C88.4324 215.742 89.5346 215.145 90.8665 214.548C92.6117 213.722 95.1377 212.895 98.146 212.114C101.177 211.403 104.691 210.806 108.457 210.806C120.122 211.035 169.471 214.02 181.366 215.949" fill="#C7A568"/>
</g>
<defs>
<clipPath id="clip0_1_2448">
<rect width="433" height="433" fill="white" transform="translate(433) rotate(90)"/>
</clipPath>
</defs>
</svg>
