<svg width="54" height="42" viewBox="0 0 54 42" fill="none" xmlns="http://www.w3.org/2000/svg">
<path d="M50.49 15.4405L41.261 5.29839C39.4348 3.47221 36.4599 3.46979 34.6165 5.31312C34.0324 5.89726 33.6348 6.59681 33.4286 7.34307C31.5926 5.93661 28.9441 6.07652 27.2529 7.76775C26.6712 8.35189 26.2735 9.05144 26.0624 9.79516C24.2264 8.39366 21.5779 8.53103 19.8893 10.2223C19.3173 10.7942 18.9246 11.4765 18.7111 12.2031L14.3616 7.85358C12.5354 6.02739 9.56048 6.02498 7.71715 7.8683C5.88855 9.69449 5.88855 12.6694 7.71715 14.498L24.4277 31.2085L14.5162 32.7647C11.8383 33.1476 9.81821 35.4745 9.81821 38.1819C9.81821 40.2118 11.4701 41.8637 13.5 41.8637H36.644C40.2497 41.8637 43.6394 40.4597 46.1897 37.9094L50.0506 34.0485C52.5984 31.5031 54 28.1158 54 24.515C54 21.1522 52.7531 17.9295 50.49 15.4405ZM48.3152 32.3131L44.4543 36.174C42.3679 38.2604 39.5942 39.4091 36.6438 39.4091H13.4999C12.8225 39.4091 12.2726 38.8592 12.2726 38.1818C12.2726 36.6894 13.3869 35.4057 14.8817 35.1921L27.1913 33.2579C27.6479 33.1867 28.0234 32.8652 28.1683 32.4258C28.3106 31.9889 28.1953 31.5054 27.8688 31.1789L9.45244 12.7626C8.58112 11.8913 8.58112 10.4725 9.46475 9.58645C9.90162 9.15199 10.4736 8.9335 11.0455 8.9335C11.6175 8.9335 12.1893 9.152 12.6263 9.58887L24.9064 21.869C25.3851 22.3476 26.1632 22.3476 26.6418 21.869C26.8799 21.6284 27.0002 21.3143 27.0002 21.0001C27.0002 20.6859 26.88 20.3718 26.6394 20.1312L21.6248 15.1165C20.7534 14.2452 20.7534 12.8289 21.6395 11.9428C22.5084 11.0739 23.9296 11.0739 24.7985 11.9428L29.8156 16.9599C30.2942 17.4385 31.0723 17.4385 31.551 16.9599C31.789 16.7193 31.9094 16.4052 31.9094 16.091C31.9094 15.7767 31.7891 15.4626 31.5485 15.2221L28.9884 12.6619C28.1171 11.7906 28.1171 10.3742 29.0031 9.48819C29.8721 8.61928 31.2932 8.61928 32.1621 9.48819L34.7345 12.0605C34.7394 12.0629 34.7369 12.0629 34.7369 12.0629L34.7393 12.0653C34.7417 12.0678 34.7417 12.0678 34.7417 12.0678C34.7441 12.0702 34.7441 12.0702 34.7441 12.0702H34.7466C34.749 12.0702 34.749 12.0726 34.749 12.0726C35.23 12.5291 35.991 12.5194 36.4598 12.0481C36.9384 11.5695 36.9384 10.7913 36.4598 10.3127L36.3542 10.2072C35.9321 9.78504 35.6989 9.22287 35.6989 8.62641C35.6989 8.02996 35.9296 7.47032 36.3666 7.03345C37.2404 6.16454 38.6542 6.16696 39.4863 6.99169L48.6762 17.0922C50.5243 19.1272 51.5454 21.7634 51.5454 24.515C51.5454 27.4604 50.3991 30.2292 48.3152 32.3131Z" fill="#CAA769"/>
<path d="M21.0992 6.64871C19.3124 2.69443 15.3655 0.136719 11.0455 0.136719C4.95573 0.136719 0 5.09245 0 11.1822C0 15.5022 2.5576 19.4491 6.51188 21.2385C6.67629 21.3121 6.84819 21.3465 7.01755 21.3465C7.48388 21.3465 7.93064 21.0765 8.13682 20.6249C8.41423 20.0064 8.13924 19.2798 7.52323 19C4.44522 17.6082 2.45462 14.54 2.45462 11.1822C2.45462 6.44494 6.30822 2.59123 11.0456 2.59123C14.4034 2.59123 17.4716 4.58183 18.8633 7.65983C19.1407 8.27838 19.8697 8.55578 20.4858 8.27343C21.1042 7.99373 21.3791 7.26726 21.0992 6.64871Z" fill="#CAA769"/>
</svg>
