<svg width="353" height="353" fill="none" xmlns="http://www.w3.org/2000/svg"><g opacity=".3" clip-path="url(#a)" fill="#C7A568"><path fill-rule="evenodd" clip-rule="evenodd" d="M177.679 316.101c5.186 9.061 6.402 21.248-5.802 28.25-5.916 3.388-12.149 3.295-17.072.299.281-.224.58-.449.842-.73 3.557-3.669 2.771-8.668-1.029-12.356-4.848-4.717-10.969-5.653-14.807-4.287-.655.225-.655 1.124-.037 1.423 5.784 2.677.898 7.732 3.725 12.768 6.533 11.401 19.73 14.827 31.373 8.143 16.098-9.229 14.394-25.441 8.049-36.543a28.715 28.715 0 0 0-1.816-2.789c-13.347-19.582-38.018-19.545-61.922-19.47-23.792.075-46.273.169-56.85-18.29-4.922-8.612-3.294-18.159 3.82-22.222 2.658-1.516 9.34-4.156 14.114 4.212 1.254 2.191 1.535 4.381 1.198 6.253-1.779-.898-4.044-.805-6.252.225-4.587 2.134-6.889 6.14-6.945 9.192 0 .524.617.767.992.412 3.856-3.745 6.196 2.808 11.662.28.206-.093.374-.205.561-.318.019 0 .056 0 .075-.019.038-.018.056-.056.094-.074.505-.3.973-.618 1.347-.993 4.961-3.987 6.197-11.607 2.546-17.972-5.054-8.817-13.852-11.363-22.406-6.458-10.108 5.784-12.71 18.908-6.065 30.515 12.317 21.529 37.644 21.435 62.146 21.36 10.221-.037 20.161.131 29.146 1.348 11.83 1.591 23.174 7.151 29.295 17.841"/><path fill-rule="evenodd" clip-rule="evenodd" d="M62.371 228.638c.712 10.427-3.538 21.903-17.558 22.858-6.814.468-12.355-2.34-15.5-7.208.356-.075.73-.15 1.086-.281 4.811-1.741 6.271-6.589 4.474-11.569-2.302-6.365-7.394-9.885-11.437-10.334-.693-.075-1.086.73-.655 1.273 4.024 4.942-2.583 7.357-2.228 13.123.88 13.105 11.25 21.96 24.653 21.042 18.513-1.254 24.072-16.586 23.23-29.335a31.069 31.069 0 0 0-.412-3.295c-3.444-23.438-25.645-34.203-47.171-44.593a778.085 778.085 0 0 1-7.862-3.819H0c5.803 3.332 12.036 6.328 18.213 9.304 9.21 4.437 18.064 8.949 25.627 13.966 9.94 6.608 17.708 16.568 18.531 28.868Z"/><path fill-rule="evenodd" clip-rule="evenodd" d="M62.371 124.381c.712-10.427-3.538-21.922-17.558-22.858-6.814-.449-12.355 2.34-15.5 7.208.356.075.73.149 1.086.28 4.811 1.741 6.271 6.59 4.474 11.57-2.302 6.365-7.394 9.885-11.437 10.334-.693.075-1.086-.73-.655-1.273 4.024-4.942-2.583-7.357-2.228-13.123.88-13.105 11.25-21.96 24.653-21.043 18.513 1.255 24.072 16.587 23.23 29.336a31.069 31.069 0 0 1-.412 3.295C64.58 151.545 42.38 162.31 20.853 172.7a778.085 778.085 0 0 0-7.862 3.819H0c5.803-3.333 12.036-6.328 18.213-9.304 9.21-4.437 18.064-8.949 25.627-13.966 9.94-6.609 17.708-16.568 18.531-28.868Z"/><path fill-rule="evenodd" clip-rule="evenodd" d="M177.679 36.899c5.185-9.061 6.402-21.248-5.803-28.25-5.915-3.389-12.148-3.295-17.071-.3.281.225.58.45.842.73 3.557 3.67 2.771 8.668-1.029 12.356-4.849 4.718-10.97 5.654-14.807 4.287-.655-.224-.655-1.123-.037-1.422 5.784-2.678.898-7.732 3.725-12.768C150.05.131 163.228-3.295 174.89 3.388c16.098 9.23 14.395 25.442 8.049 36.544a28.522 28.522 0 0 1-1.815 2.789c-13.347 19.582-38.018 19.544-61.922 19.47-23.792-.075-46.273-.169-56.85 18.29-4.923 8.611-3.294 18.159 3.82 22.221 2.657 1.517 9.34 4.156 14.113-4.212 1.254-2.19 1.535-4.38 1.198-6.271-1.778.898-4.043.805-6.252-.225-4.586-2.134-6.888-6.14-6.945-9.192 0-.524.618-.767.992-.412 3.856 3.745 6.196-2.808 11.662-.28.206.093.375.205.562.318.019 0 .056 0 .075.019.037.018.056.056.093.074.506.3.974.618 1.348.993 4.96 3.987 6.196 11.607 2.546 17.972-5.054 8.836-13.852 11.363-22.407 6.458-10.108-5.784-12.71-18.908-6.064-30.515C69.409 55.9 94.736 55.994 119.239 56.07c10.221.037 20.16-.131 29.145-1.348 11.831-1.591 23.174-7.151 29.295-17.841"/><path fill-rule="evenodd" clip-rule="evenodd" d="M62.371 124.381c.712-10.427-3.538-21.922-17.558-22.858-6.814-.449-12.355 2.34-15.5 7.208.356.075.73.149 1.086.28 4.811 1.741 6.271 6.59 4.474 11.57-2.302 6.365-7.394 9.885-11.437 10.334-.693.075-1.086-.73-.655-1.273 4.024-4.942-2.583-7.357-2.228-13.123.88-13.105 11.25-21.96 24.653-21.043 18.513 1.255 24.072 16.587 23.23 29.336a31.069 31.069 0 0 1-.412 3.295C64.58 151.545 42.38 162.31 20.853 172.7a778.085 778.085 0 0 0-7.862 3.819H0c5.803-3.333 12.036-6.328 18.213-9.304 9.21-4.437 18.064-8.949 25.627-13.966 9.94-6.609 17.708-16.568 18.531-28.868Z"/><path fill-rule="evenodd" clip-rule="evenodd" d="M62.371 228.638c.712 10.427-3.538 21.903-17.558 22.858-6.814.468-12.355-2.34-15.5-7.208.356-.075.73-.15 1.086-.281 4.811-1.741 6.271-6.589 4.474-11.569-2.302-6.365-7.394-9.885-11.437-10.334-.693-.075-1.086.73-.655 1.273 4.024 4.942-2.583 7.357-2.228 13.123.88 13.105 11.25 21.96 24.653 21.042 18.513-1.254 24.072-16.586 23.23-29.335a31.069 31.069 0 0 0-.412-3.295c-3.444-23.438-25.645-34.203-47.171-44.593a778.085 778.085 0 0 1-7.862-3.819H0c5.803 3.332 12.036 6.328 18.213 9.304 9.21 4.437 18.064 8.949 25.627 13.966 9.94 6.608 17.708 16.568 18.531 28.868Z"/><path d="M94.623 94.615c-20.946 20.949-33.918 49.91-33.918 81.885 0 31.975 12.953 60.936 33.918 81.885 20.947 20.948 49.905 33.922 81.877 33.922 31.971 0 60.93-12.955 81.876-33.922 20.946-20.949 33.918-49.91 33.918-81.885 0-31.975-12.953-60.936-33.918-81.885-20.965-20.949-49.905-33.922-81.876-33.922-31.972 0-60.93 12.955-81.877 33.922ZM54.49 176.5c0-33.698 13.665-64.213 35.735-86.284 22.088-22.072 52.581-35.738 86.275-35.738s64.205 13.666 86.275 35.738c22.088 22.09 35.734 52.586 35.734 86.284 0 33.697-13.665 64.212-35.734 86.284-22.088 22.091-52.581 35.738-86.275 35.738s-64.206-13.666-86.275-35.738C68.136 240.694 54.49 210.197 54.49 176.5Z"/><path fill-rule="evenodd" clip-rule="evenodd" d="m57.73 178.41-.675.074c-2.32.281-4.792.487-7.263.712-2.47.187-4.941.767-7.262.805-2.322 0-4.474-.356-6.327-.805-1.854-.468-3.407-.992-4.474-1.498-1.086-.487-1.704-.88-1.704-.88v-.674s.618-.393 1.704-.861c1.086-.505 2.62-1.03 4.474-1.498 1.853-.43 4.024-.805 6.327-.805 2.32.057 4.792.618 7.262.805 2.471.225 4.942.431 7.263.712l.674.075M175.34 316.101c-5.186 9.061-6.402 21.248 5.802 28.25 5.916 3.388 12.149 3.295 17.072.299-.3-.224-.58-.449-.842-.73-3.557-3.669-2.771-8.668 1.029-12.356 4.848-4.717 10.969-5.653 14.807-4.287.655.225.674 1.124.037 1.423-5.784 2.677-.898 7.732-3.725 12.768-6.533 11.401-19.73 14.827-31.373 8.143-16.098-9.229-14.394-25.441-8.049-36.543a28.715 28.715 0 0 1 1.816-2.789c13.347-19.582 38.018-19.545 61.922-19.47 23.792.075 46.273.169 56.849-18.29 4.923-8.612 3.295-18.159-3.819-22.222-2.658-1.516-9.34-4.156-14.114 4.212-1.254 2.191-1.535 4.381-1.198 6.253 1.779-.898 4.044-.805 6.253.225 4.586 2.134 6.888 6.14 6.944 9.192 0 .524-.618.767-.992.412-3.856-3.745-6.177 2.808-11.662.28-.206-.093-.374-.205-.561-.318-.019 0-.056 0-.075-.019-.038-.018-.056-.056-.094-.074-.505-.3-.973-.618-1.348-.993-4.96-3.987-6.177-11.607-2.545-17.972 5.054-8.817 13.852-11.363 22.406-6.458 10.108 5.784 12.71 18.908 6.065 30.515-12.317 21.529-37.644 21.435-62.146 21.36-10.221-.037-20.161.131-29.146 1.348-11.83 1.591-23.174 7.151-29.295 17.841"/><path fill-rule="evenodd" clip-rule="evenodd" d="M290.629 228.638c-.711 10.427 3.538 21.903 17.558 22.858 6.814.468 12.374-2.34 15.481-7.208a8.487 8.487 0 0 1-1.086-.281c-4.811-1.741-6.271-6.589-4.474-11.569 2.303-6.365 7.394-9.885 11.438-10.334.692-.075 1.085.73.655 1.273-4.025 4.942 2.583 7.357 2.227 13.123-.88 13.105-11.25 21.96-24.652 21.042-18.513-1.254-24.092-16.586-23.231-29.335.075-1.123.206-2.228.412-3.295 3.445-23.438 25.645-34.203 47.172-44.593a787.573 787.573 0 0 0 7.862-3.819h12.991c-5.803 3.332-12.037 6.328-18.214 9.304-9.21 4.437-18.064 8.949-25.626 13.966-9.94 6.608-17.708 16.568-18.532 28.868"/><path fill-rule="evenodd" clip-rule="evenodd" d="M290.629 124.381c-.711-10.427 3.538-21.922 17.558-22.858 6.814-.449 12.374 2.34 15.481 7.208-.356.075-.711.149-1.086.28-4.811 1.741-6.271 6.59-4.474 11.57 2.303 6.365 7.394 9.885 11.438 10.334.692.075 1.085-.73.655-1.273-4.025-4.942 2.583-7.357 2.227-13.123-.88-13.105-11.25-21.96-24.652-21.043-18.513 1.255-24.092 16.587-23.231 29.336.075 1.123.206 2.228.412 3.295 3.445 23.438 25.645 34.203 47.172 44.593a787.573 787.573 0 0 1 7.862 3.819h12.991c-5.803-3.333-12.037-6.328-18.214-9.304-9.21-4.437-18.064-8.949-25.626-13.966-9.94-6.609-17.708-16.568-18.532-28.868"/><path fill-rule="evenodd" clip-rule="evenodd" d="M175.34 36.899c-5.185-9.061-6.402-21.248 5.803-28.25 5.915-3.389 12.148-3.295 17.071-.3-.299.225-.58.45-.842.73-3.557 3.67-2.77 8.668 1.03 12.356 4.848 4.718 10.969 5.654 14.806 4.287.655-.224.674-1.123.038-1.422-5.785-2.678-.899-7.732-3.725-12.768C202.969.131 189.772-3.295 178.11 3.388c-16.098 9.23-14.395 25.442-8.049 36.544a28.715 28.715 0 0 0 1.816 2.789c13.346 19.582 38.018 19.544 61.922 19.47 23.791-.075 46.273-.169 56.849 18.29 4.923 8.611 3.294 18.159-3.819 22.221-2.658 1.517-9.34 4.156-14.114-4.212-1.254-2.19-1.535-4.38-1.198-6.271 1.779.898 4.044.805 6.252-.225 4.587-2.134 6.889-6.14 6.945-9.192 0-.524-.618-.767-.992-.412-3.856 3.745-6.177-2.808-11.662-.28-.206.093-.374.205-.561.318-.019 0-.057 0-.075.019-.038.018-.056.056-.094.074-.505.3-.973.618-1.348.993-4.96 3.987-6.177 11.607-2.545 17.972 5.054 8.836 13.852 11.363 22.406 6.458 10.108-5.784 12.71-18.908 6.065-30.515-12.317-21.529-37.644-21.435-62.147-21.36-10.22.037-20.16-.131-29.145-1.348-11.83-1.591-23.174-7.151-29.295-17.841"/><path fill-rule="evenodd" clip-rule="evenodd" d="M290.629 124.381c-.711-10.427 3.538-21.922 17.558-22.858 6.814-.449 12.374 2.34 15.481 7.208-.356.075-.711.149-1.086.28-4.811 1.741-6.271 6.59-4.474 11.57 2.303 6.365 7.394 9.885 11.438 10.334.692.075 1.085-.73.655-1.273-4.025-4.942 2.583-7.357 2.227-13.123-.88-13.105-11.25-21.96-24.652-21.043-18.513 1.255-24.092 16.587-23.231 29.336.075 1.123.206 2.228.412 3.295 3.445 23.438 25.645 34.203 47.172 44.593a787.573 787.573 0 0 1 7.862 3.819h12.991c-5.803-3.333-12.037-6.328-18.214-9.304-9.21-4.437-18.064-8.949-25.626-13.966-9.94-6.609-17.708-16.568-18.532-28.868"/><path fill-rule="evenodd" clip-rule="evenodd" d="M290.629 228.638c-.711 10.427 3.538 21.903 17.558 22.858 6.814.468 12.374-2.34 15.481-7.208a8.487 8.487 0 0 1-1.086-.281c-4.811-1.741-6.271-6.589-4.474-11.569 2.303-6.365 7.394-9.885 11.438-10.334.692-.075 1.085.73.655 1.273-4.025 4.942 2.583 7.357 2.227 13.123-.88 13.105-11.25 21.96-24.652 21.042-18.513-1.254-24.092-16.586-23.231-29.335.075-1.123.206-2.228.412-3.295 3.445-23.438 25.645-34.203 47.172-44.593a787.573 787.573 0 0 0 7.862-3.819h12.991c-5.803 3.332-12.037 6.328-18.214 9.304-9.21 4.437-18.064 8.949-25.626 13.966-9.94 6.608-17.708 16.568-18.532 28.868m4.661-50.228.674.074c2.322.281 4.792.487 7.263.712 2.471.187 4.942.767 7.263.805 2.321 0 4.474-.356 6.327-.805 1.853-.468 3.388-.992 4.474-1.498 1.086-.487 1.703-.88 1.703-.88v-.674s-.617-.393-1.703-.861c-1.086-.505-2.621-1.03-4.474-1.498-1.853-.43-4.024-.805-6.327-.805-2.321.057-4.792.618-7.263.805-2.471.225-4.941.431-7.263.712l-.674.075m-118.864 75.763c-46.723 0-83.337-19.844-83.337-45.192a3.112 3.112 0 0 1 3.108-3.108 3.084 3.084 0 0 1 3.088 3.108c0 10.222 8.293 19.676 21.564 26.715 6.103-1.442 19.374-6.777 22.557-25.629a88.363 88.363 0 0 1-11.269-4.849 3.102 3.102 0 0 1-1.329-4.175 3.086 3.086 0 0 1 2.751-1.684c.487 0 .974.112 1.423.355 12.373 6.403 25.177 9.248 41.444 9.248 18.25 0 29.763-3.706 41.462-9.267a3.092 3.092 0 0 1 4.118 1.461c.73 1.535.075 3.388-1.46 4.137a120.886 120.886 0 0 1-11.4 4.736c3.201 19.189 16.903 24.412 22.856 25.742 13.403-7.04 21.77-16.531 21.77-26.79a3.112 3.112 0 0 1 3.107-3.108 3.085 3.085 0 0 1 3.089 3.108c0 25.329-36.689 45.192-83.542 45.192Zm-15.855-7.076c4.642.524 9.434.805 14.301.861v-32.818a124.117 124.117 0 0 1-6.589-.243c-.281 10.221-2.003 22.746-7.694 32.2h-.018Zm4.623-32.425a97.814 97.814 0 0 1-8.03-1.048c-.917 16.774-8.461 26.097-13.571 30.496a130.39 130.39 0 0 0 13.627 2.565c6.215-9.398 7.731-22.989 7.974-32.013Zm12.785 33.286c4.774-.056 9.472-.318 14.021-.805-5.728-9.454-7.45-21.997-7.731-32.219-2.003.131-4.118.187-6.308.206v32.818h.018Zm17.39-1.217c4.736-.637 9.303-1.479 13.665-2.546-5.11-4.362-12.71-13.704-13.646-30.553-2.527.45-5.223.768-8.031 1.011.244 9.043 1.76 22.671 7.993 32.069l.019.019Zm-70.551-9.061c4.567 2.097 9.603 3.95 15.031 5.467 4.324-3.202 13.384-12.075 14.264-30.104a80.352 80.352 0 0 1-7.731-1.984c-3.07 17.148-14.189 23.981-21.564 26.621Zm81.371-26.621c-2.453.768-5.055 1.404-7.731 1.984.879 18.347 10.033 27.108 14.357 30.197 5.485-1.516 10.576-3.351 15.2-5.466-7.375-2.584-18.7-9.398-21.808-26.715h-.018Z"/><path fill-rule="evenodd" clip-rule="evenodd" d="M176.107 179.608h-50.111c7.6 5.41 10.707 13.497 10.707 20.911 0 11.831-7.693 23.813-22.425 23.813-13.777 0-21.208-10.278-21.208-19.957 0-8.499 6.907-15.407 15.405-15.407 7.132 0 12.935 5.804 12.935 12.936a3.095 3.095 0 0 1-3.107 3.089 3.08 3.08 0 0 1-3.089-3.089c0-3.725-3.032-6.739-6.739-6.739-5.072 0-9.21 4.137-9.21 9.21 0 6.684 5.261 13.76 15.013 13.76 11.138 0 16.229-9.136 16.229-17.616 0-12.917-10.426-20.911-27.217-20.911H54.827v-6.197h121.28a3.095 3.095 0 0 1 3.088 3.108 3.092 3.092 0 0 1-3.088 3.089Z"/><path fill-rule="evenodd" clip-rule="evenodd" d="M298.173 179.608H249.71c-16.791 0-27.217 8.012-27.217 20.929 0 8.481 5.072 17.617 16.229 17.617 9.752 0 15.012-7.095 15.012-13.76 0-5.073-4.137-9.211-9.209-9.211-3.725 0-6.739 3.033-6.739 6.74a3.095 3.095 0 0 1-3.089 3.107 3.111 3.111 0 0 1-3.107-3.107c0-7.133 5.803-12.936 12.935-12.936 8.498 0 15.387 6.908 15.387 15.407 0 9.679-7.432 19.956-21.209 19.956-14.713 0-22.425-11.981-22.425-23.813 0-7.413 3.089-15.519 10.707-20.929h-50.11a3.08 3.08 0 0 1-3.089-3.089 3.092 3.092 0 0 1 3.089-3.089h121.26m-121.728-70.746c-46.723 0-83.337 19.844-83.337 45.192a3.096 3.096 0 0 0 3.108 3.089 3.08 3.08 0 0 0 3.088-3.089c0-10.222 8.293-19.676 21.564-26.715 6.103 1.442 19.374 6.777 22.557 25.629-3.838 1.348-7.563 2.92-11.269 4.849a3.101 3.101 0 0 0-1.329 4.174 3.087 3.087 0 0 0 2.751 1.685c.487 0 .974-.112 1.423-.355 12.373-6.403 25.177-9.249 41.444-9.249 18.25 0 29.763 3.707 41.462 9.267a3.092 3.092 0 0 0 4.118-1.46 3.1 3.1 0 0 0-1.46-4.119 120.886 120.886 0 0 0-11.4-4.736c3.201-19.189 16.903-24.412 22.856-25.76 13.403 7.039 21.77 16.531 21.77 26.808a3.095 3.095 0 0 0 3.107 3.089 3.08 3.08 0 0 0 3.089-3.089c0-25.329-36.689-45.192-83.542-45.192m-15.855 7.077a147.94 147.94 0 0 1 14.301-.861v32.817c-2.265.019-4.455.113-6.589.244-.281-10.222-2.003-22.746-7.694-32.2h-.018Zm4.623 32.424a97.81 97.81 0 0 0-8.03 1.049c-.917-16.774-8.461-26.097-13.571-30.497a130.133 130.133 0 0 1 13.627-2.564c6.215 9.398 7.731 22.989 7.974 32.012Zm12.785-33.285c4.774.056 9.472.318 14.021.805-5.728 9.454-7.45 21.997-7.731 32.218-2.003-.131-4.118-.187-6.308-.224v-32.818l.018.019Zm17.39 1.216c4.736.618 9.303 1.479 13.665 2.547-5.11 4.361-12.71 13.703-13.646 30.552-2.527-.449-5.223-.768-8.031-1.011.244-9.042 1.76-22.671 7.993-32.069l.019-.019Zm-70.551 9.061c4.567-2.096 9.603-3.95 15.031-5.466 4.324 3.201 13.384 12.075 14.264 30.103a86.696 86.696 0 0 0-7.731 1.984c-3.07-17.129-14.189-23.981-21.564-26.621Zm81.371 26.621c-2.453-.767-5.055-1.404-7.731-1.965.879-18.347 10.033-27.089 14.357-30.197 5.485 1.516 10.576 3.351 15.2 5.466-7.375 2.584-18.7 9.398-21.808 26.715l-.018-.019Z"/><path fill-rule="evenodd" clip-rule="evenodd" d="M184.081 173.411h-58.085c7.6-5.41 10.707-13.554 10.707-20.949 0-11.831-7.693-23.813-22.425-23.813-13.777 0-21.208 10.278-21.208 19.957 0 8.499 6.907 15.407 15.405 15.407 7.132 0 12.935-5.803 12.935-12.936a3.095 3.095 0 0 0-3.107-3.089 3.08 3.08 0 0 0-3.089 3.089c0 3.725-3.032 6.739-6.739 6.739-5.072 0-9.21-4.137-9.21-9.21 0-6.684 5.261-13.779 15.013-13.779 11.138 0 16.229 9.136 16.229 17.617 0 12.917-10.426 20.948-27.217 20.948H54.827v6.197h129.254a3.092 3.092 0 0 0 3.088-3.089 3.091 3.091 0 0 0-3.088-3.089Z"/><path fill-rule="evenodd" clip-rule="evenodd" d="M298.173 173.411H249.71c-16.791 0-27.217-8.013-27.217-20.93 0-8.481 5.072-17.616 16.229-17.616 9.752 0 15.012 7.095 15.012 13.759 0 5.074-4.137 9.211-9.209 9.211-3.725 0-6.739-3.033-6.739-6.739a3.096 3.096 0 0 0-3.089-3.108 3.112 3.112 0 0 0-3.107 3.108c0 7.132 5.803 12.936 12.935 12.936 8.498 0 15.387-6.908 15.387-15.408 0-9.678-7.432-19.956-21.209-19.956-14.713 0-22.425 11.981-22.425 23.813 0 7.413 3.089 15.519 10.707 20.93h-50.11a3.08 3.08 0 0 0-3.089 3.089 3.092 3.092 0 0 0 3.089 3.089h121.26m-121.186-31.713c1.572-9.679 4.006-49.966 4.193-59.44 0-3.07-.468-5.934-1.067-8.405-.636-2.452-1.31-4.512-1.984-5.934-.487-1.086-.992-1.985-1.591-2.977a23.682 23.682 0 0 0-1.591 2.977c-.674 1.422-1.348 3.482-1.985 5.934-.58 2.471-1.067 5.336-1.067 8.406.188 9.529 2.621 49.741 4.193 59.439m.899 57.267c1.572 9.678 4.006 49.947 4.193 59.438 0 3.07-.468 5.935-1.067 8.406-.636 2.452-1.31 4.512-1.984 5.934-.487 1.086-.992 1.985-1.591 2.977a23.66 23.66 0 0 1-1.591-2.977c-.674-1.422-1.348-3.482-1.985-5.934-.58-2.471-1.067-5.336-1.067-8.406.188-9.51 2.621-49.741 4.193-59.438"/></g><defs><clipPath id="a"><path fill="#fff" d="M0 0h353v353H0z"/></clipPath></defs></svg>