<svg width="32" height="32" fill="none" xmlns="http://www.w3.org/2000/svg"><path d="M27 22.963a2.8 2.8 0 0 1-.275 1.199 4.54 4.54 0 0 1-.75 1.122c-.54.594-1.134 1.023-1.806 1.298A5.54 5.54 0 0 1 22.02 27c-1.123 0-2.324-.264-3.59-.803-1.268-.539-2.535-1.265-3.79-2.178a31.668 31.668 0 0 1-3.614-3.08 31.271 31.271 0 0 1-3.074-3.597c-.903-1.254-1.63-2.508-2.159-3.751C5.264 12.337 5 11.138 5 9.994c0-.748.132-1.463.397-2.123a5.063 5.063 0 0 1 1.266-1.837C7.37 5.341 8.14 5 8.956 5c.308 0 .617.066.892.198.287.132.54.33.738.616l2.556 3.597c.198.275.342.528.44.77.1.231.155.462.155.671 0 .264-.077.528-.231.781a3.745 3.745 0 0 1-.617.781l-.837.869a.588.588 0 0 0-.177.44c0 .088.011.165.033.253.033.088.066.154.088.22.199.363.54.836 1.025 1.408a37.711 37.711 0 0 0 1.597 1.738 33.114 33.114 0 0 0 1.752 1.617c.573.484 1.047.814 1.421 1.012.055.022.121.055.198.088a.761.761 0 0 0 .276.044c.187 0 .33-.066.452-.187l.837-.825c.275-.275.54-.484.793-.616.253-.154.507-.231.782-.231.21 0 .43.044.672.143.243.099.496.242.771.429l3.647 2.585c.286.198.485.429.606.704.11.275.176.55.176.858Z" stroke="#CAA769" stroke-width="2" stroke-miterlimit="10"/><path d="M23 13c0-.686-.537-1.737-1.337-2.594C20.93 9.617 19.96 9 19 9m8 4c0-4.423-3.577-8-8-8" stroke="#CAA769" stroke-width="2" stroke-linecap="round" stroke-linejoin="round"/></svg>