<svg width="71" height="12" fill="none" xmlns="http://www.w3.org/2000/svg"><path fill-rule="evenodd" clip-rule="evenodd" d="M59.303 2.76v.125c0 2.016 2.26 2.698 3.921 2.698 1.505 0 2.369-.484 3.655-1.1 1.046-.503 1.783-.629 2.906-.156.599.251 1.45-.18 1.154-.844-.392-.885-1.885-1.8-2.718-2.232C66.813.527 65.127.007 63.526.001H7.666C3.86-.053.241 2.275.012 6.259c-.193 3.32 1.994 5.54 5.298 5.732 2.26.132 4.574-1.214 5.081-3.482.06-.191.09-.389.097-.562l.012-.072v-.072c0-.066.012-.126.006-.192-.06-2.022-2.066-1.878-1.704-2.997.175-.533-.392-1.023-.9-.76-1.263.658-1.867 2.22-1.824 3.566.018.58.18 1.16.52 1.627a2.564 2.564 0 0 1-1.125.174C3.703 9.119 2.7 8.18 2.803 6.415c.145-2.46 2.586-3.692 4.857-3.65h51.643V2.76Z" fill="#C7A568"/></svg>