<svg width="99" height="56" fill="none" xmlns="http://www.w3.org/2000/svg"><g clip-path="url(#a)" fill-rule="evenodd" clip-rule="evenodd" fill="#C7A568"><path d="M50.073 53.063s.2-2.927.444-7.313c.274-4.385.496-10.24.766-16.088.079-1.464.158-2.928.232-4.365.095-1.437.164-2.858.18-4.227-.005-1.368-.032-2.694-.127-3.952a65.142 65.142 0 0 0-.29-3.545c-.434-4.386-1.205-7.313-1.205-7.313l-.344.005s-.776 2.922-1.204 7.313a70.19 70.19 0 0 0-.286 3.54c-.095 1.258-.121 2.584-.126 3.952a78.18 78.18 0 0 0 .18 4.227c.073 1.437.152 2.901.232 4.364.27 5.85.486 11.699.766 16.09.227 4.39.433 7.312.433 7.312M43.315 36.34s-.296-1.247-.82-3.09c-.248-.925-.544-2.003-.887-3.15-.328-1.152-.719-2.356-1.099-3.572-.396-1.21-.618-2.488-1.057-3.592-.46-1.094-1.062-2.045-1.638-2.833-.592-.782-1.146-1.41-1.595-1.817-.439-.418-.75-.634-.75-.634l-.318.137s-.063.37-.068.978c-.027.607.037 1.442.18 2.409.163.967.422 2.06.882 3.154.486 1.089 1.241 2.14 1.822 3.271.603 1.12 1.184 2.25 1.776 3.286.576 1.052 1.146 2.014 1.627 2.843a96.386 96.386 0 0 0 1.633 2.753m13.399-.403s.708-1.067 1.707-2.7c.507-.813 1.099-1.764 1.707-2.795.623-1.025 1.236-2.134 1.87-3.244.613-1.11 1.4-2.15 1.918-3.218.491-1.083.777-2.171.962-3.127.174-.967.253-1.797.253-2.41a7.122 7.122 0 0 0-.047-.977l-.312-.143s-.312.206-.76.613c-.466.402-1.031 1.01-1.65 1.775-.596.777-1.22 1.707-1.711 2.79-.47 1.094-.724 2.373-1.157 3.567-.413 1.204-.846 2.398-1.2 3.545-.375 1.136-.697 2.209-.977 3.123a87.289 87.289 0 0 0-.904 3.07"/><path d="M97.705 5.705c-3.26 2.965-6.446 6.003-9.659 9.014-3.223 3.002-6.382 6.066-9.563 9.099l-9.479 9.193-8.67 8.512c-3.086-2.07-5.638-3.672-9.474-3.725-.544.006-1.088-.042-1.627.011-2.177.116-4.307.682-6.272 1.59-.476.254-.983.455-1.443.745-.454.296-.93.55-1.368.872-.433.328-.872.64-1.284.988l-.38.35-8.866-8.719-9.685-9.4c-3.255-3.107-6.483-6.24-9.775-9.31C6.873 11.85 3.613 8.75.285 5.716c3.032 3.329 6.134 6.589 9.209 9.875 3.07 3.292 6.203 6.52 9.31 9.775l9.415 9.68 9.463 9.621.745.745.83-.745 1.057-.95c.364-.302.755-.577 1.136-.862.385-.28.803-.497 1.204-.75.402-.254.84-.428 1.263-.65.418-.217.877-.349 1.31-.529.44-.184.91-.264 1.358-.406.45-.143.925-.175 1.385-.275.465-.095.935-.09 1.4-.153.465-.053.935-.006 1.41-.016.47.005.93.084 1.4.121.466.053.92.18 1.38.26.46.11.898.274 1.342.4.438.165.861.365 1.29.54l1.22.681 1.136.809 1.046.93.84.745.724-.745 9.251-9.41 9.194-9.48c3.038-3.186 6.103-6.345 9.099-9.563 3.011-3.212 6.044-6.404 9.014-9.659"/></g><defs><clipPath id="a"><path fill="#fff" transform="rotate(-135 36.097 17.85)" d="M0 0h70v70H0z"/></clipPath></defs></svg>