<svg width="273" height="100" fill="none" xmlns="http://www.w3.org/2000/svg"><g clip-path="url(#a)" fill-rule="evenodd" clip-rule="evenodd" fill="#C7A568"><path d="M136.471 23.896c-13.018 0-23.217 5.475-23.217 12.458 0 .472.388.856.865.856a.862.862 0 0 0 .865-.856c0-2.819 2.307-5.428 6.009-7.367 1.701.396 5.402 1.87 6.279 7.064a24.84 24.84 0 0 0-3.142 1.334.846.846 0 0 0-.371 1.147.85.85 0 0 0 .765.46.852.852 0 0 0 .394-.093c3.449-1.764 7.009-2.55 11.547-2.55 5.085 0 8.292 1.024 11.547 2.556a.863.863 0 0 0 1.147-.402.845.845 0 0 0-.406-1.135 31.362 31.362 0 0 0-3.178-1.305c.895-5.288 4.714-6.727 6.368-7.1 3.731 1.946 6.067 4.56 6.067 7.385 0 .472.389.857.866.857a.862.862 0 0 0 .865-.857c0-6.983-10.223-12.457-23.276-12.457m-4.414 1.95a40.355 40.355 0 0 1 3.984-.232v9.045c-.629.005-1.241.029-1.836.07-.076-2.814-.553-6.267-2.148-8.876v-.006Zm1.289 8.94c-.765.07-1.513.164-2.236.292-.259-4.624-2.355-7.193-3.779-8.404a37.164 37.164 0 0 1 3.796-.71c1.73 2.59 2.154 6.336 2.219 8.823Zm3.56-9.172c1.33.011 2.637.087 3.908.221-1.595 2.61-2.077 6.063-2.154 8.882a33.46 33.46 0 0 0-1.754-.058v-9.045Zm4.844.337c1.318.175 2.589.408 3.808.7-1.425 1.205-3.543 3.773-3.802 8.421a27.247 27.247 0 0 0-2.237-.28c.071-2.492.489-6.249 2.231-8.84Zm-19.656 2.5a28.275 28.275 0 0 1 4.184-1.51c1.206.886 3.731 3.326 3.978 8.3-.735.151-1.453.332-2.154.547-.859-4.723-3.955-6.61-6.008-7.338Zm22.669 7.337c-.683-.21-1.406-.39-2.154-.541.241-5.055 2.796-7.472 3.996-8.329 1.524.42 2.949.926 4.232 1.509-2.054.71-5.215 2.586-6.074 7.361Z"/><path d="M136.388 43.401h-13.96c2.119-1.49 2.984-3.727 2.984-5.766 0-3.261-2.148-6.563-6.244-6.563-3.837 0-5.909 2.836-5.909 5.503 0 2.342 1.925 4.246 4.291 4.246 1.989 0 3.601-1.602 3.601-3.564a.862.862 0 0 0-.865-.856.862.862 0 0 0-.865.856 1.87 1.87 0 0 1-1.877 1.858c-1.413 0-2.566-1.136-2.566-2.54 0-1.84 1.465-3.797 4.184-3.797 3.107 0 4.52 2.516 4.52 4.857 0 3.559-2.907 5.772-7.58 5.772h-13.501c-11.588 0-14.683-7.565-14.683-12.038 0-6.267 5.29-11.363 11.8-11.363 6.509 0 9.622 4.292 9.622 8.276s-3.249 6.843-6.486 7.187c-.229.017-.459.04-.7.04-2.966 0-6.138-1.409-6.138-5.358 0-1.916.9-3.424 2.336-4.205.012.1.03.204.06.309.4 1.38 1.747 1.887 3.189 1.474 1.848-.525 2.942-1.887 3.143-3.011.035-.193-.183-.32-.348-.204-1.477 1.036-2.03-.862-3.672-.874-3.731 0-6.433 2.737-6.433 6.511 0 5.213 4.238 7.065 7.869 7.065.318 0 .63-.017.942-.052 6.709-.525 10.181-6.54 13.535-12.383 3.337-5.812 6.492-11.31 12.53-11.31 2.813 0 4.938 1.736 4.938 4.03 0 .857-.295 2.854-3.031 2.854-.718 0-1.301-.239-1.713-.582.471-.309.771-.874.83-1.555.123-1.416-.542-2.534-1.283-2.976a.16.16 0 0 0-.235.186c.376 1.462-1.566 1.112-1.713 2.807v.239c0 .163.018.326.053.466.282 1.765 1.989 3.133 4.067 3.133 2.889 0 4.755-1.794 4.755-4.566 0-3.273-2.866-5.742-6.662-5.742-7.045 0-10.594 6.185-14.03 12.172-1.431 2.499-2.837 4.927-4.444 6.92a8.843 8.843 0 0 0 .377-2.57c0-4.961-3.896-9.988-11.347-9.988-9.769 0-16.307 5.755-23.228 11.852-4.355 3.838-8.81 7.735-14.242 10.292 2.825-2.65 4.478-6.285 4.478-10.554 0-6.773-5.567-12.283-12.411-12.283-5.574 0-10.105 4.485-10.105 10 0 4.502 3.702 8.172 8.257 8.172 3.737 0 6.773-3.012 6.773-6.71 0-2.935-2.318-5.335-5.237-5.521-.065-.006-.13-.024-.195-.024-.035 0-.07.006-.105.006h-.053c-.018 0-.03.006-.048.012-2.295.157-1.889 2.877-3.754 2.23-.189-.063-.365.117-.277.292.506 1.025 1.936 2.033 3.855 2.033 1.4 0 2.483-.746 2.625-2.01.888.705 1.47 1.77 1.47 2.982 0 2.755-2.265 4.997-5.048 4.997-3.602 0-6.533-2.9-6.533-6.465 0-4.572 3.76-8.293 8.38-8.293 5.891 0 10.688 4.747 10.688 10.577 0 7.909-6.433 13.436-15.649 13.436h-9.663c2.071-1.439 3.307-3.693 3.307-6.413 0-3.675-3.025-6.668-6.738-6.668-3.066 0-5.562 2.47-5.562 5.503 0 2.522 2.072 4.578 4.62 4.578 2.136 0 3.873-1.718 3.873-3.832a.862.862 0 0 0-.865-.856.862.862 0 0 0-.866.856c0 1.17-.959 2.126-2.148 2.126-1.595 0-2.895-1.287-2.895-2.866 0-2.09 1.718-3.797 3.837-3.797 2.76 0 5.014 2.225 5.014 4.962 0 3.838-3.025 6.413-7.533 6.413H9.84c.047-.175.082-.35.082-.536 0-.88-.783-2.062-3.19-2.062-2.819 0-3.595 2.213-6.203 1.124-.253-.105-.594.035-.512.221.442.99 3.567 2.953 6.456 2.953h42.88c7.827 0 13.794-2.58 18.99-6.104 2.45-1.7 7.781-2.323 10.7.565 1.948 1.928 2.39 6.197.124 8.428-.76.757-2.166 1.188-3.573 1.112-1.383-.081-2.589-.629-3.295-1.514-.66-.821-.818-2.08-.624-3.168.753.396 1.648.175 2.348-.519 1.089-1.077 1.318-2.446 1.024-3.313-.053-.152-.253-.152-.324-.012-.688 1.415-2.012-.35-3.401.839-.024.017-.047.023-.065.04-.012.012-.018.03-.03.041-.011.012-.023.017-.035.03a1.796 1.796 0 0 0-.264.343c-1.378 1.805-1.419 4.98.017 6.773 1.018 1.264 2.672 2.056 4.55 2.161.14.006.288.012.429.012 1.754 0 3.431-.606 4.455-1.62 3.049-3.016 2.436-8.31-.13-10.844-2.13-2.108-5.06-2.726-7.738-2.487 1.748-1.421 3.437-2.9 5.114-4.374 4.02-3.535 7.903-6.942 12.347-9.103-2.343 2.353-3.784 5.539-3.784 9.05 0 3.105 1.27 6.384 3.395 8.766 2.03 2.272 5.933 4.98 13.012 4.98h33.781a.862.862 0 0 0 .865-.856.862.862 0 0 0-.865-.857"/><path d="M112.577 21.963c1.395-2.93 6.02-11.305 11.523-11.579-.583-.611-7.668-.95-11.488 4.124 0 0-5.167-1.788-10.652.373 5.714-.618 10.617 4.251 10.617 7.082Zm159.899 19.871c-2.607 1.09-3.39-1.124-6.203-1.124-2.401 0-3.19 1.188-3.19 2.068 0 .186.03.361.083.53h-23.9c-4.508 0-7.533-2.58-7.533-6.412 0-2.738 2.248-4.963 5.014-4.963 2.119 0 3.837 1.701 3.837 3.798 0 1.578-1.3 2.865-2.895 2.865-1.183 0-2.148-.95-2.148-2.12a.862.862 0 0 0-.865-.856.862.862 0 0 0-.865.856c0 2.114 1.736 3.833 3.872 3.833 2.548 0 4.62-2.05 4.62-4.578 0-3.035-2.495-5.504-5.562-5.504-3.713 0-6.738 2.994-6.738 6.669 0 2.725 1.236 4.973 3.307 6.412h-9.663c-9.216 0-15.649-5.527-15.649-13.436 0-5.83 4.797-10.577 10.688-10.577 4.62 0 8.38 3.722 8.38 8.294 0 3.564-2.931 6.465-6.532 6.465-2.784 0-5.05-2.243-5.05-4.998 0-1.211.583-2.283 1.477-2.982.142 1.264 1.225 2.01 2.625 2.01 1.919 0 3.349-1.008 3.855-2.033.088-.175-.088-.355-.277-.291-1.865.646-1.459-2.068-3.754-2.23-.018 0-.036-.012-.053-.012h-.053c-.036 0-.065-.006-.1-.006-.071 0-.13.017-.195.023-2.919.18-5.243 2.58-5.243 5.521 0 3.699 3.042 6.71 6.78 6.71 4.555 0 8.256-3.664 8.256-8.171 0-5.516-4.531-10-10.104-10-6.845 0-12.412 5.51-12.412 12.283 0 4.269 1.648 7.903 4.473 10.553-5.427-2.551-9.882-6.453-14.243-10.291-6.926-6.092-13.465-11.852-23.228-11.852-7.451 0-11.347 5.02-11.347 9.982 0 .897.136 1.759.377 2.574-1.613-1.992-3.013-4.42-4.443-6.919-3.437-5.987-6.986-12.172-14.031-12.172-3.801 0-6.662 2.47-6.662 5.742 0 2.773 1.866 4.567 4.756 4.567 2.077 0 3.784-1.37 4.066-3.128.036-.146.053-.303.053-.472v-.226c-.147-1.69-2.095-1.34-1.712-2.808.035-.14-.112-.262-.242-.186-.741.442-1.406 1.56-1.283 2.976.059.681.359 1.246.83 1.555-.412.343-.994.582-1.712.582-2.737 0-3.031-1.997-3.031-2.854 0-2.3 2.124-4.036 4.937-4.036 6.039 0 9.193 5.492 12.53 11.31 3.354 5.842 6.827 11.864 13.536 12.383.312.035.624.052.941.052 3.626 0 7.863-1.852 7.863-7.065 0-3.774-2.707-6.51-6.433-6.51-1.641.01-2.195 1.904-3.672.873-.159-.117-.382.011-.347.204.206 1.13 1.295 2.486 3.143 3.01 1.441.414 2.789-.093 3.189-1.473.03-.105.042-.204.059-.308 1.436.786 2.337 2.288 2.337 4.204 0 4.968-4.703 5.359-6.139 5.359-.241 0-.465-.024-.7-.041-3.243-.344-6.485-3.023-6.485-7.187S166.679 20 173.288 20s11.8 5.096 11.8 11.363c0 4.473-3.096 12.038-14.684 12.038h-13.5c-4.679 0-7.58-2.213-7.58-5.772 0-2.34 1.412-4.857 4.519-4.857 2.719 0 4.185 1.957 4.185 3.797 0 1.398-1.148 2.54-2.56 2.54a1.87 1.87 0 0 1-1.878-1.858.862.862 0 0 0-.865-.856.862.862 0 0 0-.865.856c0 1.968 1.618 3.564 3.608 3.564 2.365 0 4.29-1.904 4.29-4.245 0-2.668-2.072-5.504-5.909-5.504-4.102 0-6.244 3.302-6.244 6.564 0 2.038.865 4.274 2.984 5.771h-13.96a.862.862 0 0 0-.865.856c0 .472.389.856.865.856h33.781c7.08 0 10.982-2.708 13.012-4.98 2.125-2.381 3.396-5.654 3.396-8.765 0-3.511-1.448-6.697-3.79-9.05 4.443 2.16 8.333 5.568 12.347 9.103 1.671 1.474 3.366 2.953 5.114 4.374-2.678-.239-5.609.378-7.739 2.487-1.254 1.24-2.06 3.203-2.148 5.242-.1 2.224.618 4.216 2.024 5.602 1.024 1.014 2.702 1.62 4.455 1.62.142 0 .289 0 .43-.012 1.877-.105 3.537-.891 4.549-2.161 1.442-1.8 1.395-4.974.018-6.773a1.641 1.641 0 0 0-.265-.344c-.012-.012-.023-.018-.035-.03-.012-.01-.018-.028-.03-.04-.017-.018-.047-.03-.064-.04-1.389-1.189-2.713.576-3.402-.84-.071-.14-.271-.133-.324.012-.3.868-.064 2.237 1.024 3.314.701.693 1.595.914 2.349.518.194 1.09.035 2.342-.624 3.169-.712.885-1.913 1.438-3.296 1.514-1.401.087-2.807-.355-3.566-1.107-1.06-1.048-1.601-2.58-1.519-4.321.071-1.625.689-3.162 1.648-4.106 2.919-2.889 8.245-2.266 10.693-.57 5.197 3.529 11.17 6.109 18.998 6.109h42.879c2.889 0 6.014-1.957 6.456-2.953.082-.187-.259-.326-.512-.221"/><path d="M160.423 21.957c0-2.83 4.896-7.7 10.617-7.082-5.491-2.16-10.652-.373-10.652-.373-3.82-5.073-10.905-4.729-11.488-4.123 5.503.274 10.134 8.649 11.523 11.578Zm-23.8-7.507s.148-.903.318-2.26c.088-.676.2-1.468.289-2.312.105-.845.176-1.748.264-2.65.071-.903.283-1.806.301-2.65 0-.85-.136-1.637-.295-2.312-.176-.676-.365-1.24-.553-1.637a5.048 5.048 0 0 0-.324-.623h-.247s-.147.227-.318.623c-.188.396-.376.961-.553 1.637a9.853 9.853 0 0 0-.294 2.318c.018.85.229 1.747.3 2.65.082.902.159 1.805.265 2.65.088.85.2 1.636.288 2.317.171 1.358.318 2.26.318 2.26m.089 61.637c-13.018 0-23.217-5.475-23.217-12.458 0-.471.388-.856.865-.856s.865.385.865.856c0 2.82 2.307 5.422 6.009 7.368 1.701-.396 5.402-1.87 6.279-7.065a24.855 24.855 0 0 1-3.142-1.334.853.853 0 0 1 .394-1.613c.135 0 .271.03.394.093 3.449 1.765 7.009 2.551 11.547 2.551 5.085 0 8.292-1.025 11.547-2.556a.863.863 0 0 1 1.147.401.845.845 0 0 1-.406 1.136 31.316 31.316 0 0 1-3.178 1.305c.895 5.288 4.714 6.727 6.368 7.1 3.731-1.94 6.067-4.555 6.067-7.386 0-.471.389-.856.866-.856.476 0 .865.385.865.856 0 6.983-10.223 12.458-23.276 12.458m-4.414-1.951c1.295.14 2.625.221 3.984.233v-9.045a37.29 37.29 0 0 1-1.836-.064c-.076 2.813-.553 6.267-2.148 8.876Zm1.289-8.94a26.852 26.852 0 0 1-2.236-.291c-.259 4.624-2.355 7.193-3.779 8.404 1.213.291 2.478.53 3.796.71 1.73-2.591 2.154-6.336 2.219-8.823Zm3.56 9.173a40.733 40.733 0 0 0 3.908-.221c-1.595-2.61-2.077-6.063-2.154-8.882-.559.035-1.147.052-1.754.058v9.045Zm4.844-.332a37.738 37.738 0 0 0 3.808-.699c-1.425-1.206-3.543-3.774-3.802-8.422-.701.123-1.454.21-2.237.28.071 2.493.489 6.25 2.231 8.84Zm-19.656-2.499a28.263 28.263 0 0 0 4.184 1.509c1.206-.885 3.731-3.326 3.978-8.3a23.399 23.399 0 0 1-2.154-.547c-.859 4.723-3.955 6.61-6.008 7.338Zm22.669-7.338c-.683.21-1.406.384-2.154.542.241 5.055 2.796 7.472 3.996 8.328a28.707 28.707 0 0 0 4.232-1.508c-2.054-.71-5.215-2.586-6.074-7.362Z"/><path d="M136.388 56.599h-13.96c2.119 1.49 2.984 3.727 2.984 5.771 0 3.262-2.148 6.564-6.244 6.564-3.837 0-5.909-2.836-5.909-5.504 0-2.341 1.925-4.245 4.291-4.245 1.989 0 3.601 1.601 3.601 3.564a.862.862 0 0 1-.865.856.862.862 0 0 1-.865-.856 1.87 1.87 0 0 0-1.877-1.858c-1.413 0-2.566 1.142-2.566 2.54 0 1.84 1.465 3.797 4.184 3.797 3.107 0 4.52-2.516 4.52-4.858 0-3.558-2.907-5.771-7.58-5.771h-13.501c-11.588 0-14.683 7.565-14.683 12.038 0 6.267 5.29 11.363 11.8 11.363 6.509 0 9.622-4.293 9.622-8.276 0-3.984-3.249-6.844-6.486-7.181-.229-.018-.459-.041-.7-.041-2.966 0-6.138 1.41-6.138 5.358 0 1.916.9 3.425 2.336 4.205a2.02 2.02 0 0 1 .06-.308c.4-1.38 1.747-1.888 3.189-1.474 1.848.524 2.942 1.887 3.143 3.011.035.192-.183.32-.348.204-1.477-1.037-2.03.862-3.672.873-3.731 0-6.433-2.737-6.433-6.51 0-5.213 4.238-7.066 7.869-7.066.318 0 .63.018.942.053 6.709.524 10.181 6.54 13.535 12.382 3.337 5.812 6.492 11.31 12.53 11.31 2.813 0 4.938-1.735 4.938-4.03 0-.856-.295-2.854-3.031-2.854-.718 0-1.301.24-1.713.583.471.308.771.873.83 1.555.123 1.415-.542 2.533-1.283 2.976a.16.16 0 0 1-.235-.186c.376-1.462-1.566-1.119-1.713-2.808v-.239c0-.168.018-.326.053-.471.282-1.765 1.989-3.134 4.067-3.134 2.889 0 4.755 1.794 4.755 4.567 0 3.273-2.866 5.742-6.662 5.742-7.045 0-10.594-6.185-14.03-12.172-1.431-2.499-2.837-4.928-4.444-6.92a8.85 8.85 0 0 1 .377 2.569c0 4.962-3.896 9.988-11.347 9.988-9.769 0-16.307-5.754-23.228-11.852-4.355-3.832-8.81-7.734-14.242-10.29 2.825 2.65 4.478 6.283 4.478 10.552 0 6.774-5.567 12.283-12.411 12.283-5.574 0-10.105-4.484-10.105-10 0-4.502 3.702-8.17 8.257-8.17 3.737 0 6.773 3.01 6.773 6.709 0 2.935-2.318 5.334-5.237 5.515-.065.006-.13.023-.195.023-.035 0-.07 0-.105-.005h-.053c-.018 0-.03-.012-.048-.012-2.295-.157-1.889-2.877-3.754-2.23-.189.063-.365-.117-.277-.292.506-1.025 1.936-2.033 3.855-2.033 1.4 0 2.483.746 2.625 2.01.888-.7 1.47-1.77 1.47-2.982 0-2.755-2.265-4.997-5.048-4.997-3.602 0-6.533 2.9-6.533 6.465 0 4.571 3.76 8.293 8.38 8.293 5.891 0 10.688-4.747 10.688-10.577 0-7.909-6.433-13.436-15.649-13.436h-9.663c2.071 1.439 3.307 3.693 3.307 6.413 0 3.674-3.025 6.668-6.738 6.668-3.066 0-5.562-2.47-5.562-5.504 0-2.522 2.072-4.577 4.62-4.577 2.136 0 3.873 1.718 3.873 3.832a.862.862 0 0 1-.865.856.862.862 0 0 1-.866-.856c0-1.17-.959-2.12-2.148-2.12-1.595 0-2.895 1.287-2.895 2.865 0 2.091 1.718 3.798 3.837 3.798 2.76 0 5.014-2.225 5.014-4.963 0-3.838-3.025-6.412-7.533-6.412H9.84c.047.175.082.35.082.53 0 .88-.783 2.068-3.19 2.068-2.819 0-3.595-2.213-6.203-1.124-.253.104-.594-.035-.512-.222.442-.99 3.567-2.953 6.456-2.953h42.88c7.827 0 13.794 2.58 18.99 6.104 2.45 1.7 7.781 2.324 10.7-.565 1.948-1.928 2.39-6.197.124-8.433-.76-.757-2.166-1.188-3.573-1.113-1.383.082-2.589.63-3.295 1.515-.66.821-.818 2.079-.624 3.168.753-.396 1.648-.175 2.348.518 1.089 1.078 1.318 2.447 1.024 3.314-.053.152-.253.152-.324.012-.688-1.415-2.012.35-3.401-.839-.024-.017-.047-.023-.065-.04-.012-.012-.018-.03-.03-.041-.011-.012-.023-.018-.035-.03a1.793 1.793 0 0 1-.264-.343c-1.378-1.805-1.419-4.98.017-6.773 1.018-1.264 2.672-2.056 4.55-2.161.14-.006.288-.012.429-.012 1.754 0 3.431.606 4.455 1.62 3.049 3.016 2.436 8.31-.13 10.844-2.13 2.108-5.06 2.726-7.738 2.487 1.748 1.42 3.437 2.9 5.114 4.374 4.02 3.535 7.903 6.942 12.347 9.103-2.343-2.353-3.784-5.539-3.784-9.05 0-3.105 1.27-6.384 3.395-8.766 2.03-2.272 5.933-4.98 13.012-4.98h33.781c.477 0 .865.385.865.856a.862.862 0 0 1-.865.857"/><path d="M112.577 78.031c1.395 2.93 6.02 11.299 11.523 11.579-.583.611-7.668.949-11.488-4.124 0 0-5.167 1.788-10.652-.373 5.714.618 10.617-4.251 10.617-7.082ZM272.476 58.16c-2.607-1.09-3.39 1.123-6.203 1.123-2.401 0-3.19-1.188-3.19-2.061 0-.187.03-.361.083-.53h-23.9c-4.508 0-7.533 2.58-7.533 6.412 0 2.737 2.248 4.962 5.014 4.962 2.119 0 3.837-1.7 3.837-3.797 0-1.578-1.3-2.866-2.895-2.866-1.183 0-2.148.956-2.148 2.126a.862.862 0 0 1-.865.856.862.862 0 0 1-.865-.856c0-2.114 1.736-3.832 3.872-3.832 2.548 0 4.62 2.05 4.62 4.578 0 3.034-2.495 5.504-5.562 5.504-3.713 0-6.738-2.994-6.738-6.669 0-2.726 1.236-4.974 3.307-6.412h-9.663c-9.216 0-15.649 5.527-15.649 13.436 0 5.83 4.797 10.576 10.688 10.576 4.62 0 8.38-3.721 8.38-8.293 0-3.564-2.931-6.465-6.532-6.465-2.784 0-5.05 2.242-5.05 4.997 0 1.212.583 2.283 1.477 2.982.142-1.264 1.225-2.01 2.625-2.01 1.919 0 3.349 1.008 3.855 2.033.088.175-.088.356-.277.292-1.865-.647-1.459 2.067-3.754 2.23-.018 0-.036.012-.053.012h-.053c-.036 0-.065.006-.1.006-.071 0-.13-.018-.195-.023-2.919-.181-5.243-2.58-5.243-5.522 0-3.698 3.042-6.71 6.78-6.71 4.555 0 8.256 3.664 8.256 8.172 0 5.516-4.531 10-10.104 10-6.845 0-12.412-5.51-12.412-12.289 0-4.263 1.648-7.903 4.473-10.553-5.427 2.55-9.882 6.453-14.243 10.291-6.926 6.092-13.465 11.852-23.228 11.852-7.451 0-11.347-5.02-11.347-9.982 0-.897.136-1.76.377-2.575-1.613 1.992-3.013 4.42-4.443 6.92-3.437 5.98-6.986 12.172-14.031 12.172-3.801 0-6.662-2.47-6.662-5.743 0-2.772 1.866-4.566 4.756-4.566 2.077 0 3.784 1.369 4.066 3.128.036.145.053.303.053.471v.227c-.147 1.69-2.095 1.34-1.712 2.808.035.14-.112.262-.242.186-.741-.442-1.406-1.56-1.283-2.976.059-.681.359-1.246.83-1.555-.412-.35-.994-.582-1.712-.582-2.737 0-3.031 1.997-3.031 2.854 0 2.3 2.124 4.036 4.937 4.036 6.039 0 9.193-5.493 12.53-11.31 3.354-5.842 6.827-11.865 13.536-12.383.312-.035.624-.052.941-.052 3.626 0 7.863 1.852 7.863 7.064 0 3.774-2.707 6.512-6.433 6.512-1.641-.012-2.195-1.905-3.672-.874-.159.117-.382-.012-.347-.204.206-1.124 1.295-2.487 3.143-3.01 1.441-.409 2.789.092 3.189 1.473.03.105.042.203.059.308 1.436-.786 2.337-2.289 2.337-4.205 0-4.974-4.703-5.358-6.139-5.358-.241 0-.465.023-.7.04-3.243.344-6.485 3.024-6.485 7.188S166.679 80 173.288 80s11.8-5.096 11.8-11.363c0-4.473-3.096-12.038-14.684-12.038h-13.5c-4.679 0-7.58 2.213-7.58 5.771 0 2.342 1.412 4.858 4.519 4.858 2.719 0 4.185-1.957 4.185-3.798 0-1.398-1.148-2.539-2.56-2.539a1.87 1.87 0 0 0-1.878 1.858.862.862 0 0 1-.865.856.862.862 0 0 1-.865-.856c0-1.969 1.618-3.565 3.608-3.565 2.365 0 4.29 1.905 4.29 4.246 0 2.668-2.072 5.504-5.909 5.504-4.102 0-6.244-3.302-6.244-6.564 0-2.038.865-4.275 2.984-5.771h-13.96a.862.862 0 0 1-.865-.856c0-.472.389-.857.865-.857h33.781c7.08 0 10.982 2.709 13.012 4.98 2.125 2.382 3.396 5.655 3.396 8.765 0 3.512-1.448 6.698-3.79 9.05 4.443-2.16 8.333-5.567 12.347-9.102 1.671-1.474 3.366-2.953 5.114-4.368-2.678.233-5.609-.379-7.739-2.487-1.254-1.24-2.06-3.203-2.148-5.242-.1-2.225.618-4.216 2.024-5.603 1.024-1.013 2.702-1.619 4.455-1.619.142 0 .289 0 .43.012 1.877.105 3.537.897 4.549 2.16 1.442 1.8 1.395 4.974.018 6.774a1.641 1.641 0 0 1-.265.344c-.012.011-.023.017-.035.029-.012.011-.018.029-.03.04-.017.018-.047.024-.064.041-1.389 1.189-2.713-.576-3.402.839-.071.14-.271.134-.324-.012-.3-.867-.064-2.236 1.024-3.314.701-.693 1.595-.914 2.349-.518.194-1.089.035-2.347-.624-3.168-.712-.886-1.913-1.439-3.296-1.515-1.401-.087-2.807.356-3.566 1.107-1.06 1.048-1.601 2.58-1.519 4.322.071 1.624.689 3.162 1.648 4.106 2.919 2.888 8.245 2.271 10.693.57 5.197-3.529 11.17-6.11 18.998-6.11h42.879c2.889 0 6.014 1.958 6.456 2.954.082.186-.259.326-.512.221"/><path d="M160.423 78.043c0 2.83 4.896 7.7 10.617 7.082-5.491 2.16-10.652.373-10.652.373-3.82 5.073-10.905 4.729-11.488 4.123 5.503-.273 10.134-8.648 11.523-11.578Zm-23.8 7.507s.148.903.318 2.26c.088.676.2 1.468.289 2.312.105.845.176 1.747.264 2.65.071.903.283 1.806.301 2.656 0 .85-.136 1.636-.295 2.312-.176.676-.365 1.247-.553 1.637a5.053 5.053 0 0 1-.324.623h-.247s-.147-.227-.318-.623c-.188-.396-.376-.961-.553-1.637a9.813 9.813 0 0 1-.294-2.318c.018-.844.229-1.747.3-2.65.082-.903.159-1.805.265-2.65.088-.85.2-1.636.288-2.318.171-1.357.318-2.26.318-2.26M88.866 49.15h95.262a.86.86 0 0 1 .86.85.86.86 0 0 1-.86.85H88.866a.86.86 0 0 1-.86-.85.86.86 0 0 1 .86-.85Zm-63.142 0h36.417a.86.86 0 0 1 .86.85.86.86 0 0 1-.86.85H25.724a.856.856 0 0 1-.86-.85.86.86 0 0 1 .86-.85Zm185.129 0h36.417c.477 0 .859.384.859.85a.86.86 0 0 1-.859.85h-36.417a.86.86 0 0 1-.859-.85.86.86 0 0 1 .859-.85Z"/></g><defs><clipPath id="a"><path fill="#fff" d="M0 0h273v100H0z"/></clipPath></defs></svg>