<svg width="273" height="100" viewBox="0 0 273 100" fill="none" xmlns="http://www.w3.org/2000/svg">
<g clip-path="url(#clip0_133_545)">
<path fill-rule="evenodd" clip-rule="evenodd" d="M136.471 23.8964C123.453 23.8964 113.254 29.3711 113.254 36.3542C113.254 36.826 113.642 37.2104 114.119 37.2104C114.596 37.2104 114.984 36.826 114.984 36.3542C114.984 33.5354 117.291 30.9262 120.993 28.9867C122.694 29.3828 126.395 30.8563 127.272 36.0514C126.207 36.4183 125.165 36.8609 124.13 37.3851C123.706 37.6006 123.541 38.1131 123.759 38.5324C123.912 38.8295 124.212 38.9925 124.524 38.9925C124.659 38.9925 124.795 38.9634 124.918 38.8994C128.367 37.1347 131.927 36.3484 136.465 36.3484C141.55 36.3484 144.757 37.3734 148.012 38.9052C148.441 39.109 148.953 38.9285 149.159 38.5033C149.365 38.0782 149.183 37.5656 148.753 37.3676C147.711 36.8726 146.664 36.4416 145.575 36.063C146.47 30.7747 150.289 29.3362 151.943 28.9634C155.674 30.9087 158.01 33.5237 158.01 36.3484C158.01 36.8202 158.399 37.2045 158.876 37.2045C159.352 37.2045 159.741 36.8202 159.741 36.3484C159.741 29.3653 149.518 23.8906 136.465 23.8906M132.051 25.8417C133.346 25.7019 134.676 25.6204 136.035 25.6087V34.6536C135.406 34.6594 134.794 34.6827 134.199 34.7235C134.123 31.9104 133.646 28.4567 132.051 25.8475V25.8417ZM133.34 34.7817C132.575 34.8516 131.827 34.9448 131.104 35.0729C130.845 30.4486 128.749 27.8801 127.325 26.6687C128.538 26.3775 129.803 26.1329 131.121 25.9582C132.851 28.5499 133.275 32.2948 133.34 34.7817ZM136.9 25.6087C138.23 25.6204 139.537 25.6961 140.808 25.8301C139.213 28.4393 138.731 31.893 138.654 34.7118C138.095 34.6769 137.507 34.6594 136.9 34.6536V25.6087ZM141.744 25.9465C143.062 26.1213 144.333 26.3542 145.552 26.6454C144.127 27.851 142.009 30.4195 141.75 35.0671C141.049 34.9448 140.296 34.8574 139.513 34.7875C139.584 32.2948 140.002 28.5383 141.744 25.9465ZM122.088 28.4451C123.359 27.8627 124.765 27.356 126.272 26.9366C127.478 27.8219 130.003 30.2622 130.25 35.236C129.515 35.3874 128.797 35.568 128.096 35.7835C127.237 31.0601 124.141 29.1731 122.088 28.4451ZM144.757 35.7835C144.074 35.5738 143.351 35.3932 142.603 35.2418C142.844 30.1865 145.399 27.7695 146.599 26.9133C148.123 27.3327 149.548 27.8394 150.831 28.4218C148.777 29.1323 145.616 31.0077 144.757 35.7835Z" fill="#C7A568"/>
<path fill-rule="evenodd" clip-rule="evenodd" d="M136.388 43.4012H122.428C124.547 41.9103 125.412 39.6738 125.412 37.6354C125.412 34.3739 123.264 31.0716 119.168 31.0716C115.331 31.0716 113.259 33.9079 113.259 36.5754C113.259 38.9167 115.184 40.8211 117.55 40.8211C119.539 40.8211 121.151 39.2195 121.151 37.2568C121.151 36.785 120.763 36.4006 120.286 36.4006C119.81 36.4006 119.421 36.785 119.421 37.2568C119.421 38.2818 118.579 39.1147 117.544 39.1147C116.131 39.1147 114.978 37.979 114.978 36.5754C114.978 34.7349 116.443 32.778 119.162 32.778C122.269 32.778 123.682 35.2941 123.682 37.6354C123.682 41.1939 120.775 43.407 116.102 43.407H102.601C91.0135 43.407 87.9179 35.8415 87.9179 31.3686C87.9179 25.1019 93.2087 20.0058 99.7176 20.0058C106.227 20.0058 109.34 24.2981 109.34 28.2818C109.34 32.2655 106.091 35.1252 102.854 35.4688C102.625 35.4863 102.395 35.5096 102.154 35.5096C99.188 35.5096 96.0159 34.1001 96.0159 30.1514C96.0159 28.2352 96.9163 26.7268 98.3523 25.9464C98.364 26.0454 98.3817 26.1502 98.4111 26.255C98.8113 27.6354 100.159 28.1421 101.601 27.7285C103.449 27.2044 104.543 25.8415 104.744 24.7175C104.779 24.5253 104.561 24.3971 104.396 24.5136C102.919 25.5503 102.366 23.6517 100.724 23.64C96.9928 23.64 94.2915 26.3773 94.2915 30.1514C94.2915 35.364 98.5288 37.216 102.16 37.216C102.478 37.216 102.79 37.1985 103.102 37.1636C109.811 36.6394 113.283 30.6231 116.637 24.7815C119.974 18.9691 123.129 13.4711 129.167 13.4711C131.98 13.4711 134.105 15.2067 134.105 17.5014C134.105 18.3575 133.81 20.3552 131.074 20.3552C130.356 20.3552 129.773 20.1164 129.361 19.7728C129.832 19.4641 130.132 18.8992 130.191 18.2178C130.314 16.8025 129.649 15.6843 128.908 15.2416C128.778 15.1659 128.631 15.2824 128.673 15.428C129.049 16.8899 127.107 16.5404 126.96 18.2352C126.96 18.2993 126.96 18.3575 126.96 18.4158C126.96 18.4216 126.96 18.4274 126.96 18.4391C126.96 18.4507 126.96 18.4624 126.96 18.474C126.96 18.6371 126.978 18.8002 127.013 18.94C127.295 20.7047 129.002 22.0733 131.08 22.0733C133.969 22.0733 135.835 20.2795 135.835 17.5072C135.835 14.2341 132.969 11.7646 129.173 11.7646C122.128 11.7646 118.579 17.9499 115.143 23.937C113.712 26.4356 112.306 28.8642 110.699 30.8561C110.946 30.0407 111.076 29.1787 111.076 28.2877C111.076 23.3255 107.18 18.2993 99.7294 18.2993C89.9601 18.2993 83.4217 24.0535 76.5007 30.1514C72.1457 33.9895 67.6907 37.8858 62.2587 40.4426C65.0835 37.7926 66.7373 34.1584 66.7373 29.8893C66.7373 23.1158 61.1699 17.6062 54.3255 17.6062C48.7523 17.6062 44.2207 22.0908 44.2207 27.6062C44.2207 32.1083 47.9225 35.7775 52.4776 35.7775C56.2146 35.7775 59.2514 32.7664 59.2514 29.0681C59.2514 26.1327 56.9326 23.7332 54.0136 23.5468C53.9489 23.541 53.8841 23.5235 53.8194 23.5235C53.7841 23.5235 53.7488 23.5294 53.7135 23.5294C53.6958 23.5294 53.6781 23.5294 53.6605 23.5294C53.6428 23.5294 53.6311 23.5352 53.6134 23.541C51.3182 23.6983 51.7243 26.4181 49.8587 25.7716C49.6704 25.7076 49.4938 25.8881 49.5821 26.0628C50.0882 27.0879 51.5183 28.0955 53.4369 28.0955C54.8375 28.0955 55.9204 27.35 56.0616 26.0861C56.9503 26.7909 57.5329 27.8567 57.5329 29.0681C57.5329 31.8229 55.2671 34.0652 52.4835 34.0652C48.8818 34.0652 45.951 31.1648 45.951 27.6004C45.951 23.0285 49.7116 19.3069 54.3314 19.3069C60.2224 19.3069 65.0188 24.0535 65.0188 29.8835C65.0188 37.7926 58.5864 43.3197 49.3702 43.3197H39.7068C41.7784 41.8811 43.0143 39.6272 43.0143 36.9073C43.0143 33.2323 39.9893 30.2387 36.2758 30.2387C33.2096 30.2387 30.7143 32.7082 30.7143 35.7425C30.7143 38.2644 32.7859 40.3203 35.3342 40.3203C37.4705 40.3203 39.2066 38.6022 39.2066 36.488C39.2066 36.0163 38.8182 35.6319 38.3415 35.6319C37.8648 35.6319 37.4763 36.0163 37.4763 36.488C37.4763 37.6587 36.5171 38.6138 35.3283 38.6138C33.7334 38.6138 32.4328 37.3267 32.4328 35.7483C32.4328 33.6575 34.1512 31.951 36.2699 31.951C39.03 31.951 41.284 34.1758 41.284 36.9132C41.284 40.7513 38.2591 43.3255 33.7511 43.3255H9.83972C9.8868 43.1508 9.92211 42.9761 9.92211 42.7897C9.92211 41.9103 9.13939 40.728 6.73236 40.728C3.91338 40.728 3.13654 42.9411 0.529423 41.852C0.276362 41.7472 -0.0649761 41.887 0.0174159 42.0733C0.458802 43.0634 3.58381 45.0262 6.47342 45.0262H6.48519C6.49107 45.0262 6.50284 45.0262 6.50873 45.0262H49.3526C57.1798 45.0262 63.1473 42.4461 68.3439 38.9225C70.7921 37.2218 76.1241 36.5987 79.0431 39.4874C80.9911 41.4152 81.4325 45.6843 79.1667 47.9149C78.4075 48.672 77.001 49.103 75.5944 49.0273C74.2114 48.9458 73.005 48.3983 72.2987 47.5131C71.6396 46.6918 71.4807 45.4338 71.6749 44.3447C72.4282 44.7408 73.3228 44.5195 74.0231 43.8264C75.1118 42.7489 75.3414 41.3803 75.0471 40.5125C74.9941 40.361 74.794 40.361 74.7234 40.5008C74.0349 41.9161 72.7107 40.1514 71.3218 41.3395C71.2983 41.357 71.2747 41.3628 71.2571 41.3803C71.2453 41.3919 71.2394 41.4094 71.2276 41.421C71.2159 41.4327 71.2041 41.4385 71.1923 41.4501C71.0864 41.555 70.9981 41.6773 70.9275 41.7938C69.5504 43.5992 69.5092 46.7734 70.9452 48.5672C71.9633 49.831 73.617 50.6231 75.4944 50.728C75.6356 50.7338 75.7827 50.7396 75.924 50.7396C77.6778 50.7396 79.355 50.1339 80.379 49.1205C83.4276 46.1036 82.8155 40.8095 80.2496 38.276C78.1191 36.1677 75.1883 35.5503 72.5106 35.7891C74.2585 34.368 75.9475 32.8887 77.6248 31.4152C81.6443 27.88 85.5285 24.4729 89.9718 22.3121C87.6295 24.6651 86.1877 27.8508 86.1877 31.3628C86.1877 34.467 87.4589 37.746 89.5834 40.1281C91.6138 42.3995 95.5156 45.1077 102.595 45.1077H136.376C136.853 45.1077 137.241 44.7233 137.241 44.2515C137.241 43.7798 136.853 43.3954 136.376 43.3954" fill="#C7A568"/>
<path fill-rule="evenodd" clip-rule="evenodd" d="M112.577 21.9626C113.972 19.0331 118.597 10.658 124.1 10.3843C123.517 9.77272 116.432 9.43493 112.612 14.5077C112.612 14.5077 107.445 12.7197 101.96 14.8805C107.674 14.2631 112.577 19.1321 112.577 21.9626Z" fill="#C7A568"/>
<path fill-rule="evenodd" clip-rule="evenodd" d="M272.476 41.8345C269.869 42.9236 269.086 40.7104 266.273 40.7104C263.872 40.7104 263.083 41.8985 263.083 42.778C263.083 42.9643 263.113 43.1391 263.166 43.308H239.266C234.758 43.308 231.733 40.7279 231.733 36.8956C231.733 34.1583 233.981 31.9335 236.747 31.9335C238.866 31.9335 240.584 33.6341 240.584 35.7308C240.584 37.3091 239.284 38.5963 237.689 38.5963C236.506 38.5963 235.541 37.6469 235.541 36.4763C235.541 36.0045 235.152 35.6201 234.676 35.6201C234.199 35.6201 233.811 36.0045 233.811 36.4763C233.811 38.5904 235.547 40.3085 237.683 40.3085C240.231 40.3085 242.303 38.2585 242.303 35.7308C242.303 32.6964 239.808 30.227 236.741 30.227C233.028 30.227 230.003 33.2206 230.003 36.8956C230.003 39.6213 231.239 41.8694 233.31 43.308H223.647C214.431 43.308 207.998 37.7809 207.998 29.8717C207.998 24.0418 212.795 19.2952 218.686 19.2952C223.306 19.2952 227.066 23.0168 227.066 27.5887C227.066 31.153 224.135 34.0535 220.534 34.0535C217.75 34.0535 215.484 31.8112 215.484 29.0564C215.484 27.8449 216.067 26.7733 216.961 26.0744C217.103 27.3383 218.186 28.0837 219.586 28.0837C221.505 28.0837 222.935 27.0762 223.441 26.0511C223.529 25.8764 223.353 25.6959 223.164 25.7599C221.299 26.4064 221.705 23.6924 219.41 23.5293C219.392 23.5293 219.374 23.5176 219.357 23.5176C219.339 23.5176 219.321 23.5176 219.304 23.5176C219.268 23.5176 219.239 23.5118 219.204 23.5118C219.133 23.5118 219.074 23.5293 219.009 23.5351C216.09 23.7157 213.766 26.1152 213.766 29.0564C213.766 32.7547 216.808 35.7657 220.546 35.7657C225.101 35.7657 228.802 32.1024 228.802 27.5945C228.802 22.0791 224.271 17.5945 218.698 17.5945C211.853 17.5945 206.286 23.1041 206.286 29.8776C206.286 34.1466 207.934 37.7809 210.759 40.4309C205.332 37.8799 200.877 33.9777 196.516 30.1397C189.59 24.0476 183.051 18.2876 173.288 18.2876C165.837 18.2876 161.941 23.308 161.941 28.2701C161.941 29.167 162.077 30.029 162.318 30.8444C160.705 28.8525 159.305 26.4239 157.875 23.9253C154.438 17.9381 150.889 11.7529 143.844 11.7529C140.043 11.7529 137.182 14.2224 137.182 17.4955C137.182 20.2678 139.048 22.0616 141.938 22.0616C144.015 22.0616 145.722 20.6929 146.004 18.9341C146.04 18.7885 146.057 18.6312 146.057 18.4623C146.057 18.4507 146.057 18.439 146.057 18.4332C146.057 18.4274 146.057 18.4215 146.057 18.4157C146.057 18.3516 146.057 18.2992 146.057 18.2352C145.91 16.5462 143.962 16.8956 144.345 15.4279C144.38 15.2882 144.233 15.1659 144.103 15.2416C143.362 15.6842 142.697 16.8024 142.82 18.2177C142.879 18.8991 143.179 19.4641 143.65 19.7727C143.238 20.1164 142.656 20.3551 141.938 20.3551C139.201 20.3551 138.907 18.3575 138.907 17.5013C138.907 15.2008 141.031 13.4652 143.844 13.4652C149.883 13.4652 153.037 18.9574 156.374 24.7756C159.728 30.6172 163.201 36.6394 169.91 37.1577C170.222 37.1926 170.534 37.2101 170.851 37.2101C174.477 37.2101 178.714 35.3581 178.714 30.1455C178.714 26.3714 176.007 23.6341 172.281 23.6341C170.64 23.6458 170.086 25.5386 168.609 24.5077C168.45 24.3913 168.227 24.5194 168.262 24.7116C168.468 25.8415 169.557 27.1985 171.405 27.7226C172.846 28.1362 174.194 27.6295 174.594 26.2491C174.624 26.1443 174.636 26.0453 174.653 25.9405C176.089 26.7267 176.99 28.2293 176.99 30.1455C176.99 35.1134 172.287 35.5037 170.851 35.5037C170.61 35.5037 170.386 35.4804 170.151 35.4629C166.908 35.1193 163.666 32.4402 163.666 28.2759C163.666 24.1117 166.679 19.9999 173.288 19.9999C179.897 19.9999 185.088 25.096 185.088 31.3627C185.088 35.8356 181.992 43.4011 170.404 43.4011H156.904C152.225 43.4011 149.324 41.188 149.324 37.6295C149.324 35.2882 150.736 32.7721 153.843 32.7721C156.562 32.7721 158.028 34.7291 158.028 36.5695C158.028 37.9673 156.88 39.1088 155.468 39.1088C154.432 39.1088 153.59 38.2759 153.59 37.2509C153.59 36.7791 153.202 36.3947 152.725 36.3947C152.248 36.3947 151.86 36.7791 151.86 37.2509C151.86 39.2194 153.478 40.8152 155.468 40.8152C157.833 40.8152 159.758 38.9108 159.758 36.5695C159.758 33.902 157.686 31.0657 153.849 31.0657C149.747 31.0657 147.605 34.368 147.605 37.6295C147.605 39.6679 148.47 41.9044 150.589 43.4011H136.629C136.153 43.4011 135.764 43.7855 135.764 44.2573C135.764 44.729 136.153 45.1134 136.629 45.1134H170.41C177.49 45.1134 181.392 42.4052 183.422 40.1338C185.547 37.7518 186.818 34.4786 186.818 31.3685C186.818 27.8566 185.37 24.6708 183.028 22.3179C187.471 24.4786 191.361 27.8857 195.375 31.421C197.046 32.8945 198.741 34.3738 200.489 35.7949C197.811 35.5561 194.88 36.1734 192.75 38.2818C191.496 39.5223 190.69 41.485 190.602 43.5235C190.502 45.7483 191.22 47.7401 192.626 49.1263C193.65 50.1396 195.328 50.7454 197.081 50.7454C197.223 50.7454 197.37 50.7454 197.511 50.7337C199.388 50.6289 201.048 49.8426 202.06 48.573C203.502 46.7733 203.455 43.5992 202.078 41.7995C202.007 41.6772 201.919 41.5607 201.813 41.4559C201.801 41.4443 201.79 41.4384 201.778 41.4268C201.766 41.4151 201.76 41.3977 201.748 41.386C201.731 41.3685 201.701 41.3569 201.684 41.3452C200.295 40.1571 198.971 41.9218 198.282 40.5066C198.211 40.3668 198.011 40.3726 197.958 40.5182C197.658 41.386 197.894 42.7547 198.982 43.8321C199.683 44.5252 200.577 44.7465 201.331 44.3505C201.525 45.4396 201.366 46.6918 200.707 47.5188C199.995 48.4041 198.794 48.9574 197.411 49.0331C196.01 49.1204 194.604 48.6778 193.845 47.9265C192.785 46.8781 192.244 45.3464 192.326 43.605C192.397 41.9801 193.015 40.4425 193.974 39.499C196.893 36.6102 202.219 37.2334 204.667 38.9282C209.864 42.4576 215.837 45.0377 223.665 45.0377H266.508C266.508 45.0377 266.526 45.0377 266.532 45.0377C266.532 45.0377 266.538 45.0377 266.544 45.0377C269.433 45.0377 272.558 43.0808 273 42.0849C273.082 41.8985 272.741 41.7588 272.488 41.8636" fill="#C7A568"/>
<path fill-rule="evenodd" clip-rule="evenodd" d="M160.423 21.9571C160.423 19.1266 165.319 14.2576 171.04 14.875C165.549 12.7142 160.388 14.5022 160.388 14.5022C156.568 9.42943 149.483 9.77306 148.9 10.3788C154.403 10.6525 159.034 19.0276 160.423 21.9571Z" fill="#C7A568"/>
<path fill-rule="evenodd" clip-rule="evenodd" d="M136.623 14.4497C136.623 14.4497 136.771 13.5469 136.941 12.1899C137.029 11.5143 137.141 10.7222 137.23 9.87773C137.335 9.03323 137.406 8.1305 137.494 7.22776C137.565 6.32502 137.777 5.42228 137.795 4.57779C137.795 3.72747 137.659 2.94121 137.5 2.26561C137.324 1.59002 137.135 1.02508 136.947 0.629039C136.77 0.233 136.623 0.00585938 136.623 0.00585938H136.376C136.376 0.00585938 136.229 0.233 136.058 0.629039C135.87 1.02508 135.682 1.59002 135.505 2.26561C135.34 2.94704 135.211 3.73329 135.211 4.58361C135.229 5.43393 135.44 6.33084 135.511 7.23358C135.593 8.13632 135.67 9.03906 135.776 9.88355C135.864 10.7339 135.976 11.5201 136.064 12.2015C136.235 13.5586 136.382 14.4613 136.382 14.4613" fill="#C7A568"/>
<path fill-rule="evenodd" clip-rule="evenodd" d="M136.471 76.098C123.453 76.098 113.254 70.6233 113.254 63.6402C113.254 63.1685 113.642 62.7841 114.119 62.7841C114.596 62.7841 114.984 63.1685 114.984 63.6402C114.984 66.4591 117.291 69.0625 120.993 71.0077C122.694 70.6117 126.395 69.1382 127.272 63.9431C126.207 63.5762 125.165 63.1335 124.13 62.6094C123.706 62.3939 123.541 61.8755 123.759 61.4562C123.912 61.165 124.212 60.9961 124.524 60.9961C124.659 60.9961 124.795 61.0252 124.918 61.0893C128.367 62.854 131.927 63.6402 136.465 63.6402C141.55 63.6402 144.757 62.6152 148.012 61.0835C148.441 60.8796 148.953 61.0602 149.159 61.4853C149.365 61.9105 149.183 62.423 148.753 62.621C147.711 63.1161 146.664 63.5471 145.575 63.9256C146.47 69.2139 150.289 70.6525 151.943 71.0252C155.674 69.0858 158.01 66.4708 158.01 63.6402C158.01 63.1685 158.399 62.7841 158.876 62.7841C159.352 62.7841 159.741 63.1685 159.741 63.6402C159.741 70.6233 149.518 76.098 136.465 76.098M132.051 74.1469C133.346 74.2867 134.676 74.3683 136.035 74.3799V65.3351C135.406 65.3292 134.794 65.3059 134.199 65.271C134.123 68.084 133.646 71.5377 132.051 74.1469ZM133.34 65.2069C132.575 65.137 131.827 65.0438 131.104 64.9157C130.845 69.5401 128.749 72.1085 127.325 73.3199C128.538 73.6111 129.803 73.8499 131.121 74.0305C132.851 71.4387 133.275 67.6938 133.34 65.2069ZM136.9 74.3799C138.23 74.3683 139.537 74.2925 140.808 74.1586C139.213 71.5494 138.731 68.0957 138.654 65.2768C138.095 65.3118 137.507 65.3292 136.9 65.3351V74.3799ZM141.744 74.0479C143.062 73.8732 144.333 73.6402 145.552 73.349C144.127 72.1434 142.009 69.575 141.75 64.9274C141.049 65.0497 140.296 65.137 139.513 65.2069C139.584 67.6996 140.002 71.4562 141.744 74.0479ZM122.088 71.5494C123.359 72.1318 124.765 72.6385 126.272 73.0578C127.478 72.1726 130.003 69.7323 130.25 64.7585C129.515 64.607 128.797 64.4265 128.096 64.211C127.237 68.9344 124.141 70.8214 122.088 71.5494ZM144.757 64.211C144.074 64.4207 143.351 64.5954 142.603 64.7526C142.844 69.808 145.399 72.225 146.599 73.0811C148.123 72.6618 149.548 72.1551 150.831 71.5727C148.777 70.8621 145.616 68.9868 144.757 64.211Z" fill="#C7A568"/>
<path fill-rule="evenodd" clip-rule="evenodd" d="M136.388 56.5986H122.428C124.547 58.0896 125.412 60.3261 125.412 62.3703C125.412 65.6318 123.264 68.9341 119.168 68.9341C115.331 68.9341 113.259 66.0978 113.259 63.4303C113.259 61.089 115.184 59.1845 117.55 59.1845C119.539 59.1845 121.151 60.7862 121.151 62.7489C121.151 63.2206 120.763 63.605 120.286 63.605C119.81 63.605 119.421 63.2206 119.421 62.7489C119.421 61.7239 118.579 60.891 117.544 60.891C116.131 60.891 114.978 62.0325 114.978 63.4303C114.978 65.2707 116.443 67.2276 119.162 67.2276C122.269 67.2276 123.682 64.7116 123.682 62.3703C123.682 58.8118 120.775 56.5986 116.102 56.5986H102.601C91.0135 56.5986 87.9179 64.1642 87.9179 68.6371C87.9179 74.9038 93.2087 79.9999 99.7176 79.9999C106.227 79.9999 109.34 75.7075 109.34 71.7239C109.34 67.7402 106.091 64.8805 102.854 64.5427C102.625 64.5253 102.395 64.502 102.154 64.502C99.188 64.502 96.0159 65.9114 96.0159 69.8601C96.0159 71.7763 96.9163 73.2847 98.3523 74.0651C98.364 73.9661 98.3817 73.8613 98.4111 73.7565C98.8113 72.3762 100.159 71.8695 101.601 72.283C103.449 72.8071 104.543 74.17 104.744 75.294C104.779 75.4862 104.561 75.6144 104.396 75.4979C102.919 74.4612 102.366 76.3598 100.724 76.3715C96.9928 76.3715 94.2915 73.6342 94.2915 69.8601C94.2915 64.6476 98.5288 62.7955 102.16 62.7955C102.478 62.7955 102.79 62.813 103.102 62.8479C109.811 63.3721 113.283 69.3884 116.637 75.23C119.974 81.0424 123.129 86.5404 129.167 86.5404C131.98 86.5404 134.105 84.8048 134.105 82.5101C134.105 81.654 133.81 79.6563 131.074 79.6563C130.356 79.6563 129.773 79.8951 129.361 80.2387C129.832 80.5474 130.132 81.1123 130.191 81.7937C130.314 83.209 129.649 84.3272 128.908 84.7699C128.778 84.8456 128.631 84.7291 128.673 84.5835C129.049 83.1216 127.107 83.4653 126.96 81.7763C126.96 81.7122 126.96 81.654 126.96 81.5957C126.96 81.5899 126.96 81.5841 126.96 81.5724C126.96 81.5608 126.96 81.5491 126.96 81.5375C126.96 81.3686 126.978 81.2113 127.013 81.0657C127.295 79.301 129.002 77.9324 131.08 77.9324C133.969 77.9324 135.835 79.7262 135.835 82.4985C135.835 85.7716 132.969 88.241 129.173 88.241C122.128 88.241 118.579 82.0558 115.143 76.0686C113.712 73.5701 112.306 71.1414 110.699 69.1496C110.946 69.965 111.076 70.8269 111.076 71.718C111.076 76.6802 107.18 81.7064 99.7294 81.7064C89.9601 81.7064 83.4217 75.9522 76.5007 69.8543C72.1457 66.022 67.6907 62.1199 62.2587 59.5631C65.0835 62.2131 66.7373 65.8473 66.7373 70.1164C66.7373 76.8898 61.1699 82.3994 54.3255 82.3994C48.7523 82.3994 44.2207 77.9149 44.2207 72.3995C44.2207 67.8974 47.9225 64.2282 52.4776 64.2282C56.2146 64.2282 59.2514 67.2393 59.2514 70.9376C59.2514 73.873 56.9326 76.2725 54.0136 76.453C53.9489 76.4589 53.8841 76.4763 53.8194 76.4763C53.7841 76.4763 53.7488 76.4763 53.7135 76.4705C53.6958 76.4705 53.6781 76.4705 53.6605 76.4705C53.6428 76.4705 53.6311 76.4589 53.6134 76.4589C51.3182 76.3016 51.7243 73.5817 49.8587 74.2282C49.6704 74.2923 49.4938 74.1117 49.5821 73.937C50.0882 72.912 51.5183 71.9044 53.4369 71.9044C54.8375 71.9044 55.9204 72.6499 56.0616 73.9137C56.9503 73.2148 57.5329 72.1432 57.5329 70.9318C57.5329 68.177 55.2671 65.9347 52.4835 65.9347C48.8818 65.9347 45.951 68.8351 45.951 72.3995C45.951 76.9714 49.7116 80.693 54.3314 80.693C60.2224 80.693 65.0188 75.9463 65.0188 70.1164C65.0188 62.2073 58.5864 56.6802 49.3702 56.6802H39.7068C41.7784 58.1187 43.0143 60.3727 43.0143 63.0925C43.0143 66.7675 39.9893 69.7611 36.2758 69.7611C33.2096 69.7611 30.7143 67.2917 30.7143 64.2573C30.7143 61.7355 32.7859 59.6796 35.3342 59.6796C37.4705 59.6796 39.2066 61.3977 39.2066 63.5119C39.2066 63.9836 38.8182 64.368 38.3415 64.368C37.8648 64.368 37.4763 63.9836 37.4763 63.5119C37.4763 62.3412 36.5171 61.3919 35.3283 61.3919C33.7334 61.3919 32.4328 62.679 32.4328 64.2573C32.4328 66.3482 34.1512 68.0547 36.2699 68.0547C39.03 68.0547 41.284 65.8299 41.284 63.0925C41.284 59.2544 38.2591 56.6802 33.7511 56.6802H9.83972C9.8868 56.8549 9.92211 57.0296 9.92211 57.2102C9.92211 58.0896 9.13939 59.2777 6.73236 59.2777C3.91338 59.2777 3.13654 57.0646 0.529423 58.1537C0.276362 58.2585 -0.0649761 58.1187 0.0174159 57.9324C0.458802 56.9423 3.58381 54.9795 6.47342 54.9795H6.48519C6.49107 54.9795 6.50284 54.9795 6.50873 54.9795H49.3526C57.1798 54.9795 63.1473 57.5596 68.3439 61.0832C70.7921 62.7838 76.1241 63.407 79.0431 60.5183C80.9911 58.5905 81.4325 54.3214 79.1667 52.0849C78.4075 51.3278 77.001 50.8968 75.5944 50.9725C74.2114 51.0541 73.005 51.6015 72.2987 52.4868C71.6396 53.308 71.4807 54.566 71.6749 55.6551C72.4282 55.2591 73.3228 55.4804 74.0231 56.1735C75.1118 57.2509 75.3414 58.6196 75.0471 59.4874C74.9941 59.6388 74.794 59.6388 74.7234 59.499C74.0349 58.0838 72.7107 59.8485 71.3218 58.6604C71.2983 58.6429 71.2747 58.6371 71.2571 58.6196C71.2453 58.608 71.2394 58.5905 71.2276 58.5788C71.2159 58.5672 71.2041 58.5614 71.1923 58.5497C71.0864 58.4449 70.9981 58.3226 70.9275 58.2061C69.5504 56.4006 69.5092 53.2265 70.9452 51.4326C71.9633 50.1688 73.617 49.3767 75.4944 49.2719C75.6356 49.2661 75.7827 49.2603 75.924 49.2603C77.6778 49.2603 79.355 49.866 80.379 50.8794C83.4276 53.8962 82.8155 59.1904 80.2496 61.7239C78.1191 63.8322 75.1883 64.4495 72.5106 64.2107C74.2585 65.6318 75.9475 67.1112 77.6248 68.5847C81.6443 72.1199 85.5285 75.527 89.9718 77.6877C87.6295 75.3348 86.1877 72.149 86.1877 68.6371C86.1877 65.5328 87.4589 62.2538 89.5834 59.8718C91.6138 57.6004 95.5156 54.8922 102.595 54.8922H136.376C136.853 54.8922 137.241 55.2766 137.241 55.7483C137.241 56.2201 136.853 56.6045 136.376 56.6045" fill="#C7A568"/>
<path fill-rule="evenodd" clip-rule="evenodd" d="M112.577 78.0312C113.972 80.9608 118.597 89.33 124.1 89.6096C123.517 90.2211 116.432 90.5589 112.612 85.4861C112.612 85.4861 107.445 87.2741 101.96 85.1134C107.674 85.7307 112.577 80.8618 112.577 78.0312Z" fill="#C7A568"/>
<path fill-rule="evenodd" clip-rule="evenodd" d="M272.476 58.1595C269.869 57.0704 269.086 59.2835 266.273 59.2835C263.872 59.2835 263.083 58.0954 263.083 57.2218C263.083 57.0354 263.113 56.8607 263.166 56.6918H239.266C234.758 56.6918 231.733 59.2719 231.733 63.1042C231.733 65.8415 233.981 68.0663 236.747 68.0663C238.866 68.0663 240.584 66.3657 240.584 64.269C240.584 62.6907 239.284 61.4035 237.689 61.4035C236.506 61.4035 235.541 62.3587 235.541 63.5293C235.541 64.0011 235.152 64.3855 234.676 64.3855C234.199 64.3855 233.811 64.0011 233.811 63.5293C233.811 61.4152 235.547 59.6971 237.683 59.6971C240.231 59.6971 242.303 61.7471 242.303 64.2748C242.303 67.3092 239.808 69.7786 236.741 69.7786C233.028 69.7786 230.003 66.785 230.003 63.11C230.003 60.3843 231.239 58.1362 233.31 56.6976H223.647C214.431 56.6976 207.998 62.2247 207.998 70.1339C207.998 75.9638 212.795 80.7105 218.686 80.7105C223.306 80.7105 227.066 76.9888 227.066 72.4169C227.066 68.8526 224.135 65.9522 220.534 65.9522C217.75 65.9522 215.484 68.1944 215.484 70.9492C215.484 72.1607 216.067 73.2323 216.961 73.9312C217.103 72.6674 218.186 71.9219 219.586 71.9219C221.505 71.9219 222.935 72.9294 223.441 73.9545C223.529 74.1292 223.353 74.3098 223.164 74.2457C221.299 73.5992 221.705 76.3132 219.41 76.4763C219.392 76.4763 219.374 76.488 219.357 76.488C219.339 76.488 219.321 76.488 219.304 76.488C219.268 76.488 219.239 76.4938 219.204 76.4938C219.133 76.4938 219.074 76.4763 219.009 76.4705C216.09 76.29 213.766 73.8904 213.766 70.9492C213.766 67.2509 216.808 64.2399 220.546 64.2399C225.101 64.2399 228.802 67.9032 228.802 72.4111C228.802 77.9265 224.271 82.4111 218.698 82.4111C211.853 82.4111 206.286 76.9015 206.286 70.1222C206.286 65.859 207.934 62.2189 210.759 59.5689C205.332 62.1199 200.877 66.022 196.516 69.8601C189.59 75.9522 183.051 81.7122 173.288 81.7122C165.837 81.7122 161.941 76.6918 161.941 71.7297C161.941 70.8328 162.077 69.9708 162.318 69.1554C160.705 71.1473 159.305 73.5759 157.875 76.0745C154.438 82.0558 150.889 88.2469 143.844 88.2469C140.043 88.2469 137.182 85.7774 137.182 82.5043C137.182 79.732 139.048 77.9382 141.938 77.9382C144.015 77.9382 145.722 79.3068 146.004 81.0657C146.04 81.2113 146.057 81.3686 146.057 81.5375C146.057 81.5491 146.057 81.5608 146.057 81.5666C146.057 81.5724 146.057 81.5783 146.057 81.5841C146.057 81.6481 146.057 81.7064 146.057 81.7646C145.91 83.4536 143.962 83.1042 144.345 84.5718C144.38 84.7116 144.233 84.8339 144.103 84.7582C143.362 84.3156 142.697 83.1973 142.82 81.7821C142.879 81.1007 143.179 80.5357 143.65 80.2271C143.238 79.8776 142.656 79.6446 141.938 79.6446C139.201 79.6446 138.907 81.6423 138.907 82.4985C138.907 84.799 141.031 86.5346 143.844 86.5346C149.883 86.5346 153.037 81.0424 156.374 75.2241C159.728 69.3826 163.201 63.3604 169.91 62.8421C170.222 62.8071 170.534 62.7897 170.851 62.7897C174.477 62.7897 178.714 64.6417 178.714 69.8543C178.714 73.6283 176.007 76.3657 172.281 76.3657C170.64 76.354 170.086 74.4612 168.609 75.492C168.45 75.6085 168.227 75.4804 168.262 75.2882C168.468 74.1642 169.557 72.8013 171.405 72.2771C172.846 71.8695 174.194 72.3703 174.594 73.7506C174.624 73.8555 174.636 73.9545 174.653 74.0593C176.089 73.2731 176.99 71.7704 176.99 69.8543C176.99 64.8805 172.287 64.4961 170.851 64.4961C170.61 64.4961 170.386 64.5194 170.151 64.5369C166.908 64.8805 163.666 67.5596 163.666 71.7239C163.666 75.8881 166.679 79.9999 173.288 79.9999C179.897 79.9999 185.088 74.9038 185.088 68.6371C185.088 64.1642 181.992 56.5986 170.404 56.5986H156.904C152.225 56.5986 149.324 58.8118 149.324 62.3703C149.324 64.7116 150.736 67.2276 153.843 67.2276C156.562 67.2276 158.028 65.2707 158.028 63.4303C158.028 62.0325 156.88 60.891 155.468 60.891C154.432 60.891 153.59 61.7239 153.59 62.7489C153.59 63.2206 153.202 63.605 152.725 63.605C152.248 63.605 151.86 63.2206 151.86 62.7489C151.86 60.7803 153.478 59.1845 155.468 59.1845C157.833 59.1845 159.758 61.089 159.758 63.4303C159.758 66.0978 157.686 68.9341 153.849 68.9341C149.747 68.9341 147.605 65.6318 147.605 62.3703C147.605 60.3319 148.47 58.0954 150.589 56.5986H136.629C136.153 56.5986 135.764 56.2142 135.764 55.7425C135.764 55.2707 136.153 54.8863 136.629 54.8863H170.41C177.49 54.8863 181.392 57.5946 183.422 59.866C185.547 62.248 186.818 65.5212 186.818 68.6312C186.818 72.1432 185.37 75.329 183.028 77.6819C187.471 75.5212 191.361 72.1141 195.375 68.5788C197.046 67.1053 198.741 65.626 200.489 64.2107C197.811 64.4437 194.88 63.8322 192.75 61.7239C191.496 60.4833 190.69 58.5206 190.602 56.4822C190.502 54.2573 191.22 52.2655 192.626 50.8794C193.65 49.866 195.328 49.2603 197.081 49.2603C197.223 49.2603 197.37 49.2603 197.511 49.2719C199.388 49.3767 201.048 50.1688 202.06 51.4326C203.502 53.2323 203.455 56.4064 202.078 58.2061C202.007 58.3284 201.919 58.4449 201.813 58.5497C201.801 58.5614 201.79 58.5672 201.778 58.5788C201.766 58.5905 201.76 58.608 201.748 58.6196C201.731 58.6371 201.701 58.6429 201.684 58.6604C200.295 59.8485 198.971 58.0838 198.282 59.499C198.211 59.6388 198.011 59.633 197.958 59.4874C197.658 58.6196 197.894 57.2509 198.982 56.1735C199.683 55.4804 200.577 55.2591 201.331 55.6551C201.525 54.566 201.366 53.308 200.707 52.4868C199.995 51.6015 198.794 51.0483 197.411 50.9725C196.01 50.8852 194.604 51.3278 193.845 52.0791C192.785 53.1275 192.244 54.6592 192.326 56.4006C192.397 58.0255 193.015 59.5631 193.974 60.5066C196.893 63.3954 202.219 62.778 204.667 61.0774C209.864 57.548 215.837 54.9679 223.665 54.9679H266.508C266.508 54.9679 266.526 54.9679 266.532 54.9679C266.532 54.9679 266.538 54.9679 266.544 54.9679C269.433 54.9679 272.558 56.9248 273 57.9207C273.082 58.1071 272.741 58.2469 272.488 58.142" fill="#C7A568"/>
<path fill-rule="evenodd" clip-rule="evenodd" d="M160.423 78.043C160.423 80.8735 165.319 85.7424 171.04 85.1251C165.549 87.2858 160.388 85.4978 160.388 85.4978C156.568 90.5706 149.483 90.227 148.9 89.6213C154.403 89.3476 159.034 80.9725 160.423 78.043Z" fill="#C7A568"/>
<path fill-rule="evenodd" clip-rule="evenodd" d="M136.623 85.5503C136.623 85.5503 136.771 86.453 136.941 87.81C137.029 88.4856 137.141 89.2777 137.23 90.1222C137.335 90.9667 137.406 91.8694 137.494 92.7722C137.565 93.6749 137.777 94.5776 137.795 95.428C137.795 96.2783 137.659 97.0645 137.5 97.7401C137.324 98.4157 137.135 98.9865 136.947 99.3767C136.77 99.7727 136.623 99.9999 136.623 99.9999H136.376C136.376 99.9999 136.229 99.7727 136.058 99.3767C135.87 98.9807 135.682 98.4157 135.505 97.7401C135.34 97.0645 135.211 96.2724 135.211 95.4221C135.229 94.5776 135.44 93.6749 135.511 92.7722C135.593 91.8694 135.67 90.9667 135.776 90.1222C135.864 89.2719 135.976 88.4856 136.064 87.8042C136.235 86.4472 136.382 85.5444 136.382 85.5444" fill="#C7A568"/>
<path fill-rule="evenodd" clip-rule="evenodd" d="M88.8656 49.1499H184.128C184.599 49.1499 184.988 49.5343 184.988 50.0002C184.988 50.4662 184.599 50.8505 184.128 50.8505H88.8656C88.3948 50.8505 88.0063 50.4662 88.0063 50.0002C88.0063 49.5343 88.3948 49.1499 88.8656 49.1499Z" fill="#C7A568"/>
<path fill-rule="evenodd" clip-rule="evenodd" d="M25.724 49.1499H62.1412C62.612 49.1499 63.0005 49.5343 63.0005 50.0002C63.0005 50.4662 62.612 50.8505 62.1412 50.8505H25.724C25.2473 50.8505 24.8647 50.4662 24.8647 50.0002C24.8647 49.5343 25.2532 49.1499 25.724 49.1499Z" fill="#C7A568"/>
<path fill-rule="evenodd" clip-rule="evenodd" d="M210.853 49.1499H247.27C247.747 49.1499 248.129 49.5343 248.129 50.0002C248.129 50.4662 247.741 50.8505 247.27 50.8505H210.853C210.382 50.8505 209.994 50.4662 209.994 50.0002C209.994 49.5343 210.382 49.1499 210.853 49.1499Z" fill="#C7A568"/>
</g>
<defs>
<clipPath id="clip0_133_545">
<rect width="273" height="100" fill="white"/>
</clipPath>
</defs>
</svg>
