<svg width="141" height="141" viewBox="0 0 141 141" fill="none" xmlns="http://www.w3.org/2000/svg">
<circle cx="70.5" cy="70.5" r="70.5" fill="#5281A1"/>
<path fill-rule="evenodd" clip-rule="evenodd" d="M70.7196 103.311C71.9188 105.446 72.1978 108.312 69.3794 109.957C68.0102 110.753 66.5705 110.734 65.4322 110.029C65.4996 109.977 65.5669 109.924 65.6278 109.859C66.4519 108.997 66.2659 107.819 65.3906 106.951C64.2683 105.841 62.8543 105.619 61.9693 105.942C61.8154 105.998 61.8154 106.21 61.9629 106.278C63.3 106.908 62.1713 108.1 62.8254 109.285C64.3356 111.968 67.385 112.774 70.0816 111.201C73.8042 109.03 73.413 105.211 71.9445 102.603C71.8162 102.375 71.6752 102.156 71.5277 101.947C68.4399 97.3415 62.7388 97.348 57.2078 97.3676C51.7055 97.3872 46.5079 97.4035 44.0646 93.0623C42.9263 91.0386 43.3047 88.7864 44.9464 87.8301C45.5588 87.4743 47.1043 86.8541 48.2105 88.8191C48.4991 89.3348 48.5664 89.8505 48.4863 90.2912C48.0726 90.0823 47.5532 90.1018 47.0402 90.3434C45.9788 90.846 45.4498 91.7893 45.4338 92.5042C45.4338 92.6282 45.5748 92.6837 45.6614 92.5988C46.5528 91.7175 47.0915 93.2614 48.358 92.6641C48.4061 92.6413 48.4446 92.6152 48.4895 92.589C48.4959 92.589 48.5023 92.589 48.5055 92.5825C48.5151 92.5792 48.5215 92.5695 48.528 92.5662C48.6466 92.4944 48.7524 92.4193 48.8422 92.3312C49.9869 91.3944 50.2723 89.5992 49.4322 88.101C48.265 86.0218 46.2289 85.4277 44.2506 86.5799C41.9131 87.941 41.3103 91.0321 42.8494 93.7641C45.6999 98.8299 51.5548 98.8103 57.2174 98.7875C59.5805 98.7809 61.8763 98.8201 63.9541 99.1041C66.6892 99.4795 69.312 100.788 70.7293 103.305" fill="white"/>
<path fill-rule="evenodd" clip-rule="evenodd" d="M44.5684 82.569C44.7336 84.8835 43.7427 87.4318 40.4657 87.6411C38.8758 87.7426 37.5773 87.1209 36.8487 86.0437C36.9329 86.0283 37.0171 86.013 37.1013 85.9822C38.2249 85.5975 38.5681 84.5203 38.1472 83.4154C37.6097 82.0027 36.4213 81.221 35.4757 81.1225C35.3138 81.104 35.2199 81.2826 35.3235 81.4026C36.2626 82.4982 34.7212 83.0338 34.8022 84.3141C35.0094 87.2225 37.4283 89.1861 40.5596 88.986C44.8825 88.709 46.181 85.3051 45.9803 82.4767C45.9641 82.2274 45.9317 81.9843 45.8864 81.7442C45.0833 76.5429 39.899 74.1546 34.8702 71.8494C34.2517 71.5663 33.6364 71.2862 33.0341 71H30C31.3568 71.7386 32.8107 72.4034 34.2517 73.0651C36.4018 74.05 38.471 75.0502 40.2326 76.1644C42.5543 77.6293 44.3677 79.8422 44.562 82.569" fill="white"/>
<path fill-rule="evenodd" clip-rule="evenodd" d="M44.5684 58.7882C44.7336 56.3452 43.7427 53.6553 40.4657 53.4344C38.8758 53.3272 37.5773 53.9835 36.8487 55.1205C36.9329 55.1367 37.0171 55.1562 37.1013 55.1855C38.2249 55.5916 38.5681 56.7286 38.1472 57.8949C37.6097 59.386 36.4213 60.2112 35.4757 60.3151C35.3138 60.3346 35.2199 60.1462 35.3235 60.0195C36.2626 58.863 34.7212 58.2977 34.8022 56.9463C35.0094 53.8763 37.4283 51.8036 40.5596 52.0148C44.8825 52.3072 46.181 55.9002 45.9803 58.8857C45.9641 59.1489 45.9317 59.4055 45.8864 59.6589C45.0833 65.1491 39.899 67.6701 34.8702 70.1034C34.2517 70.4022 33.6364 70.7011 33.0341 71H30C31.3568 70.2203 32.8107 69.5186 34.2517 68.8201C36.4018 67.7806 38.471 66.7248 40.2326 65.5487C42.5543 64.0024 44.3677 61.6666 44.562 58.7882" fill="white"/>
<path fill-rule="evenodd" clip-rule="evenodd" d="M70.7196 38.6896C71.9188 36.5547 72.1978 33.6885 69.3794 32.0432C68.0102 31.2467 66.5705 31.2663 65.4322 31.9714C65.4996 32.0236 65.5669 32.0759 65.6278 32.1411C66.4519 33.003 66.2659 34.1814 65.3906 35.0498C64.2683 36.1597 62.8543 36.3817 61.9693 36.0585C61.8154 36.003 61.8154 35.7941 61.9629 35.7223C63.3 35.0922 62.1713 33.9007 62.8254 32.7157C64.3356 30.0323 67.385 29.226 70.0816 30.7994C73.8042 32.9703 73.413 36.7897 71.9445 39.398C71.8162 39.6265 71.6752 39.8453 71.5277 40.0542C68.4399 44.6603 62.7388 44.6538 57.2078 44.6342C51.7055 44.6146 46.5079 44.5951 44.0646 48.9401C42.9263 50.9673 43.3047 53.2165 44.9464 54.173C45.5588 54.5321 47.1043 55.1491 48.2105 53.1838C48.4991 52.6681 48.5664 52.1523 48.4863 51.7116C48.0726 51.9205 47.5532 51.9009 47.0402 51.6593C45.9788 51.1599 45.4498 50.2132 45.4338 49.4983C45.4338 49.3742 45.5748 49.3187 45.6614 49.4036C46.5528 50.285 47.0915 48.7409 48.358 49.3383C48.4061 49.3612 48.4446 49.3873 48.4895 49.4134C48.4959 49.4167 48.5023 49.4134 48.5055 49.4199C48.5151 49.4232 48.5215 49.433 48.528 49.4362C48.6466 49.5081 48.7524 49.5831 48.8422 49.6713C49.9869 50.6082 50.2723 52.4036 49.4322 53.8988C48.265 55.9782 46.2289 56.5724 44.2506 55.42C41.9131 54.0587 41.3103 50.9705 42.8494 48.2349C45.6999 43.1685 51.5548 43.1913 57.2174 43.2109C59.5805 43.2207 61.8763 43.1783 63.9541 42.8943C66.6892 42.5189 69.312 41.2098 70.7293 38.6929" fill="white"/>
<path fill-rule="evenodd" clip-rule="evenodd" d="M44.5684 58.7882C44.7336 56.3452 43.7427 53.6553 40.4657 53.4344C38.8758 53.3272 37.5773 53.9835 36.8487 55.1205C36.9329 55.1367 37.0171 55.1562 37.1013 55.1855C38.2249 55.5916 38.5681 56.7286 38.1472 57.8949C37.6097 59.386 36.4213 60.2112 35.4757 60.3151C35.3138 60.3346 35.2199 60.1462 35.3235 60.0195C36.2626 58.863 34.7212 58.2977 34.8022 56.9463C35.0094 53.8763 37.4283 51.8036 40.5596 52.0148C44.8825 52.3072 46.181 55.9002 45.9803 58.8857C45.9641 59.1489 45.9317 59.4055 45.8864 59.6589C45.0833 65.1491 39.899 67.6701 34.8702 70.1034C34.2517 70.4022 33.6364 70.7011 33.0341 71H30C31.3568 70.2203 32.8107 69.5186 34.2517 68.8201C36.4018 67.7806 38.471 66.7248 40.2326 65.5487C42.5543 64.0024 44.3677 61.6666 44.562 58.7882" fill="white"/>
<path fill-rule="evenodd" clip-rule="evenodd" d="M44.5684 82.569C44.7336 84.8835 43.7427 87.4318 40.4657 87.6411C38.8758 87.7426 37.5773 87.1209 36.8487 86.0437C36.9329 86.0283 37.0171 86.013 37.1013 85.9822C38.2249 85.5975 38.5681 84.5203 38.1472 83.4154C37.6097 82.0027 36.4213 81.221 35.4757 81.1225C35.3138 81.104 35.2199 81.2826 35.3235 81.4026C36.2626 82.4982 34.7212 83.0338 34.8022 84.3141C35.0094 87.2225 37.4283 89.1861 40.5596 88.986C44.8825 88.709 46.181 85.3051 45.9803 82.4767C45.9641 82.2274 45.9317 81.9843 45.8864 81.7442C45.0833 76.5429 39.899 74.1546 34.8702 71.8494C34.2517 71.5663 33.6364 71.2862 33.0341 71H30C31.3568 71.7386 32.8107 72.4034 34.2517 73.0651C36.4018 74.05 38.471 75.0502 40.2326 76.1644C42.5543 77.6293 44.3677 79.8422 44.562 82.569" fill="white"/>
<path d="M52.2103 52.2103C47.4015 57.0191 44.4258 63.6611 44.4258 71C44.4258 78.3389 47.4015 84.9809 52.2103 89.7897C57.0191 94.5985 63.6611 97.5742 71 97.5742C78.3389 97.5742 84.9809 94.5985 89.7897 89.7897C94.5985 84.9809 97.5742 78.3358 97.5742 71C97.5742 63.6642 94.5985 57.0191 89.7897 52.2103C84.9809 47.4015 78.3389 44.4258 71 44.4258C63.6611 44.4258 57.0191 47.4015 52.2103 52.2103ZM43 71C43 63.2664 46.1348 56.268 51.2014 51.2014C56.268 46.1348 63.2696 43 71 43C78.7304 43 85.732 46.1348 90.7986 51.2014C95.8652 56.268 99 63.2696 99 71C99 78.7304 95.8652 85.732 90.7986 90.7986C85.732 95.8652 78.7304 99 71 99C63.2696 99 56.268 95.8652 51.2014 90.7986C46.1348 85.732 43 78.7304 43 71Z" fill="white"/>
<path fill-rule="evenodd" clip-rule="evenodd" d="M43 71.5446L42.8557 71.5644C42.3537 71.6436 41.8186 71.703 41.2836 71.7663C40.7485 71.8218 40.2134 71.9842 39.7114 72C39.2094 72 38.7405 71.897 38.3407 71.7703C37.9379 71.6356 37.6042 71.4891 37.3697 71.3426C37.1353 71.2079 37 71.0931 37 71.0931V70.903C37 70.903 37.1353 70.7921 37.3697 70.6574C37.6042 70.5149 37.9379 70.3644 38.3407 70.2297C38.7435 70.103 39.2124 70 39.7114 70C40.2134 70.0158 40.7485 70.1782 41.2836 70.2297C41.8186 70.297 42.3537 70.3525 42.8557 70.4317L43 70.4515" fill="white"/>
<path fill-rule="evenodd" clip-rule="evenodd" d="M70.274 103.311C69.0715 105.446 68.7958 108.312 71.6142 109.957C72.9834 110.753 74.4231 110.734 75.5646 110.029C75.4972 109.977 75.4299 109.924 75.369 109.859C74.5449 108.997 74.7277 107.819 75.6062 106.951C76.7285 105.841 78.1425 105.619 79.0275 105.942C79.1782 105.998 79.1814 106.21 79.0339 106.278C77.6968 106.908 78.8255 108.1 78.1714 109.285C76.6612 111.968 73.6118 112.774 70.9184 111.201C67.1958 109.03 67.587 105.211 69.0555 102.603C69.1838 102.375 69.3248 102.156 69.4723 101.947C72.5601 97.3415 78.2612 97.348 83.7922 97.3676C89.2945 97.3872 94.4921 97.4035 96.9354 93.0623C98.0737 91.0386 97.6953 88.7864 96.0536 87.8301C95.4412 87.4743 93.8957 86.8541 92.7895 88.8191C92.4977 89.3348 92.4336 89.8505 92.5137 90.2912C92.9274 90.0823 93.4468 90.1018 93.9598 90.3434C95.0212 90.846 95.5502 91.7893 95.5662 92.5042C95.5662 92.6282 95.4252 92.6837 95.3386 92.5988C94.4472 91.7175 93.9085 93.2614 92.642 92.6641C92.5939 92.6413 92.5554 92.6152 92.5105 92.589C92.5041 92.589 92.4977 92.589 92.4945 92.5825C92.4849 92.5792 92.4785 92.5695 92.472 92.5662C92.3534 92.4944 92.2476 92.4193 92.1578 92.3312C91.0131 91.3944 90.7277 89.5992 91.5678 88.101C92.7382 86.0218 94.7711 85.4277 96.7494 86.5799C99.0869 87.941 99.6897 91.0321 98.1506 93.7641C95.3001 98.8299 89.4452 98.8103 83.7826 98.7875C81.4195 98.7809 79.1237 98.8201 77.0459 99.1041C74.3108 99.4795 71.688 100.788 70.2707 103.305" fill="white"/>
<path fill-rule="evenodd" clip-rule="evenodd" d="M97.3451 82.569C97.1903 84.8835 98.1192 87.4318 101.191 87.6411C102.682 87.7426 103.896 87.1209 104.582 86.0437C104.503 86.0283 104.425 86.013 104.346 85.9822C103.292 85.5975 102.97 84.5203 103.365 83.4154C103.869 82.0027 104.983 81.221 105.87 81.1225C106.021 81.104 106.109 81.2826 106.012 81.4026C105.132 82.4982 106.577 83.0338 106.498 84.3141C106.304 87.2225 104.036 89.1861 101.1 88.986C97.0476 88.709 95.8303 85.3051 96.0185 82.4767C96.0367 82.2274 96.0671 81.9843 96.1065 81.7442C96.8594 76.5429 101.72 74.1546 106.434 71.8494C107.014 71.5663 107.591 71.2862 108.155 71H111C109.728 71.7386 108.365 72.4034 107.014 73.0651C104.998 74.05 103.058 75.0502 101.407 76.1644C99.2303 77.6293 97.5303 79.8422 97.3482 82.569" fill="white"/>
<path fill-rule="evenodd" clip-rule="evenodd" d="M97.3451 58.7882C97.1903 56.3452 98.1192 53.6553 101.191 53.4344C102.682 53.3272 103.896 53.9835 104.582 55.1205C104.503 55.1367 104.425 55.1562 104.346 55.1855C103.292 55.5916 102.97 56.7286 103.365 57.8949C103.869 59.386 104.983 60.2112 105.87 60.3151C106.021 60.3346 106.109 60.1462 106.012 60.0195C105.132 58.863 106.577 58.2977 106.498 56.9463C106.304 53.8763 104.036 51.8036 101.1 52.0148C97.0476 52.3072 95.8303 55.9002 96.0185 58.8857C96.0367 59.1489 96.0671 59.4055 96.1065 59.6589C96.8594 65.1491 101.72 67.6701 106.434 70.1034C107.014 70.4022 107.591 70.7011 108.155 71H111C109.728 70.2203 108.365 69.5186 107.014 68.8201C104.998 67.7806 103.058 66.7248 101.407 65.5487C99.2303 64.0024 97.5303 61.6666 97.3482 58.7882" fill="white"/>
<path fill-rule="evenodd" clip-rule="evenodd" d="M70.274 38.6896C69.0715 36.5547 68.7958 33.6885 71.6142 32.0432C72.9834 31.2467 74.4231 31.2663 75.5646 31.9714C75.4972 32.0236 75.4299 32.0759 75.369 32.1411C74.5449 33.003 74.7277 34.1814 75.6062 35.0498C76.7285 36.1597 78.1425 36.3817 79.0275 36.0585C79.1782 36.003 79.1814 35.7941 79.0339 35.7223C77.6968 35.0922 78.8255 33.9007 78.1714 32.7157C76.6612 30.0323 73.6118 29.226 70.9184 30.7994C67.1958 32.9703 67.587 36.7897 69.0555 39.398C69.1838 39.6265 69.3248 39.8453 69.4723 40.0542C72.5601 44.6603 78.2612 44.6538 83.7922 44.6342C89.2945 44.6146 94.4921 44.5951 96.9354 48.9401C98.0737 50.9673 97.6953 53.2165 96.0536 54.173C95.4412 54.5321 93.8957 55.1491 92.7895 53.1838C92.4977 52.6681 92.4336 52.1523 92.5137 51.7116C92.9274 51.9205 93.4468 51.9009 93.9598 51.6593C95.0212 51.1599 95.5502 50.2132 95.5662 49.4983C95.5662 49.3742 95.4252 49.3187 95.3386 49.4036C94.4472 50.285 93.9085 48.7409 92.642 49.3383C92.5939 49.3612 92.5554 49.3873 92.5105 49.4134C92.5041 49.4167 92.4977 49.4134 92.4945 49.4199C92.4849 49.4232 92.4785 49.433 92.472 49.4362C92.3534 49.5081 92.2476 49.5831 92.1578 49.6713C91.0131 50.6082 90.7277 52.4036 91.5678 53.8988C92.7382 55.9782 94.7711 56.5724 96.7494 55.42C99.0869 54.0587 99.6897 50.9705 98.1506 48.2349C95.3001 43.1685 89.4452 43.1913 83.7826 43.2109C81.4195 43.2207 79.1237 43.1783 77.0459 42.8943C74.3108 42.5189 71.688 41.2098 70.2707 38.6929" fill="white"/>
<path fill-rule="evenodd" clip-rule="evenodd" d="M97.3451 58.7882C97.1903 56.3452 98.1192 53.6553 101.191 53.4344C102.682 53.3272 103.896 53.9835 104.582 55.1205C104.503 55.1367 104.425 55.1562 104.346 55.1855C103.292 55.5916 102.97 56.7286 103.365 57.8949C103.869 59.386 104.983 60.2112 105.87 60.3151C106.021 60.3346 106.109 60.1462 106.012 60.0195C105.132 58.863 106.577 58.2977 106.498 56.9463C106.304 53.8763 104.036 51.8036 101.1 52.0148C97.0476 52.3072 95.8303 55.9002 96.0185 58.8857C96.0367 59.1489 96.0671 59.4055 96.1065 59.6589C96.8594 65.1491 101.72 67.6701 106.434 70.1034C107.014 70.4022 107.591 70.7011 108.155 71H111C109.728 70.2203 108.365 69.5186 107.014 68.8201C104.998 67.7806 103.058 66.7248 101.407 65.5487C99.2303 64.0024 97.5303 61.6666 97.3482 58.7882" fill="white"/>
<path fill-rule="evenodd" clip-rule="evenodd" d="M97.3451 82.569C97.1903 84.8835 98.1192 87.4318 101.191 87.6411C102.682 87.7426 103.896 87.1209 104.582 86.0437C104.503 86.0283 104.425 86.013 104.346 85.9822C103.292 85.5975 102.97 84.5203 103.365 83.4154C103.869 82.0027 104.983 81.221 105.87 81.1225C106.021 81.104 106.109 81.2826 106.012 81.4026C105.132 82.4982 106.577 83.0338 106.498 84.3141C106.304 87.2225 104.036 89.1861 101.1 88.986C97.0476 88.709 95.8303 85.3051 96.0185 82.4767C96.0367 82.2274 96.0671 81.9843 96.1065 81.7442C96.8594 76.5429 101.72 74.1546 106.434 71.8494C107.014 71.5663 107.591 71.2862 108.155 71H111C109.728 71.7386 108.365 72.4034 107.014 73.0651C104.998 74.05 103.058 75.0502 101.407 76.1644C99.2303 77.6293 97.5303 79.8422 97.3482 82.569" fill="white"/>
<path fill-rule="evenodd" clip-rule="evenodd" d="M98 71.5446L98.1682 71.5644C98.7536 71.6436 99.3776 71.703 100.001 71.7663C100.625 71.8218 101.249 71.9842 101.835 72C102.42 72 102.967 71.897 103.437 71.7703C103.903 71.6356 104.295 71.4891 104.569 71.3426C104.842 71.2079 105 71.0931 105 71.0931V70.903C105 70.903 104.842 70.7921 104.569 70.6574C104.295 70.5149 103.906 70.3644 103.437 70.2297C102.967 70.103 102.42 70 101.838 70C101.253 70.0158 100.629 70.1782 100.005 70.2297C99.3811 70.297 98.7571 70.3525 98.1718 70.4317L98.0035 70.4515" fill="white"/>
<path fill-rule="evenodd" clip-rule="evenodd" d="M86.6805 72.2826H84.8754V68.6043C85.0735 68.7701 85.2811 68.9294 85.5016 69.0824C85.8658 69.3343 86.2588 69.5637 86.6773 69.7709M88.7508 72.2826H86.9489V69.9016C87.5112 70.1566 88.115 70.3734 88.7508 70.5391V72.2826ZM90.8243 72.2826H89.0224V70.606C89.6006 70.7431 90.2045 70.8419 90.8243 70.8961V72.2826ZM91.9968 72.2826H91.0959V70.9184C91.393 70.9375 91.6933 70.9503 91.9968 70.9503V70.3192C89.5943 70.3192 87.4217 69.6498 85.8562 68.5693C85.377 68.2378 84.9521 67.868 84.6006 67.4664V74.2684H91.9968V72.2858V72.2826ZM54.3195 72.2826H56.1246V68.6043C55.9265 68.7701 55.7189 68.9294 55.4984 69.0824C55.1342 69.3343 54.7412 69.5637 54.3227 69.7709V72.2826H54.3195ZM52.246 72.2826H54.0511V69.9016C53.4888 70.1566 52.885 70.3734 52.246 70.5391V72.2826ZM50.1725 72.2826H51.9744V70.606C51.3962 70.7431 50.7923 70.8419 50.1725 70.8961V72.2826ZM49 72.2826H49.901V70.9184C49.6038 70.9375 49.3035 70.9503 49 70.9503V70.3192C51.4026 70.3192 53.5751 69.6498 55.1406 68.5693C55.6198 68.2378 56.0447 67.868 56.3994 67.4664V74.2684H49.0032V72.2858L49 72.2826ZM56.3962 75.5339H49V74.737H56.3962V75.5339ZM92 75.5339H84.6038V74.737H92V75.5339ZM79.1214 74.2652H61.8818V74.737H79.1214V74.2652ZM77.8978 72.2826H79.1214V66.8289C78.8115 67.3803 78.3994 67.8967 77.8978 68.3653V72.2826ZM75.8243 72.2826H77.6262V68.6043C77.4281 68.7701 77.2204 68.9326 77 69.0824C76.6358 69.3343 76.2428 69.5637 75.8243 69.7709V72.2826ZM73.7508 72.2826H75.5559V69.9016C74.9936 70.1566 74.3898 70.3734 73.7508 70.5391V72.2826ZM71.6773 72.2826H73.4792V70.606C72.901 70.7431 72.2971 70.8419 71.6773 70.8961V72.2826ZM69.6038 72.2826H71.4058V70.9184C71.1086 70.9375 70.8083 70.9503 70.5048 70.9503C70.2013 70.9503 69.901 70.9407 69.6038 70.9184V72.2826ZM67.5303 72.2826H69.3323V70.8961C68.7093 70.8419 68.1054 70.7431 67.5303 70.606V72.2826ZM65.4569 72.2826H67.262V70.5391C66.623 70.3734 66.0192 70.1566 65.4569 69.9016V72.2826ZM63.3834 72.2826H65.1853V69.7709C64.7668 69.5637 64.3738 69.3343 64.0096 69.0824C63.7891 68.9294 63.5783 68.7701 63.3834 68.6043V72.2826ZM61.8882 72.2826H63.1118V68.3653C62.6102 67.8999 62.1981 67.3835 61.8882 66.8289V72.2826ZM62.524 56.6928V56.8235H62.4792V58.3885H57.0383V56.8235H56.9936V56.6928H56.9361V56.4952H56.4888L57.6262 56.1669V55.2361H57.5623V55.0799H57.3355L57.5623 55.0481V55.0385H57.6262L59.2141 54.809V54.3405H59.147V54.1428H58.9776L59.6326 53.9006H59.7157L59.7252 52.6097C59.6933 52.5969 59.6677 52.5619 59.6677 52.5236C59.6677 52.4854 59.6933 52.4535 59.7252 52.4375V52.055C59.7061 52.0423 59.6901 52.02 59.6901 51.9913C59.6901 51.9626 59.7061 51.9371 59.7316 51.9276L59.738 51.1275C59.7125 51.1179 59.6965 51.0956 59.6965 51.0669C59.6965 51.0319 59.7252 51 59.7636 51C59.8019 51 59.8307 51.0287 59.8307 51.0669C59.8307 51.0956 59.8147 51.1179 59.7891 51.1275L59.7955 51.9276C59.8211 51.9403 59.8371 51.9626 59.8371 51.9913C59.8371 52.02 59.8211 52.0423 59.7987 52.055V52.4375C59.8339 52.4503 59.8594 52.4854 59.8594 52.5236C59.8594 52.5619 59.8371 52.5937 59.8019 52.6097L59.8115 53.9006H59.8946L60.5495 54.1428H60.3802V54.3405H60.3099V54.809L61.8978 55.0385H61.9617V55.0481L62.1885 55.0799H61.9617V55.2361H61.8978V56.1669L63.0351 56.4952H62.5879V56.6928H62.5304H62.524ZM84.0256 56.6928V56.8235H83.9808V58.3885H78.5399V56.8235H78.4952V56.6928H78.4377V56.4952H77.9904L79.1278 56.1669V55.2361H79.0639V55.0799H78.8371L79.0639 55.0481V55.0385H79.1278L80.7157 54.809V54.3405H80.6486V54.1428H80.4792L81.1342 53.9006H81.2173L81.2268 52.6097C81.1949 52.5969 81.1693 52.5619 81.1693 52.5236C81.1693 52.4854 81.1949 52.4535 81.2268 52.4375V52.055C81.2045 52.0423 81.1917 52.02 81.1917 51.9913C81.1917 51.9626 81.2077 51.9371 81.2332 51.9276L81.2396 51.1275C81.2141 51.1179 81.1981 51.0956 81.1981 51.0669C81.1981 51.0319 81.2268 51 81.2652 51C81.3035 51 81.3291 51.0287 81.3291 51.0669C81.3291 51.0956 81.3131 51.1179 81.2875 51.1275L81.2939 51.9276C81.3195 51.9403 81.3355 51.9626 81.3355 51.9913C81.3355 52.02 81.3195 52.0423 81.2971 52.055V52.4375C81.3323 52.4503 81.3578 52.4854 81.3578 52.5236C81.3578 52.5619 81.3355 52.5937 81.3003 52.6097L81.3099 53.9006H81.393L82.0479 54.1428H81.8786V54.3405H81.8115V54.809L83.3994 55.0385H83.4633V55.0481L83.6901 55.0799H83.4633V55.2361H83.3994V56.1669L84.5367 56.4952H84.0895V56.6928H84.0319H84.0256ZM61.8882 58.6085H57.6294V84.5002C57.6294 86.1959 56.7476 86.6135 55.3259 86.6135C55.3259 86.9768 55.4569 87.3051 55.722 87.6048C55.9872 87.8693 56.4505 88 57.1118 88C57.6741 88 58.2045 87.9012 58.6677 87.7036C59.099 87.5059 59.4601 87.2733 59.7604 86.9768C60.0575 87.2733 60.4217 87.5059 60.885 87.7036C61.3163 87.9012 61.8435 88 62.4058 88C63.0671 88 63.5304 87.8693 63.7955 87.6048C64.0607 87.3083 64.1917 86.9768 64.1917 86.6135C62.7923 86.6135 61.8882 86.1704 61.8882 84.5002V75.537H79.1278V84.5002C79.1278 86.1959 78.246 86.6135 76.8243 86.6135C76.8243 86.9768 76.9553 87.3051 77.2204 87.6048C77.4856 87.8693 77.9489 88 78.6102 88C79.1725 88 79.7029 87.9012 80.1661 87.7036C80.5974 87.5059 80.9617 87.2733 81.2588 86.9768C81.5559 87.2733 81.9201 87.5059 82.3834 87.7036C82.8147 87.9012 83.3419 88 83.9042 88C84.5655 88 85.0288 87.8693 85.2939 87.6048C85.5591 87.3083 85.6901 86.9768 85.6901 86.6135C84.2875 86.6135 83.3866 86.1704 83.3866 84.5002V58.6053H79.1278V64.4606C79.1278 66.0544 78.1789 67.5078 76.6486 68.5661C75.0831 69.6466 72.9105 70.316 70.508 70.316C68.1054 70.316 65.9329 69.6466 64.3674 68.5661C62.8339 67.5078 61.8882 66.0544 61.8882 64.4606V58.6053V58.6085Z" fill="white"/>
</svg>
