<svg width="119" height="31" fill="none" xmlns="http://www.w3.org/2000/svg"><g clip-path="url(#a)"><path fill-rule="evenodd" clip-rule="evenodd" d="M71.723 2.028c.092-.227.161-.474.161-.719 0-.42-.273-.848-.73-.848-.458 0-.731.433-.731.848 0 .5.357.826.85.826.167 0 .305-.03.45-.105m-7.15 0a1.95 1.95 0 0 0 .164-.718c0-.42-.273-.848-.733-.848-.46 0-.734.433-.734.848 0 .5.36.825.851.825.166 0 .304-.03.45-.104l.002-.003Zm-17.652.22c0 .868.46 1.874 1.46 1.874.998 0 1.4-1.039 1.4-1.88 0-.84-.427-1.78-1.4-1.78-.974 0-1.46.907-1.46 1.785Zm10.697 1.88c0-.232.189-.429.421-.429.233 0 .43.194.43.428a.426.426 0 0 1-.851 0Zm-2.596-1.335h1.035v-.617c0-.015 0-.087-.006-.1-.012-.007-.079-.004-.094-.004h-.327v-.428h.13c.32 0 .639-.01.958-.041l.13-.013.031.303v2.092c0 .015 0 .086.005.1.013.007.08.007.095.007h.34v.415h-1.536v-.415h.273v-.88h-1.034v.773c0 .015 0 .086.005.1.012.007.079.007.094.007h.34v.415h-1.536v-.415h.274V2.176c0-.016 0-.087-.005-.1-.013-.007-.08-.005-.095-.005h-.327v-.428h.13c.32 0 .64-.01.959-.04l.13-.013.03.303v.902Zm-1.948-1.116.08-.036h.324v1.004H53.1l-.176-.471a.668.668 0 0 0-.478-.174c-.54 0-.672.632-.672 1.058 0 .425.217 1.003.733 1.003.297 0 .529-.066.751-.267l.095-.087.289.303-.087.09a1.493 1.493 0 0 1-1.107.455c-.85 0-1.505-.644-1.505-1.495 0-.85.629-1.49 1.505-1.49.212 0 .427.033.624.112l.002-.005Zm18.401.874c-.107.02-.214.028-.322.028-.73 0-1.576-.454-1.576-1.272 0-.817.848-1.27 1.576-1.27.729 0 1.572.455 1.572 1.27 0 .816-.634 1.766-1.068 2.428l-.35.533-.764.32-.151-.348.58-.884c.174-.265.35-.528.503-.805ZM67.12.492v1.523h.411c.756 0 1.5.438 1.5 1.264 0 .825-.89 1.276-1.625 1.276a2.75 2.75 0 0 1-1.089-.199l-.112-.043.12-.403.125.039c.312.094.567.147.897.147a.825.825 0 0 0 .838-.817c0-.625-.521-.849-1.07-.849h-.834V.082h1.536c.281 0 .56-.013.838-.041l.13-.013.034.3V.49H67.12l-.002.003Zm-2.793 2.06a1.7 1.7 0 0 1-.322.029c-.731 0-1.577-.454-1.577-1.272 0-.817.848-1.27 1.577-1.27.728 0 1.571.455 1.571 1.27 0 .816-.634 1.766-1.068 2.428l-.35.533-.764.32-.15-.348.58-.884c.173-.265.35-.528.503-.805ZM60.7.765l-.302.123-.174-.408L61.39 0l.132.308v4.19l-.79.062-.032-.293V.762v.002ZM46.062 2.277c0-1.32 1.01-2.249 2.316-2.249 1.305 0 2.256.912 2.256 2.214s-.935 2.315-2.256 2.315c-1.322 0-2.316-.957-2.316-2.28Z" fill="#C7A568"/><path fill-rule="evenodd" clip-rule="evenodd" d="M103.111 14.77v2.917c0 .015 0 .058-.008.061.12.053.511.05.665.05 1.032 0 1.939-.333 1.939-1.51 0-.624-.209-1.044-.81-1.279-.526-.206-1.206-.236-1.786-.242m-8.487-1.133h.795c.838-.112 1.342-.51 1.342-1.394 0-.354-.077-.703-.35-.952-.386-.352-1.056-.418-1.554-.418-.077 0-.156 0-.233.008v2.756Zm0 1.133v2.917c0 .016 0 .059-.007.061.12.054.51.051.664.051 1.033 0 1.94-.333 1.94-1.51 0-.624-.21-1.045-.81-1.28-.527-.205-1.206-.236-1.787-.241v.002Zm-11.322-.52c0 .864.225 1.792.733 2.5.483.67 1.16 1.055 1.993 1.055.833 0 1.465-.39 1.92-1.06.485-.716.69-1.651.69-2.507 0-1.59-.78-3.365-2.612-3.365s-2.73 1.727-2.73 3.378h.006Zm-29.382 0c0 .864.225 1.792.734 2.5.483.67 1.16 1.055 1.993 1.055.833 0 1.464-.39 1.919-1.06.485-.716.69-1.651.69-2.504 0-1.59-.777-3.366-2.609-3.366-1.832 0-2.73 1.728-2.73 3.378l.003-.002Zm-22.471 0c0 .864.224 1.792.733 2.5.483.67 1.16 1.055 1.993 1.055.833 0 1.464-.39 1.92-1.06.485-.716.69-1.651.69-2.507 0-1.59-.778-3.365-2.61-3.365-1.832 0-2.729 1.727-2.729 3.378h.003Zm-7.935-.613h.795c.838-.112 1.342-.51 1.342-1.394 0-.354-.08-.703-.35-.952-.386-.352-1.056-.418-1.554-.418-.077 0-.156 0-.233.008v2.756Zm0 1.133v2.917c0 .016 0 .059-.007.061.12.054.51.051.664.051 1.032 0 1.94-.333 1.94-1.51 0-.624-.21-1.045-.81-1.28-.527-.205-1.207-.236-1.787-.241v.002Zm-11.322-.52c0 .864.224 1.792.733 2.5.483.67 1.16 1.055 1.993 1.055.833 0 1.464-.39 1.92-1.06.485-.716.69-1.651.69-2.504 0-1.59-.778-3.366-2.612-3.366-1.835 0-2.73 1.728-2.73 3.378l.006-.002ZM52.267 27.52h2.23l-1.126-3.029-1.104 3.029Zm-8.17-.907v2.914c0 .016 0 .059-.007.062.12.053.508.05.662.05 1.03 0 1.937-.333 1.937-1.508 0-.624-.21-1.041-.808-1.276-.524-.206-1.203-.237-1.783-.242Zm72.81-15.682h-2.297v2.705h.468c.319 0 .636-.005.955-.022.23-.013.458-.034.688-.057l.408-.04.082.759v.494h-2.601v2.975h2.719l.646-1.773H119v2.905h-6.951v-1.134h.542V10.93h-.966V9.81h6.951v2.903h-1.012l-.659-1.783h.002Zm-8.836 0h-.966v-1.12h3.526v1.12h-.541v6.812h.965v1.134h-3.526v-1.134h.542V10.93Zm-4.963 0v2.705h1.056c.702 0 1.459.09 2.105.375.941.413 1.464 1.167 1.464 2.198 0 .833-.327 1.56-1.001 2.061-.723.538-1.684.7-2.568.7-.31 0-.621-.004-.931-.025-.25-.015-.5-.04-.751-.069h-1.934v-1.133h.542V10.93h-.966V9.81h3.526v1.12h-.542Zm-5.195 3.128c.851.428 1.334 1.154 1.334 2.15 0 .833-.327 1.56-1.001 2.061-.724.538-1.684.7-2.569.7-.311 0-.62-.004-.932-.025a15 15 0 0 1-.752-.069H92.06v-1.133h.542V10.93h-.966V9.81h2.348c.222-.037.445-.067.667-.082a9.53 9.53 0 0 1 .718-.023c.749 0 1.572.13 2.228.502.754.428 1.166 1.11 1.166 1.976 0 .76-.274 1.412-.851 1.875h.002Zm-16.625.25c0-1.215.442-2.384 1.306-3.253.915-.917 2.147-1.35 3.43-1.35 1.282 0 2.48.42 3.375 1.34.833.858 1.242 2.007 1.242 3.192 0 1.184-.42 2.404-1.245 3.301-.879.955-2.08 1.432-3.373 1.432-1.293 0-2.535-.446-3.447-1.389-.85-.879-1.288-2.058-1.288-3.273Zm-3.087-3.378h-1.027v6.812h.966v1.134h-3.514v-1.134h.542V10.93h-1.035l-.646 1.783h-1.012V9.81h7.398v2.904h-1.01l-.66-1.783h-.002Zm-9.002-.92.488-.2h.828v2.903h-1.022l-.506-1.355c-.458-.336-1.004-.487-1.572-.487-1.873 0-2.729 1.715-2.729 3.378 0 1.664.974 3.411 2.847 3.411.833 0 1.66-.193 2.282-.78l.301-.282.787.825-.286.286c-.853.85-2.003 1.258-3.202 1.258-1.303 0-2.54-.443-3.452-1.388-.851-.879-1.283-2.058-1.283-3.274 0-1.215.437-2.384 1.3-3.253.916-.92 2.15-1.35 3.435-1.35.61 0 1.211.097 1.784.308Zm-17.29 4.295c0-1.215.442-2.384 1.306-3.253.915-.917 2.147-1.35 3.43-1.35 1.282 0 2.48.42 3.375 1.34.83.859 1.242 2.008 1.242 3.192 0 1.185-.42 2.405-1.245 3.302-.879.955-2.08 1.431-3.373 1.431-1.293 0-2.535-.446-3.447-1.388-.85-.879-1.288-2.058-1.288-3.274Zm-9.927 3.437h.966v1.134H40.21v-1.002l.542-.211V10.93h-.966V9.81h3.127l2.487 6.64 2.456-6.64h2.634v1.12h-.542v6.812h.965v1.134h-3.514v-1.134h.519v-4.624l-1.99 5.388-1.649.662-2.3-6.164v4.738h.003Zm-12.544-3.437c0-1.215.442-2.384 1.305-3.253.915-.917 2.147-1.35 3.43-1.35 1.282 0 2.48.42 3.375 1.34.833.859 1.242 2.008 1.242 3.192 0 1.185-.419 2.405-1.244 3.302-.88.955-2.08 1.431-3.373 1.431-1.293 0-2.535-.446-3.448-1.388-.85-.879-1.287-2.058-1.287-3.274Zm-2.635-.25c.851.431 1.334 1.155 1.334 2.15 0 .834-.327 1.56-1.002 2.062-.723.537-1.684.7-2.568.7-.312 0-.62-.005-.933-.025-.25-.016-.5-.041-.75-.069h-1.935V17.74h.541v-6.81h-.965V9.807h2.348c.222-.036.445-.067.667-.082.24-.018.478-.023.718-.023.749 0 1.572.13 2.228.502.754.428 1.165 1.11 1.165 1.977 0 .759-.273 1.411-.85 1.875h.002Zm-16.625.25c0-1.217.44-2.384 1.306-3.253.915-.917 2.146-1.35 3.429-1.35s2.481.42 3.376 1.34c.833.859 1.241 2.008 1.241 3.192 0 1.185-.419 2.405-1.244 3.302-.879.955-2.08 1.431-3.373 1.431-1.293 0-2.535-.446-3.447-1.388-.851-.879-1.288-2.058-1.288-3.274Zm66.74 15.278h.964v1.13h-3.534v-1.13h.542v-4.3l-3.33 5.094-1.556.62-.335-.778v-7.44h-.963v-1.12h3.52v1.12h-.54v5.263l3.201-4.886v-1.498h2.568v1.121h-.542v6.799l.005.006Zm-14.974 0h.964v1.13h-3.522v-1.13h.542v-6.802h-.963V21.66h3.52v1.12h-.538v2.701h3.214v-2.7h-.963V21.66h3.521v1.12h-.541v6.802h.962v1.131h-3.52v-1.131h.541v-2.97h-3.214v2.967l-.003.006Zm-11.634-.15 2.432-6.614-.28-.718 1.847-.729 2.995 8.017c.015.043.046.137.071.19.033.004.08.004.102.004h.92v1.13h-3.52v-1.13h.382l-.35-.943h-3.056l-.352.943h.807v1.13h-2.721v-1l.725-.28h-.002Zm-3.925-6.652H44.09v2.7h1.055c.703 0 1.457.092 2.103.375.94.412 1.462 1.164 1.462 2.195 0 .83-.327 1.557-1.002 2.056-.72.535-1.681.7-2.563.7a13.32 13.32 0 0 1-1.678-.094h-1.932v-1.13h.541v-6.802h-.963V21.66h6.94v2.901h-1.009l-.657-1.78h-.002ZM2.985 10.93v2.705h3.22V10.93h-.967V9.81h3.527v1.12h-.542v6.812h.964v1.134H5.66v-1.134h.542v-2.975H2.985v2.975h.963v1.134H.424v-1.134h.542V10.93H0V9.81h3.526v1.12h-.541Z" fill="#5281A1"/><path fill-rule="evenodd" clip-rule="evenodd" d="M84.106 27.922a1.253 1.253 0 0 1-.22-.692c-.015-.574.24-1.241.772-1.519.215-.112.453.095.381.324-.153.476.695.415.72 1.276 0 .028 0 .056-.002.082v.03a.065.065 0 0 1-.005.028 1.26 1.26 0 0 1-.04.242c-.218.966-1.194 1.539-2.15 1.483-1.398-.082-2.323-1.027-2.241-2.44.1-1.697 1.628-2.688 3.238-2.665h23.626c.678 0 1.388.224 1.983.532.353.183.984.573 1.15.95.125.283-.235.466-.488.36-.475-.202-.787-.146-1.229.066-.544.262-.91.469-1.546.469-.705 0-1.661-.294-1.661-1.15v-.053H84.551c-.96-.018-1.993.507-2.055 1.554-.043.752.381 1.152 1.13 1.195.163.01.327-.013.475-.074m-71.499-2.672v.053c0 .859-.955 1.149-1.658 1.149-.636 0-1.002-.206-1.546-.469-.442-.214-.754-.267-1.229-.066-.253.107-.613-.076-.488-.36.166-.376.797-.766 1.15-.95.595-.308 1.308-.53 1.985-.532h23.628c1.609-.023 3.14.968 3.237 2.665.082 1.414-.843 2.359-2.241 2.44-.956.056-1.935-.517-2.15-1.482a.922.922 0 0 1-.04-.24l-.005-.03v-.03c0-.029-.005-.054-.003-.082.026-.861.874-.8.72-1.277-.073-.226.167-.435.381-.323.534.28.79.945.772 1.518a1.253 1.253 0 0 1-.22.693c.149.061.315.084.476.074.748-.043 1.173-.443 1.13-1.195-.062-1.047-1.094-1.572-2.055-1.554H12.603v-.002Z" fill="#C7A568"/><path d="M43.538 2.784h-29.21v.329h29.21v-.329Zm61.134 0h-29.21v.329h29.21v-.329Z" fill="#C7A568"/></g><defs><clipPath id="a"><path fill="#fff" d="M0 0h119v31H0z"/></clipPath></defs></svg>