<svg width="252" height="64" fill="none" xmlns="http://www.w3.org/2000/svg"><g clip-path="url(#a)"><path fill-rule="evenodd" clip-rule="evenodd" d="M51.168 57.31c.943 1.645 1.16 3.852-1.049 5.119-1.072.616-2.2.596-3.096.055.052-.04.107-.079.154-.13.647-.663.501-1.571-.185-2.242-.88-.857-1.988-1.026-2.682-.778-.118.044-.118.205-.004.257 1.05.485.162 1.401.678 2.313 1.184 2.064 3.574 2.688 5.684 1.476 2.918-1.673 2.61-4.614 1.459-6.623a5.531 5.531 0 0 0-.328-.506c-2.417-3.548-6.886-3.545-11.22-3.529-4.31.016-8.385.028-10.297-3.316-.892-1.559-.596-3.292.69-4.03.48-.276 1.692-.754 2.56.762.228.399.28.793.216 1.137-.323-.162-.73-.146-1.132.04-.832.386-1.246 1.112-1.258 1.665 0 .095.11.138.178.075.698-.679 1.12.51 2.114.051.035-.015.067-.04.102-.059.004 0 .008 0 .016-.004s.012-.008.016-.012c.09-.055.177-.114.244-.181.9-.723 1.12-2.104.462-3.257-.915-1.599-2.509-2.06-4.063-1.172-1.83 1.05-2.303 3.43-1.1 5.534 2.232 3.9 6.82 3.888 11.256 3.873 1.85-.008 3.652.023 5.28.244 2.142.288 4.201 1.299 5.31 3.237" fill="#C7A568"/><path fill-rule="evenodd" clip-rule="evenodd" d="M30.282 41.448c.126 1.891-.643 3.971-3.183 4.145-1.23.083-2.24-.426-2.808-1.307.067-.011.13-.027.197-.05.872-.317 1.14-1.197.813-2.097-.418-1.157-1.337-1.792-2.071-1.871-.126-.016-.197.13-.118.229.73.896-.466 1.334-.403 2.376.162 2.377 2.04 3.98 4.465 3.818 3.352-.226 4.362-3.009 4.208-5.318a6.084 6.084 0 0 0-.075-.6c-.623-4.251-4.646-6.201-8.546-8.084-.482-.233-.959-.462-1.424-.695h-2.355c1.053.604 2.181 1.149 3.302 1.686 1.668.805 3.273 1.622 4.642 2.53 1.802 1.196 3.21 3.004 3.36 5.234" fill="#C7A568"/><path fill-rule="evenodd" clip-rule="evenodd" d="M30.282 22.547c.126-1.89-.643-3.97-3.183-4.144-1.23-.083-2.24.426-2.808 1.306.067.012.13.028.197.052.872.315 1.14 1.192.813 2.096-.418 1.152-1.337 1.792-2.071 1.87-.126.017-.197-.13-.118-.228.73-.896-.466-1.334-.403-2.377.162-2.376 2.04-3.979 4.465-3.817 3.352.225 4.362 3.008 4.208 5.317-.016.202-.04.403-.075.6-.623 4.252-4.646 6.202-8.546 8.085-.482.233-.959.462-1.424.695h-2.355c1.053-.604 2.181-1.15 3.302-1.686 1.668-.805 3.273-1.622 4.642-2.53 1.802-1.196 3.21-3.004 3.36-5.235" fill="#C7A568"/><path fill-rule="evenodd" clip-rule="evenodd" d="M51.168 6.691c.943-1.646 1.16-3.853-1.049-5.12-1.072-.616-2.2-.596-3.096-.055.052.04.107.083.154.13.647.663.501 1.571-.185 2.242-.88.857-1.988 1.027-2.682.778-.118-.043-.118-.205-.004-.257 1.05-.485.162-1.4.678-2.313C46.168.028 48.558-.592 50.668.62c2.918 1.674 2.61 4.614 1.459 6.624a5.535 5.535 0 0 1-.328.505c-2.417 3.549-6.886 3.545-11.22 3.529-4.31-.016-8.385-.028-10.297 3.316-.892 1.56-.596 3.292.69 4.03.48.277 1.692.754 2.56-.762.228-.398.28-.793.216-1.136-.323.161-.73.146-1.132-.04-.832-.387-1.246-1.113-1.258-1.666 0-.095.11-.138.178-.07.698.678 1.12-.51 2.114-.052.035.016.067.04.102.055a.03.03 0 0 1 .016.004.055.055 0 0 1 .016.012c.09.055.177.114.244.181.9.723 1.12 2.104.462 3.257-.915 1.599-2.509 2.06-4.063 1.172-1.83-1.05-2.303-3.426-1.1-5.534 2.232-3.9 6.82-3.884 11.256-3.872 1.85.008 3.652-.024 5.28-.245 2.142-.288 4.201-1.299 5.31-3.237" fill="#C7A568"/><path fill-rule="evenodd" clip-rule="evenodd" d="M30.282 22.547c.126-1.89-.643-3.97-3.183-4.144-1.23-.083-2.24.426-2.808 1.306.067.012.13.028.197.052.872.315 1.14 1.192.813 2.096-.418 1.152-1.337 1.792-2.071 1.87-.126.017-.197-.13-.118-.228.73-.896-.466-1.334-.403-2.377.162-2.376 2.04-3.979 4.465-3.817 3.352.225 4.362 3.008 4.208 5.317-.016.202-.04.403-.075.6-.623 4.252-4.646 6.202-8.546 8.085-.482.233-.959.462-1.424.695h-2.355c1.053-.604 2.181-1.15 3.302-1.686 1.668-.805 3.273-1.622 4.642-2.53 1.802-1.196 3.21-3.004 3.36-5.235" fill="#C7A568"/><path fill-rule="evenodd" clip-rule="evenodd" d="M30.282 41.448c.126 1.891-.643 3.971-3.183 4.145-1.23.083-2.24-.426-2.808-1.307.067-.011.13-.027.197-.05.872-.317 1.14-1.197.813-2.097-.418-1.157-1.337-1.792-2.071-1.871-.126-.016-.197.13-.118.229.73.896-.466 1.334-.403 2.376.162 2.377 2.04 3.98 4.465 3.818 3.352-.226 4.362-3.009 4.208-5.318a6.084 6.084 0 0 0-.075-.6c-.623-4.251-4.646-6.201-8.546-8.084-.482-.233-.959-.462-1.424-.695h-2.355c1.053.604 2.181 1.149 3.302 1.686 1.668.805 3.273 1.622 4.642 2.53 1.802 1.196 3.21 3.004 3.36 5.234" fill="#C7A568"/><path d="M36.126 17.152a20.944 20.944 0 0 0-6.145 14.846 20.934 20.934 0 0 0 6.145 14.847 20.906 20.906 0 0 0 14.833 6.15 20.896 20.896 0 0 0 14.833-6.15 20.943 20.943 0 0 0 6.145-14.846 20.934 20.934 0 0 0-6.145-14.847 20.906 20.906 0 0 0-14.833-6.15 20.896 20.896 0 0 0-14.833 6.15Zm-7.269 14.846c0-6.11 2.473-11.64 6.472-15.643 4-4.003 9.525-6.478 15.63-6.478s11.63 2.475 15.63 6.478a22.06 22.06 0 0 1 6.472 15.643 22.063 22.063 0 0 1-6.472 15.644 22.022 22.022 0 0 1-15.63 6.478 22.022 22.022 0 0 1-15.63-6.478 22.062 22.062 0 0 1-6.472-15.644Z" fill="#C7A568"/><path fill-rule="evenodd" clip-rule="evenodd" d="m29.442 32.345-.123.012c-.418.051-.867.087-1.313.13-.446.036-.895.138-1.313.15-.419 0-.813-.067-1.148-.146a5.122 5.122 0 0 1-.813-.268c-.197-.087-.307-.158-.307-.158v-.122s.11-.072.307-.158c.198-.091.478-.186.813-.273a5 5 0 0 1 1.148-.146c.422.008.867.11 1.313.146.445.044.895.08 1.313.13l.123.012M50.746 57.31c-.938 1.645-1.16 3.852 1.05 5.119 1.072.616 2.2.596 3.096.055-.052-.04-.107-.079-.154-.13-.647-.663-.501-1.571.185-2.242.88-.857 1.988-1.026 2.682-.778.118.044.118.205.004.257-1.05.485-.162 1.401-.675 2.313-1.183 2.064-3.573 2.688-5.683 1.476-2.918-1.673-2.61-4.614-1.459-6.623.102-.178.209-.344.327-.506 2.418-3.548 6.886-3.545 11.217-3.529 4.31.016 8.385.028 10.297-3.316.892-1.559.596-3.292-.69-4.03-.481-.276-1.692-.754-2.56.762-.228.399-.28.793-.216 1.137.323-.162.733-.146 1.135.04.833.386 1.247 1.112 1.259 1.665 0 .095-.11.138-.178.075-.698-.679-1.12.51-2.114.051-.035-.015-.067-.04-.102-.059-.004 0-.008 0-.012-.004l-.02-.012a1.313 1.313 0 0 1-.244-.181c-.9-.723-1.12-2.104-.462-3.257.915-1.599 2.508-2.06 4.062-1.172 1.83 1.05 2.304 3.43 1.1 5.534-2.231 3.9-6.818 3.888-11.255 3.873-1.85-.008-3.652.023-5.281.244-2.142.288-4.2 1.299-5.309 3.237Z" fill="#C7A568"/><path fill-rule="evenodd" clip-rule="evenodd" d="M71.633 41.448c-.126 1.891.643 3.971 3.183 4.145 1.234.083 2.24-.426 2.808-1.307a1.201 1.201 0 0 1-.197-.05c-.872-.317-1.136-1.197-.813-2.097.418-1.157 1.337-1.792 2.07-1.871.127-.016.198.13.119.229-.73.896.465 1.334.402 2.376-.162 2.377-2.039 3.98-4.464 3.818-3.353-.226-4.362-3.009-4.209-5.318.016-.201.04-.402.075-.6.624-4.251 4.646-6.201 8.547-8.084.481-.233.954-.462 1.424-.695h2.35c-1.053.604-2.18 1.149-3.297 1.686-1.668.805-3.273 1.622-4.642 2.53-1.802 1.196-3.206 3.004-3.36 5.234" fill="#C7A568"/><path fill-rule="evenodd" clip-rule="evenodd" d="M71.633 22.547c-.126-1.89.643-3.97 3.183-4.144 1.234-.083 2.24.426 2.808 1.306-.067.012-.13.028-.197.052-.872.315-1.136 1.192-.813 2.096.418 1.152 1.337 1.792 2.07 1.87.127.017.198-.13.119-.228-.73-.896.465-1.334.402-2.377-.162-2.376-2.039-3.979-4.464-3.817-3.353.225-4.362 3.008-4.209 5.317.016.202.04.403.075.6.624 4.252 4.646 6.202 8.547 8.085.481.233.954.462 1.424.695h2.35c-1.053-.604-2.18-1.15-3.297-1.686-1.668-.805-3.273-1.622-4.642-2.53-1.802-1.196-3.206-3.004-3.36-5.235" fill="#C7A568"/><path fill-rule="evenodd" clip-rule="evenodd" d="M50.746 6.691c-.938-1.646-1.16-3.853 1.05-5.12 1.072-.616 2.2-.596 3.096-.055a1.58 1.58 0 0 0-.154.13c-.647.663-.501 1.571.185 2.242.88.857 1.988 1.027 2.682.778.118-.043.118-.205.004-.257-1.05-.485-.162-1.4-.675-2.313C55.751.028 53.361-.592 51.251.62c-2.918 1.674-2.61 4.614-1.459 6.624.102.177.209.343.327.505 2.418 3.549 6.886 3.545 11.217 3.529 4.31-.016 8.385-.028 10.297 3.316.892 1.56.596 3.292-.69 4.03-.481.277-1.692.754-2.56-.762-.228-.398-.28-.793-.216-1.136.323.161.733.146 1.135-.04.833-.387 1.247-1.113 1.259-1.666a.102.102 0 0 0-.178-.07c-.698.678-1.12-.51-2.114-.052-.035.016-.067.04-.102.055-.004 0-.008 0-.012.004l-.02.012c-.09.055-.177.114-.244.181-.9.723-1.12 2.104-.462 3.257.915 1.599 2.508 2.06 4.062 1.172 1.83-1.05 2.304-3.426 1.1-5.534-2.231-3.9-6.818-3.884-11.255-3.872-1.85.008-3.652-.024-5.281-.245-2.142-.288-4.2-1.299-5.309-3.237Z" fill="#C7A568"/><path fill-rule="evenodd" clip-rule="evenodd" d="M71.633 22.547c-.126-1.89.643-3.97 3.183-4.144 1.234-.083 2.24.426 2.808 1.306-.067.012-.13.028-.197.052-.872.315-1.136 1.192-.813 2.096.418 1.152 1.337 1.792 2.07 1.87.127.017.198-.13.119-.228-.73-.896.465-1.334.402-2.377-.162-2.376-2.039-3.979-4.464-3.817-3.353.225-4.362 3.008-4.209 5.317.016.202.04.403.075.6.624 4.252 4.646 6.202 8.547 8.085.481.233.954.462 1.424.695h2.35c-1.053-.604-2.18-1.15-3.297-1.686-1.668-.805-3.273-1.622-4.642-2.53-1.802-1.196-3.206-3.004-3.36-5.235" fill="#C7A568"/><path fill-rule="evenodd" clip-rule="evenodd" d="M71.633 41.448c-.126 1.891.643 3.971 3.183 4.145 1.234.083 2.24-.426 2.808-1.307a1.201 1.201 0 0 1-.197-.05c-.872-.317-1.136-1.197-.813-2.097.418-1.157 1.337-1.792 2.07-1.871.127-.016.198.13.119.229-.73.896.465 1.334.402 2.376-.162 2.377-2.039 3.98-4.464 3.818-3.353-.226-4.362-3.009-4.209-5.318.016-.201.04-.402.075-.6.624-4.251 4.646-6.201 8.547-8.084.481-.233.954-.462 1.424-.695h2.35c-1.053.604-2.18 1.149-3.297 1.686-1.668.805-3.273 1.622-4.642 2.53-1.802 1.196-3.206 3.004-3.36 5.234m.845-9.099.122.012c.418.051.868.087 1.313.13.446.036.895.138 1.313.15.419 0 .813-.067 1.148-.146.335-.087.615-.177.813-.268.197-.087.307-.158.307-.158v-.122s-.11-.072-.307-.158a5.08 5.08 0 0 0-.813-.273 5.028 5.028 0 0 0-1.148-.146c-.421.008-.867.11-1.313.146-.445.044-.895.08-1.313.13l-.122.012" fill="#C7A568"/><path fill-rule="evenodd" clip-rule="evenodd" d="M63.678 33.42h-1.42v-2.902c.158.13.32.257.494.379a7.2 7.2 0 0 0 .926.54m1.633 1.982h-1.42V31.54c.442.202.915.372 1.42.506v1.373Zm1.633 0h-1.42v-1.322c.454.107.927.185 1.42.229v1.093Zm.923 0h-.71v-1.077c.233.016.47.023.71.023v-.497c-1.89 0-3.597-.529-4.828-1.381a5.317 5.317 0 0 1-.99-.873v5.365h5.818v-1.563.003Zm-29.627 0h1.42v-2.901c-.154.13-.32.257-.493.379a7.314 7.314 0 0 1-.927.54v1.982Zm-1.633 0h1.42V31.54a8.596 8.596 0 0 1-1.42.502v1.377Zm-1.632 0h1.42v-1.322c-.454.107-.927.185-1.42.229v1.093Zm-.923 0h.71v-1.077c-.233.016-.47.023-.71.023v-.497c1.889 0 3.597-.529 4.827-1.381a5.31 5.31 0 0 0 .99-.873v5.365h-5.817v-1.563.003Zm5.817 2.566h-5.817v-.627h5.817v.627Zm27.994 0h-5.817v-.627h5.817v.627Zm-10.128-1.002H44.18v.37h13.555v-.37Zm-.962-1.564h.962v-4.302c-.24.438-.568.844-.962 1.212v3.09Zm-1.633 0h1.42v-2.901a8.11 8.11 0 0 1-.493.379 7.316 7.316 0 0 1-.927.54v1.982Zm-1.633 0h1.42V31.54a8.986 8.986 0 0 1-1.42.506v1.373Zm-1.633 0h1.42v-1.322c-.453.107-.927.185-1.42.229v1.093Zm-1.633 0h1.42v-1.077a10.544 10.544 0 0 1-1.42 0v1.077Zm-1.632 0h1.42v-1.093a10.254 10.254 0 0 1-1.42-.229v1.322Zm-1.633 0h1.42v-1.373c-.501-.13-.978-.3-1.42-.506v1.88Zm-1.633 0h1.416v-1.981a7.262 7.262 0 0 1-.923-.541 5.245 5.245 0 0 1-.493-.379v2.901Zm-1.175 0h.962v-3.09a4.97 4.97 0 0 1-.962-1.212v4.302Zm.5-12.3v.103h-.035v1.235h-4.279v-1.235h-.035v-.103h-.048v-.158h-.35l.895-.26v-.735h-.052v-.122h-.177l.177-.027v-.008h.052l1.25-.182v-.367h-.055v-.158h-.135l.517-.19h.067l.008-1.018a.07.07 0 0 1-.043-.067c0-.032.02-.055.043-.067v-.3s-.028-.028-.028-.052c0-.023.012-.043.032-.05v-.632s-.028-.028-.028-.048c0-.027.024-.051.052-.051.027 0 .05.024.05.051 0 .02-.01.04-.03.048v.631c.023.008.035.028.035.052 0 .023-.012.043-.032.05v.3c.028.013.048.036.048.068 0 .032-.02.055-.044.067l.008 1.019h.067l.517.189h-.134v.158h-.055v.367l1.25.182h.051v.008l.181.027h-.181v.122h-.051v.735l.895.26h-.351v.158h-.051Zm16.908 0v.103h-.035v1.235h-4.28v-1.235h-.035v-.103h-.047v-.158h-.351l.895-.26v-.735h-.051v-.122h-.178l.178-.027v-.008h.051l1.246-.182v-.367h-.055v-.158h-.134l.517-.19h.063l.008-1.018a.075.075 0 0 1-.044-.067c0-.032.02-.055.044-.067v-.3s-.028-.028-.028-.052c0-.023.012-.043.032-.05v-.632s-.028-.028-.028-.048c0-.027.024-.051.051-.051.028 0 .052.024.052.051 0 .02-.012.04-.032.048v.631c.024.008.035.028.035.052 0 .023-.011.043-.031.05v.3c.028.013.047.036.047.068 0 .032-.02.055-.043.067l.008 1.019h.067l.517.189h-.135v.158h-.055v.367l1.25.182h.052v.008l.177.027h-.177v.122h-.052v.735l.896.26h-.351v.158h-.048.004Zm-17.408 1.512h-3.349v20.424c0 1.338-.694 1.666-1.81 1.666 0 .288.103.545.312.782.209.209.572.311 1.092.311.442 0 .86-.079 1.223-.233.34-.154.623-.339.86-.572.232.233.52.419.883.572.34.158.753.233 1.195.233.52 0 .884-.102 1.093-.312a1.14 1.14 0 0 0 .311-.781c-1.1 0-1.81-.351-1.81-1.666v-7.07h13.559v7.07c0 1.338-.694 1.666-1.81 1.666 0 .288.102.545.311.782.21.209.572.311 1.093.311.442 0 .86-.079 1.222-.233.34-.154.624-.339.86-.572.233.233.52.419.884.572.339.158.753.233 1.195.233.52 0 .883-.102 1.092-.312a1.14 1.14 0 0 0 .312-.781c-1.1 0-1.81-.351-1.81-1.666V22.631h-3.349v4.619c0 1.259-.745 2.404-1.952 3.236-1.23.853-2.938 1.382-4.828 1.382-1.889 0-3.596-.529-4.827-1.381-1.203-.837-1.948-1.982-1.948-3.237v-4.62h-.004Zm185.991 1.666v4.026c0 .02 0 .079-.012.087.166.075.702.07.911.07 1.42 0 2.666-.461 2.666-2.083 0-.86-.288-1.441-1.112-1.765-.722-.284-1.66-.328-2.453-.335Zm-11.666-1.568h1.092c1.152-.153 1.846-.702 1.846-1.922 0-.49-.106-.971-.481-1.314-.529-.486-1.447-.577-2.138-.577-.106 0-.213 0-.319.012v3.801Zm0 1.568v4.026c0 .02 0 .079-.012.087.166.075.702.07.911.07 1.42 0 2.666-.461 2.666-2.083 0-.86-.288-1.441-1.112-1.765-.722-.284-1.66-.328-2.453-.335Zm-15.567-.719c0 1.192.308 2.471 1.01 3.45.663.924 1.593 1.453 2.741 1.453 1.148 0 2.011-.537 2.638-1.46.667-.988.951-2.278.951-3.459 0-2.195-1.069-4.642-3.589-4.642s-3.751 2.384-3.751 4.662v-.004Zm-40.385 0c0 1.192.307 2.471 1.009 3.45.663.924 1.594 1.453 2.741 1.453 1.148 0 2.016-.537 2.639-1.46.666-.988.95-2.278.95-3.459 0-2.19-1.068-4.642-3.589-4.642-2.52 0-3.75 2.384-3.75 4.662v-.004Zm-30.889 0c0 1.192.308 2.471 1.01 3.45.662.924 1.593 1.453 2.741 1.453 1.147 0 2.011-.537 2.638-1.46.667-.988.951-2.278.951-3.459 0-2.19-1.069-4.642-3.589-4.642-2.521 0-3.751 2.384-3.751 4.662v-.004Zm-10.905-.849h1.093c1.151-.153 1.845-.702 1.845-1.922 0-.49-.106-.971-.481-1.314-.528-.486-1.451-.577-2.137-.577-.107 0-.213 0-.32.012v3.801Zm0 1.568v4.026c0 .02 0 .079-.012.087.166.075.702.07.911.07 1.42 0 2.666-.461 2.666-2.083 0-.86-.288-1.441-1.112-1.765-.722-.284-1.66-.328-2.457-.335h.004Zm-15.567-.719c0 1.192.308 2.471 1.01 3.45.663.924 1.593 1.453 2.741 1.453 1.148 0 2.012-.537 2.639-1.46.666-.988.95-2.278.95-3.459 0-2.19-1.069-4.642-3.589-4.642s-3.751 2.384-3.751 4.662v-.004ZM249.121 19h-3.159v3.734h.643c.438 0 .876-.008 1.313-.031.316-.02.631-.048.943-.08l.564-.054.11 1.046v.683h-3.577v4.105h3.739l.891-2.448h1.408v4.007h-9.556v-1.563h.746V19h-1.325v-1.547h9.556v4.006h-1.389l-.907-2.463V19Zm-12.147 0h-1.325v-1.547h4.847V19h-.745v9.399h1.325v1.563h-4.847v-1.563h.745V19Zm-6.819 0v3.734h1.451c.967 0 2.004.127 2.895.517 1.294.569 2.012 1.607 2.012 3.032 0 1.149-.45 2.151-1.381 2.842-.994.742-2.315.967-3.53.967-.425 0-.855-.008-1.281-.035-.343-.024-.687-.06-1.03-.095h-2.658v-1.563h.746V19h-1.326v-1.547h4.847V19h-.745Zm-7.138 4.319c1.167.592 1.833 1.594 1.833 2.968 0 1.149-.449 2.151-1.38 2.842-.994.742-2.315.967-3.53.967-.426 0-.855-.008-1.281-.035-.344-.024-.691-.06-1.03-.095h-2.658v-1.563h.745v-9.399h-1.325v-1.547h3.226c.304-.048.612-.091.919-.115.328-.027.659-.031.986-.031 1.03 0 2.158.177 3.065.69 1.037.588 1.601 1.532 1.601 2.728 0 1.05-.375 1.946-1.167 2.59h-.004Zm-22.851.343c0-1.678.607-3.292 1.794-4.488 1.258-1.267 2.95-1.863 4.717-1.863 1.767 0 3.411.58 4.638 1.85 1.144 1.185 1.708 2.772 1.708 4.406 0 1.635-.576 3.316-1.708 4.556-1.211 1.318-2.859 1.973-4.638 1.973s-3.486-.615-4.741-1.914c-1.171-1.212-1.77-2.842-1.77-4.52ZM195.922 19h-1.412v9.399h1.325v1.563h-4.831v-1.563h.745v-9.403h-1.423l-.892 2.463h-1.392v-4.006h10.171v4.006h-1.388l-.907-2.463.004.004Zm-12.376-1.267.67-.28h1.136v4.006h-1.404l-.698-1.87c-.631-.467-1.38-.672-2.161-.672-2.575 0-3.751 2.365-3.751 4.662 0 2.297 1.341 4.71 3.913 4.71 1.147 0 2.279-.269 3.135-1.074l.414-.391 1.081 1.14-.395.395c-1.175 1.177-2.753 1.737-4.401 1.737-1.791 0-3.49-.611-4.745-1.914-1.167-1.216-1.763-2.842-1.763-4.52 0-1.678.6-3.292 1.787-4.488 1.258-1.271 2.954-1.863 4.721-1.863.84 0 1.664.134 2.453.426l.008-.004ZM159.78 23.66c0-1.678.607-3.292 1.794-4.488 1.255-1.267 2.95-1.863 4.717-1.863 1.767 0 3.412.58 4.638 1.85 1.144 1.185 1.708 2.772 1.708 4.406 0 1.635-.576 3.316-1.712 4.556-1.206 1.318-2.859 1.973-4.638 1.973-1.778 0-3.486-.615-4.74-1.914-1.172-1.212-1.771-2.842-1.771-4.52h.004Zm-13.646 4.74h1.325v1.564h-3.762v-1.381l.745-.293v-9.287h-1.325v-1.547h4.299l3.419 9.166 3.376-9.166h3.621v1.547h-.746v9.399h1.325v1.563h-4.831v-1.563h.71v-6.38l-2.737 7.438-2.268.912-3.159-8.507v6.537h.008Zm-17.239-4.74c0-1.678.608-3.292 1.795-4.488 1.254-1.267 2.95-1.863 4.717-1.863 1.766 0 3.411.58 4.638 1.85 1.143 1.185 1.707 2.772 1.707 4.406 0 1.635-.575 3.316-1.707 4.556-1.211 1.318-2.86 1.973-4.638 1.973-1.779 0-3.487-.615-4.741-1.914-1.171-1.216-1.771-2.842-1.771-4.52Zm-3.62-.343c1.171.592 1.834 1.594 1.834 2.968 0 1.149-.45 2.151-1.381 2.842-.994.742-2.315.967-3.53.967-.425 0-.855-.008-1.281-.035-.343-.024-.687-.06-1.03-.095h-2.662v-1.563h.746v-9.399h-1.326v-1.547h3.227c.303-.048.611-.091.918-.115.328-.027.659-.031.986-.031 1.03 0 2.162.177 3.065.69 1.037.588 1.601 1.532 1.601 2.728 0 1.05-.375 1.946-1.171 2.59h.004Zm-22.851.343c0-1.678.607-3.292 1.794-4.488 1.258-1.267 2.95-1.863 4.717-1.863 1.767 0 3.412.58 4.638 1.85 1.144 1.185 1.708 2.772 1.708 4.406 0 1.635-.576 3.316-1.712 4.556-1.207 1.318-2.859 1.973-4.638 1.973s-3.486-.615-4.74-1.914c-1.172-1.212-1.771-2.842-1.771-4.52h.004Zm-9.896-4.662v3.734h4.425v-3.73h-1.325v-1.547h4.847v1.547h-.745v9.399h1.325v1.563h-4.847v-1.563h.746v-4.105h-4.426v4.105h1.326v1.563h-4.847v-1.563h.745v-9.399h-1.325v-1.547h4.847v1.547h-.746v-.004Zm11.229 22.896h3.068l-1.55-4.18m-12.747 2.929v4.018c0 .024 0 .08-.012.087.166.075.699.071.912.071 1.415 0 2.662-.462 2.662-2.08 0-.86-.288-1.437-1.112-1.76-.722-.285-1.657-.328-2.45-.336Zm45.123 4.097h1.325v1.563h-4.855V44.74h.741v-5.933l-4.575 7.03-2.137.857-.458-1.073V35.353h-1.325V33.81h4.839v1.543h-.741v7.264l4.401-6.743V33.81h3.53v1.543h-.741v9.383l-.004.004Zm-20.584 0h1.326v1.563h-4.84V44.74h.742v-9.383h-1.325v-1.543h4.839v1.543h-.742v3.727h4.418v-3.727h-1.326v-1.543h4.84v1.543h-.746v9.383h1.325v1.563h-4.839V44.74h.742v-4.097h-4.418v4.097h.004Zm-15.992-.205 3.344-9.127-.386-.99 2.54-1.007 4.113 11.06c.02.06.063.19.099.265.047.004.106.004.142.004h1.266v1.563h-4.839V44.74h.524l-.481-1.298h-4.2l-.485 1.298h1.108v1.563h-3.743v-1.381l.994-.387h.004Zm-5.395-9.178h-3.152v3.727h1.452c.966 0 2.003.126 2.89.517 1.29.568 2.008 1.606 2.008 3.027 0 1.15-.45 2.148-1.376 2.839-.994.738-2.311.967-3.522.967-.426 0-.852-.008-1.278-.036-.343-.023-.686-.059-1.03-.095h-2.658V44.74h.746v-9.383h-1.325v-1.543h9.54v4.002h-1.388l-.907-2.459ZM2.355 27.952c0 1.01.54 2.163 1.688 2.163 1.147 0 1.62-1.184 1.62-2.167 0-.983-.5-2.056-1.62-2.056s-1.688 1.038-1.688 2.06Zm12.06 2.108a.42.42 0 0 1 .414-.418c.229 0 .418.193.418.418a.423.423 0 0 1-.418.415.417.417 0 0 1-.414-.415Zm-3.017-1.437h1.278v-.75c0-.17 0-.177-.174-.177h-.307v-.36h.086c.36 0 .718-.011 1.077-.047l.087-.008.028.276v2.345c0 .17 0 .178.173.178h.32v.347h-1.598v-.347h.308v-1.105h-1.278v.923c0 .17 0 .178.174.178h.32v.347h-1.598v-.347h.303v-2.207c0-.17 0-.177-.173-.177h-.308v-.36h.087c.359 0 .718-.012 1.073-.047l.087-.008.027.276v1.07h.008Zm-2.114-1.247.103-.044h.292v1.007h-.32l-.185-.505a.796.796 0 0 0-.584-.221c-.639 0-.808.73-.808 1.243 0 .513.264 1.184.875 1.184.347 0 .623-.079.88-.316l.063-.059.24.257-.059.06a1.61 1.61 0 0 1-1.191.493 1.589 1.589 0 0 1-1.62-1.619c0-.92.673-1.61 1.62-1.61.237 0 .481.039.698.13h-.004Zm-7.77.608c0-1.441 1.097-2.464 2.525-2.464 1.427 0 2.46 1 2.46 2.424 0 1.425-1.017 2.535-2.46 2.535-1.444 0-2.524-1.05-2.524-2.495Zm11.292 6.047c.11-.268.193-.556.193-.849 0-.505-.331-1.01-.875-1.01-.545 0-.876.51-.876 1.01 0 .597.434.983 1.01.983.205 0 .374-.039.548-.134Zm-7.983 0c.11-.268.194-.556.194-.849 0-.505-.332-1.01-.876-1.01s-.875.51-.875 1.01c0 .597.433.983 1.01.983.204 0 .374-.039.547-.134Zm7.774.454a1.73 1.73 0 0 1-.473.06c-.785 0-1.7-.486-1.7-1.366 0-.88.919-1.366 1.7-1.366.78 0 1.695.49 1.695 1.366 0 .876-.71 1.961-1.183 2.688l-.378.58-.781.332-.134-.308.63-.963c.21-.32.446-.672.628-1.023h-.004Zm-5.04-2.282v1.828h.516c.813 0 1.613.466 1.613 1.358 0 .892-.966 1.37-1.755 1.37-.465 0-.757-.051-1.195-.217l-.075-.028.099-.34.083.024c.366.11.63.17 1.017.17.548 0 .998-.43.998-.979 0-.73-.6-1.01-1.254-1.01h-.872v-2.515H8.39c.323 0 .623-.016.942-.047l.087-.008.032.276v.118H7.557Zm-2.943 2.282a1.75 1.75 0 0 1-.473.06c-.785 0-1.704-.486-1.704-1.366 0-.88.92-1.366 1.704-1.366.785 0 1.696.49 1.696 1.366 0 .876-.71 1.961-1.183 2.688l-.379.58-.78.332-.13-.308.63-.963c.21-.32.446-.672.627-1.023h-.008ZM.513 32.48l-.363.15-.15-.348 1.191-.493.122.28v4.627l-.769.059-.031-.269v-4.014.008Z" fill="#5281A1"/></g><defs><clipPath id="a"><path fill="#fff" d="M0 0h252v64H0z"/></clipPath></defs></svg>