<svg width="265" height="154" fill="none" xmlns="http://www.w3.org/2000/svg"><g clip-path="url(#a)" fill-rule="evenodd" clip-rule="evenodd"><path d="M206.488 40.456c.183-.45.325-.941.325-1.427 0-.835-.543-1.686-1.451-1.686-.909 0-1.452.86-1.452 1.686 0 .992.716 1.64 1.69 1.64.33 0 .604-.061.893-.208m-14.2 0c.183-.45.325-.941.325-1.427 0-.835-.543-1.685-1.452-1.685-.908 0-1.451.86-1.451 1.685 0 .992.71 1.64 1.69 1.64.33 0 .604-.061.893-.208l-.005-.005Zm-134.07.435c0 1.726.913 3.725 2.897 3.725 1.985 0 2.776-2.065 2.776-3.735s-.847-3.537-2.776-3.537c-1.928 0-2.898 1.801-2.898 3.547Zm21.244 3.735c0-.46.376-.85.837-.85.462 0 .853.39.853.85 0 .46-.39.84-.853.84a.838.838 0 0 1-.837-.84Zm-5.156-2.652h2.055v-1.224c0-.03 0-.173-.01-.198-.025-.015-.157-.015-.188-.015h-.65v-.85h.26c.634 0 1.268-.02 1.902-.081l.26-.026.06.603v4.165c0 .03 0 .172.01.197.026.015.158.01.188.01h.675v.825h-3.05v-.825h.543v-1.746h-2.055v1.534c0 .03 0 .172.01.197.025.015.157.01.188.01h.675v.825h-3.05v-.825h.542V40.75c0-.03 0-.172-.01-.197-.025-.015-.157-.015-.188-.015h-.65v-.85h.26c.634 0 1.269-.02 1.903-.081l.259-.026.066.603v1.791l-.005.005Zm-3.868-2.216.158-.071h.644v1.994h-.75l-.351-.942c-.27-.248-.584-.344-.95-.344-1.065 0-1.334 1.255-1.334 2.1 0 .846.431 1.994 1.452 1.994.588 0 1.05-.131 1.492-.531l.188-.172.573.602-.173.177c-.588.608-1.355.906-2.197.906-1.69 0-2.994-1.28-2.994-2.97 0-1.69 1.248-2.961 2.994-2.961.421 0 .847.066 1.238.223l.01-.005Zm135.553 1.735a3.37 3.37 0 0 1-.639.056c-1.452 0-3.132-.9-3.132-2.525s1.685-2.526 3.132-2.526c1.446 0 3.121.911 3.121 2.526 0 1.614-1.259 3.507-2.122 4.823l-.695 1.057-1.517.638-.3-.698 1.152-1.756c.345-.527.696-1.048 1-1.6v.005Zm-8.653-4.094v3.032h.817c1.502 0 2.979.87 2.979 2.51 0 1.64-1.766 2.535-3.228 2.535-.817 0-1.395-.101-2.162-.395l-.223-.085.239-.8.248.076c.619.187 1.127.293 1.782.293.908 0 1.664-.708 1.664-1.624 0-1.24-1.035-1.685-2.126-1.685h-1.655v-4.672h3.05c.559 0 1.112-.025 1.665-.08l.259-.026.066.602v.32h-3.375Zm-5.547 4.094c-.208.04-.427.056-.64.056-1.451 0-3.131-.9-3.131-2.525s1.685-2.526 3.131-2.526c1.447 0 3.121.911 3.121 2.526 0 1.614-1.258 3.507-2.121 4.823l-.695 1.057-1.518.638-.299-.698 1.152-1.756c.345-.527.695-1.048 1-1.6v.005Zm-7.202-3.552-.599.243-.345-.81 2.314-.951.264.612v8.325l-1.568.121-.066-.582v-6.958ZM56.517 40.952c0-2.622 2.005-4.469 4.598-4.469 2.594 0 4.482 1.812 4.482 4.398 0 2.586-1.863 4.6-4.482 4.6s-4.598-1.898-4.598-4.53ZM215.781 94.83v5.794c0 .03 0 .116-.015.121.238.106 1.015.106 1.319.106 2.051 0 3.853-.668 3.853-3 0-1.24-.417-2.076-1.609-2.541-1.046-.41-2.396-.47-3.548-.48Zm-16.855-2.253h1.579c1.665-.218 2.664-1.007 2.664-2.768 0-.704-.152-1.397-.695-1.893-.766-.698-2.096-.83-3.086-.83-.152 0-.309.005-.462.015v5.476Zm0 2.252v5.795c0 .03 0 .116-.015.121.239.106 1.015.106 1.32.106 2.05 0 3.852-.668 3.852-3 0-1.24-.416-2.076-1.609-2.541-1.045-.41-2.395-.47-3.548-.48Zm-22.488-1.032c0 1.715.447 3.557 1.457 4.964.959 1.331 2.304 2.096 3.959 2.096 1.654 0 2.908-.775 3.811-2.106.964-1.422 1.37-3.28 1.37-4.98 0-3.157-1.548-6.685-5.186-6.685-3.639 0-5.421 3.431-5.421 6.71h.01Zm-58.354 0c0 1.715.447 3.557 1.457 4.964.959 1.331 2.304 2.096 3.958 2.096 1.655 0 2.908-.775 3.812-2.106.964-1.422 1.37-3.28 1.37-4.98 0-3.157-1.543-6.685-5.182-6.685-3.639 0-5.42 3.431-5.42 6.71h.005Zm-44.63 0c0 1.715.446 3.557 1.456 4.964.959 1.331 2.304 2.096 3.958 2.096 1.655 0 2.908-.775 3.812-2.106.964-1.422 1.37-3.28 1.37-4.98 0-3.157-1.543-6.685-5.182-6.685-3.639 0-5.42 3.431-5.42 6.71h.005Zm-15.76-1.22h1.58c1.664-.218 2.663-1.007 2.663-2.768 0-.704-.157-1.397-.695-1.893-.766-.698-2.096-.83-3.085-.83-.153 0-.31.005-.462.015v5.476Zm0 2.252v5.795c0 .03 0 .116-.015.121.239.106 1.015.106 1.32.106 2.05 0 3.852-.668 3.852-3 0-1.24-.416-2.076-1.609-2.541-1.045-.41-2.395-.47-3.547-.48Zm-22.487-1.032c0 1.715.446 3.557 1.456 4.964.96 1.331 2.304 2.096 3.959 2.096 1.654 0 2.908-.775 3.811-2.106.965-1.422 1.37-3.28 1.37-4.98 0-3.157-1.542-6.685-5.186-6.685s-5.42 3.431-5.42 6.71h.01Zm79.593 26.366h4.431l-2.238-6.017-2.193 6.017Zm-16.225-1.801v5.784c0 .031 0 .117-.015.122.239.106 1.01.101 1.314.101 2.046 0 3.847-.663 3.847-2.996 0-1.24-.416-2.07-1.603-2.535-1.041-.41-2.39-.471-3.543-.481v.005Zm144.612-31.16h-4.563v5.375h.929c.635 0 1.264-.01 1.898-.046.457-.025.909-.065 1.366-.11l.812-.082.162 1.508v.982h-5.167v5.911h5.4l1.284-3.522h2.036v5.769h-13.805v-2.252h1.076V87.203h-1.913v-2.227h13.804v5.769h-2.01l-1.309-3.543Zm-17.55 0h-1.913v-2.226h7.004v2.227h-1.076v13.532h1.918v2.252h-7.004v-2.252h1.076V87.203h-.005Zm-9.856 0v5.375h2.096c1.396 0 2.898.182 4.182.744 1.868.82 2.908 2.318 2.908 4.368 0 1.654-.649 3.097-1.989 4.094-1.437 1.067-3.345 1.391-5.101 1.391-.614 0-1.233-.01-1.847-.05a29.952 29.952 0 0 1-1.492-.137h-3.842v-2.247h1.076V87.207h-1.919v-2.226h7.004v2.227h-1.076v-.005Zm-10.318 6.215c1.69.85 2.65 2.293 2.65 4.272 0 1.654-.65 3.097-1.99 4.094-1.436 1.067-3.344 1.391-5.1 1.391-.62 0-1.234-.01-1.853-.05a30.062 30.062 0 0 1-1.492-.137h-3.842v-2.247h1.076V87.207h-1.918v-2.226h4.664a14.58 14.58 0 0 1 1.324-.162 18.78 18.78 0 0 1 1.426-.046c1.487 0 3.122.258 4.426.997 1.497.85 2.314 2.207 2.314 3.928 0 1.508-.543 2.803-1.69 3.724l.005-.005Zm-33.019.496c0-2.419.878-4.737 2.594-6.462 1.817-1.822 4.263-2.683 6.811-2.683 2.547 0 4.928.835 6.704 2.662 1.654 1.706 2.466 3.988 2.466 6.341 0 2.354-.832 4.778-2.471 6.559-1.746 1.898-4.131 2.844-6.699 2.844-2.568 0-5.035-.885-6.847-2.758-1.69-1.746-2.558-4.089-2.558-6.503Zm-6.131-6.71h-2.04v13.532h1.919v2.252h-6.979v-2.252h1.076V87.203h-2.055l-1.284 3.542h-2.01v-5.77h14.693v5.77h-2.005l-1.309-3.543h-.006Zm-17.879-1.828.969-.4h1.644v5.77h-2.03l-1.005-2.692c-.908-.668-1.994-.967-3.121-.967-3.72 0-5.42 3.406-5.42 6.71 0 3.305 1.934 6.777 5.654 6.777 1.654 0 3.298-.385 4.532-1.548l.599-.562 1.563 1.639-.569.567c-1.695 1.691-3.979 2.505-6.359 2.505-2.588 0-5.045-.88-6.856-2.758-1.69-1.746-2.548-4.089-2.548-6.503 0-2.414.868-4.737 2.583-6.462 1.817-1.827 4.268-2.683 6.821-2.683 1.213 0 2.406.193 3.543.613v-.005Zm-34.339 8.533c0-2.419.878-4.737 2.593-6.463 1.817-1.821 4.264-2.682 6.811-2.682 2.548 0 4.928.835 6.705 2.662 1.649 1.706 2.466 3.988 2.466 6.341 0 2.354-.832 4.778-2.471 6.559-1.746 1.898-4.132 2.844-6.7 2.844-2.568 0-5.034-.885-6.846-2.758-1.69-1.746-2.558-4.089-2.558-6.503Zm-19.717 6.827h1.918v2.252h-5.435v-1.989l1.076-.42V87.203h-1.914v-2.227h6.213l4.938 13.193 4.877-13.193h5.232v2.227h-1.076v13.532h1.914v2.252h-6.979v-2.252h1.031V91.55l-3.954 10.703-3.273 1.316-4.568-12.247v9.413Zm-24.914-6.827c0-2.419.878-4.737 2.593-6.463 1.817-1.821 4.264-2.682 6.811-2.682 2.548 0 4.928.835 6.705 2.662 1.654 1.706 2.466 3.988 2.466 6.341 0 2.354-.832 4.778-2.472 6.559-1.745 1.898-4.13 2.844-6.699 2.844-2.568 0-5.034-.885-6.846-2.758-1.69-1.746-2.558-4.089-2.558-6.503Zm-5.233-.496c1.69.85 2.65 2.293 2.65 4.271 0 1.655-.65 3.098-1.99 4.095-1.436 1.067-3.344 1.391-5.1 1.391-.62 0-1.233-.01-1.853-.05a30.066 30.066 0 0 1-1.492-.137h-3.842v-2.247h1.076V87.203h-1.918v-2.227h4.664c.441-.071.883-.132 1.325-.162.477-.036.949-.046 1.426-.046 1.487 0 3.12.258 4.425.997 1.497.85 2.315 2.207 2.315 3.927 0 1.509-.544 2.804-1.69 3.725l.004-.005Zm-33.018.496c0-2.419.872-4.737 2.593-6.463 1.817-1.821 4.263-2.682 6.81-2.682 2.548 0 4.929.835 6.705 2.662 1.654 1.706 2.467 3.988 2.467 6.341 0 2.354-.833 4.778-2.472 6.559-1.746 1.898-4.131 2.844-6.7 2.844-2.567 0-5.034-.885-6.846-2.758-1.69-1.746-2.558-4.089-2.558-6.503Zm132.553 30.35h1.913v2.247h-7.019v-2.247h1.076v-8.543l-6.613 10.122-3.091 1.229-.665-1.543V110.74h-1.913v-2.227h6.994v2.227h-1.076v10.456l6.359-9.707v-2.976h5.101v2.227h-1.076v13.513l.01.005Zm-29.741 0h1.914v2.247h-6.994v-2.247h1.076v-13.513h-1.913v-2.226h6.993v2.226h-1.071v5.365h6.385v-5.365h-1.913v-2.226h6.993v2.226h-1.076v13.513h1.914v2.247h-6.994v-2.247h1.076v-5.901h-6.385v5.901h-.005Zm-23.107-.299 4.832-13.138-.559-1.427 3.67-1.447 5.948 15.926c.03.086.091.273.142.38.066.005.157.005.203.005h1.827v2.247h-6.994v-2.247h.762l-.696-1.873h-6.07l-.7 1.873h1.604v2.247h-5.405v-1.989l1.441-.557h-.005Zm-7.795-13.214h-4.558v5.365h2.096c1.396 0 2.893.177 4.177.744 1.868.82 2.903 2.312 2.903 4.357 0 1.65-.65 3.092-1.99 4.084-1.431 1.063-3.339 1.392-5.09 1.392-.614 0-1.233-.01-1.847-.051a29.31 29.31 0 0 1-1.487-.136H93.49v-2.247h1.076V110.74h-1.913v-2.227h13.784v5.765h-2.005l-1.304-3.538-.005.005ZM16.926 87.202v5.375h6.395v-5.374h-1.914v-2.227h7.004v2.227h-1.076v13.532h1.913v2.252h-7.003v-2.252h1.076v-5.911h-6.395v5.911h1.913v2.252h-7.004v-2.252h1.076V87.203h-1.913v-2.227h7.004v2.227h-1.076Z" fill="#5281A1"/><path d="M153.443 27.379a29.576 29.576 0 0 0-20.946-8.649 29.575 29.575 0 0 0-20.945 8.649 29.412 29.412 0 0 0-8.678 20.886c0 7.86 3.101 15.33 8.678 20.886a29.575 29.575 0 0 0 20.945 8.649 29.576 29.576 0 0 0 20.946-8.65 29.407 29.407 0 0 0 8.673-20.885c0-7.86-3.101-15.33-8.673-20.886ZM134.35 142.117a2.066 2.066 0 0 0-.406.866c-.34 1.447.193 2.48 1.649 2.819 2.132.491 3.731-1.336 4.177-3.249a7.61 7.61 0 0 0 .173-2.49c-1.025-3.027.857-5.942 3.593-7.273 6.1-2.965 11.916 1.149 16.814 4.494 2.05 1.402 4.172 2.814 6.395 3.922 2.659 1.326 5.785 1.782 8.536.446 2.568-1.25 4.06-3.563 2.695-6.362-.568-1.159-1.533-2.029-2.776-2.267.132 1.453-.959 2.455-2.37 2.703-1.457.253-3.263-.142-4.177-1.387-.31-.425.061-1.002.579-.916.563.091.771-.106 1.04-.562.391-.663.645-1.225 1.386-1.589 3.298-1.609 6.836-.263 8.429 2.996 1.975 4.039-.025 7.672-3.776 9.494a8.283 8.283 0 0 1-.827.349c-6.034 2.369-11.683-1.619-16.459-4.883-2.289-1.564-4.801-3.335-7.394-4.343-2.385-.926-4.71-1.128-7.065.021-1.329.648-2.512 1.903-2.542 3.446.101.39.177.785.228 1.184.02.051.046.107.071.157.655 1.341 1.781 1.625 3.121.977.295-.142.553-.339.751-.592-.441-.203-.801-.567-1.055-.987-.589-.977-.792-2.379-.142-3.381.264-.404.878-.278.974.193.203.971 1.609.045 2.492 1.513.03.045.051.096.076.147.01.015.02.03.031.05.01.026.02.051.02.056.066.132.127.293.162.455.569 1.888-.558 3.816-2.278 4.651-1.416.689-3.005.815-4.355.056-.02.091-.035.177-.056.263-.746 3.209-3.542 5.805-6.998 5.005a5.128 5.128 0 0 1-1.574-.632c.036.339.061.683.092 1.022.055.633.198 1.26.213 1.903 0 .587-.087 1.164-.218 1.731-.107.409-.234.845-.412 1.224a3.569 3.569 0 0 1-.253.496l-.117.172h-.589l-.117-.172a3.894 3.894 0 0 1-.258-.496 6.748 6.748 0 0 1-.411-1.224 7.324 7.324 0 0 1-.219-1.731c.016-.643.158-1.27.213-1.903l.092-1.022a5.395 5.395 0 0 1-1.573.632c-3.457.8-6.253-1.796-6.999-5.005l-.061-.263c-1.35.764-2.939.638-4.355-.056-1.72-.835-2.847-2.763-2.278-4.651.035-.167.096-.323.162-.455 0-.005.01-.03.02-.056.011-.015.016-.035.031-.05.025-.051.046-.097.076-.147.883-1.473 2.294-.542 2.492-1.513.096-.466.71-.592.974-.193.65 1.002.447 2.404-.142 3.381-.254.42-.614.784-1.055.987.198.253.461.45.751.592 1.34.653 2.466.369 3.121-.977.025-.05.046-.101.071-.157a9.55 9.55 0 0 1 .228-1.184c-.03-1.548-1.213-2.804-2.542-3.446-2.355-1.144-4.68-.942-7.065-.021-2.593 1.008-5.106 2.779-7.394 4.343-4.781 3.264-10.425 7.252-16.46 4.883a8.266 8.266 0 0 1-.826-.349c-3.746-1.822-5.75-5.455-3.776-9.494 1.593-3.259 5.126-4.61 8.43-2.996.746.364.994.926 1.385 1.589.269.456.477.653 1.04.562.513-.086.889.491.579.916-.913 1.25-2.72 1.645-4.177 1.387-1.406-.248-2.497-1.25-2.365-2.703-1.243.243-2.213 1.108-2.776 2.267-1.37 2.799.122 5.112 2.695 6.362 2.75 1.336 5.877.88 8.536-.446 2.223-1.108 4.345-2.52 6.395-3.922 4.898-3.345 10.714-7.459 16.814-4.494 2.736 1.331 4.618 4.241 3.593 7.273a7.76 7.76 0 0 0 .173 2.49c.446 1.913 2.05 3.745 4.177 3.249 1.461-.339 1.989-1.367 1.649-2.819a2.19 2.19 0 0 0-.406-.866c-.294.385-.731.653-1.198.805-1.086.354-2.502.238-3.339-.617-.335-.345-.076-.916.401-.906.995.02.401-1.554 2.04-2.085.056-.015.107-.026.157-.041l.051-.015c.02 0 .041-.01.061-.01.157-.036.32-.056.482-.056 1.254-.086 2.426.532 3.192 1.493.767-.961 1.939-1.574 3.193-1.493.162 0 .33.02.482.056.02 0 .041.005.066.01.02 0 .035.01.051.015.05.01.106.02.157.041 1.634.531 1.04 2.105 2.035 2.085.477-.01.741.556.401.906-.832.855-2.248.971-3.339.617-.467-.152-.904-.42-1.198-.805h.005Zm43.692-21.154c-.284-.389-.421-.885-.436-1.376-.031-1.139.477-2.465 1.532-3.017.427-.222.899.188.757.638-.305.947 1.38.825 1.431 2.541 0 .055 0 .111-.005.162v.06c0 .026-.005.051-.011.056a2.36 2.36 0 0 1-.081.476c-.431 1.918-2.37 3.056-4.268 2.945-2.776-.162-4.613-2.039-4.451-4.848.198-3.371 3.233-5.339 6.43-5.294h46.925c1.345 0 2.756.446 3.939 1.058.7.364 1.954 1.134 2.284 1.888.248.561-.467.926-.97.713-.944-.4-1.563-.288-2.441.137-1.081.521-1.807.931-3.07.931-1.401 0-3.299-.582-3.299-2.282v-.107h-43.383c-1.908-.035-3.958 1.007-4.08 3.087-.087 1.493.756 2.288 2.243 2.374.325.02.65-.025.944-.147l.01.005Zm-142.008-5.314v.107c0 1.705-1.898 2.282-3.294 2.282-1.264 0-1.99-.41-3.07-.931-.879-.425-1.498-.531-2.442-.137-.502.213-1.218-.152-.969-.713.33-.749 1.583-1.524 2.284-1.888 1.182-.612 2.598-1.053 3.943-1.058h46.926c3.197-.045 6.237 1.923 6.43 5.294.162 2.809-1.675 4.686-4.451 4.848-1.899.111-3.842-1.022-4.269-2.945a1.838 1.838 0 0 1-.08-.476l-.011-.061v-.06c0-.056-.01-.107-.005-.162.05-1.716 1.736-1.594 1.431-2.541-.147-.45.33-.865.756-.638 1.061.557 1.569 1.878 1.533 3.017-.015.491-.152.982-.436 1.376.294.122.624.167.944.147 1.486-.086 2.329-.881 2.243-2.374-.122-2.079-2.172-3.122-4.08-3.087H36.028h.005Zm126.838-57.293a31.89 31.89 0 0 1-9.424 14.044h17.524c3.817 0 7.745-.936 10.379-3.867 1.65-1.832 2.634-4.352 2.634-6.816 0-5.658-4.771-10.066-10.379-10.066-2.339 0-4.689.622-6.379 2.317a6.951 6.951 0 0 0-2.015 4.91c0 3.203 2.37 5.88 5.567 6.224.198.015.401.036.604.036 2.868 0 5.218-1.417 5.218-4.54 0-1.29-.487-2.495-1.503-3.254-.522 1.366-1.943 1.786-3.314 1.397-1.421-.41-2.872-1.549-3.141-3.072-.092-.516.497-.87.918-.572.467.329.741.243 1.183-.05.645-.426 1.117-.82 1.944-.825 3.674-.01 6.257 2.752 6.257 6.376 0 4.5-3.395 6.883-7.567 6.883-4.76 0-8.521-3.836-8.521-8.598 0-.173 0-.35.015-.522v-.005Zm-60.744 0c.01.172.015.35.015.521 0 4.763-3.76 8.599-8.516 8.599-4.172 0-7.567-2.384-7.567-6.883 0-3.624 2.588-6.382 6.257-6.377.828 0 1.305.4 1.944.825.442.294.716.38 1.183.05.426-.298 1.015.057.918.573-.274 1.523-1.72 2.667-3.141 3.072-1.376.394-2.797-.03-3.314-1.397-1.015.759-1.503 1.964-1.503 3.254 0 3.128 2.35 4.54 5.218 4.54.203 0 .406-.02.604-.036 3.197-.339 5.567-3.016 5.567-6.225a6.95 6.95 0 0 0-2.015-4.909c-1.69-1.695-4.04-2.318-6.38-2.318-5.607 0-10.378 4.403-10.378 10.066 0 2.465.985 4.985 2.634 6.817 2.634 2.93 6.562 3.867 10.379 3.867h17.524a32.94 32.94 0 0 1-1.685-1.564 31.834 31.834 0 0 1-7.739-12.48l-.005.005Zm29.456-41.99a45.201 45.201 0 0 1-.162-1.695c-.056-.632-.198-1.26-.214-1.902 0-.588.082-1.17.219-1.731.101-.41.233-.845.411-1.225.071-.157.162-.35.259-.496l.116-.172.295-.42.294.42.117.172a3 3 0 0 1 .253.496c.178.374.305.815.412 1.225a7.34 7.34 0 0 1 .218 1.73c-.015.643-.158 1.27-.213 1.903-.051.567-.097 1.134-.163 1.696 2.868.08 5.674.541 8.369 1.351-4.268-2.191-6.582-7.14-8.633-11.387-.213-.44-.426-.885-.644-1.326-.218.44-.432.88-.645 1.326-2.05 4.236-4.359 9.18-8.612 11.372a32.103 32.103 0 0 1 8.333-1.341l-.01.005Zm-18.783 6.747a31.953 31.953 0 0 1 7.77-4.469c-.178.036-.36.066-.548.096a7.61 7.61 0 0 1-.894.107c-1.964.131-3.786-.274-5.202-1.215 1.041 2.044.543 4.104-1.131 5.48h.005ZM101.564 40.06a31.8 31.8 0 0 1 8.303-14.357 32.894 32.894 0 0 1 2.746-2.445 5.84 5.84 0 0 1-.645.426c-1.659.946-3.892.794-5.136-.74a2.24 2.24 0 0 1-.289-.389s-.02-.02-.035-.05a.135.135 0 0 1-.021-.051 1.303 1.303 0 0 1-.081-.142c-.721-1.553.837-2.196.147-2.91a.535.535 0 0 1 .391-.91c1.198.025 2.243.986 2.725 2.019.208.445.305.946.224 1.422a2.1 2.1 0 0 0 .913-.289c1.289-.739 1.69-1.827.944-3.122-1.086-1.893-3.522-1.817-5.232-.84-2.274 1.3-3.416 3.325-3.984 5.814-.625 2.708-.569 5.77-.559 8.538.011 2.581.041 5.38-.406 8.021l-.005.005Zm-7.242 9.56c1.893.415 3.654 1.276 5.08 2.688a9.291 9.291 0 0 1 1.751 2.403 32.032 32.032 0 0 1-.076-12.495c-.721 2.414-2.01 4.58-4.309 6.144a7.715 7.715 0 0 1-.756.486 10.29 10.29 0 0 1-1.69.774Zm69.611-7.399c.381 1.98.574 4.003.574 6.053a32.03 32.03 0 0 1-.655 6.442 9.409 9.409 0 0 1 1.746-2.403c1.421-1.412 3.187-2.273 5.08-2.688a9.897 9.897 0 0 1-1.69-.774 8.175 8.175 0 0 1-.751-.486c-2.299-1.564-3.588-3.725-4.309-6.144h.005ZM152.382 23.26c.959.76 1.878 1.574 2.751 2.45a31.782 31.782 0 0 1 8.303 14.357c-.447-2.636-.416-5.44-.406-8.02.01-2.77.061-5.836-.559-8.538-.573-2.49-1.715-4.515-3.984-5.815-1.71-.977-4.146-1.053-5.232.84-.741 1.295-.345 2.383.949 3.122.279.162.594.263.914.289-.082-.481.015-.982.223-1.422.482-1.038 1.527-1.994 2.725-2.02.482-.01.721.567.391.911-.695.714.868 1.352.147 2.91-.025.05-.051.096-.076.142a.433.433 0 0 1-.061.101 2.19 2.19 0 0 1-.289.39c-1.249 1.533-3.477 1.685-5.136.739a6.043 6.043 0 0 1-.655-.43l-.005-.006Zm-1.32-5.607c-1.41.926-3.227 1.331-5.176 1.2a8.76 8.76 0 0 1-.893-.107 9.868 9.868 0 0 1-.579-.1 31.946 31.946 0 0 1 7.79 4.478c-1.674-1.372-2.172-3.426-1.142-5.47Zm2.031-2.211c1.928-1.15 4.486-.967 6.562.217 5.902 3.37 5.75 10.46 5.73 16.392-.011 2.475.015 5.02.345 7.48.396 2.94 1.776 5.77 4.43 7.288 2.487 1.417 5.233 1.356 6.791-1.357.644-1.118.822-2.404.32-3.568-1.127.921-2.579.587-3.573-.43-1.031-1.057-1.721-2.768-1.198-4.226.178-.495.863-.51 1.086-.04.244.516.523.577 1.051.541.771-.05 1.38-.161 2.096.248 3.187 1.812 4.055 5.497 2.253 8.634-.771 1.346-1.771 2.278-2.898 2.83 7.709.875 13.216 5.748 18.971 10.855 3.472 3.077 6.973 6.158 11.028 8.43-1.832-2.388-2.76-5.283-2.76-8.385 0-6.442 5.252-11.68 11.713-11.68 5.299 0 9.607 4.296 9.607 9.58 0 4.357-3.552 7.9-7.922 7.9-3.624 0-6.572-2.94-6.572-6.554 0-2.885 2.258-5.278 5.136-5.46.066-.006.132-.02.208-.02a.67.67 0 0 1 .101.004h.046a.35.35 0 0 1 .102.01c1.06.086 1.568.643 2.126 1.473.315.47.502.815 1.117.597.492-.172.959.33.725.805-.68 1.381-2.385 2.085-3.862 2.085-1.137 0-2.182-.511-2.598-1.503a3.08 3.08 0 0 0-.752 2.009 4.22 4.22 0 0 0 4.223 4.21c3.07 0 5.573-2.494 5.573-5.556 0-3.993-3.259-7.237-7.258-7.237-5.166 0-9.369 4.19-9.369 9.342 0 3.36 1.3 6.402 3.852 8.614 2.761 2.388 6.446 3.355 10.039 3.355h7.73c-1.518-1.427-2.32-3.365-2.32-5.511 0-3.593 2.934-6.519 6.537-6.519 3.015 0 5.466 2.445 5.466 5.446a4.6 4.6 0 0 1-4.603 4.59 3.915 3.915 0 0 1-3.918-3.907 1.171 1.171 0 0 1 2.344 0c0 .865.706 1.569 1.574 1.569a2.26 2.26 0 0 0 2.258-2.252 3.115 3.115 0 0 0-3.116-3.107 4.185 4.185 0 0 0-4.187 4.175c0 3.689 3.065 5.51 6.491 5.51h21.356v-.105c0-1.706 1.899-2.283 3.299-2.283 1.264 0 1.99.41 3.071.931.878.425 1.497.532 2.441.132.502-.213 1.218.152.969.714-.33.749-1.583 1.523-2.283 1.887-1.183.613-2.594 1.053-3.939 1.058h-39.155c-6.597 0-12.165-1.969-17.55-5.683-1.233-.85-3.024-1.24-4.506-1.25-1.731-.01-3.512.475-4.766 1.725-1.751 1.746-1.913 5.415-.117 7.207.711.708 1.99.962 2.964.906 1.01-.056 2.081-.435 2.731-1.25.451-.572.593-1.402.548-2.146-.756.157-1.528-.167-2.091-.729-.858-.855-1.437-2.247-1.025-3.441.157-.466.796-.491 1.01-.05.208.43.477.333.888.252.817-.162 1.446-.187 2.101.38a.41.41 0 0 1 .101.07c.016.016.026.031.036.041.005.005.015.01.02.02.112.112.208.238.289.38 1.355 1.807 1.376 4.904-.035 6.685-1.066 1.341-2.746 2.035-4.431 2.131-.137.005-.279.01-.416.01-1.533 0-3.233-.5-4.339-1.6-2.741-2.732-2.583-7.828.117-10.52 1.669-1.666 3.913-2.415 6.212-2.445a194.16 194.16 0 0 1-3.802-3.305c-2.933-2.6-5.999-5.354-9.419-7.363a12.096 12.096 0 0 1 2.253 7.024c0 2.986-1.218 6.083-3.197 8.315-3.076 3.472-7.649 4.712-12.165 4.712h-20.59a31.936 31.936 0 0 1-17.88 5.44 31.932 31.932 0 0 1-17.88-5.44h-20.59c-4.512 0-9.09-1.24-12.165-4.712-1.98-2.232-3.197-5.329-3.197-8.315 0-2.55.801-4.985 2.253-7.024-3.42 2.014-6.491 4.762-9.42 7.363-1.258 1.114-2.512 2.227-3.801 3.305 2.3.03 4.547.78 6.212 2.445 2.7 2.692 2.857 7.783.117 10.52-1.107 1.104-2.807 1.6-4.34 1.6-.136 0-.279 0-.416-.01-1.685-.096-3.364-.79-4.43-2.13-1.416-1.777-1.39-4.874-.036-6.686.081-.137.178-.263.29-.38.01-.01.02-.015.02-.02.005-.01.02-.025.035-.045a.418.418 0 0 1 .102-.071c.654-.567 1.284-.542 2.1-.38.412.081.681.177.89-.253.212-.435.852-.41 1.009.05.411 1.2-.168 2.587-1.025 3.442-.563.562-1.335.89-2.091.729-.05.749.091 1.579.548 2.146.644.81 1.72 1.189 2.73 1.25.97.055 2.249-.198 2.964-.906 1.797-1.792 1.634-5.46-.116-7.207-1.254-1.25-3.035-1.73-4.766-1.725-1.477.005-3.273.4-4.507 1.25-5.39 3.71-10.952 5.683-17.55 5.683H6.278c-1.345 0-2.756-.446-3.938-1.058-.7-.364-1.954-1.133-2.284-1.888-.249-.561.467-.926.97-.713.943.4 1.562.288 2.44-.132 1.081-.521 1.807-.93 3.07-.93 1.402 0 3.3.581 3.3 2.281v.107h21.346c3.42 0 6.491-1.822 6.491-5.511a4.185 4.185 0 0 0-4.187-4.175 3.116 3.116 0 0 0-3.116 3.107 2.26 2.26 0 0 0 2.258 2.252c.868 0 1.574-.704 1.574-1.569a1.171 1.171 0 0 1 2.344 0 3.915 3.915 0 0 1-3.918 3.907c-2.537 0-4.603-2.06-4.603-4.59 0-3.006 2.451-5.446 5.461-5.446 3.603 0 6.537 2.92 6.537 6.519 0 2.15-.802 4.089-2.32 5.51h7.73c3.598 0 7.278-.966 10.039-3.354 2.557-2.212 3.852-5.253 3.852-8.614 0-5.152-4.203-9.342-9.37-9.342-4.003 0-7.257 3.249-7.257 7.237 0 3.062 2.502 5.557 5.573 5.557a4.22 4.22 0 0 0 4.222-4.211c0-.749-.273-1.458-.75-2.01-.422.993-1.467 1.504-2.6 1.504-1.476 0-3.181-.699-3.861-2.085-.234-.47.233-.977.726-.805.614.218.801-.126 1.116-.597.553-.825 1.066-1.387 2.127-1.473.035-.005.066-.01.101-.01h.046c.03 0 .066-.005.101-.005.081 0 .142.015.208.02 2.878.183 5.136 2.571 5.136 5.461 0 3.613-2.948 6.554-6.572 6.554-4.37 0-7.922-3.543-7.922-7.9 0-5.284 4.309-9.58 9.607-9.58 6.46 0 11.713 5.238 11.713 11.68 0 3.102-.923 5.997-2.76 8.386 4.055-2.272 7.556-5.354 11.028-8.431 5.755-5.107 11.262-9.98 18.97-10.856-1.126-.552-2.126-1.483-2.897-2.829-1.802-3.138-.934-6.822 2.253-8.634.721-.41 1.33-.298 2.096-.248.528.036.812-.025 1.05-.541.22-.47.91-.456 1.087.04.523 1.458-.168 3.163-1.198 4.226-.995 1.017-2.44 1.356-3.573.43-.502 1.164-.325 2.445.32 3.568 1.558 2.708 4.304 2.773 6.79 1.356 2.66-1.518 4.035-4.347 4.436-7.287.33-2.46.356-5 .346-7.48-.02-5.936-.173-13.021 5.724-16.392 2.081-1.19 4.654-1.366 6.583-.207-.452-.835-.736-1.822-.812-2.96-.244-3.594 2.172-6.545 5.816-6.782.827-.056 1.324.308 1.994.688.462.263.741.329 1.183-.03.406-.33 1.015-.016.959.51-.167 1.54-1.538 2.774-2.928 3.275-1.345.486-2.792.157-3.401-1.169-.959.825-1.365 2.06-1.279 3.345.214 3.118 2.65 4.373 5.512 4.18 3.055-.207 5.537-2.145 7.181-4.62 1.376-2.065 2.513-4.342 3.594-6.574.771-1.594 1.543-3.193 2.426-4.732l.335-.587.335.587c.883 1.539 1.654 3.138 2.42 4.732 1.081 2.232 2.218 4.51 3.594 6.574 1.649 2.47 4.126 4.413 7.181 4.62 2.862.193 5.298-1.062 5.512-4.18.086-1.285-.32-2.52-1.279-3.345-.609 1.326-2.056 1.655-3.401 1.169-1.39-.501-2.761-1.74-2.928-3.274-.056-.522.553-.835.959-.511.447.359.721.293 1.183.03.67-.38 1.167-.744 1.994-.688 3.644.237 6.06 3.188 5.816 6.781-.076 1.129-.36 2.116-.807 2.946l.011.01Z" fill="#C7A568"/><path d="M150.697 50.29h-2.03v-4.136c.223.188.457.37.706.537.411.283.852.541 1.324.774m2.335 2.824h-2.03v-2.677c.634.288 1.309.531 2.03.719v1.963-.005Zm2.334 0h-2.03v-1.888c.65.152 1.33.264 2.03.33v1.558Zm1.32 0h-1.015v-1.533c.335.02.675.035 1.015.035v-.708c-2.705 0-5.146-.754-6.907-1.969a8.037 8.037 0 0 1-1.416-1.24v7.647h8.323v-2.232Zm-42.383 0h2.03v-4.135c-.223.188-.457.37-.705.542-.411.283-.853.541-1.325.774v2.824-.005Zm-2.334 0h2.03v-2.677c-.63.288-1.31.531-2.03.719v1.963-.005Zm-2.335 0h2.03v-1.888c-.65.152-1.33.264-2.03.33v1.558Zm-1.32 0h1.015v-1.533c-.334.02-.669.035-1.015.035v-.708c2.706 0 5.147-.754 6.908-1.969a8.037 8.037 0 0 0 1.416-1.24v7.647h-8.324v-2.232Zm8.324 3.654h-8.324v-.896h8.324v.896Zm40.048 0h-8.318v-.896h8.318v.896Zm-14.49-1.427h-19.392v.531h19.392v-.531Zm-1.375-2.227h1.375v-6.134a7.083 7.083 0 0 1-1.375 1.726v4.408Zm-2.335 0h2.03v-4.135a8.07 8.07 0 0 1-.705.537c-.411.283-.853.541-1.325.774v2.824Zm-2.334 0h2.03v-2.677a12.52 12.52 0 0 1-2.03.719v1.963-.005Zm-2.335 0h2.03v-1.888c-.649.152-1.329.264-2.03.33v1.558Zm-2.334 0h2.03v-1.533c-.335.02-.67.035-1.015.035-.345 0-.68-.01-1.015-.035v1.533Zm-2.335 0h2.03V48.73c-.7-.06-1.38-.172-2.03-.329v1.888Zm-2.335 0h2.031v-1.964a12.648 12.648 0 0 1-2.031-.718v2.682Zm-2.334 0h2.03v-2.824c-.472-.233-.914-.49-1.325-.774a8.435 8.435 0 0 1-.705-.542v4.14Zm-1.68 0h1.375v-4.408a7.083 7.083 0 0 1-1.375-1.726v6.134Zm.716-17.53v.146h-.051v1.761h-6.121v-1.76h-.051v-.148h-.066v-.222h-.502l1.279-.37V31.12h-.071v-.177h-.254l.254-.036v-.01h.071l1.786-.258v-.526h-.076v-.223h-.193l.736-.273h.092l.01-1.453a.101.101 0 0 1-.061-.096.1.1 0 0 1 .066-.096v-.43s-.041-.04-.041-.071c0-.03.021-.06.046-.07v-.902s-.041-.035-.041-.07c0-.041.036-.076.077-.076.04 0 .076.03.076.075 0 .03-.021.056-.046.071v.901c.035.015.051.04.051.071a.08.08 0 0 1-.046.07v.431c.041.015.066.05.066.096s-.025.081-.061.096l.01 1.453h.092l.736.273h-.193v.223h-.076v.526l1.786.258h.071v.01l.254.036h-.254v.177h-.071v1.047l1.279.37h-.503v.222h-.065.005Zm24.183 0v.146h-.051v1.761h-6.121v-1.76h-.05v-.148h-.066v-.222h-.503l1.279-.37V31.12h-.071v-.177h-.259l.259-.036v-.01h.071l1.787-.258v-.526h-.077v-.223h-.192l.736-.273h.091l.01-1.453a.101.101 0 0 1-.061-.096.1.1 0 0 1 .066-.096v-.43s-.041-.04-.041-.071c0-.03.021-.06.046-.07v-.902s-.04-.035-.04-.07c0-.041.035-.076.076-.076.04 0 .076.03.076.075 0 .03-.02.056-.046.071v.901c.036.015.051.04.051.071 0 .03-.02.06-.046.07v.431c.041.015.066.05.066.096s-.025.081-.061.096l.01 1.453h.092l.736.273h-.193v.223h-.076v.526l1.786.258h.071v.01l.259.036h-.259v.177h-.071v1.047l1.279.37h-.502v.222h-.066.005Zm-24.899 2.15h-4.791v29.11c0 1.903-.99 2.374-2.588 2.374 0 .41.147.779.446 1.113.3.299.817.445 1.563.445a4.45 4.45 0 0 0 1.751-.334c.483-.222.894-.48 1.229-.815.335.334.746.593 1.263.815.482.223 1.081.334 1.711.334.746 0 1.263-.146 1.563-.445.299-.334.446-.704.446-1.113-1.578 0-2.593-.501-2.593-2.374V53.938h19.392v10.081c0 1.903-.989 2.374-2.588 2.374 0 .41.147.779.446 1.113.3.299.818.445 1.564.445.634 0 1.228-.111 1.751-.334.482-.222.893-.48 1.228-.815.335.334.746.593 1.263.815.483.223 1.082.334 1.711.334.746 0 1.264-.146 1.563-.445.299-.334.447-.704.447-1.113-1.579 0-2.594-.501-2.594-2.374V34.91h-4.791v6.584c0 1.792-1.066 3.427-2.791 4.616-1.761 1.215-4.202 1.969-6.907 1.969-2.706 0-5.147-.755-6.908-1.97-1.725-1.188-2.791-2.823-2.791-4.614V34.91h.005Z" fill="#5281A1"/></g><defs><clipPath id="a"><path fill="#fff" d="M0 0h265v154H0z"/></clipPath></defs></svg>