<svg width="102" height="25" fill="none" xmlns="http://www.w3.org/2000/svg"><g clip-path="url(#a)" fill-rule="evenodd" clip-rule="evenodd" fill="#CAA769"><path d="M52.954 12.317a2.3 2.3 0 0 0-.433.919c-.354 1.547.204 2.647 1.742 3.004 2.244.527 3.936-1.427 4.404-3.471.2-.874.269-1.763.184-2.658-1.085-3.23.901-6.344 3.788-7.76 6.43-3.165 12.566 1.225 17.732 4.802 2.16 1.497 4.4 2.999 6.744 4.184 2.806 1.417 6.101 1.899 9.003.472 2.707-1.33 4.285-3.802 2.841-6.791-.597-1.24-1.617-2.165-2.931-2.421.14 1.552-1.01 2.622-2.498 2.883-1.538.271-3.44-.15-4.405-1.482-.328-.452.065-1.07.607-.98.593.101.817-.11 1.1-.597.413-.708.677-1.311 1.463-1.698 3.48-1.723 7.212-.276 8.889 3.2 2.08 4.31-.03 8.188-3.981 10.132-.284.14-.578.266-.871.371-6.366 2.527-12.323-1.728-17.36-5.214-2.413-1.672-5.061-3.556-7.798-4.631-2.514-.99-4.967-1.206-7.45.02-1.404.693-2.653 2.03-2.683 3.682.105.417.184.839.239 1.266l.075.166c.691 1.431 1.876 1.738 3.294 1.04.309-.151.582-.362.791-.629-.467-.215-.846-.602-1.114-1.05-.622-1.044-.836-2.541-.15-3.61a.562.562 0 0 1 1.026.2c.214 1.04 1.697.05 2.627 1.617.03.05.055.1.08.156l.03.05c.015.026.02.056.02.06.07.141.134.312.169.488.602 2.02-.587 4.074-2.404 4.968-1.498.738-3.17.869-4.593.06l-.06.281c-.786 3.421-3.733 6.194-7.38 5.34a5.436 5.436 0 0 1-1.658-.673c.035.361.065.728.1 1.095.06.678.209 1.346.223 2.034 0 .628-.09 1.24-.229 1.849a7.604 7.604 0 0 1-.433 1.306c-.07.165-.169.371-.268.527l-.12.181h-.617l-.12-.18a3.288 3.288 0 0 1-.268-.528c-.19-.407-.324-.87-.433-1.306a7.705 7.705 0 0 1-.229-1.849c.015-.683.164-1.356.224-2.034.03-.367.065-.729.1-1.095a5.437 5.437 0 0 1-1.658.673c-3.643.854-6.589-1.919-7.38-5.34l-.06-.281c-1.423.814-3.096.678-4.594-.06-1.811-.894-3-2.949-2.404-4.968.04-.176.105-.347.17-.487 0-.005.01-.03.02-.06.01-.02.02-.036.03-.05.024-.051.05-.106.08-.157.93-1.567 2.418-.577 2.627-1.617.1-.497.751-.633 1.025-.2.687 1.069.468 2.566-.15 3.61-.268.448-.646.84-1.114 1.05.209.267.488.478.791.628 1.414.694 2.598.392 3.295-1.04l.075-.165c.054-.427.134-.849.239-1.266-.03-1.653-1.28-2.989-2.683-3.682-2.483-1.22-4.932-1.01-7.45-.02-2.738 1.075-5.385 2.964-7.799 4.631-5.041 3.486-10.994 7.74-17.36 5.214a8.265 8.265 0 0 1-.87-.371C.846 12.11-1.264 8.233.816 3.923 2.494.447 6.221-.995 9.705.728c.786.387 1.05.99 1.463 1.698.284.487.503.698 1.1.598a.623.623 0 0 1 .607.98c-.965 1.33-2.866 1.752-4.404 1.481-1.483-.261-2.638-1.331-2.499-2.883-1.313.256-2.329 1.18-2.93 2.421-1.444 2.989.128 5.455 2.84 6.791 2.902 1.427 6.197.94 9.004-.472 2.344-1.185 4.584-2.687 6.744-4.184 5.165-3.572 11.302-7.962 17.732-4.802 2.886 1.421 4.872 4.53 3.787 7.76a8.229 8.229 0 0 0 .184 2.658c.468 2.044 2.16 3.998 4.405 3.47 1.538-.361 2.095-1.461 1.742-3.003a2.268 2.268 0 0 0-.433-.92c-.314.412-.772.699-1.264.86-1.15.376-2.643.256-3.519-.658a.571.571 0 0 1 .423-.965c1.05.025.423-1.658 2.15-2.225.055-.02.115-.03.164-.04.02-.005.035-.015.055-.015.025-.005.045-.01.065-.01a2.46 2.46 0 0 1 .507-.06c1.324-.091 2.559.567 3.365 1.592.806-1.025 2.045-1.683 3.364-1.593.174 0 .343.025.508.06.025 0 .044.006.07.01.02 0 .034.01.054.016.055.01.11.025.164.04 1.722.567 1.1 2.25 2.15 2.225.503-.01.782.598.423.965-.88.914-2.373 1.034-3.518.658-.493-.161-.95-.447-1.264-.86l.01-.004Z"/><path d="M50.465 17.09v.044c-.085.638-.134 1.321-.2 2.005-.054.683-.208 1.36-.223 1.999 0 .638.1 1.235.219 1.748.13.512.269.94.408 1.235.13.297.239.468.239.468h.184s.11-.171.239-.468c.14-.296.279-.723.408-1.235.12-.513.219-1.11.219-1.748-.015-.638-.17-1.321-.224-2.005-.065-.683-.12-1.36-.194-2.004v-.045c.562.563 1.324.97 2.254 1.19 3.101.729 6.062-1.436 6.888-5.033a9.5 9.5 0 0 0 .165-.884c1.264 1 2.956 1.126 4.708.267 1.796-.885 2.692-2.818 2.184-4.491a2.002 2.002 0 0 0-.154-.437c0-.01-.005-.02-.01-.03 0-.005-.01-.01-.015-.015-.025-.056-.044-.106-.08-.161-.845-1.427-2.383-.291-2.677-1.748-.03-.14-.209-.18-.284-.06-.452.703-.552 1.974.16 3.174.343.578.84.95 1.378 1.02-.209.482-.612.94-1.234 1.24-2.364 1.166-3.474-.472-3.837-1.23a2.41 2.41 0 0 1-.105-.241 9.809 9.809 0 0 0-.253-1.321c0-1.603 1.08-3.2 2.911-4.1 5.226-2.57 10.292.935 15.657 4.647 5.39 3.727 10.96 7.56 16.986 5.17.284-.106.562-.222.836-.358 3.141-1.542 6.017-4.982 3.792-9.584C99.203.77 95.694-.497 92.47 1.09c-1.414.709-1.086 2.618-2.808 2.331-.189-.03-.323.176-.214.332.657.909 2.18 1.642 4.002 1.32 1.423-.25 2.374-1.27 2.13-2.656a2.56 2.56 0 0 0-.08-.297c1.573.08 2.996 1.03 3.813 2.718 1.682 3.486-.463 6.078-3.031 7.339-3.026 1.486-6.445.994-9.362-.478-2.22-1.12-4.489-2.622-6.793-4.214-5.524-3.818-11.233-7.766-17.324-4.767-3.061 1.507-4.51 4.556-3.569 7.304.095.909.04 1.848-.189 2.838-.612 2.662-2.717 4.29-4.897 3.777-.811-.19-2.643-.914-2.046-3.501.155-.678.508-1.175.926-1.492.19.517.657.92 1.294 1.13 1.314.432 2.523.05 3.1-.552a.157.157 0 0 0-.124-.266c-1.468.035-.717-1.729-2.284-2.246-.06-.02-.115-.025-.17-.04-.004 0-.01-.005-.02-.01h-.034a2.109 2.109 0 0 0-.458-.055c-1.329-.096-2.623.658-3.355 1.903-.731-1.245-2.025-1.999-3.354-1.903-.144 0-.298.02-.458.055h-.035c-.005 0-.01.005-.02.01-.06.015-.114.02-.169.04-1.567.517-.816 2.28-2.284 2.245-.144 0-.224.166-.124.267.582.603 1.786.984 3.1.552.637-.21 1.105-.613 1.294-1.13.418.312.767.809.926 1.492.597 2.587-1.235 3.31-2.046 3.501-2.18.512-4.285-1.115-4.897-3.777a8.692 8.692 0 0 1-.189-2.838c.946-2.748-.503-5.797-3.568-7.304-6.092-2.999-11.8.95-17.325 4.767-2.304 1.592-4.573 3.094-6.793 4.214-2.917 1.472-6.34 1.964-9.361.478C3.105 10.916.96 8.319 2.643 4.837c.816-1.692 2.24-2.636 3.812-2.717-.03.096-.065.191-.08.297-.244 1.391.707 2.406 2.13 2.657 1.822.321 3.35-.412 4.002-1.321.114-.156-.025-.362-.214-.332-1.717.287-1.394-1.627-2.807-2.33C6.296-.492 2.792.774 1.179 4.104c-2.22 4.602.657 8.037 3.793 9.584.274.136.557.252.836.357 6.027 2.391 11.596-1.441 16.986-5.169C28.159 5.164 33.225 1.663 38.45 4.23c1.831.9 2.906 2.501 2.911 4.099-.11.432-.194.869-.254 1.32-.03.081-.064.162-.104.242-.363.758-1.473 2.396-3.837 1.23-.622-.306-1.02-.763-1.23-1.24.543-.075 1.036-.442 1.38-1.02.71-1.195.611-2.471.158-3.174a.155.155 0 0 0-.283.06c-.299 1.452-1.832.316-2.678 1.748-.03.055-.05.105-.08.16 0 .006-.01.01-.014.016 0 .01-.005.02-.01.03-.07.146-.125.291-.155.437-.507 1.678.389 3.607 2.185 4.49 1.752.864 3.444.734 4.708-.266.045.292.1.583.165.884.826 3.597 3.787 5.757 6.887 5.034.931-.216 1.693-.628 2.26-1.19h.005Z"/></g><defs><clipPath id="a"><path fill="#fff" d="M0 0h102v25H0z"/></clipPath></defs></svg>