<svg width="433" height="433" fill="none" xmlns="http://www.w3.org/2000/svg"><g opacity=".3" clip-path="url(#a)" fill="#C7A568"><path fill-rule="evenodd" clip-rule="evenodd" d="M45.26 217.947c-11.113 6.36-26.063 7.852-34.651-7.118-4.156-7.256-4.042-14.902-.367-20.941.275.345.55.712.895 1.033 4.501 4.363 10.632 3.399 15.156-1.262 5.787-5.947 6.935-13.456 5.259-18.163-.276-.803-1.378-.803-1.745-.046-3.284 7.095-9.484 1.103-15.662 4.57-13.984 8.013-18.187 24.201-9.989 38.482 11.321 19.747 31.208 17.658 44.825 9.874a35.153 35.153 0 0 0 3.422-2.227c24.02-16.372 23.973-46.634 23.882-75.956-.092-29.183-.207-56.76 22.435-69.733 10.563-6.038 22.275-4.04 27.258 4.684 1.86 3.261 5.098 11.458-5.167 17.313-2.687 1.539-5.374 1.883-7.67 1.47 1.102-2.182.988-4.96-.275-7.67-2.618-5.625-7.533-8.449-11.276-8.518-.643 0-.941.758-.505 1.217 4.593 4.73-3.444 7.6-.344 14.305.115.252.252.46.39.689 0 .023 0 .069.023.092.023.045.069.068.092.114.367.62.758 1.194 1.217 1.654 4.891 6.084 14.237 7.6 22.045 3.122 10.816-6.2 13.939-16.991 7.922-27.484-7.095-12.4-23.193-15.59-37.43-7.44-26.408 15.109-26.293 46.175-26.201 76.231.045 12.537-.161 24.729-1.654 35.751-1.952 14.511-8.772 28.425-21.884 35.934"/><path fill-rule="evenodd" clip-rule="evenodd" d="M152.547 76.506c-12.791.873-26.868-4.34-28.039-21.537-.574-8.358 2.871-15.154 8.841-19.012.092.436.184.895.345 1.332 2.135 5.9 8.083 7.692 14.191 5.487 7.808-2.824 12.125-9.07 12.676-14.029.092-.85-.896-1.331-1.562-.803-6.062 4.936-9.024-3.169-16.097-2.733-16.075 1.08-26.936 13.8-25.811 30.24 1.538 22.708 20.346 29.528 35.984 28.495a38.073 38.073 0 0 0 4.041-.505c28.751-4.225 41.955-31.457 54.699-57.862a955.144 955.144 0 0 1 4.685-9.644V0c-4.088 7.118-7.762 14.764-11.413 22.341-5.442 11.297-10.976 22.158-17.131 31.434-8.106 12.192-20.322 21.721-35.409 22.731Z"/><path fill-rule="evenodd" clip-rule="evenodd" d="M280.43 76.506c12.791.873 26.89-4.34 28.039-21.537.551-8.358-2.871-15.154-8.841-19.012-.092.436-.184.895-.345 1.332-2.135 5.9-8.083 7.692-14.191 5.487-7.808-2.824-12.125-9.07-12.676-14.029-.092-.85.896-1.331 1.561-.803 6.063 4.936 9.025-3.169 16.098-2.733 16.074 1.08 26.936 13.8 25.811 30.24-1.539 22.708-20.346 29.528-35.984 28.495a38.092 38.092 0 0 1-4.042-.505c-28.75-4.225-41.954-31.457-54.699-57.862a955.231 955.231 0 0 0-4.684-9.644V0c4.087 7.118 7.762 14.764 11.413 22.341 5.442 11.297 10.976 22.158 17.13 31.434 8.107 12.192 20.323 21.721 35.41 22.731Z"/><path fill-rule="evenodd" clip-rule="evenodd" d="M387.739 217.947c11.114 6.36 26.063 7.852 34.652-7.118 4.156-7.256 4.041-14.902.367-20.941-.275.345-.551.712-.895 1.033-4.501 4.363-10.632 3.399-15.156-1.262-5.787-5.947-6.935-13.456-5.259-18.163.276-.803 1.378-.803 1.745-.046 3.284 7.095 9.484 1.103 15.661 4.57 13.985 8.036 18.188 24.201 9.99 38.505-11.321 19.747-31.208 17.658-44.825 9.874a35.078 35.078 0 0 1-3.422-2.228c-24.02-16.371-23.974-46.633-23.882-75.955.092-29.183.207-56.76-22.435-69.733-10.563-6.038-22.275-4.04-27.258 4.684-1.86 3.261-5.098 11.458 5.167 17.313 2.687 1.539 5.373 1.883 7.693 1.47-1.103-2.182-.988-4.96.275-7.67 2.618-5.625 7.532-8.449 11.275-8.518.643 0 .942.758.506 1.217-4.593 4.73 3.444 7.6.344 14.305-.115.252-.253.459-.39.689 0 .023 0 .068-.023.091-.023.046-.069.069-.092.115-.368.62-.758 1.194-1.217 1.653-4.891 6.085-14.238 7.601-22.045 3.123-10.839-6.2-13.939-16.991-7.923-27.484 7.096-12.4 23.194-15.59 37.431-7.44 26.408 15.109 26.293 46.175 26.201 76.231-.046 12.537.161 24.729 1.654 35.751 1.952 14.511 8.772 28.425 21.884 35.934"/><path fill-rule="evenodd" clip-rule="evenodd" d="M280.43 76.506c12.791.873 26.89-4.34 28.039-21.537.551-8.358-2.871-15.154-8.841-19.012-.092.436-.184.895-.345 1.332-2.135 5.9-8.083 7.692-14.191 5.487-7.808-2.824-12.125-9.07-12.676-14.029-.092-.85.896-1.331 1.561-.803 6.063 4.936 9.025-3.169 16.098-2.733 16.074 1.08 26.936 13.8 25.811 30.24-1.539 22.708-20.346 29.528-35.984 28.495a38.092 38.092 0 0 1-4.042-.505c-28.75-4.225-41.954-31.457-54.699-57.862a955.231 955.231 0 0 0-4.684-9.644V0c4.087 7.118 7.762 14.764 11.413 22.341 5.442 11.297 10.976 22.158 17.13 31.434 8.107 12.192 20.323 21.721 35.41 22.731Z"/><path fill-rule="evenodd" clip-rule="evenodd" d="M152.547 76.506c-12.791.873-26.868-4.34-28.039-21.537-.574-8.358 2.871-15.154 8.841-19.012.092.436.184.895.345 1.332 2.135 5.9 8.083 7.692 14.191 5.487 7.808-2.824 12.125-9.07 12.676-14.029.092-.85-.896-1.331-1.562-.803-6.062 4.936-9.024-3.169-16.097-2.733-16.075 1.08-26.936 13.8-25.811 30.24 1.538 22.708 20.346 29.528 35.984 28.495a38.073 38.073 0 0 0 4.041-.505c28.751-4.225 41.955-31.457 54.699-57.862a955.144 955.144 0 0 1 4.685-9.644V0c-4.088 7.118-7.762 14.764-11.413 22.341-5.442 11.297-10.976 22.158-17.131 31.434-8.106 12.192-20.322 21.721-35.409 22.731Z"/><path d="M316.943 116.068C291.246 90.375 255.722 74.463 216.5 74.463s-74.746 15.889-100.442 41.605c-25.697 25.694-41.61 61.214-41.61 100.432 0 39.217 15.89 74.738 41.61 100.432 25.696 25.693 61.22 41.605 100.442 41.605 39.222 0 74.746-15.889 100.442-41.605 25.697-25.717 41.61-61.215 41.61-100.432 0-39.218-15.89-74.738-41.609-100.432ZM216.5 66.84c41.334 0 78.765 16.761 105.839 43.832 27.074 27.094 43.837 64.498 43.837 105.828s-16.763 78.756-43.837 105.828c-27.097 27.094-64.505 43.832-105.839 43.832s-78.765-16.761-105.839-43.832C83.564 295.233 66.824 257.83 66.824 216.5s16.763-78.757 43.837-105.828C137.758 83.578 175.166 66.84 216.5 66.84Z"/><path fill-rule="evenodd" clip-rule="evenodd" d="m214.158 70.812-.092-.827c-.344-2.847-.597-5.878-.873-8.908-.229-3.031-.941-6.062-.987-8.91 0-2.847.436-5.487.987-7.76.575-2.273 1.218-4.18 1.838-5.488.597-1.332 1.079-2.09 1.079-2.09h.827s.482.758 1.056 2.09c.62 1.332 1.263 3.215 1.837 5.488.528 2.273.987 4.936.987 7.76-.069 2.848-.757 5.879-.987 8.91-.276 3.03-.528 6.061-.873 8.908l-.092.827M45.26 215.076c-11.113-6.36-26.063-7.852-34.651 7.118-4.156 7.256-4.042 14.902-.367 20.941a7.53 7.53 0 0 1 .895-1.033c4.501-4.363 10.632-3.399 15.156 1.262 5.787 5.947 6.935 13.456 5.259 18.163-.276.803-1.378.826-1.745.046-3.284-7.095-9.484-1.103-15.662-4.57-13.984-8.013-18.187-24.201-9.989-38.482 11.321-19.747 31.208-17.658 44.825-9.874a35.153 35.153 0 0 1 3.422 2.227c24.02 16.372 23.973 46.634 23.882 75.956-.092 29.183-.207 56.76 22.435 69.733 10.563 6.038 22.275 4.041 27.258-4.685 1.86-3.26 5.098-11.457-5.167-17.312-2.687-1.539-5.374-1.883-7.67-1.47 1.102 2.182.988 4.96-.275 7.669-2.618 5.626-7.533 8.45-11.276 8.519-.643 0-.941-.758-.505-1.217 4.593-4.73-3.444-7.577-.344-14.305.115-.252.252-.459.39-.689 0-.023 0-.069.023-.091.023-.046.069-.069.092-.115.367-.62.758-1.194 1.217-1.654 4.891-6.084 14.237-7.577 22.045-3.122 10.816 6.199 13.939 16.991 7.922 27.484-7.095 12.399-23.193 15.591-37.43 7.44-26.408-15.109-26.293-46.175-26.201-76.231.045-12.537-.161-24.729-1.654-35.751-1.952-14.511-8.772-28.425-21.884-35.934"/><path fill-rule="evenodd" clip-rule="evenodd" d="M152.547 356.494c-12.791-.873-26.868 4.339-28.039 21.537-.574 8.358 2.871 15.178 8.841 18.989.092-.436.184-.872.345-1.332 2.135-5.901 8.083-7.692 14.191-5.487 7.808 2.824 12.125 9.069 12.676 14.029.092.849-.896 1.332-1.562.803-6.062-4.936-9.024 3.169-16.097 2.733-16.075-1.079-26.936-13.8-25.811-30.24 1.538-22.708 20.346-29.551 35.984-28.495 1.378.092 2.732.253 4.041.506 28.751 4.224 41.955 31.456 54.699 57.861a942.914 942.914 0 0 0 4.685 9.644v15.935c-4.088-7.118-7.762-14.764-11.413-22.341-5.442-11.297-10.976-22.157-17.131-31.434-8.106-12.192-20.322-21.721-35.409-22.731"/><path fill-rule="evenodd" clip-rule="evenodd" d="M280.43 356.494c12.791-.873 26.89 4.339 28.039 21.537.551 8.358-2.871 15.178-8.841 18.989-.092-.436-.184-.872-.345-1.332-2.135-5.901-8.083-7.692-14.191-5.487-7.808 2.824-12.125 9.069-12.676 14.029-.092.849.896 1.332 1.561.803 6.063-4.936 9.025 3.169 16.098 2.733 16.074-1.079 26.936-13.8 25.811-30.24-1.539-22.708-20.346-29.551-35.984-28.495a32.89 32.89 0 0 0-4.042.506c-28.75 4.224-41.954 31.456-54.699 57.861a943 943 0 0 1-4.684 9.644v15.935c4.087-7.118 7.762-14.764 11.413-22.341 5.442-11.297 10.976-22.157 17.13-31.434 8.107-12.192 20.323-21.721 35.41-22.731"/><path fill-rule="evenodd" clip-rule="evenodd" d="M387.739 215.076c11.114-6.36 26.063-7.852 34.652 7.118 4.156 7.256 4.041 14.902.367 20.941a7.525 7.525 0 0 0-.895-1.033c-4.501-4.363-10.632-3.399-15.156 1.262-5.787 5.947-6.935 13.456-5.259 18.163.276.803 1.378.826 1.745.046 3.284-7.095 9.484-1.103 15.661-4.57 13.985-8.036 18.188-24.224 9.99-38.528-11.321-19.747-31.208-17.657-44.825-9.874a35.078 35.078 0 0 0-3.422 2.228c-24.02 16.371-23.974 46.634-23.882 75.955.092 29.183.207 56.76-22.435 69.733-10.563 6.038-22.275 4.041-27.258-4.684-1.86-3.261-5.098-11.458 5.167-17.313 2.687-1.538 5.373-1.883 7.693-1.47-1.103 2.182-.988 4.96.275 7.669 2.618 5.626 7.532 8.45 11.275 8.519.643 0 .942-.758.506-1.217-4.593-4.73 3.444-7.577.344-14.305-.115-.252-.253-.459-.39-.689 0-.023 0-.068-.023-.091-.023-.046-.069-.069-.092-.115-.368-.62-.758-1.194-1.217-1.653-4.891-6.085-14.238-7.578-22.045-3.123-10.839 6.199-13.939 16.991-7.923 27.484 7.096 12.399 23.194 15.591 37.431 7.44 26.408-15.109 26.293-46.175 26.201-76.231-.046-12.537.161-24.729 1.654-35.75 1.952-14.512 8.772-28.426 21.884-35.935"/><path fill-rule="evenodd" clip-rule="evenodd" d="M280.43 356.494c12.791-.873 26.89 4.339 28.039 21.537.551 8.358-2.871 15.178-8.841 18.989-.092-.436-.184-.872-.345-1.332-2.135-5.901-8.083-7.692-14.191-5.487-7.808 2.824-12.125 9.069-12.676 14.029-.092.849.896 1.332 1.561.803 6.063-4.936 9.025 3.169 16.098 2.733 16.074-1.079 26.936-13.8 25.811-30.24-1.539-22.708-20.346-29.551-35.984-28.495a32.89 32.89 0 0 0-4.042.506c-28.75 4.224-41.954 31.456-54.699 57.861a943 943 0 0 1-4.684 9.644v15.935c4.087-7.118 7.762-14.764 11.413-22.341 5.442-11.297 10.976-22.157 17.13-31.434 8.107-12.192 20.323-21.721 35.41-22.731"/><path fill-rule="evenodd" clip-rule="evenodd" d="M152.547 356.494c-12.791-.873-26.868 4.339-28.039 21.537-.574 8.358 2.871 15.178 8.841 18.989.092-.436.184-.872.345-1.332 2.135-5.901 8.083-7.692 14.191-5.487 7.808 2.824 12.125 9.069 12.676 14.029.092.849-.896 1.332-1.562.803-6.062-4.936-9.024 3.169-16.097 2.733-16.075-1.079-26.936-13.8-25.811-30.24 1.538-22.708 20.346-29.551 35.984-28.495 1.378.092 2.732.253 4.041.506 28.751 4.224 41.955 31.456 54.699 57.861a942.914 942.914 0 0 0 4.685 9.644v15.935c-4.088-7.118-7.762-14.764-11.413-22.341-5.442-11.297-10.976-22.157-17.131-31.434-8.106-12.192-20.322-21.721-35.409-22.731m61.611 5.717-.092.827c-.344 2.847-.597 5.878-.873 8.908-.229 3.031-.941 6.062-.987 8.909 0 2.848.436 5.488.987 7.761.575 2.273 1.218 4.156 1.838 5.488.597 1.332 1.079 2.089 1.079 2.089h.827s.482-.757 1.056-2.089c.62-1.332 1.263-3.215 1.837-5.488.528-2.273.987-4.936.987-7.761-.069-2.847-.757-5.878-.987-8.909-.276-3.03-.528-6.061-.873-8.908l-.092-.827m-92.933-145.803c0-57.311 24.341-102.222 55.434-102.222a3.817 3.817 0 0 1 3.812 3.811c0 2.113-1.7 3.789-3.812 3.789-12.538 0-24.135 10.171-32.769 26.451 1.768 7.485 8.313 23.765 31.437 27.668a108.553 108.553 0 0 1 5.947-13.823 3.806 3.806 0 0 1 5.121-1.63 3.788 3.788 0 0 1 2.067 3.375c0 .597-.138 1.194-.436 1.745-7.854 15.178-11.344 30.883-11.344 50.836 0 22.387 4.546 36.508 11.367 50.859a3.795 3.795 0 0 1-1.792 5.052c-1.883.895-4.156.091-5.074-1.791a148.158 148.158 0 0 1-5.81-13.984c-23.538 3.927-29.945 20.734-31.575 28.036 8.634 16.44 20.277 26.703 32.861 26.703 2.089 0 3.812 1.7 3.812 3.812s-1.7 3.789-3.812 3.789c-31.07 0-55.434-45.004-55.434-102.476Zm8.68-19.448c-.643 5.695-.987 11.573-1.056 17.543h40.255c.023-2.779.137-5.465.298-8.083-12.538-.344-27.9-2.457-39.497-9.437v-.023Zm39.773 5.672c.298-3.376.735-6.659 1.286-9.851-20.576-1.125-32.011-10.378-37.408-16.646a159.782 159.782 0 0 0-3.146 16.715c11.528 7.623 28.199 9.483 39.268 9.782Zm-40.829 15.682c.069 5.855.39 11.618.987 17.198 11.597-7.026 26.982-9.139 39.52-9.483-.16-2.457-.229-5.051-.252-7.738h-40.255v.023Zm1.492 21.331c.781 5.809 1.814 11.412 3.123 16.762 5.351-6.269 16.81-15.591 37.477-16.739-.551-3.1-.942-6.406-1.24-9.85-11.092.298-27.809 2.158-39.337 9.804l-.023.023Zm11.115-86.54c-2.572 5.602-4.846 11.779-6.706 18.437 3.927 5.304 14.812 16.418 36.926 17.497a98.696 98.696 0 0 1 2.434-9.483c-21.035-3.766-29.417-17.405-32.654-26.451Zm32.654 99.811c-.942-3.007-1.723-6.199-2.434-9.482-22.505 1.079-33.252 12.307-37.041 17.611 1.861 6.727 4.111 12.973 6.706 18.644 3.169-9.047 11.527-22.938 32.769-26.75v-.023Z"/><path fill-rule="evenodd" clip-rule="evenodd" d="M212.688 216.018v-61.467c-6.636 9.322-16.557 13.134-25.65 13.134-14.513 0-29.21-9.437-29.21-27.508 0-16.899 12.607-26.015 24.479-26.015 10.426 0 18.899 8.473 18.899 18.897 0 8.749-7.118 15.866-15.867 15.866a3.797 3.797 0 0 1-3.789-3.811 3.778 3.778 0 0 1 3.789-3.789c4.569 0 8.266-3.719 8.266-8.266 0-6.222-5.074-11.296-11.298-11.296-8.198 0-16.878 6.452-16.878 18.414 0 13.662 11.206 19.908 21.609 19.908 15.845 0 25.65-12.79 25.65-33.386V67.253h7.601v148.765c0 2.089-1.699 3.788-3.812 3.788a3.792 3.792 0 0 1-3.789-3.788Z"/><path fill-rule="evenodd" clip-rule="evenodd" d="M212.688 365.747v-59.446c0-20.596-9.828-33.386-25.673-33.386-10.403 0-21.609 6.223-21.609 19.908 0 11.962 8.703 18.414 16.878 18.414 6.224 0 11.299-5.074 11.299-11.296 0-4.57-3.721-8.266-8.267-8.266a3.798 3.798 0 0 1-3.812-3.789 3.818 3.818 0 0 1 3.812-3.812c8.749 0 15.867 7.118 15.867 15.867 0 10.424-8.473 18.874-18.899 18.874-11.872 0-24.479-9.116-24.479-26.015 0-18.048 14.697-27.508 29.21-27.508 9.093 0 19.037 3.789 25.673 13.134v-61.467a3.777 3.777 0 0 1 3.789-3.788 3.792 3.792 0 0 1 3.789 3.788v148.742m86.779-149.316c0-57.311-24.341-102.222-55.434-102.222a3.797 3.797 0 0 0-3.789 3.811 3.778 3.778 0 0 0 3.789 3.789c12.538 0 24.135 10.171 32.769 26.451-1.768 7.485-8.313 23.765-31.437 27.668-1.654-4.707-3.582-9.276-5.948-13.823a3.806 3.806 0 0 0-5.121-1.63 3.789 3.789 0 0 0-2.066 3.375c0 .597.138 1.194.436 1.745 7.854 15.178 11.344 30.883 11.344 50.836 0 22.387-4.547 36.508-11.367 50.859a3.794 3.794 0 0 0 1.791 5.052 3.802 3.802 0 0 0 5.052-1.791 148.158 148.158 0 0 0 5.81-13.984c23.538 3.927 29.944 20.734 31.598 28.036-8.635 16.44-20.277 26.703-32.884 26.703-2.09 0-3.789 1.7-3.789 3.812a3.778 3.778 0 0 0 3.789 3.789c31.07 0 55.434-45.004 55.434-102.476m-8.68-19.448a181.82 181.82 0 0 1 1.056 17.543h-40.255a152.67 152.67 0 0 0-.298-8.083c12.538-.344 27.9-2.457 39.497-9.437v-.023Zm-39.773 5.672a120.237 120.237 0 0 0-1.286-9.851c20.575-1.125 32.011-10.378 37.408-16.646a160.042 160.042 0 0 1 3.146 16.715c-11.528 7.623-28.2 9.483-39.268 9.782Zm40.829 15.682c-.069 5.855-.39 11.618-.987 17.198-11.597-7.026-26.982-9.139-39.521-9.483.161-2.457.23-5.051.276-7.738h40.255l-.023.023Zm-1.493 21.331a154.702 154.702 0 0 1-3.123 16.762c-5.35-6.269-16.809-15.591-37.476-16.739.551-3.1.941-6.406 1.24-9.85 11.091.298 27.809 2.158 39.336 9.804l.023.023Zm-11.114-86.54c2.572 5.602 4.845 11.779 6.705 18.437-3.926 5.304-14.811 16.418-36.925 17.497a106.317 106.317 0 0 0-2.434-9.483c21.012-3.766 29.416-17.405 32.654-26.451Zm-32.654 99.811c.941-3.007 1.722-6.199 2.411-9.482 22.504 1.079 33.228 12.307 37.04 17.611-1.86 6.727-4.11 12.973-6.705 18.644-3.169-9.047-11.528-22.938-32.769-26.75l.023-.023Z"/><path fill-rule="evenodd" clip-rule="evenodd" d="M220.289 225.799v-71.248c6.637 9.322 16.626 13.134 25.696 13.134 14.513 0 29.21-9.437 29.21-27.508 0-16.899-12.607-26.015-24.479-26.015-10.426 0-18.899 8.473-18.899 18.897 0 8.749 7.118 15.866 15.868 15.866a3.798 3.798 0 0 0 3.789-3.811c0-2.112-1.7-3.789-3.789-3.789-4.57 0-8.267-3.719-8.267-8.266 0-6.222 5.075-11.296 11.298-11.296 8.198 0 16.901 6.452 16.901 18.414 0 13.662-11.206 19.908-21.609 19.908-15.845 0-25.696-12.79-25.696-33.386V67.253h-7.601v158.546a3.792 3.792 0 0 0 3.789 3.789 3.792 3.792 0 0 0 3.789-3.789Z"/><path fill-rule="evenodd" clip-rule="evenodd" d="M220.289 365.747v-59.446c0-20.596 9.828-33.386 25.673-33.386 10.403 0 21.609 6.223 21.609 19.908 0 11.962-8.703 18.414-16.878 18.414-6.223 0-11.298-5.074-11.298-11.296 0-4.57 3.72-8.266 8.267-8.266 2.112 0 3.812-1.7 3.812-3.789 0-2.089-1.7-3.812-3.812-3.812-8.75 0-15.868 7.118-15.868 15.867 0 10.424 8.473 18.874 18.899 18.874 11.872 0 24.479-9.116 24.479-26.015 0-18.048-14.697-27.508-29.21-27.508-9.093 0-19.036 3.789-25.673 13.134v-61.467a3.777 3.777 0 0 0-3.789-3.788 3.792 3.792 0 0 0-3.789 3.788v148.742m38.9-148.65c11.872 1.929 61.29 4.914 72.909 5.143 3.766 0 7.28-.574 10.311-1.308 3.008-.781 5.534-1.608 7.28-2.434 1.331-.597 2.434-1.217 3.651-1.952a29.226 29.226 0 0 0-3.651-1.952c-1.746-.826-4.272-1.653-7.28-2.434-3.031-.711-6.545-1.308-10.311-1.308-11.688.229-61.014 3.214-72.909 5.143m-70.245 1.102c-11.872 1.929-61.267 4.914-72.909 5.143-3.766 0-7.28-.574-10.311-1.308-3.008-.781-5.534-1.608-7.28-2.434-1.331-.597-2.434-1.217-3.65-1.952a29.172 29.172 0 0 1 3.65-1.952c1.746-.826 4.272-1.653 7.28-2.434 3.031-.711 6.545-1.308 10.311-1.308 11.665.229 61.014 3.214 72.909 5.143"/></g><defs><clipPath id="a"><path fill="#fff" transform="rotate(90 216.5 216.5)" d="M0 0h433v433H0z"/></clipPath></defs></svg>