<svg width="54" height="42" fill="none" xmlns="http://www.w3.org/2000/svg"><path d="M50.49 15.44 41.261 5.299c-1.826-1.826-4.801-1.828-6.645.015a4.594 4.594 0 0 0-1.187 2.03 4.701 4.701 0 0 0-7.367 2.452 4.703 4.703 0 0 0-7.35 2.408l-4.35-4.35c-1.827-1.826-4.802-1.828-6.645.015a4.692 4.692 0 0 0 0 6.63l16.71 16.71-9.91 1.557a5.498 5.498 0 0 0-4.699 5.417 3.686 3.686 0 0 0 3.682 3.682h23.144a13.41 13.41 0 0 0 9.546-3.955l3.86-3.86A13.388 13.388 0 0 0 54 24.514c0-3.363-1.247-6.585-3.51-9.075Zm-2.175 16.873-3.86 3.861a10.973 10.973 0 0 1-7.811 3.235H13.5c-.678 0-1.227-.55-1.227-1.227a3.037 3.037 0 0 1 2.609-2.99l12.31-1.934a1.228 1.228 0 0 0 .678-2.079L9.45 12.763a2.245 2.245 0 0 1 3.174-3.174l12.28 12.28a1.228 1.228 0 1 0 1.733-1.738l-5.014-5.014a2.24 2.24 0 0 1 .015-3.174 2.24 2.24 0 0 1 3.159 0l5.017 5.017a1.228 1.228 0 1 0 1.733-1.738l-2.56-2.56a2.24 2.24 0 0 1 .014-3.174 2.24 2.24 0 0 1 3.16 0l2.572 2.572c.004.003.002.003.002.003l.002.002.003.003.002.002h.003c.002 0 .002.003.002.003a1.228 1.228 0 0 0 1.71-1.76l-.105-.106a2.223 2.223 0 0 1-.655-1.58c0-.597.23-1.157.668-1.594.873-.868 2.287-.866 3.12-.041l9.19 10.1a11.022 11.022 0 0 1 2.868 7.423c0 2.945-1.146 5.714-3.23 7.798Z" fill="#CAA769"/><path d="M21.1 6.649C19.311 2.694 15.364.137 11.044.137 4.956.137 0 5.092 0 11.182c0 4.32 2.558 8.267 6.512 10.056a1.234 1.234 0 0 0 1.625-.613A1.232 1.232 0 0 0 7.523 19c-3.078-1.392-5.068-4.46-5.068-7.818 0-4.737 3.853-8.59 8.59-8.59 3.358 0 6.427 1.99 7.818 5.068A1.227 1.227 0 1 0 21.1 6.649Z" fill="#CAA769"/></svg>